<svg width="96" height="96" viewBox="0 0 96 96" fill="none" xmlns="http://www.w3.org/2000/svg">
<path d="M38.1252 74.1524C26.7872 70.0534 10.263 63.9009 3.83613 53.0313C2.43116 49.6173 2.17873 46.5511 3.00019 43C10.4468 30.4295 26.4317 24.086 39.7307 19.7969C44.1876 18.7106 46.5353 18.9198 51.0002 20C54.9967 23.0611 56.2243 25.1325 57.0002 30C57.909 29.9536 58.8178 29.9072 59.7541 29.8594C69.8173 29.5704 81.8544 29.5903 89.8674 36.4571C93.9999 41.3843 93.4309 46.8645 93.0002 53C92.1877 56.4375 92.1877 56.4375 90.0002 59C80.0881 64.3183 68.0653 65.3751 57.0002 65C56.7939 65.9075 56.5877 66.815 56.3752 67.75C52.9436 75.8611 45.6783 76.3793 38.1252 74.1524ZM48.8752 66.9375C50.3411 64.4129 51.1052 61.7715 52.0002 59C53.0044 58.9626 54.0085 58.9253 55.0432 58.8867C70.6204 58.3464 70.6204 58.3464 85.0002 53C86.4952 50.01 86.116 47.2996 86.0002 44C85.6702 43.01 85.3402 42.02 85.0002 41C74.1372 36.506 62.6069 35.7768 51.0002 36C50.8455 34.3603 50.8455 34.3603 50.6877 32.6875C49.9493 28.5534 49.9493 28.5534 47.0002 26C40.9458 26.046 34.8605 29.1028 29.5002 31.6875C28.396 32.2127 28.396 32.2127 27.2695 32.7486C20.7249 35.9562 15.1597 39.8405 10.0002 45C9.88771 47.9443 9.88771 47.9443 11.0002 51C17.961 57.6567 39.266 72.3827 48.8752 66.9375Z" fill="white"/>
</svg>
