<svg width="100" height="100" viewBox="0 0 100 100" fill="none" xmlns="http://www.w3.org/2000/svg">
<path d="M23.9178 10.4287C21.8761 10.4287 19.8362 11.2022 18.2903 12.748L12.7484 18.29C9.65561 21.38 9.65669 26.4533 12.7484 29.5449L33.2033 49.9998L12.7484 70.4548C9.65561 73.5447 9.65669 78.618 12.7484 81.7096L18.2903 87.2516C21.3803 90.3444 26.4536 90.3433 29.5452 87.2516L50.0001 66.7967L70.4551 87.2516C73.545 90.3444 78.6183 90.3433 81.7099 87.2516L87.2519 81.7096C90.3447 78.6197 90.3436 73.5464 87.2519 70.4548L66.797 49.9998L87.2519 29.5449C90.3447 26.455 90.3436 21.3817 87.2519 18.29L81.7099 12.748C78.62 9.6553 73.5467 9.65638 70.4551 12.748L50.0001 33.203L29.5452 12.748C28.0003 11.2017 25.9594 10.4287 23.9178 10.4287ZM23.9178 14.5669C24.884 14.5669 25.8505 14.9446 26.5993 15.694L48.5272 37.6219C48.9179 38.0125 49.4477 38.2319 50.0001 38.2319C50.5526 38.2319 51.0824 38.0125 51.4731 37.6219L73.401 15.694C74.901 14.194 77.2664 14.1951 78.764 15.694L84.306 21.236C85.806 22.736 85.8049 25.1014 84.306 26.599L62.3781 48.5269C61.9875 48.9176 61.7681 49.4474 61.7681 49.9998C61.7681 50.5523 61.9875 51.0821 62.3781 51.4728L84.306 73.4007C85.806 74.9007 85.8049 77.2661 84.306 78.7637L78.764 84.3057C77.264 85.8057 74.8986 85.8046 73.401 84.3057L51.4731 62.3778C51.0824 61.9872 50.5526 61.7678 50.0001 61.7678C49.4477 61.7678 48.9179 61.9872 48.5272 62.3778L26.5993 84.3057C25.0993 85.8057 22.7339 85.8046 21.2363 84.3057L15.6943 78.7637C14.1943 77.2637 14.1954 74.8983 15.6943 73.4007L37.6222 51.4728C38.0128 51.0821 38.2322 50.5523 38.2322 49.9998C38.2322 49.4474 38.0128 48.9176 37.6222 48.5269L15.6943 26.599C14.1943 25.099 14.1954 22.7336 15.6943 21.236L21.2363 15.694C21.9863 14.944 22.9516 14.5669 23.9178 14.5669Z" fill="white"/>
</svg>
