<svg width="683" height="683" viewBox="0 0 683 683" fill="none" xmlns="http://www.w3.org/2000/svg">
<path d="M331.6 156C313.334 159.067 291.467 168.8 276.267 180.4C247.2 202.8 224.267 242.8 217.2 283.467C216 290.667 215.333 292 213.467 291.2C212.267 290.667 208 290 204 289.733C197.867 289.2 196 289.6 192.8 292.133C187.6 296.267 185.333 302.4 185.333 312.533C185.333 331.867 196.933 354 214.4 368C219.2 371.867 221.067 374.667 224.667 384C246.267 440 292.8 490.933 344.4 515.333C367.867 526.4 386.134 529.467 394.667 523.6C403.067 518 404.267 514.267 405.467 489.467C407.334 447.467 416 420 439.067 383.467C447.2 370.533 447.467 370.267 455.334 367.467C479.467 358.8 501.6 333.067 501.867 313.467C502 304.4 499.2 299.333 492.667 296.533C487.467 294.4 479.867 294.133 473.867 295.867L469.734 297.067L468.934 281.467C467.467 255.067 460.934 232.667 448.534 211.333C440.267 197.067 420.534 177.467 406.667 169.733C384 157.067 356 152 331.6 156ZM376.667 180C402.267 188 424.4 208.267 436.267 234.533C440.8 244.267 446.667 266 446.667 272.667C446.667 278.8 441.2 293.867 433.867 308.133C405.734 362.533 349.734 395.067 294 389.333C278.8 387.733 268.667 385.333 254.4 379.733L244 375.867L241.467 367.6C236.4 350.8 235.333 343.467 235.467 322C235.467 299.067 237.467 285.733 243.467 266.533C258.267 219.467 290.134 187.067 330.134 178.133C342.8 175.2 364.267 176.133 376.667 180Z" fill="#E8E8E8"/>
<path d="M306 229.333C304 231.6 303.734 233.333 304.534 241.333C305.867 255.067 303.067 263.733 294.534 272.133C287.467 279.067 286.267 283.333 290.4 287.067C293.734 290.133 297.334 289.867 302.267 286.267C315.734 276.267 322.534 258.4 320 239.733C318.267 227.867 311.734 222.933 306 229.333Z" fill="#E8E8E8"/>
<path d="M365.467 229.2C359.734 234.933 360 257.867 365.867 269.733C369.867 278 381.2 289.333 385.334 289.333C390.667 289.333 393.334 286.8 393.334 282C393.334 278.4 392.4 276.8 388.934 274.133C379.334 266.8 375.2 253.467 377.734 238.4C378.667 233.067 378.4 231.733 376.134 229.467C372.667 226 368.8 225.867 365.467 229.2Z" fill="#E8E8E8"/>
<path d="M332.533 287.867C326.933 291.333 321.333 302.933 320.4 313.067C318.4 334.4 331.333 352.4 345.467 348.133C355.733 345.067 361.733 333.867 361.867 317.333C362 307.467 361.467 305.067 358.133 298.267C352.133 286 342.133 282 332.533 287.867Z" fill="#E8E8E8"/>
<path d="M126.8 202.267C122.534 206 37.3335 345.467 37.3335 348.8C37.3335 350.533 38.8002 353.6 40.5335 355.6L43.7335 359.333L88.5335 359.733L133.334 360.133V404V447.867L136.4 451.467C138.667 454.133 140.8 455.067 144 455.067C147.2 455.067 149.334 454.133 151.6 451.467L154.667 447.867V369.867V291.867L151.334 288.667C149.334 286.533 146.534 285.333 144 285.333C141.467 285.333 138.667 286.533 136.667 288.667C133.334 291.867 133.334 292.267 133.334 315.333V338.667H100.533C73.2002 338.667 67.8668 338.4 68.4002 336.8C68.8002 335.867 85.0668 309.067 104.533 277.467C124.134 245.733 140.934 218.133 142 216C144.8 210.533 144.534 207.067 140.667 203.333C136.8 199.333 130.8 198.933 126.8 202.267Z" fill="#E8E8E8"/>
<path d="M617.467 202.267C613.2 206 528 345.467 528 348.8C528 350.533 529.467 353.6 531.2 355.6L534.4 359.333L579.2 359.733L624 360.133V404V447.867L627.067 451.467C629.333 454.133 631.467 455.067 634.667 455.067C637.867 455.067 640 454.133 642.267 451.467L645.333 447.867V369.867V291.867L642 288.667C640 286.533 637.2 285.333 634.667 285.333C632.133 285.333 629.333 286.533 627.333 288.667C624 291.867 624 292.267 624 315.333V338.667H591.2C563.867 338.667 558.533 338.4 559.067 336.8C559.467 335.867 575.733 309.067 595.2 277.467C614.8 245.733 631.6 218.133 632.667 216C635.467 210.533 635.2 207.067 631.333 203.333C627.467 199.333 621.467 198.933 617.467 202.267Z" fill="#E8E8E8"/>
</svg>
