<svg width="683" height="536" viewBox="0 0 683 536" fill="none" xmlns="http://www.w3.org/2000/svg">
<g clip-path="url(#clip0_89_91)">
<path d="M331.6 9.00001C313.334 12.0667 291.467 21.8 276.267 33.4C247.2 55.8 224.267 95.8 217.2 136.467C216 143.667 215.333 145 213.467 144.2C212.267 143.667 208 143 204 142.733C197.867 142.2 196 142.6 192.8 145.133C187.6 149.267 185.333 155.4 185.333 165.533C185.333 184.867 196.933 207 214.4 221C219.2 224.867 221.067 227.667 224.667 237C246.267 293 292.8 343.933 344.4 368.333C367.867 379.4 386.134 382.467 394.667 376.6C403.067 371 404.267 367.267 405.467 342.467C407.334 300.467 416 273 439.067 236.467C447.2 223.533 447.467 223.267 455.334 220.467C479.467 211.8 501.6 186.067 501.867 166.467C502 157.4 499.2 152.333 492.667 149.533C487.467 147.4 479.867 147.133 473.867 148.867L469.734 150.067L468.934 134.467C467.467 108.067 460.934 85.6667 448.534 64.3333C440.267 50.0667 420.534 30.4667 406.667 22.7333C384 10.0667 356 5.00001 331.6 9.00001ZM376.667 33C402.267 41 424.4 61.2667 436.267 87.5333C440.8 97.2667 446.667 119 446.667 125.667C446.667 131.8 441.2 146.867 433.867 161.133C405.734 215.533 349.734 248.067 294 242.333C278.8 240.733 268.667 238.333 254.4 232.733L244 228.867L241.467 220.6C236.4 203.8 235.333 196.467 235.467 175C235.467 152.067 237.467 138.733 243.467 119.533C258.267 72.4667 290.134 40.0667 330.134 31.1333C342.8 28.2 364.267 29.1333 376.667 33Z" fill="#E8E8E8"/>
<path d="M306 82.3334C304 84.6001 303.734 86.3334 304.534 94.3334C305.867 108.067 303.067 116.733 294.534 125.133C287.467 132.067 286.267 136.333 290.4 140.067C293.734 143.133 297.334 142.867 302.267 139.267C315.734 129.267 322.534 111.4 320 92.7334C318.267 80.8667 311.734 75.9334 306 82.3334Z" fill="#E8E8E8"/>
<path d="M365.467 82.2C359.734 87.9334 360 110.867 365.867 122.733C369.867 131 381.2 142.333 385.334 142.333C390.667 142.333 393.334 139.8 393.334 135C393.334 131.4 392.4 129.8 388.934 127.133C379.334 119.8 375.2 106.467 377.734 91.4C378.667 86.0667 378.4 84.7334 376.134 82.4667C372.667 79 368.8 78.8667 365.467 82.2Z" fill="#E8E8E8"/>
<path d="M332.533 140.867C326.933 144.333 321.333 155.933 320.4 166.067C318.4 187.4 331.333 205.4 345.467 201.133C355.733 198.067 361.733 186.867 361.867 170.333C362 160.467 361.467 158.067 358.133 151.267C352.133 139 342.133 135 332.533 140.867Z" fill="#E8E8E8"/>
<path d="M126.8 55.2666C122.534 59 37.3335 198.467 37.3335 201.8C37.3335 203.533 38.8002 206.6 40.5335 208.6L43.7335 212.333L88.5335 212.733L133.334 213.133V257V300.867L136.4 304.467C138.667 307.133 140.8 308.067 144 308.067C147.2 308.067 149.334 307.133 151.6 304.467L154.667 300.867V222.867V144.867L151.334 141.667C149.334 139.533 146.534 138.333 144 138.333C141.467 138.333 138.667 139.533 136.667 141.667C133.334 144.867 133.334 145.267 133.334 168.333V191.667H100.533C73.2002 191.667 67.8668 191.4 68.4002 189.8C68.8002 188.867 85.0668 162.067 104.533 130.467C124.134 98.7333 140.934 71.1333 142 69C144.8 63.5333 144.534 60.0666 140.667 56.3333C136.8 52.3333 130.8 51.9333 126.8 55.2666Z" fill="#E8E8E8"/>
<path d="M617.467 55.2666C613.2 59 528 198.467 528 201.8C528 203.533 529.467 206.6 531.2 208.6L534.4 212.333L579.2 212.733L624 213.133V257V300.867L627.067 304.467C629.333 307.133 631.467 308.067 634.667 308.067C637.867 308.067 640 307.133 642.267 304.467L645.333 300.867V222.867V144.867L642 141.667C640 139.533 637.2 138.333 634.667 138.333C632.133 138.333 629.333 139.533 627.333 141.667C624 144.867 624 145.267 624 168.333V191.667H591.2C563.867 191.667 558.533 191.4 559.067 189.8C559.467 188.867 575.733 162.067 595.2 130.467C614.8 98.7333 631.6 71.1333 632.667 69C635.467 63.5333 635.2 60.0666 631.333 56.3333C627.467 52.3333 621.467 51.9333 617.467 55.2666Z" fill="#E8E8E8"/>
</g>
<defs>
<clipPath id="clip0_89_91">
<rect width="682.667" height="682.667" fill="white" transform="translate(0 -147)"/>
</clipPath>
</defs>
</svg>
