<svg xmlns="http://www.w3.org/2000/svg" xmlns:xlink="http://www.w3.org/1999/xlink" viewBox="0,0,256,256" width="100px" height="100px" fill-rule="nonzero"><g fill="#dedede" fill-rule="nonzero" stroke="none" stroke-width="1" stroke-linecap="butt" stroke-linejoin="miter" stroke-miterlimit="10" stroke-dasharray="" stroke-dashoffset="0" font-family="none" font-weight="none" font-size="none" text-anchor="none" style="mix-blend-mode: normal"><g transform="scale(5.12,5.12)"><path d="M29.625,2c-7.229,0 -10.75458,3.60195 -11.89258,7.75195c-0.962,-0.982 -2.42645,-1.75195 -4.56445,-1.75195c-3.568,0 -7.16797,2.087 -7.16797,6.75c0,1.868 1.10386,3.62464 2.63086,4.55664c-1.268,0.936 -2.63086,2.40336 -2.63086,4.69336c0,1.528 0.46133,2.71314 1.11133,3.61914c0.791,-0.393 1.68667,-0.61914 2.63867,-0.61914c0.832,0 1.6698,0.13639 2.4668,0.40039c0.736,-0.264 1.5112,-0.40039 2.2832,-0.40039c0.861,0 1.709,0.16166 2.5,0.47266c0.791,-0.311 1.639,-0.47266 2.5,-0.47266c0.861,0 1.709,0.16166 2.5,0.47266c0.791,-0.311 1.639,-0.47266 2.5,-0.47266c0.861,0 1.709,0.16166 2.5,0.47266c0.791,-0.311 1.639,-0.47266 2.5,-0.47266c0.861,0 1.709,0.16166 2.5,0.47266c0.791,-0.311 1.639,-0.47266 2.5,-0.47266c0.772,0 1.5462,0.13639 2.2832,0.40039c0.796,-0.264 1.6348,-0.40039 2.4668,-0.40039c1.314,0 2.52123,0.42863 3.49023,1.14063c0.076,-0.086 0.16825,-0.20223 0.28125,-0.36523c0.973,-1.422 0.97852,-2.89239 0.97852,-3.52539c0,-3.132 -1.25636,-4.95516 -2.69336,-5.78516c0.617,-1.87 0.69336,-4.35384 0.69336,-5.46484c0,-6.683 -4.857,-11 -12.375,-11zM17.5,16c1.381,0 2.5,1.119 2.5,2.5c0,1.381 -1.119,2.5 -2.5,2.5c-1.381,0 -2.5,-1.119 -2.5,-2.5c0,-1.381 1.119,-2.5 2.5,-2.5zM33.5,16c1.381,0 2.5,1.119 2.5,2.5c0,1.381 -1.119,2.5 -2.5,2.5c-1.381,0 -2.5,-1.119 -2.5,-2.5c0,-1.381 1.119,-2.5 2.5,-2.5zM18,17c-0.55228,0 -1,0.44772 -1,1c0,0.55228 0.44772,1 1,1c0.55228,0 1,-0.44772 1,-1c0,-0.55228 -0.44772,-1 -1,-1zM34,17c-0.55228,0 -1,0.44772 -1,1c0,0.55228 0.44772,1 1,1c0.55228,0 1,-0.44772 1,-1c0,-0.55228 -0.44772,-1 -1,-1zM23,21h5c0.552,0 1,0.448 1,1c0,1.657 -1.343,3 -3,3h-1c-1.657,0 -3,-1.343 -3,-3c0,-0.552 0.448,-1 1,-1zM9.75,29c-2.068,0 -3.75,1.57 -3.75,3.5c0,0.09 0.01116,0.17963 0.03516,0.26563l4,14.5c0.12,0.433 0.51484,0.73438 0.96484,0.73438h27c0.45,0 0.84484,-0.30138 0.96484,-0.73437l4,-14.5c0.024,-0.086 0.03516,-0.17562 0.03516,-0.26562c0,-1.93 -1.682,-3.5 -3.75,-3.5c-0.918,0 -1.77395,0.22141 -2.50195,0.56641c-0.667,-0.352 -1.43305,-0.56641 -2.24805,-0.56641c-0.917,0 -1.78,0.25831 -2.5,0.69531c-0.72,-0.437 -1.583,-0.69531 -2.5,-0.69531c-0.917,0 -1.78,0.25831 -2.5,0.69531c-0.72,-0.437 -1.583,-0.69531 -2.5,-0.69531c-0.917,0 -1.78,0.25831 -2.5,0.69531c-0.72,-0.437 -1.583,-0.69531 -2.5,-0.69531c-0.917,0 -1.78,0.25831 -2.5,0.69531c-0.72,-0.437 -1.583,-0.69531 -2.5,-0.69531c-0.815,0 -1.58105,0.21441 -2.24805,0.56641c-0.728,-0.345 -1.58395,-0.56641 -2.50195,-0.56641zM9.75,31c1.315,0 2.1422,0.56272 2.4082,0.88672l2.53711,14.11328h-2.93359l-3.75586,-13.61523c0.072,-0.762 0.84114,-1.38477 1.74414,-1.38477zM19.5,31c1.203,0 2.242,0.763 2.5,1.625c-0.007,0 0.46875,13.375 0.46875,13.375h-3.82812l-1.49023,-13.61914c0.343,-0.755 1.26361,-1.38086 2.34961,-1.38086zM29.5,31c1.094,0 2.01452,0.63067 2.35352,1.38867l-1.44336,13.61133h-3.87891c0,0 0.47575,-13.376 0.46875,-13.375c0.255,-0.863 1.29,-1.625 2.5,-1.625zM39.25,31c0.903,0 1.67214,0.62277 1.74414,1.38477l-3.75586,13.61523h-2.93359l2.53516,-14.11328c0.267,-0.324 1.09516,-0.88672 2.41016,-0.88672z"></path></g></g></svg>