<svg width="108" height="108" viewBox="0 0 108 108" fill="none" xmlns="http://www.w3.org/2000/svg">
<path d="M54 0C83.8234 0 108 24.1766 108 54C108 83.8234 83.8234 108 54 108C24.1766 108 0 83.8234 0 54C0 24.1766 24.1766 0 54 0ZM54.3584 27C52.722 27 51.1508 27.634 49.9834 28.7646L32.7686 45.4541C31.6309 46.6071 30.9959 48.1531 31 49.7617C31.0041 51.3704 31.6464 52.9142 32.79 54.0615C33.9336 55.2088 35.488 55.8684 37.1191 55.9004C38.7503 55.9323 40.3296 55.334 41.5186 54.2324L48.2383 47.7275L48.3652 73.8936C48.3718 74.7019 48.5395 75.5018 48.8594 76.2461C49.1792 76.9903 49.6452 77.6655 50.2295 78.2324C50.8138 78.7992 51.5059 79.2466 52.2656 79.5498C53.0255 79.8531 53.8384 80.0065 54.6582 80C55.478 79.9935 56.289 79.8281 57.0439 79.5127C57.7986 79.1974 58.4827 78.7381 59.0576 78.1621C59.6326 77.586 60.0869 76.9035 60.3945 76.1543C60.7021 75.4051 60.8572 74.6032 60.8506 73.7949L60.7285 47.9775L67.5449 54.5771C68.7396 55.6506 70.3101 56.2257 71.9258 56.1816C73.5413 56.1375 75.0764 55.4776 76.209 54.3408C77.3417 53.2039 77.9841 51.6786 78 50.085C78.0159 48.4915 77.4046 46.9535 76.2949 45.7949L58.7334 28.7646C57.566 27.6339 55.9949 27 54.3584 27Z" fill="#FBAF37"/>
</svg>
