<svg width="139" height="43" viewBox="0 0 139 43" fill="none" xmlns="http://www.w3.org/2000/svg">
<g clip-path="url(#clip0_1_14777)">
<path d="M31.5431 39.1646L28.2223 41.607H28.2183V41.611C25.8529 41.7048 23.8 41.7407 23.6297 41.7447H23.6097C23.5777 41.7447 21.3525 41.7407 21.3164 41.7387C21.4606 41.7127 23.5136 41.4015 23.6538 41.3735C25.1519 41.0762 26.608 40.7908 27.9459 40.4456C27.952 40.4456 27.958 40.4436 27.964 40.4416C29.2438 40.0705 30.4155 39.6455 31.475 39.1685C31.493 39.1685 31.5131 39.1646 31.5331 39.1646H31.5431Z" fill="#25837F"/>
<path d="M66.5008 37.9795C66.2544 37.3989 65.5795 37.1275 64.9966 37.3729C64.6501 37.5206 64.3056 37.6603 63.9672 37.79C54.0188 41.6991 48.8334 39.6258 46.5982 37.9955C46.2597 37.7501 45.9552 37.4927 45.6808 37.2273C50.1252 34.9844 57.6361 30.8458 61.3033 26.8329C62.5171 25.508 62.8736 23.6362 62.2347 21.9501C61.5917 20.2519 60.0736 19.0766 58.271 18.8771C55.4489 18.5638 51.0065 19.0666 45.8551 23.2312C43.1993 25.3803 41.5048 28.4932 41.2004 31.7777C41.0562 33.3361 41.4427 34.9684 42.2519 36.451C40.0287 37.5745 37.6653 38.3647 35.2178 38.8057C35.2138 38.8057 35.2078 38.8057 35.2038 38.8097C34.4367 38.9593 33.0627 39.075 31.5465 39.1648H31.5365C29.4815 40.2304 26.9339 41.0585 23.9376 41.6532C24.0557 41.6931 24.1799 41.715 24.3081 41.715H24.3281C24.4823 41.711 26.1608 41.6831 28.2217 41.6073H28.2257C30.8775 41.5135 34.1563 41.3399 35.6344 41.0545C38.4104 40.5517 41.0822 39.6398 43.5858 38.3407C44.0745 38.8895 44.6273 39.3963 45.2402 39.8393C47.4013 41.4157 50.1272 42.2458 53.3459 42.3117C53.4761 42.3117 53.6123 42.3157 53.7424 42.3157C57.2074 42.3157 61.1371 41.4237 65.4373 39.6597C65.5875 39.6018 65.7357 39.538 65.8859 39.4761C66.4728 39.2307 66.7452 38.5582 66.4988 37.9775L66.5008 37.9795ZM44.2668 35.3775C43.6019 34.1463 43.4016 32.9151 43.4857 31.9872C43.732 29.3133 45.122 26.7691 47.3012 25.0091C51.1727 21.8782 54.5035 21.09 56.879 21.09C57.2855 21.09 57.6661 21.112 58.0126 21.1519C58.97 21.2557 59.7431 21.8583 60.0836 22.7582C60.4221 23.6502 60.2418 24.596 59.6049 25.2964C57.0212 28.122 51.4331 31.7916 44.2648 35.3775H44.2668ZM24.2881 39.4302C23.6552 39.4402 23.1464 39.959 23.1604 40.5936C23.1664 40.9308 23.3187 41.2301 23.557 41.4357C26.6414 40.9129 29.2973 40.1526 31.4764 39.1688C28.2277 39.3584 24.3461 39.4262 24.2881 39.4302Z" fill="#2BA5A5"/>
<path d="M43.5938 38.333L45.6808 37.2295L46.2956 37.7663L43.5938 38.333Z" fill="#25837F"/>
<path d="M65.443 39.6599L64.6378 39.9832L63.9648 37.7822C64.3654 38.4766 64.8601 39.1072 65.443 39.6599Z" fill="#25837F"/>
<path d="M30.235 21.8862C30.0808 21.8344 29.9266 21.7845 29.7724 21.7366C30.6897 21.4792 31.591 21.1619 32.4502 20.7668C36.5481 18.8951 38.7152 15.7083 38.7152 11.5538C38.7152 8.60251 37.2992 4.80916 30.5595 3.51411C28.825 3.18087 26.8742 3.09706 24.7611 3.26268C21.0959 3.55003 17.4026 4.78521 13.2746 7.10991C13.0082 4.15864 12.6577 2.47248 12.6357 2.36074C12.5055 1.74414 11.8946 1.34904 11.2757 1.47875C10.6568 1.60845 10.2603 2.21707 10.3905 2.83366C10.3965 2.86359 10.8171 4.88698 11.0795 8.42691C10.0039 9.10537 8.9544 9.87362 7.95496 10.7057C5.38126 12.8508 3.29626 15.5846 1.92428 18.6117C0.540293 21.6707 -0.118655 25.041 0.0175405 28.3555C0.0235491 28.5091 0.0315607 28.6628 0.0395722 28.8125C0.370048 34.2241 3.03188 39.3025 7.34208 42.7467C7.54838 42.9103 7.80074 42.9981 8.05911 42.9981C8.17127 42.9981 8.28143 42.9822 8.39359 42.9482C8.75812 42.8365 9.04253 42.5571 9.15469 42.194C12.836 30.4966 13.5891 20.3138 13.573 13.8306C13.569 12.2981 13.523 10.9013 13.4589 9.64813C17.6749 7.13386 21.3482 5.82484 24.9414 5.53949C26.8481 5.38984 28.5927 5.46167 30.1269 5.755C34.359 6.57114 36.4179 8.46483 36.4179 11.5518C36.4179 14.8363 34.8076 17.173 31.4948 18.6875C28.2802 20.1562 24.2704 20.4635 21.4704 20.4635C20.8375 20.4635 20.3228 20.9763 20.3228 21.6089C20.3228 22.2414 20.8375 22.7523 21.4704 22.7523C24.2604 22.7523 26.9603 23.1873 29.4919 24.0493C34.0886 25.6137 36.4179 27.5473 36.4179 29.8002C36.4179 32.536 34.9358 34.699 31.8914 36.4031C29.4619 37.7621 26.1511 38.7578 22.0452 39.3584C20.4489 39.5939 18.7865 39.4722 17.2403 39.0092C16.6334 38.8256 15.9945 39.1688 15.8103 39.7735C15.626 40.3801 15.9705 41.0186 16.5774 41.2002C18.4461 41.7589 20.4509 41.9026 22.3797 41.6213C22.7803 41.5634 23.1688 41.4995 23.5574 41.4317C26.6418 40.9089 29.2977 40.1486 31.4768 39.1649C32.0216 38.9234 32.5323 38.668 33.017 38.3966C36.8005 36.2794 38.7172 33.386 38.7172 29.7982C38.7172 26.4598 35.8631 23.7959 30.237 21.8822L30.235 21.8862ZM7.48028 39.8154C4.44191 36.8501 2.58724 32.8732 2.33087 28.6768C2.32085 28.5391 2.31485 28.4034 2.31084 28.2657C2.06849 22.2853 4.72632 16.3808 9.42708 12.4617C10.0099 11.9788 10.6108 11.5139 11.2237 11.0829C11.2557 11.9449 11.2757 12.8628 11.2797 13.8366C11.2938 19.8429 10.6268 29.1098 7.48028 39.8154Z" fill="#2BA5A5"/>
<path d="M13.4579 9.6499L11.2227 11.0826L11.2587 12.24L13.4579 9.6499Z" fill="#25837F"/>
<path d="M135.499 42.4894C131.78 42.4894 128.926 41.9466 126.691 41.0945C123.714 41.9067 120.966 42.22 119.715 42.3297L119.645 42.3357C119.627 42.3377 119.611 42.3397 119.592 42.3397L118.703 42.4016C118.703 42.4016 118.687 42.4016 118.677 42.4016C116.107 42.5233 113.594 41.7032 111.597 40.0908C109.59 38.4705 108.278 36.1837 107.9 33.6535C107.802 32.997 107.727 32.3126 107.679 31.6062C107.679 31.5902 107.677 31.5722 107.675 31.5563C107.401 27.4915 107.938 22.6745 109.232 17.7458C110.664 12.2862 112.875 7.30555 115.294 4.07691C116.666 2.24508 118.579 0.90813 120.68 0.309494C122.491 -0.205332 123.965 -0.0856053 125.064 0.66668C126.104 1.37906 126.709 2.59229 126.857 4.27047C127.031 6.23399 126.064 8.18953 125.543 9.24114C125.483 9.36286 125.429 9.47061 125.387 9.56041C123.754 13.0485 116.728 24.0653 110.003 31.8895C110.045 32.3744 110.101 32.8493 110.171 33.3143C110.78 37.385 114.381 40.3083 118.557 40.1148L119.422 40.0549C119.448 40.0529 119.48 40.0489 119.516 40.0469C120.798 39.9352 122.178 39.7476 123.572 39.4742C121.872 38.3109 120.698 36.946 119.779 35.643C118.799 34.2541 118.257 32.2766 118.255 30.0757C118.253 27.9565 118.765 25.9211 119.667 24.4864C121.99 20.7848 125.036 18.9091 128.72 18.9091C133.042 18.9091 136.208 20.8148 137.632 24.2749C139.281 28.2817 138.157 33.7952 135.071 36.8263C133.809 38.0654 132.189 39.0312 130.464 39.7835C132.443 40.1527 134.842 40.3003 137.787 40.1307C138.424 40.0948 138.962 40.5757 138.998 41.2063C139.034 41.8368 138.552 42.3776 137.919 42.4135C137.076 42.4614 136.27 42.4854 135.501 42.4854L135.499 42.4894ZM119.675 42.3317C119.675 42.3317 119.659 42.3337 119.651 42.3357C119.661 42.3357 119.671 42.3337 119.675 42.3317ZM128.72 21.1999C125.839 21.1999 123.514 22.6725 121.611 25.7036C120.175 27.9904 120.197 32.2647 121.655 34.332C122.793 35.9443 124.293 37.5546 126.809 38.68C129.457 37.8819 131.89 36.7385 133.456 35.2C135.886 32.8134 136.805 28.3037 135.505 25.1449C134.444 22.5628 132.096 21.1979 128.718 21.1979L128.72 21.1999ZM122.709 2.28699C122.234 2.28699 121.73 2.39275 121.307 2.51247C119.689 2.97342 118.205 4.01704 117.131 5.44978C113.482 10.3167 110.145 20.0445 109.907 28.4334C116.284 20.6072 122.062 11.2466 123.304 8.59661C123.352 8.49484 123.412 8.37312 123.48 8.23343C123.901 7.38337 124.684 5.80297 124.566 4.476C124.48 3.5082 124.209 2.86168 123.758 2.55438C123.472 2.35882 123.1 2.28699 122.707 2.28699H122.709Z" fill="#2BA5A5"/>
<path d="M108.051 34.4675L110.002 31.9014L110.106 32.8771L108.051 34.4675Z" fill="#25837F"/>
<path d="M123.57 39.4424L126.719 41.0747L125.453 41.3899L123.57 39.4424Z" fill="#25837F"/>
<path d="M93.0358 42.3996C92.9457 42.3996 92.8576 42.3996 92.7674 42.3976C91.5317 42.3716 90.3119 42.1801 89.1442 41.8289C86.8209 41.1285 85.0223 39.9172 83.7424 38.4765L77.7959 41.2302C75.068 42.4934 72.0256 42.7089 69.2296 41.8349C66.8682 41.0965 65.0435 39.6917 63.952 37.7701C63.0667 36.2137 62.6761 34.324 62.8484 32.4482C63.1488 29.1997 64.8352 26.1147 67.479 23.9855C71.0562 21.1041 74.6954 19.6434 78.2946 19.6434C78.3367 19.6434 78.3807 19.6434 78.4228 19.6434C79.0557 19.6494 79.5664 20.1662 79.5604 20.7988C79.5544 21.4274 79.0417 21.9322 78.4128 21.9322C78.4088 21.9322 78.4048 21.9322 78.4008 21.9322C75.3043 21.9023 72.1157 23.1913 68.9211 25.7655C66.758 27.5075 65.378 30.0218 65.1337 32.6578C65.0175 33.9129 65.0195 38.1233 69.9145 39.6518C72.1638 40.3542 74.6193 40.1786 76.8265 39.157L82.4085 36.5709C81.5954 35.0503 81.2589 33.426 81.3951 31.9514C81.6975 28.6669 83.3959 25.554 86.0498 23.4069C91.2012 19.2423 95.6436 18.7375 98.4656 19.0508C100.268 19.2503 101.788 20.4276 102.429 22.1258C103.068 23.8119 102.712 25.6837 101.498 27.0086C97.8267 31.0235 90.3139 35.1621 85.8695 37.405C86.8129 38.3249 88.1007 39.125 89.8052 39.6399C90.7726 39.9312 91.784 40.0908 92.8115 40.1108C94.6602 40.1507 96.5569 39.6997 98.3014 38.8117C100.416 37.7342 105.572 34.8129 107.749 30.9736C108.061 30.4229 108.76 30.2293 109.313 30.5406C109.866 30.8519 110.06 31.5483 109.748 32.099C107.354 36.3214 102.203 39.3924 99.3469 40.8491C97.35 41.8668 95.1709 42.4016 93.0318 42.4016L93.0358 42.3996ZM97.0796 21.2617C94.7042 21.2617 91.3714 22.0519 87.4998 25.1808C85.3227 26.9408 83.9307 29.485 83.6844 32.1589C83.5982 33.0988 83.8145 34.33 84.4675 35.5472C91.6338 31.9634 97.2218 28.2917 99.8036 25.4662C100.44 24.7697 100.621 23.8199 100.284 22.9299C99.9438 22.028 99.1686 21.4274 98.2153 21.3216C97.8668 21.2837 97.4862 21.2597 97.0796 21.2597V21.2617Z" fill="#2BA5A5"/>
<path d="M83.7422 38.4783L85.8733 37.4048L86.39 37.8657L83.7422 38.4783Z" fill="#25837F"/>
</g>
<defs>
<clipPath id="clip0_1_14777">
<rect width="139" height="43" fill="white"/>
</clipPath>
</defs>
</svg>
