<svg width="980" height="956" viewBox="0 0 980 956" fill="none" xmlns="http://www.w3.org/2000/svg">
<g clip-path="url(#clip0_3_6)">
<path d="M553 2.9998C553.717 3.09926 554.433 3.19871 555.172 3.30119C631.905 14.1052 705.314 41.6819 769 85.9998C769.621 86.4295 770.242 86.8593 770.882 87.302C787.446 98.7989 802.917 111.638 818 125C818.697 125.613 819.395 126.225 820.114 126.856C826.654 132.66 832.883 138.728 839.051 144.92C840.692 146.567 842.339 148.209 843.986 149.849C849.534 155.393 854.94 161.002 860 167C860.877 168.01 861.754 169.019 862.633 170.027C870.108 178.756 877.13 187.788 884 197C884.544 197.729 885.089 198.457 885.65 199.208C903.581 223.321 918.44 249.221 932 276C932.542 277.06 932.542 277.06 933.096 278.142C962.944 336.948 979.972 407.043 980.203 472.961C980.209 474.267 980.214 475.574 980.22 476.92C980.231 479.678 980.237 482.436 980.24 485.194C980.245 487.949 980.258 490.704 980.281 493.459C980.494 519.573 978.775 545.296 974.25 571.062C974.124 571.799 973.997 572.535 973.867 573.293C969.489 598.743 963.176 623.498 955 648C954.642 649.076 954.284 650.152 953.914 651.26C937.494 699.981 912.594 746.436 881 787C880.144 788.112 879.289 789.224 878.434 790.336C873.758 796.381 868.965 802.314 864 808.125C863.344 808.894 863.344 808.894 862.674 809.679C853.794 819.971 844.421 829.766 834.811 839.374C832.996 841.191 831.189 843.016 829.383 844.842C822.559 851.698 815.584 857.985 808 864C806.836 864.994 805.678 865.997 804.531 867.012C765.068 901.915 717.092 928.551 668.268 947.716C666.194 948.531 664.124 949.355 662.06 950.194C649.799 955.161 638.127 958.722 624.934 955.176C618.616 952.492 614.964 948.114 612 942C610.883 938.519 610.87 935.252 610.862 931.61C610.856 930.295 610.851 928.979 610.845 927.623C610.844 926.166 610.843 924.709 610.842 923.252C610.838 921.715 610.832 920.179 610.827 918.643C610.816 915.332 610.807 912.022 610.801 908.711C610.79 903.459 610.77 898.207 610.748 892.955C610.686 878.019 610.632 863.082 610.599 848.146C610.58 839.897 610.551 831.649 610.511 823.401C610.49 819.045 610.474 814.689 610.472 810.333C610.447 774.817 607.979 736.964 581.437 710.187C580.302 709.114 579.16 708.046 578 707C581.478 704.681 583.656 704.458 587.781 703.922C589.181 703.732 590.581 703.542 591.981 703.352C592.718 703.254 593.454 703.157 594.213 703.056C654.981 694.919 716.732 674.318 756.187 624.75C777.345 596.6 789.783 563.465 796 529C796.227 527.755 796.227 527.755 796.459 526.485C806.95 467.5 802.572 405.752 768.459 355.061C763.507 348.066 758.068 341.068 752 335C752.421 328.28 754.237 322.036 756.096 315.594C759.581 302.993 760.38 290.376 760.312 277.375C760.31 276.629 760.308 275.884 760.306 275.116C760.193 250.675 755.773 226.53 746 204C702.748 201.991 659.431 222.638 624.559 247.07C623.877 247.545 623.196 248.02 622.494 248.509C621.257 249.384 620.033 250.277 618.827 251.194C615.863 253.32 614.389 254.036 610.708 253.693C607.274 253.051 603.878 252.343 600.477 251.547C527.596 234.824 449.717 231.851 377.141 252.259C376.26 252.502 375.38 252.745 374.473 252.996C373.722 253.214 372.972 253.433 372.199 253.658C367.9 254.326 364.706 253.091 361.164 250.734C360.442 250.263 359.72 249.792 358.976 249.306C357.812 248.536 357.812 248.536 356.625 247.75C326.91 228.583 295.721 212.527 261 205C260.045 204.792 259.09 204.585 258.105 204.371C253.445 203.814 248.813 203.896 244.125 203.937C242.663 203.944 242.663 203.944 241.172 203.951C238.781 203.963 236.391 203.979 234 204C224.326 224.289 219.929 247.64 219 270C218.959 270.972 218.917 271.944 218.875 272.945C218.51 290.765 219.987 311.277 227.219 327.781C228.257 330.729 228.064 332.055 227 335C225.393 337.273 223.779 339.372 222 341.5C220.989 342.75 219.982 344.003 218.977 345.258C218.473 345.886 217.969 346.514 217.45 347.161C200.569 368.566 189.513 393.437 183.312 419.875C183.11 420.723 182.907 421.572 182.699 422.446C179.337 437.427 178.622 452.391 178.687 467.687C178.689 468.576 178.691 469.464 178.693 470.38C178.909 533.339 194.402 596.596 239.536 642.567C243.428 646.376 247.693 649.681 252 653C253.406 654.164 253.406 654.164 254.84 655.351C295.992 688.718 350.036 698.561 401 706C399.579 708.981 398.277 710.857 395.812 713.062C383.455 725.189 376.962 743.071 373.008 759.562C372.832 760.289 372.656 761.016 372.475 761.764C371.963 764.021 371.963 764.021 371.695 766.43C370.85 772.259 370.85 772.259 368.526 774.283C366.489 775.33 364.497 776.058 362.312 776.75C361.514 777.025 360.715 777.3 359.892 777.584C357.276 778.449 354.647 779.234 352 780C350.704 780.387 350.704 780.387 349.382 780.783C337.444 784.225 325.851 785.445 313.437 785.5C312.214 785.506 310.99 785.513 309.729 785.519C282.553 785.138 260.444 773.156 241.727 754.043C235.508 747.297 230.54 739.513 225.712 731.742C210.904 708.01 189.846 690.004 162.153 683.49C153.737 681.717 143.051 680.619 135.239 684.984C133.794 685.942 132.392 686.965 131 688C131.424 693.411 132.367 696.009 136 700C138.037 701.721 140.056 703.346 142.187 704.937C143.052 705.595 143.052 705.595 143.935 706.265C147.112 708.659 150.334 710.919 153.687 713.062C158.958 716.485 163.439 720.699 168 725C168.594 725.53 169.188 726.059 169.801 726.605C184.676 740.415 193.642 759.765 202.016 777.88C215.141 806.162 233.874 825.903 263.352 836.875C295.08 848.066 328.998 846.833 361.632 840.38C364 840 364 840 368 840C368.986 851.153 369.195 862.236 369.238 873.426C369.242 874.328 369.246 875.231 369.251 876.161C369.271 880.924 369.286 885.687 369.295 890.45C369.306 895.343 369.341 900.236 369.38 905.129C369.406 908.922 369.415 912.715 369.418 916.508C369.423 918.312 369.435 920.116 369.453 921.92C369.642 941.371 369.642 941.371 363.07 949.34C362.428 949.867 361.786 950.394 361.125 950.937C360.488 951.483 359.851 952.028 359.195 952.59C351.559 957.495 340.666 957.379 331.959 955.577C327.313 954.308 322.885 952.518 318.437 950.687C317.042 950.136 315.646 949.587 314.25 949.039C301.951 944.166 289.905 938.766 278 933C276.556 932.313 276.556 932.313 275.083 931.612C235.483 912.733 197.725 887.982 165.406 858.195C164.11 857.013 162.807 855.837 161.467 854.705C154.655 848.919 148.388 842.574 142.073 836.259C140.076 834.263 138.07 832.276 136.064 830.289C129.616 823.868 123.43 817.438 117.805 810.273C116.038 808.048 114.181 805.958 112.25 803.875C86.3752 775.022 66.3838 740.416 48.9999 706C48.3445 704.705 48.3445 704.705 47.6757 703.384C17.9948 644.262 0.0379646 574.342 -0.203178 508.074C-0.210237 506.78 -0.217266 505.487 -0.22454 504.154C-0.244077 499.998 -0.249263 495.843 -0.250053 491.687C-0.250347 490.979 -0.250665 490.271 -0.250968 489.542C-0.252379 468.553 -0.0823789 447.81 2.99995 427C3.09941 426.31 3.19887 425.62 3.30134 424.909C10.6809 373.714 25.0719 324.899 46.9999 278C47.4442 277.048 47.8884 276.096 48.3461 275.116C67.3799 234.765 93.2233 196.271 123.621 163.59C124.896 162.202 126.164 160.808 127.385 159.374C132.68 153.164 138.42 147.428 144.197 141.672C145.934 139.941 147.665 138.204 149.396 136.467C155.095 130.765 160.828 125.194 167 120C168.01 119.123 169.019 118.246 170.027 117.367C178.756 109.892 187.788 102.87 197 95.9998C197.729 95.4553 198.458 94.9109 199.208 94.3499C266.277 44.4748 345.46 14.1922 428 2.9998C429.198 2.83464 430.397 2.66947 431.632 2.49931C471.223 -2.67846 513.443 -2.50057 553 2.9998Z" fill="#C4C4C4"/>
</g>
<defs>
<clipPath id="clip0_3_6">
<rect width="980" height="956" fill="white"/>
</clipPath>
</defs>
</svg>
