<svg width="70" height="50" viewBox="0 0 70 50" fill="none" xmlns="http://www.w3.org/2000/svg">
<g clip-path="url(#clip0_69_128)">
<mask id="mask0_69_128" style="mask-type:luminance" maskUnits="userSpaceOnUse" x="-15" y="0" width="100" height="100">
<path d="M85 0H-15V100H85V0Z" fill="white"/>
</mask>
<g mask="url(#mask0_69_128)">
<path d="M15.0039 1.51172L14.0039 2.08594L6.00391 6.6875L5 7.26172V8.42188V17.6602V18.8125L6 19.3906L54 47.1133L55 47.6914L56 47.1133L64 42.4922L65 41.9141V40.7617V31.5195V30.3633L64 29.7852L16 2.08594L15.0039 1.51172ZM15 4.39062L62 31.5234L55 35.5664L8.00391 8.42969L15 4.39062ZM7.5 9.28906L54.5 36.4336V44.5156L7.5 17.3828V9.28906ZM16 100.5H19.5L17 98.4922L15 93.293L14.0039 120.5L12.167 100.5L10 89.5L2 111L54 72.5156L55 73.0938L56 72.5156L64 67.8945L65 67.3164V66.1602V56.9219V55.7656L64 55.1875L21.5 131L16 100.5ZM11 114L62.0039 56.9297L55 60.9688L10 102.5L11 114ZM62.5 32.3906V40.4727L55.5 44.5156V36.4336L62.5 32.3906ZM5 106L54.5 61.8359V69.918L13.248 114L5 106ZM8.92287 102.5L5 93.293L6 57.5078L5 58.0859V59.2383V68.4805V69.6367L6 70.2148L54 97.9141L55 98.4922L56 97.9141L64 93.293L65 92.7148V91.5586V82.3398V81.1875L64 80.6094L14.2053 115L8.92287 102.5ZM15 55.1953L62 82.332L55 86.3711L8.00781 59.2344L15 55.1953ZM62.5 57.793V65.8789L55.5 69.918V61.8359L62.5 57.793ZM7.5 60.0977L54.5 87.2383V95.3203L7.5 68.1875V60.0977ZM62.5 83.1992V91.2812L55.5 95.3203V87.2383L62.5 83.1992Z" fill="#ABABAB"/>
</g>
</g>
<defs>
<clipPath id="clip0_69_128">
<rect width="70" height="100" fill="white"/>
</clipPath>
</defs>
</svg>
