<svg width="70" height="100" viewBox="0 0 70 100" fill="none" xmlns="http://www.w3.org/2000/svg">
<g clip-path="url(#clip0_68_47)">
<path d="M15.0039 1.51172L14.0039 2.08594L6.00391 6.6875L5 7.26172V8.42188V17.6602V18.8125L6 19.3906L54 47.1133L55 47.6914L56 47.1133L64 42.4922L65 41.9141V40.7617V31.5195V30.3633L64 29.7852L16 2.08594L15.0039 1.51172ZM15 4.39062L62 31.5234L55 35.5664L8.00391 8.42969L15 4.39062ZM7.5 9.28906L54.5 36.4336V44.5156L7.5 17.3828V9.28906ZM15 26.9102L14 27.4883L6 32.1094L5 32.6875V33.8398V43.0781V44.2344L6 44.8125L54 72.5156L55 73.0938L56 72.5156L64 67.8945L65 67.3164V66.1602V56.9219V55.7656L64 55.1875L16 27.4844L15 26.9102ZM15 29.793L62.0039 56.9297L55 60.9688L8.00391 33.832L15 29.793ZM62.5 32.3906V40.4727L55.5 44.5156V36.4336L62.5 32.3906ZM7.5 34.6953L54.5 61.8359V69.918L7.5 42.7852V34.6953ZM15 52.3086L14 52.8867L6 57.5078L5 58.0859V59.2383V68.4805V69.6367L6 70.2148L54 97.9141L55 98.4922L56 97.9141L64 93.293L65 92.7148V91.5586V82.3398V81.1875L64 80.6094L16 52.8867L15 52.3086ZM15 55.1953L62 82.332L55 86.3711L8.00781 59.2344L15 55.1953ZM62.5 57.793V65.8789L55.5 69.918V61.8359L62.5 57.793ZM7.5 60.0977L54.5 87.2383V95.3203L7.5 68.1875V60.0977ZM62.5 83.1992V91.2812L55.5 95.3203V87.2383L62.5 83.1992Z" fill="#ABABAB"/>
</g>
<defs>
<clipPath id="clip0_68_47">
<rect width="100" height="100" fill="white" transform="translate(-15)"/>
</clipPath>
</defs>
</svg>
