<svg width="392" height="104" viewBox="0 0 392 104" fill="none" xmlns="http://www.w3.org/2000/svg">
<rect width="103.529" height="103.88" rx="28.9317" fill="black"/>
<path d="M49.9902 28.9217C51.2825 33.3877 47.8655 38.3087 43.9487 39.4498C40.032 40.5909 34.6809 38.2242 33.3886 33.7583C32.0963 29.2923 34.8092 23.1045 38.726 21.9634C43.9487 20.4418 48.6979 24.4557 49.9902 28.9217Z" fill="#222327"/>
<path d="M52.1442 28.9217C50.8519 33.3877 54.2689 38.3087 58.1857 39.4498C62.1024 40.5909 67.4535 38.2242 68.7458 33.7583C70.0381 29.2923 67.3252 23.1045 63.4084 21.9634C58.1857 20.4418 53.4365 24.4557 52.1442 28.9217Z" fill="#222327"/>
<path d="M76.3971 61.5478C76.3971 72.9071 65.2589 77.1295 50.0657 77.1295C34.8725 77.1295 23.9863 72.9071 23.9863 61.5478C23.9863 48.3346 34.8725 36.6172 50.0657 36.6172C65.2589 36.6172 76.3971 47.3374 76.3971 61.5478Z" fill="#F3D6DD"/>
<path d="M45.0365 59.3053C45.0365 63.0256 42.6485 67.1069 39.3115 67.1069C35.9745 67.1069 30.584 64.0755 30.584 58.5182C30.584 53.2976 36.4074 51.4409 42.4249 52.3942C46.1131 52.9786 45.0365 55.585 45.0365 59.3053Z" fill="#222327"/>
<path d="M42.2451 58.9294C42.2451 59.4874 42.0773 59.9398 41.2381 59.9398C40.3989 59.9398 40.2311 59.4874 40.2311 58.9294C40.2311 58.3713 40.5668 57.9189 41.2381 57.9189C41.9095 57.9189 42.2451 58.3713 42.2451 58.9294Z" fill="white"/>
<path d="M55.1867 59.3053C55.1867 63.0256 57.5747 67.1069 60.9117 67.1069C64.2487 67.1069 69.6392 64.0755 69.6392 58.5182C69.6392 53.2976 63.8158 51.4409 57.7983 52.3942C54.1101 52.9786 55.1867 55.585 55.1867 59.3053Z" fill="#222327"/>
<path d="M57.9812 58.9294C57.9812 59.4874 58.149 59.9398 58.9882 59.9398C59.8274 59.9398 59.9952 59.4874 59.9952 58.9294C59.9952 58.3713 59.6596 57.9189 58.9882 57.9189C58.3169 57.9189 57.9812 58.3713 57.9812 58.9294Z" fill="white"/>
<path d="M46.2655 64.6864C46.0623 64.3899 45.6572 64.3142 45.3606 64.5174C45.064 64.7206 44.9883 65.1257 45.1915 65.4223L46.2655 64.6864ZM49.999 63.8857L50.6148 63.6748C50.5247 63.4116 50.2772 63.2348 49.999 63.2348C49.7208 63.2348 49.4734 63.4116 49.3832 63.6748L49.999 63.8857ZM54.8065 65.4223C55.0097 65.1257 54.934 64.7206 54.6375 64.5174C54.3409 64.3142 53.9357 64.3899 53.7325 64.6864L54.8065 65.4223ZM45.7285 65.0544L45.1915 65.4223C45.3714 65.6848 45.698 66.0366 46.136 66.3272C46.5781 66.6204 47.1686 66.8739 47.8638 66.8739V66.223V65.572C47.4913 65.572 47.1477 65.436 46.8557 65.2423C46.5598 65.046 46.3526 64.8135 46.2655 64.6864L45.7285 65.0544ZM47.8638 66.223V66.8739C48.7192 66.8739 49.3555 66.2637 49.7515 65.7383C50.1696 65.1836 50.4651 64.5338 50.6148 64.0967L49.999 63.8857L49.3832 63.6748C49.266 64.0168 49.0277 64.5356 48.7118 64.9547C48.3738 65.4032 48.0759 65.572 47.8638 65.572V66.223ZM49.999 63.8857L49.3832 64.0967C49.5329 64.5338 49.8284 65.1836 50.2465 65.7383C50.6425 66.2637 51.2788 66.8739 52.1343 66.8739V66.223V65.572C51.9221 65.572 51.6242 65.4032 51.2862 64.9547C50.9703 64.5356 50.732 64.0168 50.6148 63.6748L49.999 63.8857ZM52.1343 66.223V66.8739C52.8294 66.8739 53.42 66.6204 53.862 66.3272C54.3 66.0366 54.6267 65.6848 54.8065 65.4223L54.2695 65.0544L53.7325 64.6864C53.6455 64.8135 53.4383 65.046 53.1423 65.2423C52.8504 65.436 52.5068 65.572 52.1343 65.572V66.223Z" fill="#222327"/>
<path d="M53.553 63.2847C53.553 63.8262 51.1148 64.5155 50.2942 64.7321C50.1189 64.7784 49.938 64.7784 49.7626 64.7321C48.9421 64.5155 46.5038 63.8262 46.5038 63.2847C46.5038 62.6337 48.4526 61.9375 50.0284 61.9375C51.6042 61.9375 53.553 62.6337 53.553 63.2847Z" fill="#222327"/>
<path d="M49.6071 45.9669C39.8126 45.9669 36.2132 42.5259 35.6309 40.5133L40.2896 35.4492L50.3835 33.6963L64.3597 40.5133C63.5185 42.1364 59.4123 45.9669 49.6071 45.9669Z" fill="#222327"/>
<path d="M50.9624 28.0469C71.2023 28.0469 86.0403 42.5295 86.0405 61.7275C86.0405 77.0738 71.2024 82.7783 50.9624 82.7783C30.7225 82.7783 16.2202 77.0738 16.2202 61.7275C16.2205 43.8768 30.7226 28.047 50.9624 28.0469ZM50.1675 36.8047C35.2794 36.8047 24.6118 48.3973 24.6118 61.4697C24.6119 72.7079 35.2794 76.8848 50.1675 76.8848C65.0553 76.8847 75.9692 72.7078 75.9692 61.4697C75.9692 47.4109 65.0553 36.8049 50.1675 36.8047Z" fill="#D4D4D4"/>
<path d="M183.486 41.3507H191.448V50.639H183.486V69.4808H171.544V57.8042C163.052 59.5291 154.626 60.4579 142.353 60.4579H128.42V51.3687H133.728V32.5269H129.747V23.5704H166.369V32.5269H162.389V50.3736C165.64 49.9755 168.691 49.5111 171.544 48.9803V22.907H183.486V41.3507ZM134.988 85.2707V65.5664H147.196V76.0489H184.813V85.2707H134.988ZM145.67 51.3687C147.329 51.3024 148.921 51.3024 150.447 51.2361V32.5269H145.67V51.3687ZM257.792 45.9948V55.2831H249.831V85.2707H237.889V74.8547C229.397 77.3094 220.971 78.7026 208.697 78.7026H196.755V24.8973H230.723V33.8538H208.697V69.6135C220.838 69.6135 229.463 68.4193 237.889 66.0309V22.907H249.831V45.9948H257.792ZM324.136 45.9948V55.2831H316.175V85.2707H304.233V22.907H316.175V45.9948H324.136ZM263.1 78.7026V24.8973H297.798V78.7026H263.1ZM275.042 69.6135H285.988V33.9865H275.042V69.6135ZM374.89 22.907H386.5V58.8657H374.89V22.907ZM325.463 51.7668C333.226 50.1745 339.064 47.7198 342.315 44.6016L329.444 45.3977V36.773H345.101V32.5269H330.771V23.5704H356.711V35.5124H360.493V23.2387H371.772V58.8657H360.493V44.8006H354.987C351.47 51.6341 342.646 57.2734 329.245 60.657L325.463 51.7668ZM332.695 75.7835C349.082 75.1864 353.859 71.8028 353.859 66.0309V60.9887H365.801V67.0924C365.801 68.6846 365.602 70.2106 365.204 71.6038C372.9 72.1345 380.529 73.1961 386.5 74.5893L383.316 85.2707C376.482 82.8823 366.929 80.5603 359.233 79.2997C353.726 83.015 344.902 84.8063 333.955 85.2707L332.695 75.7835Z" fill="black"/>
</svg>
