<svg width="392" height="105" viewBox="0 0 392 105" fill="none" xmlns="http://www.w3.org/2000/svg">
<rect y="0.984375" width="103.529" height="103.88" rx="28.9317" fill="#3692FF"/>
<path d="M49.9902 29.9061C51.2825 34.372 47.8655 39.2931 43.9487 40.4342C40.032 41.5753 34.6809 39.2086 33.3886 34.7427C32.0963 30.2767 34.8092 24.0888 38.726 22.9477C43.9487 21.4262 48.6979 25.4401 49.9902 29.9061Z" fill="#222327"/>
<path d="M52.1442 29.9061C50.8519 34.372 54.2689 39.2931 58.1857 40.4342C62.1024 41.5753 67.4535 39.2086 68.7458 34.7427C70.0381 30.2767 67.3252 24.0888 63.4084 22.9477C58.1857 21.4262 53.4365 25.4401 52.1442 29.9061Z" fill="#222327"/>
<path d="M76.3971 62.5322C76.3971 73.8915 65.2589 78.1139 50.0657 78.1139C34.8725 78.1139 23.9863 73.8915 23.9863 62.5322C23.9863 49.319 34.8725 37.6016 50.0657 37.6016C65.2589 37.6016 76.3971 48.3217 76.3971 62.5322Z" fill="#F3D6DD"/>
<path d="M45.0365 60.2896C45.0365 64.01 42.6485 68.0912 39.3115 68.0912C35.9745 68.0912 30.584 65.0599 30.584 59.5025C30.584 54.282 36.4074 52.4253 42.4249 53.3786C46.1131 53.9629 45.0365 56.5693 45.0365 60.2896Z" fill="#222327"/>
<path d="M42.2451 59.9138C42.2451 60.4718 42.0773 60.9242 41.2381 60.9242C40.3989 60.9242 40.2311 60.4718 40.2311 59.9138C40.2311 59.3557 40.5668 58.9033 41.2381 58.9033C41.9095 58.9033 42.2451 59.3557 42.2451 59.9138Z" fill="white"/>
<path d="M55.1867 60.2896C55.1867 64.01 57.5747 68.0912 60.9117 68.0912C64.2487 68.0912 69.6392 65.0599 69.6392 59.5025C69.6392 54.282 63.8158 52.4253 57.7983 53.3786C54.1101 53.9629 55.1867 56.5693 55.1867 60.2896Z" fill="#222327"/>
<path d="M57.9812 59.9138C57.9812 60.4718 58.149 60.9242 58.9882 60.9242C59.8274 60.9242 59.9952 60.4718 59.9952 59.9138C59.9952 59.3557 59.6596 58.9033 58.9882 58.9033C58.3169 58.9033 57.9812 59.3557 57.9812 59.9138Z" fill="white"/>
<path d="M46.2655 65.6708C46.0623 65.3742 45.6572 65.2985 45.3606 65.5018C45.064 65.705 44.9883 66.1101 45.1915 66.4067L46.2655 65.6708ZM49.999 64.8701L50.6148 64.6591C50.5247 64.396 50.2772 64.2192 49.999 64.2192C49.7208 64.2192 49.4734 64.396 49.3832 64.6591L49.999 64.8701ZM54.8065 66.4067C55.0097 66.1101 54.934 65.705 54.6375 65.5018C54.3409 65.2985 53.9357 65.3742 53.7325 65.6708L54.8065 66.4067ZM45.7285 66.0387L45.1915 66.4067C45.3714 66.6691 45.698 67.021 46.136 67.3116C46.5781 67.6048 47.1686 67.8583 47.8638 67.8583V67.2074V66.5564C47.4913 66.5564 47.1477 66.4204 46.8557 66.2267C46.5598 66.0303 46.3526 65.7979 46.2655 65.6708L45.7285 66.0387ZM47.8638 67.2074V67.8583C48.7192 67.8583 49.3555 67.2481 49.7515 66.7227C50.1696 66.1679 50.4651 65.5182 50.6148 65.0811L49.999 64.8701L49.3832 64.6591C49.266 65.0012 49.0277 65.52 48.7118 65.9391C48.3738 66.3876 48.0759 66.5564 47.8638 66.5564V67.2074ZM49.999 64.8701L49.3832 65.0811C49.5329 65.5182 49.8284 66.1679 50.2465 66.7227C50.6425 67.2481 51.2788 67.8583 52.1343 67.8583V67.2074V66.5564C51.9221 66.5564 51.6242 66.3876 51.2862 65.9391C50.9703 65.52 50.732 65.0012 50.6148 64.6591L49.999 64.8701ZM52.1343 67.2074V67.8583C52.8294 67.8583 53.42 67.6048 53.862 67.3116C54.3 67.021 54.6267 66.6691 54.8065 66.4067L54.2695 66.0387L53.7325 65.6708C53.6455 65.7979 53.4383 66.0303 53.1423 66.2267C52.8504 66.4204 52.5068 66.5564 52.1343 66.5564V67.2074Z" fill="#222327"/>
<path d="M53.553 64.2691C53.553 64.8106 51.1148 65.4998 50.2942 65.7165C50.1189 65.7628 49.938 65.7628 49.7626 65.7165C48.9421 65.4998 46.5038 64.8106 46.5038 64.2691C46.5038 63.6181 48.4526 62.9219 50.0284 62.9219C51.6042 62.9219 53.553 63.6181 53.553 64.2691Z" fill="#222327"/>
<path d="M49.6071 46.9512C39.8126 46.9512 36.2132 43.5103 35.6309 41.4976L40.2896 36.4336L50.3835 34.6807L64.3597 41.4976C63.5185 43.1207 59.4123 46.9512 49.6071 46.9512Z" fill="#222327"/>
<path d="M50.9624 29.0312C71.2023 29.0312 86.0403 43.5139 86.0405 62.7119C86.0405 78.0582 71.2024 83.7627 50.9624 83.7627C30.7225 83.7627 16.2202 78.0582 16.2202 62.7119C16.2205 44.8612 30.7226 29.0313 50.9624 29.0312ZM50.1675 37.7891C35.2794 37.7891 24.6118 49.3817 24.6118 62.4541C24.6119 73.6922 35.2794 77.8691 50.1675 77.8691C65.0553 77.8691 75.9692 73.6921 75.9692 62.4541C75.9692 48.3952 65.0553 37.7893 50.1675 37.7891Z" fill="white"/>
<path d="M183.486 42.3351H191.448V51.6233H183.486V70.4651H171.544V58.7885C163.052 60.5135 154.626 61.4423 142.353 61.4423H128.42V52.3531H133.728V33.5113H129.747V24.5548H166.369V33.5113H162.389V51.358C165.64 50.9599 168.691 50.4955 171.544 49.9647V23.8914H183.486V42.3351ZM134.988 86.2551V66.5508H147.196V77.0332H184.813V86.2551H134.988ZM145.67 52.3531C147.329 52.2868 148.921 52.2868 150.447 52.2204V33.5113H145.67V52.3531ZM257.792 46.9792V56.2674H249.831V86.2551H237.889V75.839C229.397 78.2938 220.971 79.687 208.697 79.687H196.755V25.8817H230.723V34.8382H208.697V70.5978C220.838 70.5978 229.463 69.4036 237.889 67.0152V23.8914H249.831V46.9792H257.792ZM324.136 46.9792V56.2674H316.175V86.2551H304.233V23.8914H316.175V46.9792H324.136ZM263.1 79.687V25.8817H297.798V79.687H263.1ZM275.042 70.5978H285.988V34.9709H275.042V70.5978ZM374.89 23.8914H386.5V59.85H374.89V23.8914ZM325.463 52.7512C333.226 51.1589 339.064 48.7042 342.315 45.586L329.444 46.3821V37.7573H345.101V33.5113H330.771V24.5548H356.711V36.4968H360.493V24.2231H371.772V59.85H360.493V45.785H354.987C351.47 52.6185 342.646 58.2578 329.245 61.6413L325.463 52.7512ZM332.695 76.7679C349.082 76.1708 353.859 72.7872 353.859 67.0152V61.9731H365.801V68.0767C365.801 69.669 365.602 71.1949 365.204 72.5882C372.9 73.1189 380.529 74.1804 386.5 75.5737L383.316 86.2551C376.482 83.8667 366.929 81.5447 359.233 80.2841C353.726 83.9994 344.902 85.7907 333.955 86.2551L332.695 76.7679Z" fill="#3692FF"/>
</svg>
