<svg width="109" height="34" viewBox="0 0 109 34" fill="none" xmlns="http://www.w3.org/2000/svg">
<path d="M20.0373 30.2837C20.0019 30.3588 19.9532 30.4251 19.9 30.487C19.3418 31.0659 18.5177 31.3664 17.738 31.5211C16.9494 31.6846 16.1386 31.5343 15.3677 31.362C16.1342 30.73 16.9937 29.992 17.1665 28.9623C17.3348 27.7294 16.1696 26.9295 15.0487 26.8765C11.3006 26.7528 7.91583 28.7812 4.73924 30.5356C3.53418 31.194 2.19178 32.0381 0.760763 31.7067C0.561396 31.6492 0.357599 31.5211 0.295573 31.3089C0.300004 31.2515 0.273421 31.1852 0.215827 31.1587C-0.227211 31.0703 0.0873455 31.6934 0.291143 31.8039C2.05 32.807 4.49557 30.9466 6.05064 30.1423C7.65443 29.2673 9.3114 28.3834 11.057 27.8134C12.5057 27.3847 14.2203 26.9074 15.7133 27.3096C16.4753 27.5305 17.069 28.326 16.8253 29.1214C16.5196 30.0406 15.7266 30.6903 14.9867 31.2647C13.8215 30.9863 12.612 30.6814 11.407 30.8538C10.7424 30.9731 9.97595 31.2073 9.64368 31.8437C9.12532 32.8866 10.4234 33.0899 11.1766 33.0678C12.5899 33.0236 13.9367 32.4447 15.0532 31.5918C16.3203 31.9232 17.5741 32.0469 18.8101 31.5255C19.3684 31.2692 20.0019 30.9863 20.3032 30.4163C20.3962 30.2439 20.1215 30.1025 20.0329 30.2748L20.0373 30.2837ZM11.1367 32.7717C10.7291 32.7408 10.0114 32.7982 9.83861 32.343C9.81203 31.7685 10.45 31.4327 10.9285 31.2868C12.1557 30.9156 13.4494 31.225 14.6633 31.5078C13.6399 32.2546 12.4127 32.7363 11.1367 32.7717V32.7717Z" fill="black"/>
<path d="M28.7825 2.54006C28.7693 2.51355 28.7382 2.49587 28.7072 2.50471C28.437 2.61961 28.1667 2.71683 27.8876 2.81847C27.1212 3.1013 26.3237 3.28691 25.5262 3.47251C24.6136 3.6758 23.6832 3.82163 22.7749 4.04701C21.9908 4.23703 21.211 4.46683 20.4579 4.76734C19.8908 4.9883 19.3325 5.22693 18.8098 5.53186C18.1895 5.87214 17.6889 6.38034 17.2015 6.88413C16.7541 7.35256 16.3022 7.821 15.9079 8.33804C15.6863 8.62971 15.5003 8.94789 15.323 9.26607C15.6022 8.21431 15.992 7.1537 16.7053 6.31405C16.7585 6.24777 16.6965 6.16822 16.6212 6.20358C16.4395 6.29196 16.2712 6.40686 16.0984 6.51292C14.7781 7.4056 13.5996 8.51481 12.5851 9.73893C12.0889 10.3444 11.6104 10.963 11.2161 11.6392C10.7598 12.4302 10.4142 13.2831 10.1661 14.1625C10.1395 13.6411 10.1838 13.1196 10.2547 12.6026C10.268 12.5098 10.2813 12.4214 10.2857 12.3286C10.2857 12.2667 10.3034 12.1783 10.2414 12.143C10.1971 12.1209 10.1528 12.143 10.1218 12.1783C10.0819 12.2181 10.0509 12.2623 10.0155 12.3065C9.94457 12.3993 9.87368 12.4965 9.80723 12.5937C9.58571 12.9075 9.38634 13.2389 9.21356 13.5836C8.78824 14.4542 8.39837 15.3336 8.00406 16.2175C7.60533 17.1013 7.23761 18.0028 6.85216 18.8911C6.48444 19.7307 6.08128 20.5571 5.66482 21.3747C5.43887 21.8122 5.20849 22.2497 4.93824 22.6651C4.82305 22.8418 4.70343 23.0142 4.57938 23.1821C4.5971 23.1468 4.61482 23.1158 4.63254 23.0805C4.99583 22.369 5.24394 21.6089 5.46988 20.8444C5.65596 20.3538 5.84204 19.8633 6.05026 19.386C6.29394 18.8425 6.51102 18.2901 6.71925 17.7332C7.13571 16.6815 7.64077 15.6739 8.21672 14.6973C8.58887 14.0653 8.98761 13.4466 9.3509 12.8058C9.69204 12.2048 9.96229 11.5685 10.2724 10.9542C10.5028 10.4946 10.7376 10.035 10.937 9.56216C10.9946 9.42958 11.0522 9.29259 11.1053 9.15559C11.1275 9.08931 11.1541 9.0186 11.1674 8.94789C11.1674 8.92138 11.1718 8.89044 11.1541 8.86393C11.1142 8.80206 11.0344 8.82416 10.9857 8.86393C10.8439 8.96999 10.711 9.08047 10.5737 9.19537C10.1306 9.571 9.66989 9.92453 9.19583 10.2604C10.2104 9.03186 11.2914 7.77681 11.7787 6.23009C11.8142 6.09751 11.9117 5.76607 11.8142 5.65559C11.7477 5.59815 11.6724 5.67769 11.6325 5.7263C11.2205 6.23893 10.7863 6.73388 10.3034 7.18022C10.4895 6.88855 10.6667 6.58804 10.8262 6.2787C11.092 5.7484 11.3534 5.21368 11.5705 4.66128C11.8275 3.98514 12.0224 3.29133 12.2262 2.60193C12.4344 1.85067 12.6205 1.09057 12.8465 0.343726C12.8686 0.273019 12.8908 0.202312 12.9041 0.127186C12.9041 0.10509 12.9129 0.078575 12.9041 0.056479C12.8908 0.0167063 12.842 -0.00980889 12.8022 0.00344869C12.7667 0.0122871 12.7313 0.034383 12.7003 0.0608982C12.2484 0.485141 11.8452 0.957994 11.411 1.39549C11.092 1.72251 10.7686 2.05395 10.4629 2.39423C9.8471 3.09246 9.29773 3.85257 8.86356 4.67453C8.46925 5.42138 8.18128 6.23009 8.00406 7.05648C7.76482 8.13476 7.68508 9.23956 7.53444 10.3311C7.36166 9.85825 7.25976 9.35888 7.23761 8.85067C7.22875 8.68274 7.21988 8.50597 7.21102 8.32479C7.21102 8.24082 7.21102 8.05963 7.08254 8.09941C7.04267 8.1215 7.02052 8.1657 6.99837 8.20989C6.95849 8.28943 6.92305 8.3734 6.88761 8.45736C6.77685 8.71368 6.6528 8.96115 6.53761 9.21304C6.20976 9.92011 5.92621 10.6537 5.78001 11.4182C5.65153 12.0457 5.58507 12.6865 5.58507 13.3229C5.58507 14.2156 5.72242 15.095 5.71799 15.9921C5.47432 15.5988 5.22621 15.201 5.12432 14.7415C5.07115 14.5249 5.03128 14.3084 4.99583 14.0918C4.98697 14.03 4.97368 13.9637 4.96482 13.9018C4.95596 13.8576 4.95596 13.8002 4.92052 13.7692C4.84077 13.7074 4.78761 13.8134 4.76988 13.8797C4.61925 14.357 4.54394 14.8608 4.52621 15.3646C4.50406 15.8728 4.5528 16.381 4.60153 16.8892C4.64583 17.3488 4.69457 17.8084 4.72558 18.2724C4.70343 18.4403 4.69457 18.6082 4.68128 18.7762C4.62811 19.6026 4.53507 20.429 4.37558 21.2421C4.26925 21.8961 4.13191 22.5413 3.90153 23.1689C3.76862 23.6152 3.59583 24.0483 3.37875 24.4593C3.3433 24.5167 3.31229 24.5786 3.28128 24.636C2.85153 25.4005 2.45723 26.1827 2.02305 26.9428C1.76166 27.3892 1.50913 27.8444 1.27432 28.3084C1.10153 28.6089 0.942037 28.9138 0.804695 29.2276C0.685075 29.4927 0.569885 29.7623 0.463556 30.0319C0.423682 30.1468 0.308493 30.3766 0.370518 30.4915C0.463556 30.5754 0.538872 30.4649 0.596467 30.3456C0.609758 30.3324 0.623049 30.3191 0.63191 30.3058C0.667353 30.2572 0.698366 30.2086 0.724948 30.1556C0.795834 30.0363 0.86672 29.9214 0.933176 29.8065C1.22558 29.2983 1.50913 28.7856 1.7971 28.273C2.22685 27.4776 2.69647 26.7042 3.17052 25.9308C3.25026 25.8027 3.32558 25.6745 3.40533 25.542C3.5028 25.4005 3.60026 25.2635 3.70216 25.1221C3.88381 24.8747 4.07875 24.636 4.2914 24.4151C4.5528 24.1278 4.88064 23.8494 5.18634 23.6064C5.62938 23.2484 6.02811 22.8418 6.41799 22.4308C7.32621 21.4454 8.18128 20.4113 9.06735 19.4037C9.65659 18.6966 10.2901 18.0161 10.968 17.3974C11.4686 16.9776 11.987 16.5754 12.5142 16.1909C13.356 15.5899 14.242 15.0552 15.0794 14.4454C16.0674 13.725 17.0332 12.9738 17.9193 12.1297C17.9458 12.0988 17.9768 12.0634 17.9591 12.0192C17.9414 11.9618 17.8705 11.9706 17.8218 11.9839C17.6224 12.0369 17.4319 12.1165 17.237 12.1651C17.0376 12.2093 16.8338 12.249 16.6344 12.2844C16.0895 12.3904 15.5313 12.4346 14.9775 12.4391C15.292 12.3197 15.611 12.2048 15.93 12.0988C16.723 11.8601 17.5249 11.6569 18.3003 11.3652C19.6781 10.8923 20.8832 10.0439 21.9863 9.1114C22.2566 8.88602 22.5313 8.66065 22.7794 8.40875C22.8237 8.35572 22.8901 8.30711 22.899 8.23198C22.899 8.1436 22.7927 8.1436 22.7262 8.16128C22.106 8.29385 21.4813 8.42201 20.8522 8.4883C20.4357 8.52807 20.0015 8.559 19.5851 8.48388C20.068 8.33804 20.5553 8.20989 21.0515 8.10825C21.5123 8.01544 21.9775 7.92706 22.4249 7.79006C23.1205 7.58678 23.7452 7.18905 24.2768 6.70294C24.5958 6.39802 24.8927 6.071 25.1851 5.73956C25.4952 5.38602 25.7743 5.00597 26.1022 4.6657C26.5319 4.21494 27.0015 3.80395 27.5022 3.43716C27.8743 3.14549 28.273 2.89802 28.6851 2.6638C28.7161 2.64613 28.7471 2.63729 28.7781 2.61961C28.8047 2.60193 28.8136 2.571 28.8003 2.54006H28.7825ZM4.57052 23.5356C4.57052 23.5356 4.57052 23.5356 4.56166 23.5356H4.56609H4.57052ZM5.62938 18.785C5.97052 17.6714 6.29837 16.5533 6.6528 15.4441C6.98507 14.3084 7.31735 13.1726 7.66735 12.0457C8.05723 10.7111 8.36735 9.35446 8.77938 8.02428C9.07178 7.08741 9.39963 6.15938 9.76735 5.24903C10.0996 4.42706 10.4718 3.61835 10.9768 2.88476C10.5648 3.8614 10.1395 4.82921 9.78064 5.82352C9.43507 6.69411 9.14267 7.58236 8.89014 8.48388C8.27432 10.4769 7.90216 12.5363 7.30849 14.5338C7.05596 15.4176 6.77242 16.2926 6.46672 17.1632C6.24963 17.7863 5.99267 18.4094 5.78001 19.0325C5.30596 20.4157 4.86735 21.8122 4.32685 23.1733C4.31799 23.1821 4.30913 23.1909 4.30026 23.1998C4.28254 23.1954 4.26482 23.1998 4.25153 23.2042C4.34457 22.9125 4.43318 22.6165 4.50849 22.3204C4.86735 21.136 5.26166 19.9649 5.62938 18.785V18.785ZM18.9471 7.92264C18.4332 8.27618 17.9193 8.62971 17.4319 9.01418C16.6212 9.65938 15.8325 10.3267 15.0484 11.0028C14.592 11.4094 14.18 11.8646 13.7503 12.3021C13.3249 12.744 12.8952 13.1771 12.492 13.6367C11.956 14.2332 11.4066 14.821 10.8927 15.4397C10.4408 15.97 10.0287 16.5356 9.62115 17.1013C9.31988 17.5034 9.01419 17.9056 8.73064 18.321C8.39394 18.8027 8.04394 19.2711 7.70723 19.7528C7.37052 20.2389 7.03824 20.725 6.71039 21.2156C6.50216 21.5249 6.29394 21.8387 6.05026 22.1259C5.76229 22.4662 5.46545 22.8242 5.13761 23.1379C5.01356 23.2484 4.89394 23.3589 4.77432 23.4738C4.77432 23.4738 4.77432 23.4738 4.76988 23.4738C4.71229 23.4605 4.71229 23.4075 4.72558 23.3633C4.96039 23.1026 5.1952 22.8463 5.42558 22.5811C5.7047 22.2585 5.95723 21.9138 6.19204 21.5603C7.4414 19.7396 8.70406 17.9233 10.0465 16.1644C10.5471 15.5148 11.0655 14.874 11.6237 14.273C12.5851 13.2566 13.5775 12.2755 14.5699 11.2856C15.8503 10.0129 17.2148 8.81974 18.699 7.79006C19.8819 6.99461 21.1401 6.31405 22.4382 5.7263C21.2243 6.37592 20.0901 7.16696 18.9471 7.92706V7.92264Z" fill="black"/>
<path d="M33.8361 23.0417V10.4067H28.8057V7.47044H42.5046V10.4067H37.4742V23.0417H33.8361Z" fill="black"/>
<path d="M50.5015 23.0417V20.706L50.2769 20.1944V16.0124C50.2769 15.2709 50.0449 14.6926 49.5808 14.2773C49.1316 13.8621 48.4354 13.6545 47.4922 13.6545C46.8485 13.6545 46.2122 13.7583 45.5834 13.9659C44.9695 14.1587 44.4455 14.4256 44.0113 14.7667L42.7537 12.342C43.4125 11.8823 44.206 11.5264 45.1342 11.2743C46.0624 11.0222 47.0057 10.8961 47.9638 10.8961C49.8053 10.8961 51.2351 11.3262 52.2532 12.1863C53.2712 13.0464 53.7803 14.3885 53.7803 16.2126V23.0417H50.5015ZM46.8185 23.2197C45.8753 23.2197 45.0668 23.064 44.3931 22.7525C43.7194 22.4263 43.2029 21.9888 42.8436 21.4401C42.4842 20.8914 42.3046 20.276 42.3046 19.5938C42.3046 18.882 42.4768 18.2591 42.8211 17.7252C43.1804 17.1914 43.7419 16.7761 44.5054 16.4795C45.269 16.1681 46.2646 16.0124 47.4922 16.0124H50.7036V18.0367H47.874C47.0506 18.0367 46.4816 18.1701 46.1672 18.4371C45.8678 18.704 45.7181 19.0377 45.7181 19.4381C45.7181 19.883 45.8903 20.2389 46.2346 20.5058C46.5939 20.7579 47.0805 20.884 47.6943 20.884C48.2782 20.884 48.8022 20.7505 49.2664 20.4836C49.7305 20.2018 50.0673 19.794 50.2769 19.2601L50.8159 20.8617C50.5614 21.6329 50.0973 22.2187 49.4236 22.6191C48.7498 23.0195 47.8815 23.2197 46.8185 23.2197Z" fill="black"/>
<path d="M60.5053 23.2197C59.4723 23.2197 58.4767 23.101 57.5185 22.8638C56.5753 22.6117 55.8267 22.3002 55.2728 21.9295L56.4406 19.4381C56.9945 19.7792 57.6458 20.0609 58.3944 20.2834C59.1579 20.491 59.9065 20.5948 60.6401 20.5948C61.4485 20.5948 62.0175 20.4984 62.3468 20.3056C62.6912 20.1128 62.8634 19.8459 62.8634 19.5048C62.8634 19.2231 62.7286 19.0154 62.4591 18.882C62.2046 18.7337 61.8603 18.6224 61.4261 18.5483C60.9919 18.4742 60.5128 18.4 59.9888 18.3259C59.4798 18.2517 58.9633 18.1553 58.4393 18.0367C57.9153 17.9032 57.4362 17.7104 57.002 17.4583C56.5678 17.2062 56.216 16.8651 55.9465 16.4351C55.692 16.005 55.5647 15.4489 55.5647 14.7667C55.5647 14.0104 55.7818 13.343 56.216 12.7647C56.6651 12.1863 57.3089 11.734 58.1473 11.4078C58.9857 11.0667 59.9888 10.8961 61.1566 10.8961C61.98 10.8961 62.8184 10.9851 63.6718 11.1631C64.5252 11.341 65.2363 11.6005 65.8053 11.9416L64.6375 14.4108C64.0536 14.0697 63.4622 13.8398 62.8634 13.7212C62.2795 13.5877 61.7105 13.521 61.1566 13.521C60.3781 13.521 59.8092 13.6248 59.4498 13.8324C59.0905 14.04 58.9109 14.307 58.9109 14.6332C58.9109 14.9298 59.0381 15.1523 59.2926 15.3006C59.5621 15.4489 59.914 15.5675 60.3481 15.6565C60.7823 15.7455 61.2539 15.827 61.7629 15.9012C62.2869 15.9605 62.811 16.0569 63.335 16.1904C63.859 16.3238 64.3306 16.5166 64.7498 16.7687C65.1839 17.006 65.5358 17.3397 65.8053 17.7697C66.0747 18.185 66.2095 18.7337 66.2095 19.4158C66.2095 20.1573 65.9849 20.8173 65.5358 21.3956C65.0866 21.9592 64.4354 22.404 63.582 22.7303C62.7436 23.0566 61.718 23.2197 60.5053 23.2197Z" fill="black"/>
<path d="M70.7576 20.5948L70.8474 16.3683L76.4842 11.0741H80.6613L75.2491 16.524L73.43 17.9922L70.7576 20.5948ZM67.8606 23.0417V6.53617H71.3639V23.0417H67.8606ZM76.866 23.0417L72.7788 18.0144L74.9796 15.3228L81.1104 23.0417H76.866Z" fill="black"/>
<path d="M82.1755 23.0417V11.0741H85.6789V23.0417H82.1755ZM83.9272 9.40573C83.2834 9.40573 82.7594 9.22036 82.3552 8.84962C81.951 8.47887 81.7489 8.01915 81.7489 7.47044C81.7489 6.92174 81.951 6.46202 82.3552 6.09127C82.7594 5.72053 83.2834 5.53516 83.9272 5.53516C84.571 5.53516 85.095 5.71311 85.4992 6.06903C85.9035 6.41012 86.1056 6.85501 86.1056 7.40371C86.1056 7.98207 85.9035 8.46404 85.4992 8.84962C85.11 9.22036 84.586 9.40573 83.9272 9.40573Z" fill="black"/>
<path d="M88.8466 23.0417V10.8071C88.8466 9.45764 89.2508 8.38248 90.0593 7.58167C90.8677 6.76603 92.0205 6.35821 93.5177 6.35821C94.0267 6.35821 94.5133 6.41011 94.9774 6.51392C95.4565 6.61773 95.8607 6.78086 96.1901 7.00331L95.2694 9.51696C95.0747 9.38349 94.8576 9.27968 94.6181 9.20553C94.3786 9.13138 94.124 9.09431 93.8545 9.09431C93.3455 9.09431 92.9488 9.2426 92.6643 9.5392C92.3948 9.82097 92.2601 10.251 92.2601 10.8294V11.9416L92.3499 13.432V23.0417H88.8466ZM86.9826 14.0104V11.341H95.3592V14.0104H86.9826Z" fill="black"/>
<path d="M98.3406 27.5352C97.7118 27.5352 97.0904 27.4388 96.4766 27.246C95.8628 27.0532 95.3612 26.7863 94.972 26.4452L96.252 23.976C96.5215 24.2133 96.8284 24.3987 97.1728 24.5321C97.5321 24.6656 97.8839 24.7323 98.2283 24.7323C98.7223 24.7323 99.1116 24.6137 99.3961 24.3764C99.6955 24.154 99.965 23.7758 100.205 23.2419L100.833 21.7738L101.103 21.3956L105.437 11.0741H108.806L103.349 23.7758C102.959 24.7397 102.51 25.4961 102.001 26.0448C101.507 26.5935 100.953 26.979 100.339 27.2015C99.7404 27.4239 99.0742 27.5352 98.3406 27.5352ZM100.407 23.5089L95.0169 11.0741H98.6325L102.81 21.0842L100.407 23.5089Z" fill="black"/>
</svg>
