<svg width="167" height="28" viewBox="0 0 167 28" fill="none" xmlns="http://www.w3.org/2000/svg">
<g clip-path="url(#clip0_36_3)">
<path d="M163.721 12.0228C164.98 12.0228 165.997 11.0028 165.997 9.74469C165.997 8.48662 164.98 7.4668 163.721 7.4668C162.465 7.4668 161.447 8.48662 161.447 9.74469C161.447 11.0028 162.465 12.0228 163.721 12.0228Z" fill="#0B3B2D"/>
<path d="M43.947 20.6814C42.935 20.6814 42.0023 20.5228 41.1488 20.2054C40.3074 19.8759 39.5697 19.4121 38.9358 18.8141C38.3139 18.2161 37.8263 17.5142 37.4726 16.7087C37.1312 15.9031 36.9605 15.0182 36.9605 14.0541C36.9605 13.0899 37.1312 12.205 37.4726 11.3994C37.8263 10.5939 38.3201 9.89211 38.954 9.29409C39.588 8.69601 40.3319 8.23837 41.1853 7.92097C42.0388 7.59144 42.9777 7.42668 44.0019 7.42668C45.1358 7.42668 46.1539 7.61589 47.0562 7.99421C47.9707 8.37258 48.7388 8.92181 49.3606 9.64191L47.4586 11.3994C46.9952 10.9113 46.4892 10.5512 45.9405 10.3193C45.3919 10.0752 44.7945 9.95315 44.1482 9.95315C43.5264 9.95315 42.9594 10.0508 42.4473 10.2461C41.9352 10.4413 41.4901 10.7221 41.1122 11.0882C40.7464 11.4544 40.4599 11.8876 40.2526 12.3881C40.0576 12.8885 39.9599 13.4438 39.9599 14.0541C39.9599 14.6521 40.0576 15.2013 40.2526 15.7018C40.4599 16.2022 40.7464 16.6416 41.1122 17.0199C41.4901 17.3861 41.9291 17.6668 42.429 17.8621C42.9411 18.0573 43.5019 18.155 44.1116 18.155C44.6969 18.155 45.2639 18.0634 45.8126 17.8804C46.3734 17.6851 46.916 17.3616 47.4403 16.9101L49.1229 19.0521C48.4279 19.5769 47.6171 19.9796 46.6904 20.2604C45.776 20.5411 44.8615 20.6814 43.947 20.6814ZM46.4161 18.6676V13.8527H49.1229V19.0521L46.4161 18.6676ZM50.9424 20.4618V6.87744H53.7955V20.4618H50.9424ZM60.394 20.6082C59.3453 20.6082 58.4126 20.3886 57.5957 19.9491C56.791 19.5098 56.1508 18.9118 55.6753 18.155C55.212 17.3861 54.9803 16.5134 54.9803 15.537C54.9803 14.5484 55.212 13.6758 55.6753 12.919C56.1508 12.1501 56.791 11.5521 57.5957 11.1249C58.4126 10.6854 59.3453 10.4658 60.394 10.4658C61.4303 10.4658 62.3571 10.6854 63.174 11.1249C63.991 11.5521 64.6307 12.1439 65.0942 12.9007C65.5578 13.6574 65.7893 14.5362 65.7893 15.537C65.7893 16.5134 65.5578 17.3861 65.0942 18.155C64.6307 18.9118 63.991 19.5098 63.174 19.9491C62.3571 20.3886 61.4303 20.6082 60.394 20.6082ZM60.394 18.2649C60.8695 18.2649 61.2963 18.155 61.6742 17.9353C62.0522 17.7156 62.3509 17.4044 62.5704 17.0016C62.7899 16.5867 62.8996 16.0984 62.8996 15.537C62.8996 14.9633 62.7899 14.4751 62.5704 14.0724C62.3509 13.6696 62.0522 13.3584 61.6742 13.1387C61.2963 12.919 60.8695 12.8091 60.394 12.8091C59.9185 12.8091 59.4917 12.919 59.1137 13.1387C58.7358 13.3584 58.4309 13.6696 58.1993 14.0724C57.9798 14.4751 57.87 14.9633 57.87 15.537C57.87 16.0984 57.9798 16.5867 58.1993 17.0016C58.4309 17.4044 58.7358 17.7156 59.1137 17.9353C59.4917 18.155 59.9185 18.2649 60.394 18.2649ZM72.7812 20.6082C71.915 20.6082 71.1715 20.4251 70.5499 20.059C69.9276 19.6929 69.4523 19.1375 69.1231 18.393C68.794 17.6362 68.6291 16.6842 68.6291 15.537C68.6291 14.3775 68.7996 13.4255 69.1412 12.681C69.4946 11.9365 69.9824 11.3811 70.6046 11.015C71.2262 10.6489 71.9517 10.4658 72.7812 10.4658C73.7076 10.4658 74.5364 10.6732 75.2682 11.0882C76.0117 11.5032 76.5973 12.089 77.0241 12.8458C77.4628 13.6025 77.6824 14.4996 77.6824 15.537C77.6824 16.5622 77.4628 17.4532 77.0241 18.2099C76.5973 18.9667 76.0117 19.5586 75.2682 19.9858C74.5364 20.4007 73.7076 20.6082 72.7812 20.6082ZM66.9646 20.4618V6.87744H69.8181V12.6078L69.6352 15.5187L69.69 18.4479V20.4618H66.9646ZM72.2871 18.2649C72.7625 18.2649 73.1831 18.155 73.549 17.9353C73.9273 17.7156 74.226 17.4044 74.445 17.0016C74.6771 16.5867 74.7928 16.0984 74.7928 15.537C74.7928 14.9633 74.6771 14.4751 74.445 14.0724C74.226 13.6696 73.9273 13.3584 73.549 13.1387C73.1831 12.919 72.7625 12.8091 72.2871 12.8091C71.8117 12.8091 71.3849 12.919 71.0066 13.1387C70.6289 13.3584 70.3302 13.6696 70.1106 14.0724C69.8909 14.4751 69.7814 14.9633 69.7814 15.537C69.7814 16.0984 69.8909 16.5867 70.1106 17.0016C70.3302 17.4044 70.6289 17.7156 71.0066 17.9353C71.3849 18.155 71.8117 18.2649 72.2871 18.2649ZM84.7353 20.4618V18.5394L84.5524 18.1184V14.6766C84.5524 14.0662 84.3638 13.5902 83.9855 13.2486C83.6196 12.9068 83.0528 12.7359 82.285 12.7359C81.7604 12.7359 81.2421 12.8213 80.7301 12.9922C80.2304 13.1509 79.8036 13.3706 79.4501 13.6513L78.426 11.6558C78.9623 11.2774 79.6082 10.9845 80.3642 10.777C81.1202 10.5695 81.8886 10.4658 82.6689 10.4658C84.1684 10.4658 85.3332 10.8198 86.162 11.5276C86.9915 12.2355 87.4059 13.3401 87.4059 14.8413V20.4618H84.7353ZM81.7362 20.6082C80.9677 20.6082 80.3094 20.4801 79.7606 20.2238C79.2124 19.9553 78.7918 19.5952 78.4988 19.1436C78.2063 18.6921 78.0601 18.1855 78.0601 17.6241C78.0601 17.0382 78.2001 16.5256 78.4807 16.0862C78.7732 15.6469 79.2305 15.3051 79.8521 15.061C80.4743 14.8047 81.2851 14.6766 82.285 14.6766H84.9002V16.3426H82.5955C81.9247 16.3426 81.4618 16.4524 81.2054 16.6721C80.9615 16.8918 80.8402 17.1664 80.8402 17.4959C80.8402 17.8621 80.9802 18.155 81.2608 18.3747C81.5532 18.5822 81.9496 18.6859 82.4493 18.6859C82.9246 18.6859 83.3515 18.5761 83.7298 18.3564C84.1075 18.1245 84.3819 17.7889 84.5524 17.3494L84.9917 18.6676C84.7845 19.3022 84.4061 19.7844 83.858 20.1139C83.3092 20.4434 82.6017 20.6082 81.7362 20.6082ZM89.2564 20.4618V6.87744H92.1092V20.4618H89.2564ZM94.2273 20.4618V7.64638H96.6776L104.231 16.8734H103.042V7.64638H105.969V20.4618H103.536L95.9645 11.2347H97.1536V20.4618H94.2273ZM112.747 20.6082C111.698 20.6082 110.765 20.3886 109.949 19.9491C109.144 19.5098 108.504 18.9118 108.029 18.155C107.565 17.3861 107.334 16.5134 107.334 15.537C107.334 14.5484 107.565 13.6758 108.029 12.919C108.504 12.1501 109.144 11.5521 109.949 11.1249C110.765 10.6854 111.698 10.4658 112.747 10.4658C113.783 10.4658 114.711 10.6854 115.527 11.1249C116.344 11.5521 116.984 12.1439 117.447 12.9007C117.911 13.6574 118.142 14.5362 118.142 15.537C118.142 16.5134 117.911 17.3861 117.447 18.155C116.984 18.9118 116.344 19.5098 115.527 19.9491C114.711 20.3886 113.783 20.6082 112.747 20.6082ZM112.747 18.2649C113.222 18.2649 113.65 18.155 114.028 17.9353C114.405 17.7156 114.704 17.4044 114.924 17.0016C115.143 16.5867 115.253 16.0984 115.253 15.537C115.253 14.9633 115.143 14.4751 114.924 14.0724C114.704 13.6696 114.405 13.3584 114.028 13.1387C113.65 12.919 113.222 12.8091 112.747 12.8091C112.272 12.8091 111.844 12.919 111.467 13.1387C111.09 13.3584 110.784 13.6696 110.553 14.0724C110.333 14.4751 110.223 14.9633 110.223 15.537C110.223 16.0984 110.333 16.5867 110.553 17.0016C110.784 17.4044 111.09 17.7156 111.467 17.9353C111.844 18.155 112.272 18.2649 112.747 18.2649ZM131.92 10.4658C132.7 10.4658 133.388 10.6245 133.987 10.9418C134.595 11.2469 135.071 11.7229 135.413 12.3698C135.766 13.0044 135.944 13.8222 135.944 14.823V20.4618H133.09V15.2624C133.09 14.469 132.926 13.8832 132.597 13.5049C132.267 13.1265 131.803 12.9373 131.207 12.9373C130.791 12.9373 130.42 13.035 130.091 13.2302C129.762 13.4133 129.505 13.6941 129.322 14.0724C129.14 14.4507 129.048 14.9329 129.048 15.5187V20.4618H126.195V15.2624C126.195 14.469 126.03 13.8832 125.701 13.5049C125.384 13.1265 124.926 12.9373 124.33 12.9373C123.914 12.9373 123.543 13.035 123.214 13.2302C122.885 13.4133 122.629 13.6941 122.446 14.0724C122.263 14.4507 122.171 14.9329 122.171 15.5187V20.4618H119.318V10.6122H122.044V13.3034L121.532 12.5162C121.873 11.845 122.354 11.3384 122.976 10.9967C123.61 10.6428 124.33 10.4658 125.134 10.4658C126.036 10.4658 126.822 10.6976 127.494 11.1614C128.176 11.613 128.627 12.3087 128.847 13.2486L127.841 12.9739C128.17 12.205 128.695 11.5947 129.414 11.1431C130.146 10.6915 130.981 10.4658 131.92 10.4658ZM143.805 20.4618V18.5394L143.622 18.1184V14.6766C143.622 14.0662 143.433 13.5902 143.055 13.2486C142.689 12.9068 142.122 12.7359 141.354 12.7359C140.829 12.7359 140.312 12.8213 139.799 12.9922C139.299 13.1509 138.872 13.3706 138.519 13.6513L137.495 11.6558C138.03 11.2774 138.677 10.9845 139.434 10.777C140.188 10.5695 140.957 10.4658 141.738 10.4658C143.238 10.4658 144.401 10.8198 145.231 11.5276C146.06 12.2355 146.475 13.3401 146.475 14.8413V20.4618H143.805ZM140.805 20.6082C140.037 20.6082 139.379 20.4801 138.83 20.2238C138.281 19.9553 137.861 19.5952 137.568 19.1436C137.275 18.6921 137.129 18.1855 137.129 17.6241C137.129 17.0382 137.269 16.5256 137.55 16.0862C137.842 15.6469 138.299 15.3051 138.922 15.061C139.543 14.8047 140.353 14.6766 141.354 14.6766H143.969V16.3426H141.665C140.994 16.3426 140.531 16.4524 140.275 16.6721C140.03 16.8918 139.909 17.1664 139.909 17.4959C139.909 17.8621 140.049 18.155 140.33 18.3747C140.622 18.5822 141.018 18.6859 141.519 18.6859C141.994 18.6859 142.42 18.5761 142.799 18.3564C143.176 18.1245 143.451 17.7889 143.622 17.3494L144.06 18.6676C143.853 19.3022 143.476 19.7844 142.927 20.1139C142.378 20.4434 141.67 20.6082 140.805 20.6082ZM152.621 20.6082C151.694 20.6082 150.86 20.4007 150.115 19.9858C149.372 19.5586 148.781 18.9667 148.341 18.2099C147.915 17.4532 147.701 16.5622 147.701 15.537C147.701 14.4996 147.915 13.6025 148.341 12.8458C148.781 12.089 149.372 11.5032 150.115 11.0882C150.86 10.6732 151.694 10.4658 152.621 10.4658C153.45 10.4658 154.176 10.6489 154.798 11.015C155.419 11.3811 155.901 11.9365 156.242 12.681C156.585 13.4255 156.754 14.3775 156.754 15.537C156.754 16.6842 156.59 17.6362 156.26 18.393C155.931 19.1375 155.456 19.6929 154.834 20.059C154.225 20.4251 153.487 20.6082 152.621 20.6082ZM153.115 18.2649C153.579 18.2649 153.999 18.155 154.377 17.9353C154.756 17.7156 155.054 17.4044 155.273 17.0016C155.506 16.5867 155.621 16.0984 155.621 15.537C155.621 14.9633 155.506 14.4751 155.273 14.0724C155.054 13.6696 154.756 13.3584 154.377 13.1387C153.999 12.919 153.579 12.8091 153.115 12.8091C152.64 12.8091 152.213 12.919 151.834 13.1387C151.457 13.3584 151.153 13.6696 150.92 14.0724C150.701 14.4751 150.591 14.9633 150.591 15.537C150.591 16.0984 150.701 16.5867 150.92 17.0016C151.153 17.4044 151.457 17.7156 151.834 17.9353C152.213 18.155 152.64 18.2649 153.115 18.2649ZM155.694 20.4618V18.4479L155.748 15.5187L155.566 12.6078V6.87744H158.419V20.4618H155.694Z" fill="#0B3B2D"/>
<path fill-rule="evenodd" clip-rule="evenodd" d="M14.7306 0C22.4548 0 28.7165 6.26802 28.7165 14C28.7165 21.732 22.4548 28 14.7306 28C7.00636 28 0.744629 21.732 0.744629 14C0.744629 6.26802 7.00636 0 14.7306 0ZM14.225 1.04761C12.6296 1.27238 11.1103 2.55575 9.93087 4.70218C9.58877 5.32478 9.28009 6.01262 9.0111 6.75534C10.6148 6.35189 12.3763 6.11409 14.225 6.07731V1.04761ZM7.82906 7.09159C8.16357 6.04071 8.57274 5.07388 9.04501 4.21445C9.62965 3.15041 10.3235 2.23157 11.1052 1.52584C6.85425 2.76166 3.50352 6.11575 2.26894 10.371C2.97395 9.58844 3.89188 8.89392 4.95486 8.30872C5.81342 7.83602 6.77926 7.42635 7.82906 7.09159ZM7.49313 8.27475C7.09018 9.88002 6.85259 11.6434 6.81584 13.4939H1.79119C2.01574 11.8968 3.29782 10.376 5.44209 9.19551C6.06407 8.85304 6.75122 8.54404 7.49313 8.27475ZM7.82714 13.4939C7.86889 11.4744 8.15928 9.57836 8.63982 7.90316C10.3134 7.42212 12.2076 7.13135 14.225 7.08954V9.27559C13.4724 11.2043 11.9373 12.7409 10.0104 13.4939H7.82714ZM6.81584 14.5061H1.79119C2.01574 16.1032 3.29782 17.6239 5.44209 18.8045C6.06407 19.147 6.75122 19.4559 7.49313 19.7253C7.09018 18.12 6.85259 16.3566 6.81584 14.5061ZM8.63982 20.0969C8.15928 18.4216 7.86889 16.5256 7.82714 14.5061H10.0104C11.9373 15.2591 13.4725 16.7957 14.225 18.7245V20.9105C12.2076 20.8687 10.3134 20.5778 8.63982 20.0969ZM7.82906 20.9085C6.77926 20.5737 5.81342 20.164 4.95486 19.6913C3.89188 19.1061 2.97395 18.4115 2.26894 17.629C3.50352 21.8842 6.85425 25.2383 11.1052 26.4741C10.3235 25.7684 9.62965 24.8496 9.04501 23.7854C8.57274 22.9261 8.16357 21.9593 7.82906 20.9085ZM14.225 26.9524C12.6296 26.7276 11.1103 25.4442 9.93087 23.2978C9.58877 22.6753 9.28009 21.9873 9.0111 21.2447C10.6148 21.6481 12.3763 21.8859 14.225 21.9227V26.9524ZM18.3559 26.4741C19.1376 25.7684 19.8316 24.8496 20.4162 23.7854C20.8884 22.9261 21.2976 21.9593 21.6321 20.9085C22.6819 20.5737 23.6477 20.164 24.5063 19.6913C25.5692 19.1061 26.4873 18.4115 27.1922 17.629C25.9576 21.8842 22.6069 25.2383 18.3559 26.4741ZM20.4501 21.2447C20.181 21.9873 19.8724 22.6753 19.5303 23.2978C18.351 25.4442 16.8317 26.7276 15.2361 26.9524V21.9227C17.0849 21.8859 18.8464 21.6481 20.4501 21.2447ZM21.968 19.7253C22.7099 19.4559 23.3971 19.147 24.0191 18.8045C26.1633 17.6239 27.4454 16.1032 27.6699 14.5061H22.6454C22.6085 16.3566 22.371 18.12 21.968 19.7253ZM21.6341 14.5061C21.5924 16.5256 21.3018 18.4216 20.8214 20.0969C19.1478 20.5778 17.2536 20.8687 15.2361 20.9105V18.7261C15.9885 16.7966 17.5239 15.2594 19.4514 14.5061H21.6341ZM22.6454 13.4939H27.6699C27.4454 11.8968 26.1633 10.376 24.0191 9.19551C23.3971 8.85304 22.7099 8.54404 21.968 8.27475C22.371 9.88002 22.6085 11.6434 22.6454 13.4939ZM20.8214 7.90316C21.3018 9.57836 21.5924 11.4744 21.6341 13.4939H19.4514C17.5239 12.7406 15.9885 11.2034 15.2361 9.27397V7.08954C17.2536 7.13135 19.1478 7.42212 20.8214 7.90316ZM21.6321 7.09159C22.6819 7.42635 23.6477 7.83602 24.5063 8.30872C25.5692 8.89392 26.4873 9.58844 27.1922 10.371C25.9576 6.11575 22.6069 2.76166 18.3559 1.52584C19.1376 2.23157 19.8316 3.15041 20.4162 4.21445C20.8884 5.07388 21.2976 6.04071 21.6321 7.09159ZM15.2361 1.04761C16.8317 1.27238 18.351 2.55575 19.5303 4.70218C19.8724 5.32479 20.181 6.01262 20.4501 6.75534C18.8464 6.35189 17.0849 6.11409 15.2361 6.07731V1.04761Z" fill="#0B3B2D"/>
</g>
<defs>
<clipPath id="clip0_36_3">
<rect width="165.511" height="28" fill="white" transform="translate(0.744629)"/>
</clipPath>
</defs>
</svg>
