<svg width="109" height="34" viewBox="0 0 109 34" fill="none" xmlns="http://www.w3.org/2000/svg">
<g clip-path="url(#clip0_128_1786)">
<path d="M28.7815 2.54006C28.7683 2.51355 28.7372 2.49587 28.7062 2.50471C28.436 2.61961 28.1657 2.71683 27.8866 2.81847C27.1202 3.1013 26.3227 3.28691 25.5252 3.47251C24.6126 3.6758 23.6822 3.82163 22.7739 4.04701C21.9898 4.23703 21.21 4.46683 20.4569 4.76734C19.8898 4.9883 19.3315 5.22693 18.8088 5.53186C18.1885 5.87214 17.6879 6.38034 17.2005 6.88413C16.7531 7.35256 16.3012 7.821 15.9069 8.33804C15.6853 8.62971 15.4993 8.94789 15.322 9.26607C15.6012 8.21431 15.991 7.1537 16.7043 6.31405C16.7575 6.24777 16.6955 6.16822 16.6202 6.20358C16.4385 6.29196 16.2702 6.40686 16.0974 6.51292C14.7771 7.4056 13.5986 8.51481 12.5841 9.73893C12.0879 10.3444 11.6094 10.963 11.2151 11.6392C10.7588 12.4302 10.4132 13.2831 10.1651 14.1625C10.1385 13.6411 10.1828 13.1196 10.2537 12.6026C10.267 12.5098 10.2803 12.4214 10.2847 12.3286C10.2847 12.2667 10.3024 12.1783 10.2404 12.143C10.1961 12.1209 10.1518 12.143 10.1208 12.1783C10.0809 12.2181 10.0499 12.2623 10.0145 12.3065C9.94359 12.3993 9.8727 12.4965 9.80625 12.5937C9.58473 12.9075 9.38536 13.2389 9.21258 13.5836C8.78726 14.4542 8.39739 15.3336 8.00308 16.2175C7.60435 17.1013 7.23663 18.0028 6.85118 18.8911C6.48346 19.7307 6.0803 20.5571 5.66384 21.3747C5.43789 21.8122 5.20751 22.2497 4.93726 22.6651C4.82207 22.8418 4.70245 23.0142 4.5784 23.1821C4.59612 23.1468 4.61384 23.1158 4.63156 23.0805C4.99485 22.369 5.24296 21.6089 5.4689 20.8444C5.65498 20.3538 5.84106 19.8633 6.04928 19.386C6.29296 18.8425 6.51004 18.2901 6.71827 17.7332C7.13473 16.6815 7.63979 15.6739 8.21574 14.6973C8.58789 14.0653 8.98663 13.4466 9.34992 12.8058C9.69106 12.2048 9.96131 11.5685 10.2714 10.9542C10.5018 10.4946 10.7366 10.035 10.936 9.56216C10.9936 9.42958 11.0512 9.29259 11.1043 9.15559C11.1265 9.08931 11.1531 9.0186 11.1664 8.94789C11.1664 8.92138 11.1708 8.89044 11.1531 8.86393C11.1132 8.80206 11.0334 8.82416 10.9847 8.86393C10.8429 8.96999 10.71 9.08047 10.5727 9.19537C10.1296 9.571 9.66891 9.92453 9.19485 10.2604C10.2094 9.03186 11.2904 7.77681 11.7777 6.23009C11.8132 6.09751 11.9107 5.76607 11.8132 5.65559C11.7467 5.59815 11.6714 5.67769 11.6315 5.7263C11.2195 6.23893 10.7853 6.73388 10.3024 7.18022C10.4885 6.88855 10.6657 6.58804 10.8252 6.2787C11.091 5.7484 11.3524 5.21368 11.5695 4.66128C11.8265 3.98514 12.0214 3.29133 12.2252 2.60193C12.4334 1.85067 12.6195 1.09057 12.8455 0.343726C12.8676 0.273019 12.8898 0.202312 12.9031 0.127186C12.9031 0.10509 12.9119 0.078575 12.9031 0.056479C12.8898 0.0167063 12.841 -0.00980889 12.8012 0.00344869C12.7657 0.0122871 12.7303 0.034383 12.6993 0.0608982C12.2474 0.485141 11.8442 0.957994 11.41 1.39549C11.091 1.72251 10.7676 2.05395 10.4619 2.39423C9.84612 3.09246 9.29675 3.85257 8.86258 4.67453C8.46827 5.42138 8.1803 6.23009 8.00308 7.05648C7.76384 8.13476 7.6841 9.23956 7.53346 10.3311C7.36068 9.85825 7.25878 9.35888 7.23663 8.85067C7.22777 8.68274 7.2189 8.50597 7.21004 8.32479C7.21004 8.24082 7.21004 8.05963 7.08156 8.09941C7.04169 8.1215 7.01954 8.1657 6.99739 8.20989C6.95751 8.28943 6.92207 8.3734 6.88663 8.45736C6.77587 8.71368 6.65182 8.96115 6.53663 9.21304C6.20878 9.92011 5.92523 10.6537 5.77903 11.4182C5.65055 12.0457 5.58409 12.6865 5.58409 13.3229C5.58409 14.2156 5.72144 15.095 5.71701 15.9921C5.47334 15.5988 5.22523 15.201 5.12334 14.7415C5.07017 14.5249 5.0303 14.3084 4.99485 14.0918C4.98599 14.03 4.9727 13.9637 4.96384 13.9018C4.95498 13.8576 4.95498 13.8002 4.91954 13.7692C4.83979 13.7074 4.78663 13.8134 4.7689 13.8797C4.61827 14.357 4.54296 14.8608 4.52523 15.3646C4.50308 15.8728 4.55182 16.381 4.60055 16.8892C4.64485 17.3488 4.69359 17.8084 4.7246 18.2724C4.70245 18.4403 4.69359 18.6082 4.6803 18.7762C4.62713 19.6026 4.53409 20.429 4.3746 21.2421C4.26827 21.8961 4.13093 22.5413 3.90055 23.1689C3.76764 23.6152 3.59485 24.0483 3.37777 24.4593C3.34232 24.5167 3.31131 24.5786 3.2803 24.636C2.85055 25.4005 2.45625 26.1827 2.02207 26.9428C1.76068 27.3892 1.50815 27.8444 1.27334 28.3084C1.10055 28.6089 0.94106 28.9138 0.803718 29.2276C0.684098 29.4927 0.568908 29.7623 0.462579 30.0319C0.422705 30.1468 0.307516 30.3766 0.369541 30.4915C0.462579 30.5754 0.537895 30.4649 0.59549 30.3456C0.608781 30.3324 0.622072 30.3191 0.630933 30.3058C0.666376 30.2572 0.697389 30.2086 0.723971 30.1556C0.794857 30.0363 0.865743 29.9214 0.932199 29.8065C1.2246 29.2983 1.50815 28.7856 1.79612 28.273C2.22587 27.4776 2.69549 26.7042 3.16954 25.9308C3.24928 25.8027 3.3246 25.6745 3.40435 25.542C3.50182 25.4005 3.59928 25.2635 3.70118 25.1221C3.88283 24.8747 4.07777 24.636 4.29042 24.4151C4.55182 24.1278 4.87966 23.8494 5.18536 23.6064C5.6284 23.2484 6.02713 22.8418 6.41701 22.4308C7.32523 21.4454 8.1803 20.4113 9.06637 19.4037C9.65561 18.6966 10.2891 18.0161 10.967 17.3974C11.4676 16.9776 11.986 16.5754 12.5132 16.1909C13.355 15.5899 14.241 15.0552 15.0784 14.4454C16.0664 13.725 17.0322 12.9738 17.9183 12.1297C17.9448 12.0988 17.9758 12.0634 17.9581 12.0192C17.9404 11.9618 17.8695 11.9706 17.8208 11.9839C17.6214 12.0369 17.4309 12.1165 17.236 12.1651C17.0366 12.2093 16.8328 12.249 16.6334 12.2844C16.0885 12.3904 15.5303 12.4346 14.9765 12.4391C15.291 12.3197 15.61 12.2048 15.929 12.0988C16.722 11.8601 17.5239 11.6569 18.2993 11.3652C19.6771 10.8923 20.8822 10.0439 21.9853 9.1114C22.2556 8.88602 22.5303 8.66065 22.7784 8.40875C22.8227 8.35572 22.8891 8.30711 22.898 8.23198C22.898 8.1436 22.7917 8.1436 22.7252 8.16128C22.105 8.29385 21.4803 8.42201 20.8512 8.4883C20.4347 8.52807 20.0005 8.559 19.5841 8.48388C20.067 8.33804 20.5543 8.20989 21.0505 8.10825C21.5113 8.01544 21.9765 7.92706 22.4239 7.79006C23.1195 7.58678 23.7442 7.18905 24.2758 6.70294C24.5948 6.39802 24.8917 6.071 25.1841 5.73956C25.4942 5.38602 25.7733 5.00597 26.1012 4.6657C26.5309 4.21494 27.0005 3.80395 27.5012 3.43716C27.8733 3.14549 28.272 2.89802 28.6841 2.6638C28.7151 2.64613 28.7461 2.63729 28.7771 2.61961C28.8037 2.60193 28.8126 2.571 28.7993 2.54006H28.7815ZM4.56954 23.5356C4.56954 23.5356 4.56954 23.5356 4.56068 23.5356H4.56511H4.56954ZM5.6284 18.785C5.96954 17.6714 6.29739 16.5533 6.65182 15.4441C6.98409 14.3084 7.31637 13.1726 7.66637 12.0457C8.05625 10.7111 8.36637 9.35446 8.7784 8.02428C9.0708 7.08741 9.39865 6.15938 9.76637 5.24903C10.0986 4.42706 10.4708 3.61835 10.9758 2.88476C10.5638 3.8614 10.1385 4.82921 9.77966 5.82352C9.43409 6.69411 9.14169 7.58236 8.88916 8.48388C8.27334 10.4769 7.90118 12.5363 7.30751 14.5338C7.05498 15.4176 6.77144 16.2926 6.46574 17.1632C6.24865 17.7863 5.99169 18.4094 5.77903 19.0325C5.30498 20.4157 4.86637 21.8122 4.32587 23.1733C4.31701 23.1821 4.30815 23.1909 4.29928 23.1998C4.28156 23.1954 4.26384 23.1998 4.25055 23.2042C4.34359 22.9125 4.4322 22.6165 4.50751 22.3204C4.86637 21.136 5.26068 19.9649 5.6284 18.785ZM18.9461 7.92264C18.4322 8.27618 17.9183 8.62971 17.4309 9.01418C16.6202 9.65938 15.8315 10.3267 15.0474 11.0028C14.591 11.4094 14.179 11.8646 13.7493 12.3021C13.3239 12.744 12.8942 13.1771 12.491 13.6367C11.955 14.2332 11.4056 14.821 10.8917 15.4397C10.4398 15.97 10.0277 16.5356 9.62017 17.1013C9.3189 17.5034 9.01321 17.9056 8.72966 18.321C8.39296 18.8027 8.04296 19.2711 7.70625 19.7528C7.36954 20.2389 7.03726 20.725 6.70941 21.2156C6.50118 21.5249 6.29296 21.8387 6.04928 22.1259C5.76131 22.4662 5.46447 22.8242 5.13663 23.1379C5.01258 23.2484 4.89296 23.3589 4.77334 23.4738C4.77334 23.4738 4.77334 23.4738 4.7689 23.4738C4.71131 23.4605 4.71131 23.4075 4.7246 23.3633C4.95941 23.1026 5.19422 22.8463 5.4246 22.5811C5.70372 22.2585 5.95625 21.9138 6.19106 21.5603C7.44042 19.7396 8.70308 17.9233 10.0455 16.1644C10.5461 15.5148 11.0645 14.874 11.6227 14.273C12.5841 13.2566 13.5765 12.2755 14.5689 11.2856C15.8493 10.0129 17.2138 8.81974 18.698 7.79006C19.8809 6.99461 21.1391 6.31405 22.4372 5.7263C21.2233 6.37592 20.0891 7.16696 18.9461 7.92706V7.92264Z" fill="white" fill-opacity="0.43"/>
<path d="M20.0383 30.2837C20.0029 30.3588 19.9542 30.4251 19.901 30.487C19.3428 31.0659 18.5187 31.3664 17.739 31.5211C16.9504 31.6846 16.1396 31.5343 15.3687 31.362C16.1352 30.73 16.9947 29.992 17.1675 28.9623C17.3358 27.7294 16.1706 26.9295 15.0497 26.8765C11.3016 26.7528 7.91681 28.7812 4.74022 30.5356C3.53516 31.194 2.19276 32.0381 0.761739 31.7067C0.562372 31.6492 0.358575 31.5211 0.296549 31.3089C0.30098 31.2515 0.274397 31.1852 0.216803 31.1587C-0.226235 31.0703 0.0883217 31.6934 0.292119 31.8039C2.05098 32.807 4.49655 30.9466 6.05162 30.1423C7.65541 29.2673 9.31238 28.3834 11.058 27.8134C12.5067 27.3847 14.2213 26.9074 15.7143 27.3096C16.4763 27.5305 17.07 28.326 16.8263 29.1214C16.5206 30.0406 15.7276 30.6903 14.9877 31.2647C13.8225 30.9863 12.613 30.6814 11.408 30.8538C10.7434 30.9731 9.97693 31.2073 9.64466 31.8437C9.1263 32.8866 10.4244 33.0899 11.1776 33.0678C12.5909 33.0236 13.9377 32.4447 15.0542 31.5918C16.3213 31.9232 17.5751 32.0469 18.8111 31.5255C19.3694 31.2692 20.0029 30.9863 20.3042 30.4163C20.3972 30.2439 20.1225 30.1025 20.0339 30.2748L20.0383 30.2837ZM11.1377 32.7717C10.7301 32.7408 10.0124 32.7982 9.83959 32.343C9.81301 31.7685 10.451 31.4327 10.9295 31.2868C12.1567 30.9156 13.4504 31.225 14.6643 31.5078C13.6409 32.2546 12.4137 32.7363 11.1377 32.7717Z" fill="white" fill-opacity="0.43"/>
<path d="M33.8351 23.042V10.407H28.8047V7.4707H42.5036V10.407H37.4732V23.042H33.8351Z" fill="white" fill-opacity="0.43"/>
<path d="M50.5016 23.0421V20.7064L50.277 20.1948V16.0128C50.277 15.2713 50.045 14.693 49.5809 14.2777C49.1317 13.8625 48.4355 13.6549 47.4923 13.6549C46.8486 13.6549 46.2123 13.7587 45.5835 13.9663C44.9696 14.1591 44.4456 14.426 44.0114 14.7671L42.7538 12.3424C43.4126 11.8827 44.2061 11.5268 45.1343 11.2747C46.0625 11.0226 47.0058 10.8965 47.9639 10.8965C49.8054 10.8965 51.2352 11.3266 52.2533 12.1867C53.2713 13.0468 53.7804 14.3889 53.7804 16.213V23.0421H50.5016ZM46.8186 23.2201C45.8754 23.2201 45.0669 23.0644 44.3932 22.7529C43.7195 22.4267 43.203 21.9892 42.8437 21.4405C42.4843 20.8918 42.3047 20.2764 42.3047 19.5942C42.3047 18.8824 42.4769 18.2595 42.8212 17.7256C43.1805 17.1918 43.742 16.7765 44.5055 16.4799C45.2691 16.1685 46.2647 16.0128 47.4923 16.0128H50.7037V18.0371H47.8741C47.0507 18.0371 46.4817 18.1705 46.1673 18.4375C45.8679 18.7044 45.7182 19.0381 45.7182 19.4385C45.7182 19.8834 45.8904 20.2393 46.2347 20.5062C46.594 20.7583 47.0806 20.8844 47.6944 20.8844C48.2783 20.8844 48.8023 20.7509 49.2665 20.484C49.7306 20.2022 50.0674 19.7944 50.277 19.2605L50.816 20.8621C50.5615 21.6333 50.0974 22.2191 49.4237 22.6195C48.7499 23.0199 47.8816 23.2201 46.8186 23.2201Z" fill="white" fill-opacity="0.43"/>
<path d="M60.5059 23.2201C59.4729 23.2201 58.4773 23.1014 57.5191 22.8642C56.5759 22.6121 55.8273 22.3006 55.2734 21.9299L56.4412 19.4385C56.9951 19.7796 57.6464 20.0613 58.395 20.2838C59.1585 20.4914 59.9071 20.5952 60.6407 20.5952C61.4491 20.5952 62.0181 20.4988 62.3474 20.306C62.6918 20.1132 62.864 19.8463 62.864 19.5052C62.864 19.2235 62.7292 19.0158 62.4597 18.8824C62.2052 18.7341 61.8609 18.6228 61.4267 18.5487C60.9925 18.4746 60.5134 18.4004 59.9894 18.3263C59.4804 18.2521 58.9639 18.1557 58.4399 18.0371C57.9159 17.9036 57.4368 17.7108 57.0026 17.4587C56.5684 17.2066 56.2166 16.8655 55.9471 16.4355C55.6926 16.0054 55.5653 15.4493 55.5653 14.7671C55.5653 14.0108 55.7824 13.3434 56.2166 12.7651C56.6657 12.1867 57.3095 11.7344 58.1479 11.4082C58.9863 11.0671 59.9894 10.8965 61.1572 10.8965C61.9806 10.8965 62.819 10.9855 63.6724 11.1635C64.5258 11.3414 65.2369 11.6009 65.8059 11.942L64.6381 14.4112C64.0542 14.0701 63.4628 13.8402 62.864 13.7216C62.2801 13.5881 61.7111 13.5214 61.1572 13.5214C60.3787 13.5214 59.8098 13.6252 59.4504 13.8328C59.0911 14.0404 58.9115 14.3074 58.9115 14.6336C58.9115 14.9302 59.0387 15.1527 59.2932 15.301C59.5627 15.4493 59.9146 15.5679 60.3487 15.6569C60.7829 15.7459 61.2545 15.8274 61.7635 15.9016C62.2875 15.9609 62.8116 16.0573 63.3356 16.1908C63.8596 16.3242 64.3312 16.517 64.7504 16.7691C65.1845 17.0064 65.5364 17.3401 65.8059 17.7701C66.0753 18.1854 66.2101 18.7341 66.2101 19.4162C66.2101 20.1577 65.9855 20.8177 65.5364 21.396C65.0872 21.9596 64.436 22.4044 63.5826 22.7307C62.7442 23.057 61.7186 23.2201 60.5059 23.2201Z" fill="white" fill-opacity="0.43"/>
<path d="M70.7564 20.5948L70.8462 16.3683L76.483 11.0741H80.6601L75.2479 16.524L73.4288 17.9922L70.7564 20.5948ZM67.8594 23.0417V6.53613H71.3627V23.0417H67.8594ZM76.8648 23.0417L72.7776 18.0144L74.9784 15.3228L81.1092 23.0417H76.8648Z" fill="white" fill-opacity="0.43"/>
<path d="M82.1766 23.0417V11.0741H85.68V23.0417H82.1766ZM83.9283 9.40573C83.2845 9.40573 82.7605 9.22036 82.3563 8.84962C81.9521 8.47887 81.75 8.01915 81.75 7.47044C81.75 6.92174 81.9521 6.46202 82.3563 6.09127C82.7605 5.72053 83.2845 5.53516 83.9283 5.53516C84.5721 5.53516 85.0961 5.71311 85.5003 6.06903C85.9046 6.41012 86.1067 6.85501 86.1067 7.40371C86.1067 7.98207 85.9046 8.46404 85.5003 8.84962C85.1111 9.22036 84.5871 9.40573 83.9283 9.40573Z" fill="white" fill-opacity="0.43"/>
<path d="M88.8484 23.0419V10.8073C88.8484 9.45783 89.2526 8.38267 90.0611 7.58186C90.8695 6.76622 92.0223 6.3584 93.5195 6.3584C94.0285 6.3584 94.5151 6.4103 94.9792 6.51411C95.4583 6.61792 95.8625 6.78105 96.1919 7.0035L95.2712 9.51715C95.0765 9.38368 94.8594 9.27987 94.6199 9.20572C94.3804 9.13157 94.1258 9.0945 93.8563 9.0945C93.3473 9.0945 92.9506 9.24279 92.6661 9.53939C92.3966 9.82116 92.2619 10.2512 92.2619 10.8296V11.9418L92.3517 13.4322V23.0419H88.8484ZM86.9844 14.0106V11.3412H95.361V14.0106H86.9844Z" fill="white" fill-opacity="0.43"/>
<path d="M98.3413 27.5353C97.7125 27.5353 97.0911 27.4389 96.4773 27.2461C95.8635 27.0533 95.3619 26.7864 94.9727 26.4453L96.2527 23.9761C96.5222 24.2134 96.8291 24.3988 97.1735 24.5322C97.5328 24.6657 97.8846 24.7324 98.229 24.7324C98.723 24.7324 99.1123 24.6138 99.3968 24.3765C99.6962 24.1541 99.9657 23.7759 100.206 23.242L100.834 21.7739L101.104 21.3957L105.438 11.0742H108.807L103.35 23.7759C102.96 24.7398 102.511 25.4962 102.002 26.0449C101.508 26.5936 100.954 26.9791 100.34 27.2016C99.7411 27.424 99.0749 27.5353 98.3413 27.5353ZM100.408 23.509L95.0176 11.0742H98.6332L102.811 21.0843L100.408 23.509Z" fill="white" fill-opacity="0.43"/>
</g>
<defs>
<clipPath id="clip0_128_1786">
<rect width="109" height="34" fill="white"/>
</clipPath>
</defs>
</svg>
