<svg xmlns="http://www.w3.org/2000/svg" xmlns:xlink="http://www.w3.org/1999/xlink" viewBox="0,0,256,256" width="100px" height="100px" fill-rule="nonzero"><g fill="#ffffff" fill-rule="nonzero" stroke="none" stroke-width="1" stroke-linecap="butt" stroke-linejoin="miter" stroke-miterlimit="10" stroke-dasharray="" stroke-dashoffset="0" font-family="none" font-weight="none" font-size="none" text-anchor="none" style="mix-blend-mode: normal"><g transform="scale(10.66667,10.66667)"><path d="M11.99414,2c-5.51434,0 -10,4.48145 -10,9.99219c0,4.61244 3.12284,8.49095 7.36719,9.65625l0.63281,0.17383v-3.82227v-1v-0.00781c0,-0.53657 0.20518,-1.01031 0.55078,-1.37695l0.58398,-0.61719l-0.82422,-0.20899c-1.99319,-0.50688 -3.31055,-1.8359 -3.31055,-3.28906c0,-0.7758 0.3625,-1.50773 1.01758,-2.11133l0.20703,-0.19141l-0.05469,-0.27539c-0.10191,-0.50829 -0.08559,-1.04544 -0.09375,-1.57617c0.53874,0.23716 1.08737,0.44913 1.57031,0.82813l0.19727,0.15625l0.24219,-0.06641c0.59576,-0.16257 1.24128,-0.26172 1.91602,-0.26172c0.6726,0 1.31962,0.09926 1.91406,0.26172l0.24219,0.06641l0.19726,-0.15625c0.4825,-0.37864 1.03135,-0.59102 1.57031,-0.82812c-0.0087,0.53135 0.0081,1.06796 -0.09375,1.57617l-0.05469,0.27734l0.20703,0.18945c0.65524,0.60375 1.01758,1.33784 1.01758,2.11328c0,1.4518 -1.31913,2.77925 -3.3125,3.28711l-0.82031,0.20899l0.58008,0.61914c0.34541,0.36731 0.55274,0.84139 0.55274,1.37695l-0.00195,4.82813l0.63281,-0.17383c4.24538,-1.1653 7.36719,-5.04374 7.36719,-9.65625c0,-5.51074 -4.48566,-9.99219 -10,-9.99219zM11.99414,3c4.97366,0 9,4.02292 9,8.99219c0,3.91286 -2.52693,7.14884 -6,8.40234l0.00195,-3.40039c0,-0.57757 -0.31183,-1.03408 -0.5957,-1.49219c2.02715,-0.69036 3.5957,-2.12495 3.5957,-4c0,-0.99789 -0.47112,-1.8999 -1.17383,-2.62891c0.13642,-0.7832 0.20653,-1.58419 0.14453,-2.41016l-0.04883,-0.63477l-0.60547,0.19727c-0.83145,0.27039 -1.61688,0.70115 -2.35742,1.24414c-0.61561,-0.15241 -1.26443,-0.26758 -1.95898,-0.26758c-0.69568,0 -1.34534,0.11545 -1.96094,0.26758c-0.74022,-0.54285 -1.52493,-0.97373 -2.35547,-1.24414l-0.60547,-0.19727l-0.04883,0.63477c-0.0639,0.82592 0.00644,1.62573 0.14258,2.4082c-0.70332,0.72933 -1.17383,1.63082 -1.17383,2.62891c0,1.87569 1.56846,3.31235 3.5957,4.00195c-0.28327,0.45819 -0.5957,0.91403 -0.5957,1.49023v0.00781h-1.5c-0.27585,0 -0.49475,-0.1489 -0.76367,-0.48047c-0.26892,-0.33157 -0.52785,-0.81373 -0.80664,-1.27734l-0.25781,-0.42774l-0.85742,0.51563l0.25781,0.42773c0.25821,0.42939 0.5276,0.9474 0.88867,1.39258c0.36108,0.44518 0.87191,0.84961 1.53906,0.84961h1.5v2.39258c-3.47206,-1.25344 -6,-4.48753 -6,-8.40039c0,-4.96926 4.02634,-8.99219 9,-8.99219z"></path></g></g></svg>