<svg xmlns="http://www.w3.org/2000/svg" xmlns:xlink="http://www.w3.org/1999/xlink" viewBox="0,0,256,256" width="100px" height="100px" fill-rule="nonzero"><g fill="#ffffff" fill-rule="nonzero" stroke="none" stroke-width="1" stroke-linecap="butt" stroke-linejoin="miter" stroke-miterlimit="10" stroke-dasharray="" stroke-dashoffset="0" font-family="none" font-weight="none" font-size="none" text-anchor="none" style="mix-blend-mode: normal"><g transform="scale(10.66667,10.66667)"><path d="M18,2c-1.27083,0 -2.31893,0.50357 -2.99805,1.26758c-0.67912,0.76401 -1.00195,1.75326 -1.00195,2.73242c0,0.80725 0.27874,1.5921 0.73633,2.28125l-2.12305,2.96875h-2.74023c-0.1256,-0.71772 -0.37182,-1.41635 -0.875,-1.98242c-0.67912,-0.76401 -1.72721,-1.26758 -2.99805,-1.26758c-1.27083,0 -2.31893,0.50357 -2.99805,1.26758c-0.67912,0.76401 -1.00195,1.75325 -1.00195,2.73242c0,0.97917 0.32283,1.96841 1.00195,2.73242c0.67912,0.76401 1.72721,1.26758 2.99805,1.26758c1.27083,0 2.31893,-0.50357 2.99805,-1.26758c0.50318,-0.56607 0.7494,-1.2647 0.875,-1.98242h2.74023l2.12305,2.96875c-0.45758,0.68915 -0.73633,1.474 -0.73633,2.28125c0,0.97917 0.32283,1.96841 1.00195,2.73242c0.67912,0.76401 1.72721,1.26758 2.99805,1.26758c1.27083,0 2.31893,-0.50357 2.99805,-1.26758c0.67912,-0.76401 1.00195,-1.75325 1.00195,-2.73242c0,-0.97917 -0.32283,-1.96841 -1.00195,-2.73242c-0.67912,-0.76401 -1.72721,-1.26758 -2.99805,-1.26758c-0.85905,0 -1.5596,0.28684 -2.16992,0.67188l-1.9082,-2.67187l1.9082,-2.67187c0.61032,0.38503 1.31088,0.67188 2.16992,0.67188c1.27083,0 2.31893,-0.50357 2.99805,-1.26758c0.67912,-0.76401 1.00195,-1.75326 1.00195,-2.73242c0,-0.97917 -0.32283,-1.96841 -1.00195,-2.73242c-0.67912,-0.76401 -1.72721,-1.26758 -2.99805,-1.26758zM18,3.5c0.89583,0 1.47274,0.30893 1.87695,0.76367c0.40421,0.45474 0.62305,1.09049 0.62305,1.73633c0,0.64583 -0.21883,1.28159 -0.62305,1.73633c-0.40421,0.45474 -0.98112,0.76367 -1.87695,0.76367c-0.89583,0 -1.47274,-0.30893 -1.87695,-0.76367c-0.40421,-0.45474 -0.62305,-1.09049 -0.62305,-1.73633c0,-0.64583 0.21884,-1.28159 0.62305,-1.73633c0.40421,-0.45474 0.98112,-0.76367 1.87695,-0.76367zM6,9.5c0.89583,0 1.47274,0.30893 1.87695,0.76367c0.40421,0.45474 0.62305,1.0905 0.62305,1.73633c0,0.64583 -0.21884,1.28159 -0.62305,1.73633c-0.40421,0.45474 -0.98112,0.76367 -1.87695,0.76367c-0.89583,0 -1.47274,-0.30893 -1.87695,-0.76367c-0.40421,-0.45474 -0.62305,-1.0905 -0.62305,-1.73633c0,-0.64583 0.21883,-1.28159 0.62305,-1.73633c0.40421,-0.45474 0.98112,-0.76367 1.87695,-0.76367zM18,15.5c0.89583,0 1.47274,0.30893 1.87695,0.76367c0.40421,0.45474 0.62305,1.0905 0.62305,1.73633c0,0.64583 -0.21883,1.28159 -0.62305,1.73633c-0.40421,0.45474 -0.98112,0.76367 -1.87695,0.76367c-0.89583,0 -1.47274,-0.30893 -1.87695,-0.76367c-0.40421,-0.45474 -0.62305,-1.0905 -0.62305,-1.73633c0,-0.64583 0.21884,-1.28159 0.62305,-1.73633c0.40421,-0.45474 0.98112,-0.76367 1.87695,-0.76367z"></path></g></g></svg>