<svg width="134" height="134" viewBox="0 0 134 134" fill="none" xmlns="http://www.w3.org/2000/svg">
<path d="M87.8666 15.7333C71.7332 24.1333 72.9332 37.2 90.3999 43.4666C102.933 47.8666 106.667 49.7333 107.467 52.4C108.667 56.2666 104.267 61.4666 95.1999 66.2666C89.4666 69.4666 87.4666 71.2 87.8666 72.9333C89.7332 82.6666 89.4666 89.6 86.6666 95.3333C83.0666 102.667 74.1332 110.8 64.1332 115.6C58.1332 118.667 54.9332 119.333 47.3332 119.333C36.1332 119.2 28.7999 116 23.0666 108.4C19.8666 104.133 19.3332 102.4 19.3332 94.5333C19.3332 86.5333 19.7332 85.0666 23.4666 80.4C31.5999 70.4 50.9332 63.6 66.6666 65.3333L72.6666 66L66.6666 68.4C54.6666 73.2 54.6666 73.0666 66.5332 85.2C72.5332 91.0666 77.5999 96 77.9999 96C80.6666 96 77.4666 90.5333 70.6666 83.4666L62.6666 75.2L67.4666 72.8C70.1332 71.6 74.9332 70.2666 78.1332 69.7333C89.5999 68.2666 87.4666 64.8 73.1999 61.8666C55.3332 58.1333 36.1332 63.0666 23.4666 74.6666C16.9332 80.6666 14.3999 86.2667 14.3999 95.0667C14.3999 102.267 16.1332 106.533 21.4666 112.533C28.5332 120.667 34.9332 123.333 47.3332 123.2C56.5332 123.2 59.1999 122.667 66.6666 119.067C76.6666 114.133 86.7999 104.667 90.7999 96.4C93.0666 91.7333 93.4666 88.6666 93.0666 81.3333L92.5332 72.1333L97.5999 69.8666C103.733 67.0666 110.4 60.6666 111.467 56.4C113.333 49.2 109.733 46 91.4666 39.2C87.8666 37.7333 83.7332 35.0666 82.2666 32.9333L79.4666 29.3333L82.1332 25.6C83.5999 23.6 87.4666 20.6666 90.7999 18.9333C93.9999 17.3333 96.7999 15.4666 97.0666 14.8C97.9999 11.8666 94.3999 12.2666 87.8666 15.7333Z" fill="white"/>
</svg>
