<svg width="247" height="43" viewBox="0 0 247 43" fill="none" xmlns="http://www.w3.org/2000/svg">
<path d="M1.3335 21.3334V41.3334H6.00016H10.6668V34.6667V28H17.3335H24.0002V23.3334V18.6667H17.3335C10.8002 18.6667 10.6668 18.5334 10.6668 14.6667C10.6668 10.8 10.6668 10.8 19.7335 10.4L28.6668 10V6.00004V2.00004L15.0668 1.60004L1.3335 1.20004V21.3334Z" fill="#3B3B3B"/>
<path d="M43.0668 3.60004C42.6668 4.93338 39.3335 13.4667 35.7335 22.6667C32.2668 31.8667 29.3335 39.7334 29.3335 40.2667C29.3335 40.9334 31.4668 41.3334 34.0002 41.3334C37.8668 41.3334 38.9335 40.6667 40.0002 38C41.2002 35.0667 42.0002 34.6667 48.6668 34.6667C55.3335 34.6667 56.0002 34.9334 56.8002 38C57.4668 40.8 58.4002 41.3334 62.8002 41.3334H67.8668L64.8002 32.9334C53.7335 3.86671 52.8002 2.00004 48.2668 1.60004C45.0668 1.33338 43.7335 1.73338 43.0668 3.60004ZM51.8668 24.9334C52.0002 26 50.4002 26.6667 48.1335 26.6667H44.1335L46.2668 20.4L48.4002 14.1334L50.1335 18.6667C51.0668 21.2 51.8668 24.1334 51.8668 24.9334Z" fill="#3B3B3B"/>
<path d="M73.3335 21.3334V41.3334H78.0002H82.6668V29.8667C82.6668 23.4667 83.2002 18.8 83.8668 19.2C84.5335 19.6 87.8668 24.8 91.3335 30.6667C97.4668 41.0667 97.7335 41.3334 102.8 41.3334H108.133L107.733 21.6L107.333 2.00004L103.067 1.60004L98.6668 1.20004V11.8667C98.6668 17.8667 98.2668 22.6667 97.6002 22.6667C97.0668 22.6667 93.7335 17.8667 90.1335 12C83.8668 1.60004 83.4668 1.33337 78.5335 1.33337H73.3335V21.3334Z" fill="#3B3B3B"/>
<path d="M121.733 2.79997C120.133 3.59997 118.133 5.99997 117.2 8.13331C114.667 14.5333 117.6 19.3333 126.8 23.7333C131.733 26 134.667 28.1333 134.667 29.6C134.667 33.2 129.733 33.8666 124.8 30.9333C120.533 28.4 120.4 28.4 117.467 30.8C114.8 32.9333 114.667 33.7333 116.133 35.4666C123.467 44.2666 142.4 42.4 144.8 32.5333C146.4 26 144 22.2666 135.067 18C126.933 14.1333 124.667 11.3333 128.667 9.86664C129.733 9.46664 132.4 9.99997 134.533 11.0666C138.267 12.9333 138.667 12.8 141.2 10.1333L144 7.06664L141.333 4.66664C138.133 1.73331 126.133 0.66664 121.733 2.79997Z" fill="#3B3B3B"/>
<path d="M152 21.3333V41.4667L157.067 41.0667L162 40.6667V21.3333V2.00001L157.067 1.60001L152 1.20001V21.3333Z" fill="#3B3B3B"/>
<path d="M179.6 4.26672C174.133 7.46672 169.333 15.7334 169.333 22.1334C169.333 27.6001 173.467 34.8001 178.667 38.2667C183.467 41.6001 193.067 42.4001 199.2 40.0001C202.4 38.8001 202.667 38.0001 202.667 31.3334V24.0001H198C193.733 24.0001 193.333 24.2667 193.333 28.0001C193.333 31.6001 192.933 32.0001 189.333 32.0001C183.733 32.0001 180 27.8667 180 21.6001C180 13.2001 187.6 8.26672 194.667 12.0001C196.533 13.0667 197.467 12.6667 199.2 10.0001C202.133 5.46672 201.867 4.40006 197.2 2.80005C190.8 0.533388 185.2 1.06672 179.6 4.26672Z" fill="#3B3B3B"/>
<path d="M211.6 2.26667C211.067 2.66667 210.667 11.7333 210.667 22.2667V41.4667L215.734 41.0667L220.667 40.6667L221.334 29.6L222 18.4L228.667 29.8667C235.2 40.9333 235.467 41.3333 240.4 41.3333H245.334V21.3333V1.33334H240.667H236V12.2667C235.867 22.9333 235.867 23.2 233.6 20.5333C232.4 18.9333 229.067 14 226.267 9.46667C221.867 2.13334 220.934 1.33334 216.934 1.33334C214.4 1.33334 212 1.73334 211.6 2.26667Z" fill="#3B3B3B"/>
</svg>
