<svg width="1876" height="804" viewBox="0 0 1876 804" fill="none" xmlns="http://www.w3.org/2000/svg">
<path d="M437.034 65.9309C438.575 67.099 440.082 68.2987 441.579 69.5223C442.188 70.0163 442.798 70.5102 443.407 71.0039C444.373 71.7876 445.338 72.5722 446.301 73.3591C448.334 75.0197 450.384 76.6562 452.453 78.2717C455.167 80.3914 457.841 82.5564 460.509 84.734C462.535 86.3852 464.577 88.0135 466.636 89.6223C469.35 91.742 472.025 93.9069 474.692 96.0846C476.718 97.7358 478.76 99.364 480.82 100.973C483.534 103.093 486.208 105.258 488.876 107.435C490.902 109.086 492.943 110.715 495.003 112.323C497.717 114.443 500.392 116.608 503.059 118.786C505.085 120.437 507.127 122.065 509.187 123.674C511.901 125.794 514.575 127.959 517.242 130.136C519.269 131.788 521.31 133.416 523.37 135.025C526.084 137.144 528.758 139.309 531.426 141.487C533.452 143.138 535.494 144.766 537.554 146.375C540.267 148.495 542.942 150.66 545.609 152.838C547.636 154.489 549.677 156.117 551.737 157.726C554.451 159.846 557.125 162.01 559.793 164.188C561.819 165.839 563.861 167.468 565.921 169.076C568.634 171.196 571.309 173.361 573.976 175.539C576.002 177.19 578.044 178.818 580.104 180.427C582.818 182.547 585.492 184.712 588.16 186.889C590.186 188.54 592.228 190.169 594.288 191.778C597.001 193.897 599.676 196.062 602.343 198.24C604.369 199.891 606.411 201.519 608.471 203.128C611.184 205.247 613.858 207.411 616.524 209.588C618.578 211.263 620.652 212.909 622.743 214.538C633.279 222.773 641.848 231.487 646.678 244.185C646.803 244.509 646.929 244.833 647.058 245.167C647.485 246.355 647.835 247.553 648.185 248.767C648.343 249.303 648.501 249.838 648.664 250.39C650.659 257.925 650.344 265.675 650.319 273.403C650.314 275.543 650.32 277.683 650.325 279.822C650.332 283.566 650.332 287.309 650.327 291.052C650.32 296.619 650.323 302.185 650.329 307.752C650.339 317.695 650.338 327.639 650.333 337.582C650.328 346.284 650.327 354.986 650.329 363.688C650.329 364.554 650.329 364.554 650.329 365.438C650.33 367.783 650.331 370.129 650.331 372.474C650.337 394.463 650.332 416.453 650.321 438.443C650.313 457.97 650.313 477.498 650.322 497.026C650.332 518.976 650.337 540.926 650.331 562.876C650.33 565.216 650.329 567.557 650.329 569.898C650.329 570.474 650.329 571.051 650.328 571.644C650.326 580.34 650.329 589.035 650.334 597.731C650.339 607.62 650.338 617.509 650.327 627.398C650.322 632.93 650.321 638.461 650.329 643.993C650.333 647.691 650.33 651.389 650.322 655.088C650.317 657.193 650.316 659.297 650.323 661.402C650.371 677.425 650.371 677.425 648.185 684.819C648.044 685.302 647.904 685.786 647.759 686.284C647.429 687.364 647.057 688.408 646.648 689.459C646.508 689.828 646.368 690.197 646.223 690.576C640.49 705.147 628.498 716.904 614.25 723.175C607.29 725.991 600.061 727.536 592.554 727.505C592.027 727.507 591.5 727.508 590.956 727.51C589.197 727.515 587.437 727.512 585.677 727.51C584.399 727.512 583.122 727.514 581.845 727.516C579.071 727.521 576.297 727.523 573.523 727.522C569.398 727.52 565.273 727.524 561.148 727.529C553.351 727.538 545.553 727.541 537.756 727.541C531.733 727.542 525.71 727.544 519.687 727.547C517.952 727.548 516.216 727.549 514.481 727.549C514.05 727.55 513.618 727.55 513.174 727.55C501.043 727.556 488.911 727.56 476.78 727.559C476.323 727.559 475.866 727.559 475.395 727.559C473.077 727.559 470.76 727.559 468.443 727.559C467.983 727.559 467.523 727.559 467.048 727.559C466.118 727.559 465.187 727.559 464.257 727.559C449.783 727.558 435.309 727.565 420.835 727.578C404.564 727.593 388.293 727.601 372.023 727.6C370.287 727.6 368.55 727.6 366.814 727.6C366.173 727.6 366.173 727.6 365.518 727.6C358.65 727.6 351.782 727.606 344.914 727.614C338.007 727.622 331.099 727.623 324.191 727.617C320.092 727.613 315.993 727.615 311.894 727.624C309.15 727.63 306.406 727.629 303.662 727.622C302.103 727.618 300.543 727.618 298.984 727.625C280.668 727.698 265.17 722.458 251.993 709.412C246.443 703.698 242.169 696.899 239.346 689.459C239.219 689.132 239.091 688.805 238.96 688.468C236.452 681.521 235.636 674.461 235.678 667.128C235.676 666.292 235.673 665.456 235.669 664.619C235.662 662.349 235.665 660.079 235.671 657.809C235.676 655.349 235.669 652.89 235.664 650.431C235.655 645.624 235.657 640.818 235.663 636.011C235.667 632.102 235.668 628.193 235.666 624.284C235.665 623.726 235.665 623.168 235.665 622.593C235.664 621.459 235.663 620.325 235.663 619.192C235.657 608.579 235.664 597.967 235.674 587.354C235.682 578.263 235.681 569.172 235.672 560.081C235.662 549.504 235.658 538.928 235.664 528.351C235.664 527.222 235.665 526.093 235.666 524.963C235.666 524.13 235.666 524.13 235.666 523.279C235.668 519.379 235.665 515.478 235.661 511.577C235.655 506.818 235.657 502.059 235.667 497.3C235.672 494.875 235.674 492.451 235.668 490.027C235.662 487.801 235.665 485.576 235.675 483.351C235.677 482.552 235.676 481.753 235.672 480.953C235.633 473.731 236.69 466.614 239.317 459.847C239.456 459.48 239.596 459.113 239.74 458.735C245.313 444.615 256.531 432.756 270.432 426.593C277.89 423.527 285.187 421.78 293.256 421.817C293.808 421.818 294.359 421.819 294.928 421.819C296.681 421.822 298.434 421.828 300.187 421.834C301.38 421.836 302.572 421.838 303.764 421.84C306.679 421.846 309.594 421.853 312.509 421.863C312.565 421.544 312.62 421.225 312.677 420.896C313.037 419.248 313.544 417.667 314.076 416.068C314.188 415.728 314.3 415.387 314.415 415.036C314.79 413.897 315.167 412.759 315.544 411.621C315.813 410.804 316.083 409.986 316.352 409.169C317.237 406.486 318.125 403.804 319.014 401.122C319.165 400.666 319.316 400.209 319.472 399.738C320.9 395.427 322.329 391.116 323.76 386.806C325.589 381.301 327.412 375.795 329.227 370.286C330.506 366.408 331.791 362.532 333.08 358.658C333.849 356.346 334.615 354.034 335.375 351.719C336.091 349.539 336.814 347.362 337.543 345.187C337.808 344.391 338.07 343.595 338.33 342.797C340.384 336.493 342.69 330.998 348.86 327.752C353.165 325.79 357.98 325.745 362.428 327.257C367.64 329.501 370.315 332.82 372.402 337.957C373.469 340.722 374.407 343.528 375.338 346.341C375.56 347.007 375.783 347.673 376.005 348.339C376.611 350.154 377.214 351.969 377.816 353.785C378.469 355.749 379.124 357.712 379.778 359.675C380.91 363.071 382.04 366.467 383.169 369.864C384.802 374.775 386.437 379.685 388.072 384.595C390.726 392.562 393.378 400.53 396.029 408.499C398.603 416.237 401.178 423.974 403.754 431.711C403.913 432.189 404.072 432.666 404.236 433.158C405.033 435.553 405.831 437.948 406.629 440.344C413.238 460.194 419.845 480.046 426.45 499.899C427.475 497.373 428.486 494.856 429.339 492.266C429.513 491.741 429.686 491.217 429.865 490.677C430.14 489.839 430.14 489.839 430.42 488.984C430.621 488.377 430.821 487.77 431.022 487.162C431.451 485.864 431.879 484.566 432.307 483.267C432.985 481.208 433.666 479.15 434.347 477.093C436.284 471.245 438.219 465.397 440.146 459.546C441.212 456.307 442.283 453.07 443.357 449.834C443.924 448.126 444.488 446.418 445.049 444.708C445.576 443.099 446.108 441.492 446.644 439.885C446.93 439.024 447.211 438.161 447.491 437.298C449.535 431.202 451.9 426.149 457.801 423.105C459.983 422.086 461.79 421.785 464.204 421.714C464.517 421.704 464.83 421.694 465.152 421.684C466.149 421.653 467.146 421.625 468.143 421.597C468.82 421.577 469.497 421.556 470.174 421.536C471.831 421.485 473.489 421.437 475.146 421.391C475.289 420.887 475.431 420.384 475.578 419.866C478.304 410.389 482.971 402.461 489.803 395.379C490.119 395.032 490.435 394.686 490.761 394.329C496.845 387.845 505.45 383.556 513.915 381.191C514.669 380.964 514.669 380.964 515.438 380.732C524.364 378.477 534.943 378.831 543.7 381.663C544.017 381.762 544.334 381.861 544.661 381.963C551.862 384.259 558.459 387.882 564.029 393.014C564.4 393.354 564.4 393.354 564.777 393.701C572.427 400.813 577.766 409.432 580.577 419.499C580.804 420.253 580.804 420.253 581.035 421.023C583.29 429.952 582.936 440.534 580.104 449.294C580.005 449.611 579.906 449.929 579.805 450.256C577.509 457.459 573.887 464.058 568.757 469.631C568.417 470.001 568.417 470.001 568.07 470.379C560.961 478.031 552.345 483.371 542.281 486.183C541.527 486.41 541.527 486.41 540.758 486.642C531.832 488.897 521.253 488.543 512.496 485.711C512.179 485.612 511.862 485.513 511.535 485.411C504.334 483.115 497.737 479.492 492.167 474.36C491.796 474.02 491.796 474.02 491.419 473.673C483.232 466.062 477.853 456.813 475.146 445.983C473.586 445.827 472.026 445.671 470.419 445.511C470.238 446.205 470.057 446.9 469.871 447.616C468.854 451.338 467.63 454.99 466.418 458.652C466.158 459.442 465.897 460.232 465.637 461.022C464.788 463.597 463.936 466.171 463.083 468.746C462.865 469.405 462.865 469.405 462.642 470.077C461.268 474.228 459.892 478.379 458.514 482.529C456.758 487.817 455.007 493.108 453.263 498.401C452.033 502.134 450.796 505.865 449.555 509.595C448.816 511.818 448.079 514.042 447.349 516.267C446.662 518.361 445.967 520.452 445.267 522.541C445.013 523.305 444.761 524.069 444.512 524.834C442.472 531.101 440.104 536.424 434.014 539.626C428.551 541.784 423.801 541.41 418.413 539.153C412.449 535.721 410.56 529.913 408.534 523.721C408.253 522.879 407.971 522.036 407.689 521.194C407.048 519.278 406.411 517.361 405.777 515.443C404.717 512.235 403.646 509.031 402.573 505.828C399.935 497.947 397.308 490.063 394.683 482.178C393.356 478.191 392.027 474.204 390.699 470.217C388.332 463.112 385.965 456.007 383.599 448.901C381.306 442.015 379.012 435.128 376.718 428.241C376.504 427.6 376.504 427.6 376.287 426.947C375.572 424.803 374.858 422.659 374.144 420.515C368.255 402.835 362.366 385.155 356.478 367.475C355.452 370.003 354.441 372.523 353.586 375.115C353.411 375.64 353.237 376.166 353.058 376.708C352.874 377.268 352.69 377.828 352.5 378.405C352.299 379.014 352.097 379.622 351.896 380.231C351.465 381.533 351.036 382.834 350.607 384.136C349.927 386.198 349.244 388.26 348.561 390.321C346.619 396.179 344.68 402.038 342.747 407.899C341.676 411.144 340.603 414.387 339.527 417.629C338.848 419.674 338.173 421.72 337.5 423.768C337.08 425.044 336.656 426.32 336.231 427.596C335.943 428.461 335.661 429.327 335.378 430.194C333.226 436.619 330.572 441.447 324.329 444.565C322.377 445.309 320.75 445.631 318.664 445.646C318.116 445.653 317.568 445.659 317.003 445.666C316.417 445.668 315.83 445.671 315.226 445.673C314.292 445.684 313.358 445.694 312.424 445.705C310.788 445.723 309.152 445.735 307.516 445.747C305.574 445.762 303.633 445.777 301.692 445.8C300.486 445.814 299.28 445.823 298.074 445.828C287.034 445.954 277.802 448.87 269.691 456.595C261.465 465.259 259.955 475.885 259.967 487.304C259.966 488.088 259.965 488.871 259.964 489.655C259.961 491.799 259.961 493.943 259.962 496.088C259.962 498.404 259.959 500.72 259.957 503.036C259.953 507.57 259.952 512.104 259.951 516.639C259.951 520.325 259.95 524.012 259.949 527.699C259.945 538.158 259.942 548.617 259.943 559.077C259.943 559.64 259.943 560.204 259.943 560.784C259.943 561.349 259.943 561.913 259.943 562.494C259.943 571.637 259.939 580.779 259.932 589.922C259.925 599.316 259.922 608.71 259.922 618.105C259.922 623.376 259.921 628.648 259.916 633.919C259.912 638.407 259.911 642.896 259.914 647.384C259.915 649.672 259.915 651.96 259.911 654.248C259.908 656.346 259.908 658.445 259.912 660.543C259.913 661.298 259.912 662.054 259.91 662.809C259.872 674.407 262.205 684.683 270.432 693.332C279.637 701.929 290.26 703.343 302.327 703.325C303.063 703.325 303.799 703.326 304.536 703.327C306.577 703.329 308.619 703.328 310.66 703.327C312.467 703.326 314.274 703.327 316.081 703.328C322.286 703.331 328.491 703.328 334.696 703.324C336.904 703.322 339.112 703.321 341.32 703.32C355.577 703.313 369.834 703.299 384.091 703.282C393.731 703.271 403.37 703.261 413.009 703.254C414.025 703.254 415.041 703.253 416.057 703.252C416.565 703.252 417.074 703.252 417.597 703.251C418.11 703.251 418.622 703.25 419.149 703.25C419.665 703.25 420.181 703.249 420.712 703.249C442.163 703.233 463.614 703.209 485.065 703.175C487.305 703.171 489.545 703.168 491.785 703.164C492.339 703.163 492.894 703.163 493.465 703.162C501.882 703.149 510.3 703.141 518.718 703.136C528.427 703.13 538.136 703.117 547.846 703.096C553.382 703.084 558.918 703.077 564.455 703.078C568.2 703.078 571.946 703.071 575.692 703.059C577.838 703.052 579.984 703.048 582.13 703.053C584.093 703.057 586.055 703.052 588.018 703.04C588.722 703.037 589.426 703.038 590.13 703.042C600.05 703.094 608.846 699.808 616.035 692.859C617.415 691.356 618.643 689.797 619.818 688.129C620.204 687.584 620.204 687.584 620.597 687.028C625.384 679.688 626.114 671.1 626.083 662.551C626.084 661.853 626.085 661.156 626.087 660.458C626.091 658.551 626.089 656.645 626.085 654.738C626.083 652.66 626.086 650.582 626.088 648.504C626.092 644.865 626.092 641.226 626.089 637.587C626.086 632.176 626.088 626.764 626.091 621.353C626.096 611.688 626.095 602.023 626.092 592.357C626.09 583.899 626.089 575.441 626.09 566.983C626.091 566.422 626.091 565.861 626.091 565.283C626.091 563.005 626.091 560.727 626.092 558.449C626.094 537.082 626.092 515.716 626.087 494.35C626.082 475.369 626.083 456.387 626.087 437.406C626.092 416.079 626.094 394.751 626.091 373.424C626.091 371.15 626.091 368.877 626.09 366.603C626.09 366.043 626.09 365.483 626.09 364.906C626.089 356.454 626.09 348.001 626.093 339.548C626.095 329.937 626.095 320.325 626.09 310.714C626.087 305.335 626.087 299.957 626.09 294.578C626.092 290.985 626.091 287.391 626.087 283.798C626.085 281.751 626.084 279.704 626.087 277.657C626.09 275.792 626.089 273.927 626.084 272.062C626.083 271.395 626.084 270.727 626.086 270.059C626.125 258.657 623.553 248.438 615.415 240.077C612.728 237.601 609.829 235.377 606.946 233.138C605.067 231.675 603.222 230.173 601.379 228.667C599.033 226.752 596.674 224.856 594.288 222.992C591.574 220.872 588.899 218.707 586.232 216.529C584.206 214.878 582.164 213.25 580.104 211.641C577.39 209.521 574.716 207.356 572.048 205.179C570.022 203.528 567.98 201.899 565.921 200.291C563.207 198.171 560.532 196.006 557.865 193.828C555.839 192.177 553.797 190.549 551.737 188.94C549.023 186.82 546.349 184.655 543.681 182.478C541.655 180.827 539.613 179.198 537.554 177.589C534.84 175.47 532.165 173.305 529.498 171.127C527.472 169.476 525.43 167.848 523.37 166.239C520.656 164.119 517.982 161.954 515.314 159.776C513.288 158.125 511.246 156.497 509.187 154.888C506.473 152.768 503.798 150.604 501.131 148.426C499.105 146.775 497.063 145.146 495.003 143.538C492.289 141.418 489.615 139.253 486.947 137.075C484.921 135.424 482.88 133.796 480.82 132.187C478.106 130.067 475.432 127.902 472.764 125.725C470.738 124.074 468.696 122.445 466.636 120.836C463.923 118.717 461.248 116.552 458.581 114.374C456.554 112.723 454.513 111.095 452.453 109.486C449.739 107.366 447.065 105.201 444.397 103.024C442.105 101.156 439.79 99.3217 437.459 97.5034C435.675 96.1075 433.916 94.6845 432.165 93.2462C422.11 84.9946 412.492 78.139 398.729 79.1012C387.78 80.4372 380.336 86.2956 372.084 93.0474C370.365 94.4499 368.628 95.8248 366.879 97.1894C364.492 99.0536 362.134 100.949 359.788 102.865C357.176 104.996 354.543 107.097 351.887 109.172C349.772 110.828 347.685 112.516 345.604 114.215C342.993 116.347 340.36 118.447 337.703 120.522C335.588 122.179 333.501 123.867 331.421 125.566C328.809 127.698 326.177 129.798 323.52 131.873C321.405 133.529 319.318 135.218 317.237 136.916C314.626 139.048 311.993 141.148 309.336 143.224C307.222 144.88 305.135 146.568 303.054 148.267C300.442 150.399 297.81 152.499 295.153 154.574C293.038 156.23 290.951 157.919 288.87 159.618C286.259 161.749 283.626 163.85 280.97 165.925C278.855 167.581 276.768 169.269 274.687 170.968C272.075 173.1 269.443 175.2 266.786 177.275C264.671 178.931 262.584 180.62 260.503 182.319C257.892 184.451 255.259 186.551 252.603 188.626C250.488 190.282 248.401 191.971 246.32 193.669C243.708 195.801 241.076 197.901 238.419 199.976C236.304 201.633 234.217 203.321 232.136 205.02C229.525 207.152 226.892 209.252 224.236 211.327C222.121 212.983 220.034 214.672 217.953 216.371C215.341 218.502 212.709 220.603 210.052 222.678C207.612 224.588 205.211 226.544 202.811 228.504C200.734 230.196 198.64 231.864 196.53 233.515C195.729 234.143 194.928 234.772 194.128 235.401C193.391 235.979 192.654 236.557 191.917 237.134C183.713 243.674 179.407 251.71 177.968 262.064C177.643 265.025 177.638 267.966 177.65 270.942C177.649 271.63 177.648 272.318 177.647 273.005C177.644 274.884 177.647 276.762 177.651 278.641C177.654 280.688 177.652 282.736 177.65 284.784C177.648 288.369 177.65 291.954 177.654 295.539C177.659 300.87 177.66 306.201 177.659 311.532C177.658 320.5 177.661 329.469 177.666 338.437C177.672 347.315 177.676 356.193 177.677 365.072C177.677 365.624 177.677 366.176 177.677 366.745C177.677 369.55 177.677 372.355 177.678 375.159C177.68 395.019 177.686 414.879 177.695 434.739C177.704 454.031 177.71 473.324 177.714 492.616C177.715 493.211 177.715 493.805 177.715 494.418C177.716 500.391 177.717 506.365 177.718 512.338C177.721 524.506 177.723 536.674 177.726 548.841C177.726 549.401 177.727 549.96 177.727 550.537C177.735 587.888 177.75 625.239 177.766 662.59C178.286 662.751 178.806 662.911 179.341 663.076C180.03 663.29 180.719 663.503 181.407 663.717C181.92 663.875 181.92 663.875 182.443 664.036C184.838 664.781 187.148 665.605 189.409 666.699C189.738 666.857 190.068 667.015 190.408 667.178C202.348 673.106 211.962 684.119 216.534 696.642C220.025 707.651 221.077 720.04 217.48 731.167C217.381 731.484 217.282 731.802 217.181 732.129C214.885 739.332 211.263 745.931 206.133 751.503C205.793 751.874 205.793 751.874 205.446 752.251C198.321 759.922 189.688 765.046 179.657 768.056C179.16 768.208 178.663 768.359 178.15 768.515C164.439 771.944 149.439 769.131 137.345 762.13C134.515 760.421 131.976 758.474 129.543 756.233C129.296 756.006 129.049 755.779 128.795 755.546C121.145 748.434 115.807 739.815 112.995 729.748C112.844 729.245 112.693 728.742 112.537 728.224C108.916 713.885 112.115 699.042 119.474 686.553C120.896 684.226 122.55 682.142 124.342 680.089C124.602 679.767 124.862 679.444 125.131 679.112C131.288 671.636 140.742 666.098 149.995 663.489C150.89 663.236 150.89 663.236 151.803 662.978C152.258 662.85 152.713 662.722 153.182 662.59C153.182 662.066 153.182 662.066 153.182 661.531C153.195 623.467 153.21 585.403 153.237 547.338C153.237 546.77 153.238 546.201 153.238 545.615C153.247 533.254 153.256 520.893 153.266 508.533C153.271 502.471 153.275 496.409 153.28 490.347C153.28 489.744 153.281 489.14 153.281 488.519C153.296 468.973 153.305 449.426 153.31 429.88C153.316 409.791 153.328 389.702 153.348 369.612C153.35 366.774 153.353 363.935 153.356 361.097C153.356 360.538 153.357 359.979 153.357 359.404C153.366 350.417 153.367 341.43 153.367 332.444C153.366 323.405 153.373 314.367 153.386 305.328C153.394 299.961 153.396 294.593 153.391 289.226C153.388 285.636 153.392 282.046 153.402 278.456C153.407 276.414 153.409 274.371 153.403 272.328C153.35 252.785 157.52 236.53 171.62 222.282C174.623 219.36 177.879 216.786 181.183 214.22C183.061 212.758 184.906 211.256 186.749 209.749C189.36 207.617 191.993 205.517 194.65 203.442C196.765 201.786 198.852 200.098 200.933 198.399C203.544 196.267 206.177 194.167 208.833 192.092C210.948 190.436 213.035 188.747 215.116 187.048C217.728 184.916 220.36 182.816 223.017 180.741C225.132 179.085 227.219 177.396 229.3 175.698C231.911 173.566 234.544 171.466 237.2 169.39C239.315 167.734 241.402 166.046 243.483 164.347C246.094 162.215 248.727 160.115 251.384 158.04C253.499 156.384 255.586 154.695 257.667 152.996C260.278 150.865 262.911 148.764 265.567 146.689C267.682 145.033 269.769 143.345 271.85 141.646C274.461 139.514 277.094 137.414 279.751 135.339C281.866 133.683 283.953 131.994 286.033 130.295C288.645 128.163 291.278 126.063 293.934 123.988C296.049 122.332 298.136 120.643 300.217 118.945C302.828 116.813 305.461 114.713 308.118 112.638C310.233 110.981 312.32 109.293 314.4 107.594C317.012 105.462 319.644 103.362 322.301 101.287C324.416 99.6308 326.503 97.9422 328.584 96.2435C331.195 94.1117 333.828 92.0114 336.485 89.9364C338.599 88.2802 340.686 86.5916 342.767 84.8929C345.378 82.7614 348.01 80.6611 350.667 78.5868C352.793 76.9221 354.889 75.2215 356.98 73.5128C358.23 72.496 359.481 71.4812 360.733 70.4682C361.001 70.2516 361.268 70.035 361.544 69.8119C383.482 52.1574 413.573 48.954 437.034 65.9309ZM505.329 413.738C500.12 419.912 497.54 427.495 497.899 435.549C498.779 444.654 502.702 451.607 509.534 457.504C515.865 462.373 523.733 464.601 531.672 463.752C540.606 462.271 547.404 458.117 552.89 450.979C557.402 444.349 559.193 436.389 557.883 428.485C556.043 419.747 551.434 413.007 544.077 407.997C531.23 400.279 515.54 403.002 505.329 413.738ZM143.874 694.307C138.062 700.379 135.142 708.087 135.216 716.506C135.74 724.987 139.162 732.277 145.305 738.126C152.805 744.571 161.115 745.977 170.675 745.355C178.463 744.349 184.793 739.42 189.734 733.591C194.284 727.653 196.467 719.671 195.525 712.236C194.226 703.841 190.456 696.912 183.913 691.44C171.272 682.391 155.163 683.729 143.874 694.307Z" fill="#FF2B77"/>
<path d="M1216.94 148.977C1233.32 148.977 1249.71 148.977 1266.58 148.977C1268.71 153.232 1268.71 153.232 1269.31 154.789C1269.52 155.322 1269.52 155.322 1269.73 155.866C1269.88 156.242 1270.02 156.619 1270.17 157.007C1270.33 157.416 1270.49 157.826 1270.65 158.247C1271 159.134 1271.34 160.022 1271.69 160.909C1272.63 163.345 1273.58 165.777 1274.52 168.21C1274.72 168.722 1274.92 169.234 1275.13 169.761C1277.41 175.612 1279.72 181.448 1282.04 187.285C1282.46 188.355 1282.89 189.426 1283.31 190.497C1283.93 192.064 1284.55 193.631 1285.18 195.198C1286.98 199.751 1288.78 204.306 1290.58 208.863C1291.14 210.293 1291.71 211.723 1292.27 213.152C1292.41 213.506 1292.55 213.86 1292.69 214.224C1294.3 218.292 1295.9 222.357 1297.51 226.423C1300.98 235.2 1304.45 243.977 1307.91 252.757C1308.72 254.809 1309.53 256.859 1310.34 258.909C1310.84 260.163 1311.34 261.417 1311.83 262.671C1312.17 263.524 1312.51 264.376 1312.85 265.228C1313.04 265.729 1313.24 266.23 1313.45 266.746C1313.62 267.182 1313.79 267.617 1313.97 268.066C1314.33 269.104 1314.33 269.104 1314.33 270.05C1314.65 270.05 1314.96 270.05 1315.28 270.05C1315.36 269.457 1315.36 269.457 1315.43 268.853C1315.79 267.027 1316.39 265.371 1317.07 263.648C1317.27 263.128 1317.27 263.128 1317.48 262.597C1317.77 261.842 1318.06 261.088 1318.36 260.335C1319.17 258.257 1319.98 256.176 1320.78 254.095C1320.95 253.658 1321.12 253.221 1321.3 252.771C1323.14 248.009 1324.95 243.231 1326.75 238.451C1327.43 236.647 1328.11 234.842 1328.79 233.038C1328.96 232.584 1329.13 232.129 1329.31 231.661C1331.27 226.452 1333.25 221.249 1335.23 216.046C1335.98 214.053 1336.74 212.061 1337.5 210.069C1337.69 209.565 1337.88 209.06 1338.08 208.541C1340.38 202.481 1342.68 196.42 1344.98 190.359C1345.19 189.796 1345.4 189.233 1345.62 188.653C1346.71 185.775 1347.81 182.896 1348.9 180.017C1351.3 173.671 1353.71 167.324 1356.12 160.977C1357.62 157.017 1359.12 153.057 1360.67 148.977C1377.36 148.977 1394.06 148.977 1411.25 148.977C1411.25 213.902 1411.25 278.827 1411.25 345.72C1400.33 345.72 1389.41 345.72 1378.16 345.72C1378 292.344 1377.85 238.968 1377.69 183.974C1376.28 188.812 1374.88 193.651 1373.43 198.635C1370.66 206.385 1370.66 206.385 1369.53 209.277C1369.4 209.612 1369.27 209.947 1369.13 210.293C1366.13 217.931 1363.07 225.544 1360.01 233.158C1357.7 238.916 1355.41 244.681 1353.13 250.452C1350.34 257.517 1347.54 264.578 1344.74 271.636C1344.58 272.041 1344.42 272.445 1344.25 272.861C1342.63 276.935 1341.01 281.008 1339.39 285.081C1338.78 286.615 1338.17 288.149 1337.56 289.683C1337.27 290.429 1336.97 291.174 1336.67 291.92C1335.15 295.748 1333.63 299.578 1332.14 303.415C1332.01 303.73 1331.89 304.045 1331.76 304.37C1331.19 305.837 1330.62 307.305 1330.05 308.773C1329.75 309.529 1329.75 309.529 1329.45 310.299C1329.28 310.738 1329.11 311.176 1328.94 311.628C1328.52 312.614 1328.52 312.614 1328.05 313.087C1327.16 313.132 1326.27 313.143 1325.39 313.141C1324.82 313.141 1324.25 313.141 1323.67 313.141C1323.05 313.138 1322.43 313.136 1321.79 313.133C1321.16 313.132 1320.52 313.132 1319.89 313.131C1318.21 313.129 1316.54 313.125 1314.86 313.12C1313.15 313.115 1311.45 313.113 1309.74 313.11C1306.39 313.105 1303.03 313.097 1299.68 313.087C1294.98 301.404 1290.38 289.681 1285.79 277.954C1284 273.374 1282.2 268.795 1280.41 264.216C1279.62 262.212 1278.84 260.209 1278.05 258.205C1276.67 254.672 1275.28 251.139 1273.9 247.606C1273.7 247.101 1273.5 246.596 1273.3 246.076C1272.9 245.056 1272.5 244.037 1272.1 243.018C1271.11 240.49 1270.12 237.962 1269.13 235.433C1267.4 231.021 1265.67 226.611 1263.92 222.208C1258.78 209.293 1254.03 196.348 1250.04 183.028C1249.88 236.717 1249.72 290.405 1249.56 345.72C1238.8 345.72 1228.03 345.72 1216.94 345.72C1216.94 280.795 1216.94 215.869 1216.94 148.977Z" fill="#FF2B77"/>
<path d="M1341.28 458.28C1450.96 458.28 1450.96 458.28 1472.72 478.143C1473.06 478.458 1473.41 478.772 1473.77 479.097C1489.89 494.419 1494.87 517.899 1495.44 539.281C1495.48 541.804 1495.49 544.326 1495.49 546.849C1495.49 547.653 1495.49 548.458 1495.49 549.262C1495.5 550.937 1495.5 552.612 1495.5 554.287C1495.5 555.973 1495.5 557.659 1495.51 559.346C1495.61 586.284 1494.39 614.308 1474.67 634.805C1441.74 666.402 1376.64 655.023 1341.28 655.023C1341.28 590.098 1341.28 525.173 1341.28 458.28ZM1376.27 488.075C1376.27 533.336 1376.27 578.596 1376.27 625.228C1411.02 627.684 1411.02 627.684 1443.88 614.35C1444.33 613.937 1444.79 613.524 1445.26 613.098C1451.67 607.105 1455.31 599.635 1457.47 591.206C1457.61 590.657 1457.61 590.657 1457.75 590.097C1459.44 583.066 1459.63 576.149 1459.62 568.957C1459.62 567.962 1459.62 566.966 1459.63 565.97C1459.63 563.892 1459.63 561.815 1459.63 559.737C1459.63 557.102 1459.63 554.466 1459.64 551.831C1459.65 549.776 1459.65 547.722 1459.65 545.668C1459.65 544.697 1459.65 543.727 1459.66 542.757C1459.72 527.679 1457.26 512.344 1446.54 500.963C1428.44 483.909 1397.81 488.075 1376.27 488.075Z" fill="#FF2B77"/>
<path d="M1744.09 473.887C1744.55 474.276 1745 474.665 1745.46 475.066C1753.63 482.231 1759.22 490.94 1763.54 500.863C1763.92 501.712 1764.31 502.551 1764.71 503.389C1766.48 507.332 1767.43 511.348 1768.32 515.565C1768.44 516.108 1768.56 516.651 1768.68 517.211C1770.34 525.542 1770.72 533.942 1770.7 542.417C1770.7 543.334 1770.7 544.251 1770.7 545.168C1770.7 547.075 1770.7 548.982 1770.69 550.889C1770.69 553.288 1770.69 555.687 1770.7 558.086C1770.75 584.107 1769.93 611.481 1752.13 632.322C1751.92 632.578 1751.7 632.833 1751.48 633.096C1738.38 648.428 1718.89 655.917 1699.18 657.861C1698.68 657.914 1698.18 657.966 1697.66 658.02C1674.26 660.082 1648.48 655.899 1629.97 640.521C1612.49 624.938 1605.1 603.898 1603.76 580.889C1603.44 573.953 1603.54 566.99 1603.55 560.048C1603.56 557.614 1603.56 555.18 1603.55 552.746C1603.5 523.578 1606.32 497.574 1627.66 475.884C1639.58 464.404 1654.86 459.271 1670.81 456.388C1671.15 456.325 1671.49 456.261 1671.84 456.196C1695.99 451.863 1725.31 457.655 1744.09 473.887ZM1654.74 498.007C1654.41 498.288 1654.09 498.568 1653.75 498.857C1645.52 506.46 1641.81 518.17 1640.2 528.926C1640.15 529.287 1640.09 529.648 1640.03 530.02C1638.93 538.243 1639.06 546.617 1639.07 554.893C1639.08 556.618 1639.07 558.343 1639.07 560.069C1639.07 565.177 1639.1 570.279 1639.34 575.383C1639.35 575.764 1639.37 576.146 1639.39 576.539C1640.15 591.005 1644.27 605.847 1655.06 616.065C1663.87 623.668 1674.73 625.985 1686.08 625.886C1687.12 625.879 1688.16 625.886 1689.2 625.895C1701.42 625.913 1712.56 622.678 1721.4 613.878C1721.72 613.57 1722.05 613.262 1722.38 612.945C1731.69 603.435 1734.7 587.283 1734.71 574.471C1734.72 574.058 1734.72 573.645 1734.72 573.219C1734.73 571.867 1734.73 570.515 1734.73 569.163C1734.74 568.695 1734.74 568.227 1734.74 567.745C1734.75 565.264 1734.75 562.784 1734.75 560.303C1734.75 557.772 1734.77 555.241 1734.78 552.71C1734.79 550.737 1734.79 548.764 1734.79 546.791C1734.79 545.86 1734.8 544.929 1734.8 543.998C1734.86 534.969 1734.11 526.034 1731.33 517.398C1731.23 517.095 1731.14 516.791 1731.04 516.479C1727.78 506.497 1722.16 498.267 1712.9 492.938C1695.63 484.336 1669.53 484.844 1654.74 498.007Z" fill="#FF2B77"/>
<path d="M1154.92 165.263C1170.77 179.234 1178.47 199.665 1180.06 220.39C1180.13 222.174 1180.14 223.955 1180.14 225.74C1180.14 226.253 1180.15 226.766 1180.15 227.294C1180.15 228.98 1180.16 230.665 1180.16 232.351C1180.16 232.932 1180.16 233.514 1180.16 234.113C1180.17 236.879 1180.18 239.645 1180.18 242.411C1180.18 245.88 1180.19 249.349 1180.21 252.817C1180.21 255.268 1180.22 257.719 1180.22 260.17C1180.22 261.33 1180.22 262.49 1180.23 263.651C1180.28 273.151 1179.83 282.695 1177.38 291.923C1177.25 292.387 1177.13 292.851 1177.01 293.329C1173.15 307.599 1165.65 321.618 1154.06 331.059C1153.42 331.598 1153.42 331.598 1152.76 332.149C1138.83 343.372 1120.23 348.598 1102.53 349.03C1102.14 349.04 1101.76 349.05 1101.37 349.06C1078.99 349.545 1056.01 345.152 1038.7 330.113C1038.39 329.861 1038.08 329.609 1037.77 329.35C1035.62 327.594 1033.84 325.634 1032.08 323.492C1031.53 322.827 1031.53 322.827 1030.97 322.149C1027.85 318.282 1025.38 314.186 1023.1 309.776C1022.93 309.457 1022.77 309.137 1022.59 308.808C1019.03 301.917 1016.86 294.745 1015.42 287.134C1015.35 286.762 1015.28 286.39 1015.2 286.006C1013.72 277.53 1013.5 268.949 1013.52 260.369C1013.52 259.338 1013.52 258.306 1013.52 257.275C1013.52 255.132 1013.52 252.989 1013.52 250.846C1013.53 248.131 1013.52 245.416 1013.52 242.701C1013.51 240.577 1013.52 238.453 1013.52 236.329C1013.52 235.329 1013.52 234.329 1013.52 233.329C1013.5 224.629 1013.83 215.895 1015.62 207.355C1015.73 206.865 1015.83 206.376 1015.93 205.871C1018.29 195.014 1022.46 184.792 1029.25 175.934C1029.58 175.5 1029.9 175.067 1030.24 174.62C1044.03 157.104 1063.59 149.401 1085.19 146.462C1109.43 143.631 1136.13 149.127 1154.92 165.263ZM1065.18 188.23C1064.79 188.57 1064.41 188.91 1064.01 189.259C1052.83 199.781 1049.92 215.633 1049.1 230.322C1049.04 232.893 1049.03 235.463 1049.02 238.035C1049.02 238.763 1049.02 239.491 1049.02 240.219C1049.02 241.737 1049.02 243.255 1049.02 244.773C1049.02 246.305 1049.01 247.837 1049.01 249.369C1048.93 268.144 1048.84 289.342 1062.34 304.101C1062.61 304.399 1062.87 304.697 1063.15 305.004C1070.2 312.509 1080.61 316.083 1090.73 316.495C1092.46 316.543 1094.18 316.552 1095.91 316.547C1096.97 316.545 1098.02 316.556 1099.08 316.568C1110.69 316.62 1121.7 313.808 1130.33 305.614C1130.67 305.271 1131.01 304.928 1131.37 304.574C1131.81 304.14 1131.81 304.14 1132.26 303.696C1138.05 297.579 1141.02 288.935 1142.86 280.868C1142.93 280.564 1143 280.26 1143.07 279.947C1144.52 273.022 1144.75 266.067 1144.75 259.02C1144.75 258.114 1144.75 257.208 1144.75 256.302C1144.76 254.414 1144.76 252.526 1144.75 250.638C1144.75 248.726 1144.76 246.813 1144.76 244.901C1144.85 225.526 1144.93 204.445 1130.42 189.649C1130.07 189.283 1129.72 188.916 1129.36 188.539C1120.82 180.16 1107.62 178.108 1096.11 178.155C1085.14 178.394 1073.6 180.777 1065.18 188.23Z" fill="#FF2B77"/>
<path d="M825.478 148.977C837.179 148.977 848.881 148.977 860.936 148.977C860.936 175.196 860.936 201.416 860.936 228.431C887.616 228.431 914.295 228.431 941.782 228.431C941.782 202.211 941.782 175.991 941.782 148.977C953.484 148.977 965.185 148.977 977.241 148.977C977.241 213.902 977.241 278.827 977.241 345.72C965.54 345.72 953.838 345.72 941.782 345.72C941.782 316.691 941.782 287.662 941.782 257.753C915.103 257.753 888.424 257.753 860.936 257.753C860.936 286.782 860.936 315.811 860.936 345.72C849.235 345.72 837.534 345.72 825.478 345.72C825.478 280.795 825.478 215.869 825.478 148.977Z" fill="#FF2B77"/>
<path d="M1147.92 458.28C1159.62 458.28 1171.32 458.28 1183.37 458.28C1183.38 462.014 1183.39 465.749 1183.39 469.597C1183.42 481.59 1183.45 493.582 1183.48 505.575C1183.49 507.442 1183.49 509.309 1183.5 511.177C1183.5 511.549 1183.5 511.92 1183.5 512.303C1183.52 518.297 1183.53 524.291 1183.54 530.285C1183.55 536.45 1183.57 542.614 1183.59 548.779C1183.6 552.573 1183.61 556.368 1183.61 560.162C1183.61 563.087 1183.62 566.012 1183.64 568.937C1183.64 570.125 1183.64 571.314 1183.64 572.502C1183.63 587.264 1184.06 605.919 1195.19 617.188C1204.35 625.826 1217.73 626.017 1229.49 625.767C1239.02 625.379 1248.38 622.829 1255.09 615.697C1263.31 605.57 1265.23 591.781 1265.24 579.136C1265.24 578.615 1265.24 578.095 1265.25 577.56C1265.25 575.831 1265.26 574.102 1265.26 572.373C1265.27 571.128 1265.27 569.883 1265.28 568.638C1265.29 565.965 1265.3 563.292 1265.3 560.619C1265.31 556.755 1265.33 552.89 1265.34 549.026C1265.36 542.754 1265.38 536.483 1265.4 530.212C1265.42 524.123 1265.44 518.034 1265.46 511.945C1265.46 511.381 1265.46 511.381 1265.47 510.806C1265.47 508.92 1265.48 507.035 1265.49 505.149C1265.54 489.526 1265.59 473.903 1265.64 458.28C1277.34 458.28 1289.04 458.28 1301.1 458.28C1301.12 473.788 1301.14 489.296 1301.14 504.803C1301.15 506.641 1301.15 508.479 1301.15 510.317C1301.15 510.865 1301.15 510.865 1301.15 511.425C1301.15 517.32 1301.16 523.216 1301.17 529.111C1301.18 535.177 1301.18 541.242 1301.19 547.307C1301.19 551.039 1301.19 554.771 1301.2 558.503C1301.2 561.382 1301.2 564.26 1301.2 567.139C1301.2 568.308 1301.21 569.476 1301.21 570.644C1301.28 595.745 1298.71 622.633 1280.32 641.426C1277.98 643.754 1275.54 645.709 1272.73 647.456C1272.32 647.726 1271.9 647.996 1271.47 648.275C1250.54 661.305 1219.31 660.849 1196.14 655.496C1181.24 651.901 1168.27 644.216 1160.05 631.055C1146.34 608.222 1147.76 580.426 1147.82 554.783C1147.82 551.43 1147.83 548.076 1147.83 544.722C1147.83 538.744 1147.83 532.767 1147.84 526.79C1147.85 520.995 1147.86 515.2 1147.86 509.404C1147.86 509.045 1147.86 508.686 1147.86 508.316C1147.87 506.513 1147.87 504.711 1147.87 502.908C1147.88 488.032 1147.89 473.156 1147.92 458.28Z" fill="#FF2B77"/>
<path d="M952.656 471.522C951.926 473.537 950.916 475.331 949.819 477.163C949.541 477.631 949.541 477.631 949.257 478.109C948.659 479.117 948.057 480.123 947.456 481.129C947.045 481.818 946.634 482.508 946.224 483.197C943.813 487.238 941.38 491.262 938.857 495.234C938.079 496.463 937.324 497.702 936.582 498.953C935.026 498.639 933.811 498.061 932.426 497.292C915.741 488.199 894.817 483.772 876.123 489.176C868.672 491.54 861.762 495.39 857.937 502.498C856.411 505.818 856.111 508.626 856.09 512.254C856.081 512.68 856.071 513.106 856.061 513.544C856.032 518.628 857.389 523.14 860.907 526.886C869.438 534.933 881.976 536.726 892.993 539.11C914.939 543.867 940.001 550.529 953.155 570.417C955.771 574.708 957.534 579.221 958.802 584.082C958.895 584.437 958.988 584.792 959.084 585.158C959.997 589.298 959.907 593.504 959.897 597.722C959.896 599.027 959.907 600.33 959.919 601.635C959.943 608.422 959.325 615.017 957.088 621.474C956.97 621.822 956.851 622.17 956.728 622.528C954.577 628.513 951.269 633.783 946.983 638.471C946.619 638.873 946.255 639.275 945.88 639.69C932.921 653.344 911.669 657.752 893.558 658.334C866.494 659.033 839.225 652.683 817.44 636.106C817.719 634.137 818.38 632.765 819.398 631.066C819.707 630.548 820.015 630.03 820.333 629.496C820.669 628.941 821.005 628.385 821.341 627.829C821.684 627.258 822.026 626.686 822.368 626.114C825.4 621.056 828.496 616.038 831.624 611.04C832.075 610.318 832.526 609.595 832.978 608.873C833.314 608.334 833.651 607.795 833.988 607.257C837.862 609.819 837.862 609.819 839.271 610.836C857.294 623.773 880.271 628.458 902.068 625.228C909.49 623.944 916.164 621.227 920.908 615.117C924.948 608.931 925.145 601.13 923.787 594.044C922.416 588.987 919.63 585.508 915.306 582.664C914.985 582.433 914.664 582.203 914.333 581.965C905.161 575.849 893.071 573.79 882.505 571.396C881.976 571.276 881.447 571.156 880.902 571.032C878.233 570.425 875.562 569.826 872.889 569.239C863.872 567.231 854.717 564.927 846.576 560.435C846.148 560.213 845.72 559.992 845.279 559.763C842.173 558.102 839.512 556.08 836.825 553.814C836.263 553.355 836.263 553.355 835.69 552.887C832.546 550.3 830.187 547.175 827.842 543.882C827.568 543.504 827.294 543.125 827.012 542.735C819.466 531.323 818.874 513.359 821.518 500.313C821.842 498.896 822.219 497.506 822.641 496.115C822.742 495.781 822.844 495.447 822.948 495.102C825.069 488.387 828.441 482.528 833.042 477.198C833.321 476.85 833.6 476.503 833.888 476.145C844.722 463.093 863.051 457.38 879.334 455.649C905.113 453.447 930.474 458.091 952.656 471.522Z" fill="#FF2B77"/>
<path d="M976.768 458.28C1026.38 458.28 1076 458.28 1127.11 458.28C1127.11 468.112 1127.11 477.945 1127.11 488.075C1108.23 488.075 1089.36 488.075 1069.91 488.075C1069.91 543.168 1069.91 598.261 1069.91 655.023C1058.2 655.023 1046.5 655.023 1034.45 655.023C1034.45 599.93 1034.45 544.837 1034.45 488.075C1015.41 488.075 996.379 488.075 976.768 488.075C976.768 478.243 976.768 468.41 976.768 458.28Z" fill="#FF2B77"/>
<path d="M1435.84 148.977C1485.45 148.977 1535.07 148.977 1586.18 148.977C1586.18 158.809 1586.18 168.641 1586.18 178.772C1567.15 178.772 1548.12 178.772 1528.51 178.772C1528.51 233.865 1528.51 288.958 1528.51 345.72C1516.96 345.72 1505.41 345.72 1493.52 345.72C1493.52 290.627 1493.52 235.534 1493.52 178.772C1474.49 178.772 1455.45 178.772 1435.84 178.772C1435.84 168.939 1435.84 159.107 1435.84 148.977Z" fill="#FF2B77"/>
<path d="M1531.81 458.28C1543.52 458.28 1555.22 458.28 1567.27 458.28C1567.27 523.205 1567.27 588.131 1567.27 655.023C1555.57 655.023 1543.87 655.023 1531.81 655.023C1531.81 590.098 1531.81 525.173 1531.81 458.28Z" fill="#FF2B77"/>
</svg>
