<svg width="48" height="48" viewBox="0 0 48 48" fill="none" xmlns="http://www.w3.org/2000/svg">
<path d="M24 5C35.0458 5 44 13.9507 44 24.9923C44 33.8689 38.21 41.3902 30.2008 44C30.2033 43.9925 30.2067 43.9817 30.2067 43.9817C30.2067 43.9817 28.8567 43.3494 28.885 42.2207C28.9167 40.9787 28.885 38.0798 28.885 37.016C28.885 35.1892 27.7283 33.8947 27.7283 33.8947C27.7283 33.8947 36.7983 33.9963 36.7983 24.3226C36.7983 20.5898 34.8467 18.6481 34.8467 18.6481C34.8467 18.6481 35.8717 14.663 34.4917 12.9736C32.945 12.807 30.175 14.4514 28.9917 15.2202C28.9917 15.2202 27.1167 14.4522 23.9992 14.4522C20.8808 14.4522 19.0067 15.2202 19.0067 15.2202C17.8242 14.4522 15.0533 12.807 13.5067 12.9736C12.1267 14.6638 13.1517 18.6481 13.1517 18.6481C13.1517 18.6481 11.2 20.5907 11.2 24.3226C11.2 33.9963 20.27 33.8947 20.27 33.8947C20.27 33.8947 19.3558 34.9268 19.1567 36.4446C18.5233 36.6595 17.5925 36.9244 16.84 36.9244C14.8717 36.9244 13.3742 35.0118 12.8258 34.1271C12.285 33.2541 11.1758 32.5219 10.1417 32.5219C9.46083 32.5219 9.12833 32.8626 9.12833 33.2516C9.12833 33.6407 10.0833 33.9122 10.7133 34.6336C12.0417 36.1547 12.0175 39.5759 16.7508 39.5759C17.265 39.5759 18.3142 39.4493 19.1033 39.3435C19.0983 40.4205 19.0975 41.5568 19.1142 42.2207C19.1425 43.3494 17.7925 43.9817 17.7925 43.9817C17.7925 43.9817 17.7958 43.9925 17.7983 44C9.79 41.3902 4 33.8689 4 24.9923C4 13.9507 12.9542 5 24 5Z" fill="white"/>
</svg>
