<svg width="48" height="48" viewBox="0 0 48 48" fill="none" xmlns="http://www.w3.org/2000/svg">
<path fill-rule="evenodd" clip-rule="evenodd" d="M36.8608 17C37.2193 17.7143 36.8608 18.4286 36.0672 18.5943L35.0685 18.7857V35.9286C34.3516 36.6429 33.2762 37 32.2009 37C30.947 37 30.5835 36.3571 29.6451 35.1936L21.8056 23.0714V34.5L24.6733 35.2143C24.6733 35.2143 24.6733 36.2857 22.881 36.6429L17.1457 37C17.1457 36.6429 16.7872 35.9286 18.221 35.5714L18.9379 35.2143V20.2143L17.0338 19.9907C16.8761 19.2914 17.2618 18.3429 18.3651 18.2057L23.9563 17.7143L32.2009 29.8571V19.1429L30.0501 18.7857C30.0501 18.0714 30.666 17.4971 31.8424 17.3571L36.8608 17Z" fill="black"/>
<path fill-rule="evenodd" clip-rule="evenodd" d="M41.4568 10.2352L34.4437 5.25724C32.7484 4.01437 32.0546 3.85794 29.3566 4.0908L7.38907 5.72511C5.61715 5.87939 5 7.04655 5 8.44514V32.7097C5 33.799 5.38493 34.7312 6.3103 35.9762L11.4741 42.742C12.322 43.8306 13.0933 44.0642 14.7132 43.9863L40.2253 42.4299C42.3829 42.2763 43 41.2641 43 39.5541V12.2566C43 11.323 42.6137 11.0909 41.4568 10.2352ZM11.0068 10.9602L7.9647 8.51871C7.65367 8.203 7.80989 7.80942 8.58889 7.73156L29.9618 6.15797C31.7548 6.00082 32.6907 6.63083 33.393 7.18155L37.0586 9.85802C37.2141 9.93659 37.604 10.408 37.1353 10.408L15.0623 11.7466C12.721 11.9052 12.2531 11.983 11.0068 10.9602ZM40.1852 37.7891C40.1852 38.8005 40.0304 39.6584 38.6462 39.7348L14.7393 41.1356C13.3551 41.212 12.7407 40.7456 12.7407 39.5005V16.3267C12.7407 15.3159 13.049 14.8481 13.9715 14.7709L38.9544 13.2938C39.801 13.2152 40.1852 13.7609 40.1852 14.7702V37.7891Z" fill="black"/>
</svg>
