<svg width="48" height="48" viewBox="0 0 48 48" fill="none" xmlns="http://www.w3.org/2000/svg">
<g clip-path="url(#clip0_322_4264)">
<path d="M33.5239 11.6191H35.4287C35.962 11.6191 36.3811 12.0382 36.3811 12.5715C36.3811 13.1049 35.962 13.5239 35.4287 13.5239H33.5239C32.9906 13.5239 32.5715 13.1049 32.5715 12.5715C32.5715 12.0382 32.9906 11.6191 33.5239 11.6191Z" fill="#56B3B4"/>
<path d="M4.95238 42.0957H14.4762C15.0095 42.0957 15.4286 42.5148 15.4286 43.0481C15.4286 43.5814 15.0095 44.0005 14.4762 44.0005H4.95238C4.41905 44.0005 4 43.5814 4 43.0481C4 42.5148 4.41905 42.0957 4.95238 42.0957Z" fill="#EA5E5E"/>
<path d="M27.8096 26.8574H33.5238C34.0572 26.8574 34.4762 27.2765 34.4762 27.8098C34.4762 28.3431 34.0572 28.7622 33.5238 28.7622H27.8096C27.2762 28.7622 26.8572 28.3431 26.8572 27.8098C26.8572 27.2765 27.2762 26.8574 27.8096 26.8574Z" fill="#BF85BF"/>
<path d="M16.3808 26.8574H23.9999C24.5332 26.8574 24.9523 27.2765 24.9523 27.8098C24.9523 28.3431 24.5332 28.7622 23.9999 28.7622H16.3808C15.8475 28.7622 15.4285 28.3431 15.4285 27.8098C15.4285 27.2765 15.8475 26.8574 16.3808 26.8574Z" fill="#EA5E5E"/>
<path d="M4.95238 26.8574H12.5714C13.1048 26.8574 13.5238 27.2765 13.5238 27.8098C13.5238 28.3431 13.1048 28.7622 12.5714 28.7622H4.95238C4.41905 28.7622 4 28.3431 4 27.8098C4 27.2765 4.41905 26.8574 4.95238 26.8574Z" fill="#56B3B4"/>
<path d="M4.95238 34.4766H14.4762C15.0095 34.4766 15.4286 34.8956 15.4286 35.4289C15.4286 35.9623 15.0095 36.3813 14.4762 36.3813H4.95238C4.41905 36.3813 4 35.9623 4 35.4289C4 34.8956 4.41905 34.4766 4.95238 34.4766Z" fill="#BF85BF"/>
<path d="M4.95238 19.2383H14.4762C15.0095 19.2383 15.4286 19.6573 15.4286 20.1907C15.4286 20.724 15.0095 21.143 14.4762 21.143H4.95238C4.41905 21.143 4 20.724 4 20.1907C4 19.6573 4.41905 19.2383 4.95238 19.2383Z" fill="#BF85BF"/>
<path d="M14.4763 7.80859H33.5239C34.0573 7.80859 34.4763 8.22764 34.4763 8.76097C34.4763 9.29431 34.0573 9.71336 33.5239 9.71336H14.4763C13.943 9.71336 13.5239 9.29431 13.5239 8.76097C13.5239 8.22764 13.943 7.80859 14.4763 7.80859Z" fill="#F7BA3E"/>
<path d="M4.95238 7.80859H10.6667C11.2 7.80859 11.619 8.22764 11.619 8.76097C11.619 9.29431 11.2 9.71336 10.6667 9.71336H4.95238C4.41905 9.71336 4 9.29431 4 8.76097C4 8.22764 4.41905 7.80859 4.95238 7.80859Z" fill="#EA5E5E"/>
<path d="M12.5715 38.2852H14.4763C15.0096 38.2852 15.4287 38.7042 15.4287 39.2375C15.4287 39.7709 15.0096 40.1899 14.4763 40.1899H12.5715C12.0382 40.1899 11.6191 39.7709 11.6191 39.2375C11.6191 38.7042 12.0382 38.2852 12.5715 38.2852Z" fill="#F7BA3E"/>
<path d="M12.5715 15.4277H14.4763C15.0096 15.4277 15.4287 15.8468 15.4287 16.3801C15.4287 16.9134 15.0096 17.3325 14.4763 17.3325H12.5715C12.0382 17.3325 11.6191 16.9134 11.6191 16.3801C11.6191 15.8468 12.0382 15.4277 12.5715 15.4277Z" fill="#56B3B4"/>
<path d="M4.95238 38.2852H8.76191C9.29524 38.2852 9.71429 38.7042 9.71429 39.2375C9.71429 39.7709 9.29524 40.1899 8.76191 40.1899H4.95238C4.41905 40.1899 4 39.7709 4 39.2375C4 38.7042 4.41905 38.2852 4.95238 38.2852Z" fill="#56B3B4"/>
<path d="M4.95238 15.4277H8.76191C9.29524 15.4277 9.71429 15.8468 9.71429 16.3801C9.71429 16.9134 9.29524 17.3325 8.76191 17.3325H4.95238C4.41905 17.3325 4 16.9134 4 16.3801C4 15.8468 4.41905 15.4277 4.95238 15.4277Z" fill="#F7BA3E"/>
<path opacity="0.5" d="M29.7143 38.2852H31.6191C32.1524 38.2852 32.5715 38.7042 32.5715 39.2375C32.5715 39.7709 32.1524 40.1899 31.6191 40.1899H29.7143C29.181 40.1899 28.762 39.7709 28.762 39.2375C28.762 38.7042 29.181 38.2852 29.7143 38.2852Z" fill="#D0D4D8"/>
<path opacity="0.5" d="M18.2856 38.2852H25.9047C26.438 38.2852 26.8571 38.7042 26.8571 39.2375C26.8571 39.7709 26.438 40.1899 25.9047 40.1899H18.2856C17.7523 40.1899 17.3333 39.7709 17.3333 39.2375C17.3333 38.7042 17.7523 38.2852 18.2856 38.2852Z" fill="#D0D4D8"/>
<path opacity="0.5" d="M35.4285 38.2852H43.0475C43.5808 38.2852 43.9999 38.7042 43.9999 39.2375C43.9999 39.7709 43.5808 40.1899 43.0475 40.1899H35.4285C34.8951 40.1899 34.4761 39.7709 34.4761 39.2375C34.4761 38.7042 34.8951 38.2852 35.4285 38.2852Z" fill="#D0D4D8"/>
<path d="M20.1904 23.0469H35.4285C35.9618 23.0469 36.3809 23.4659 36.3809 23.9993C36.3809 24.5326 35.9618 24.9516 35.4285 24.9516H20.1904C19.6571 24.9516 19.238 24.5326 19.238 23.9993C19.238 23.4659 19.6571 23.0469 20.1904 23.0469Z" fill="#56B3B4"/>
<path d="M10.6667 23.0469H16.381C16.9144 23.0469 17.3334 23.4659 17.3334 23.9993C17.3334 24.5326 16.9144 24.9516 16.381 24.9516H10.6667C10.1334 24.9516 9.71436 24.5326 9.71436 23.9993C9.71436 23.4659 10.1334 23.0469 10.6667 23.0469Z" fill="#F7BA3E"/>
<path d="M4.95238 23.0469H6.85714C7.39048 23.0469 7.80952 23.4659 7.80952 23.9993C7.80952 24.5326 7.39048 24.9516 6.85714 24.9516H4.95238C4.41905 24.9516 4 24.5326 4 23.9993C4 23.4659 4.41905 23.0469 4.95238 23.0469Z" fill="#EA5E5E"/>
<path d="M22.0952 11.6191H29.7143C30.2476 11.6191 30.6666 12.0382 30.6666 12.5715C30.6666 13.1049 30.2476 13.5239 29.7143 13.5239H22.0952C21.5619 13.5239 21.1428 13.1049 21.1428 12.5715C21.1428 12.0382 21.5619 11.6191 22.0952 11.6191Z" fill="#BF85BF"/>
<path d="M4.95238 11.6191H18.2857C18.819 11.6191 19.2381 12.0382 19.2381 12.5715C19.2381 13.1049 18.819 13.5239 18.2857 13.5239H4.95238C4.41905 13.5239 4 13.1049 4 12.5715C4 12.0382 4.41905 11.6191 4.95238 11.6191Z" fill="#56B3B4"/>
<path d="M10.6667 30.666H27.8096C28.3429 30.666 28.762 31.0851 28.762 31.6184C28.762 32.1517 28.3429 32.5708 27.8096 32.5708H10.6667C10.1334 32.5708 9.71436 32.1517 9.71436 31.6184C9.71436 31.0851 10.1334 30.666 10.6667 30.666Z" fill="#F7BA3E"/>
<path d="M4.95238 30.666H6.85714C7.39048 30.666 7.80952 31.0851 7.80952 31.6184C7.80952 32.1517 7.39048 32.5708 6.85714 32.5708H4.95238C4.41905 32.5708 4 32.1517 4 31.6184C4 31.0851 4.41905 30.666 4.95238 30.666Z" fill="#BF85BF"/>
<path d="M27.8096 15.4277H37.3334C37.8667 15.4277 38.2858 15.8468 38.2858 16.3801C38.2858 16.9134 37.8667 17.3325 37.3334 17.3325H27.8096C27.2762 17.3325 26.8572 16.9134 26.8572 16.3801C26.8572 15.8468 27.2762 15.4277 27.8096 15.4277Z" fill="#EA5E5E"/>
<path d="M27.8096 19.2383H37.3334C37.8667 19.2383 38.2858 19.6573 38.2858 20.1907C38.2858 20.724 37.8667 21.143 37.3334 21.143H27.8096C27.2762 21.143 26.8572 20.724 26.8572 20.1907C26.8572 19.6573 27.2762 19.2383 27.8096 19.2383Z" fill="#F7BA3E"/>
<path d="M4.95238 4H27.8095C28.3429 4 28.7619 4.41905 28.7619 4.95238C28.7619 5.48571 28.3429 5.90476 27.8095 5.90476H4.95238C4.41905 5.90476 4 5.48571 4 4.95238C4 4.41905 4.41905 4 4.95238 4Z" fill="#56B3B4"/>
<path opacity="0.5" d="M31.6191 4H43.0477C43.581 4 44.0001 4.41905 44.0001 4.95238C44.0001 5.48571 43.581 5.90476 43.0477 5.90476H31.6191C31.0858 5.90476 30.6667 5.48571 30.6667 4.95238C30.6667 4.41905 31.0858 4 31.6191 4Z" fill="#D0D4D8"/>
<path opacity="0.5" d="M31.6191 30.666H35.4287C35.962 30.666 36.381 31.0851 36.381 31.6184C36.381 32.1517 35.962 32.5708 35.4287 32.5708H31.6191C31.0858 32.5708 30.6667 32.1517 30.6667 31.6184C30.6667 31.0851 31.0858 30.666 31.6191 30.666Z" fill="#D0D4D8"/>
<path opacity="0.5" d="M39.238 30.666H43.0476C43.5809 30.666 43.9999 31.0851 43.9999 31.6184C43.9999 32.1517 43.5809 32.5708 43.0476 32.5708H39.238C38.7047 32.5708 38.2856 32.1517 38.2856 31.6184C38.2856 31.0851 38.7047 30.666 39.238 30.666Z" fill="#D0D4D8"/>
<path opacity="0.5" d="M37.3332 26.8574H43.0475C43.5809 26.8574 43.9999 27.2765 43.9999 27.8098C43.9999 28.3431 43.5809 28.7622 43.0475 28.7622H37.3332C36.7999 28.7622 36.3809 28.3431 36.3809 27.8098C36.3809 27.2765 36.7999 26.8574 37.3332 26.8574Z" fill="#D0D4D8"/>
<path opacity="0.5" d="M37.3332 7.80859H43.0475C43.5809 7.80859 43.9999 8.22764 43.9999 8.76097C43.9999 9.29431 43.5809 9.71336 43.0475 9.71336H37.3332C36.7999 9.71336 36.3809 9.29431 36.3809 8.76097C36.3809 8.22764 36.7999 7.80859 37.3332 7.80859Z" fill="#D0D4D8"/>
<path opacity="0.5" d="M39.238 23.0469H43.0476C43.5809 23.0469 43.9999 23.4659 43.9999 23.9993C43.9999 24.5326 43.5809 24.9516 43.0476 24.9516H39.238C38.7047 24.9516 38.2856 24.5326 38.2856 23.9993C38.2856 23.4659 38.7047 23.0469 39.238 23.0469Z" fill="#D0D4D8"/>
<path opacity="0.5" d="M39.238 11.6191H43.0476C43.5809 11.6191 43.9999 12.0382 43.9999 12.5715C43.9999 13.1049 43.5809 13.5239 43.0476 13.5239H39.238C38.7047 13.5239 38.2856 13.1049 38.2856 12.5715C38.2856 12.0382 38.7047 11.6191 39.238 11.6191Z" fill="#D0D4D8"/>
<path opacity="0.5" d="M41.1428 15.4277H43.0476C43.5809 15.4277 44 15.8468 44 16.3801C44 16.9134 43.5809 17.3325 43.0476 17.3325H41.1428C40.6095 17.3325 40.1904 16.9134 40.1904 16.3801C40.1904 15.8468 40.6095 15.4277 41.1428 15.4277Z" fill="#D0D4D8"/>
<path opacity="0.5" d="M41.1428 19.2383H43.0476C43.5809 19.2383 44 19.6573 44 20.1907C44 20.724 43.5809 21.143 43.0476 21.143H41.1428C40.6095 21.143 40.1904 20.724 40.1904 20.1907C40.1904 19.6573 40.6095 19.2383 41.1428 19.2383Z" fill="#D0D4D8"/>
<path opacity="0.5" d="M25.9048 34.4766H43.0476C43.581 34.4766 44 34.8956 44 35.4289C44 35.9623 43.581 36.3813 43.0476 36.3813H25.9048C25.3714 36.3813 24.9524 35.9623 24.9524 35.4289C24.9524 34.8956 25.3714 34.4766 25.9048 34.4766Z" fill="#D0D4D8"/>
<path opacity="0.5" d="M18.2856 34.4766H22.0952C22.6285 34.4766 23.0475 34.8956 23.0475 35.4289C23.0475 35.9623 22.6285 36.3813 22.0952 36.3813H18.2856C17.7523 36.3813 17.3333 35.9623 17.3333 35.4289C17.3333 34.8956 17.7523 34.4766 18.2856 34.4766Z" fill="#D0D4D8"/>
<path opacity="0.5" d="M33.5239 42.0957H43.0477C43.5811 42.0957 44.0001 42.5148 44.0001 43.0481C44.0001 43.5814 43.5811 44.0005 43.0477 44.0005H33.5239C32.9906 44.0005 32.5715 43.5814 32.5715 43.0481C32.5715 42.5148 32.9906 42.0957 33.5239 42.0957Z" fill="#D0D4D8"/>
<path opacity="0.5" d="M18.2856 42.0957H29.7142C30.2475 42.0957 30.6666 42.5148 30.6666 43.0481C30.6666 43.5814 30.2475 44.0005 29.7142 44.0005H18.2856C17.7523 44.0005 17.3333 43.5814 17.3333 43.0481C17.3333 42.5148 17.7523 42.0957 18.2856 42.0957Z" fill="#D0D4D8"/>
<path opacity="0.5" d="M18.2856 15.4277H23.9999C24.5333 15.4277 24.9523 15.8468 24.9523 16.3801C24.9523 16.9134 24.5333 17.3325 23.9999 17.3325H18.2856C17.7523 17.3325 17.3333 16.9134 17.3333 16.3801C17.3333 15.8468 17.7523 15.4277 18.2856 15.4277Z" fill="#D0D4D8"/>
<path opacity="0.5" d="M18.2856 19.2383H23.9999C24.5333 19.2383 24.9523 19.6573 24.9523 20.1907C24.9523 20.724 24.5333 21.143 23.9999 21.143H18.2856C17.7523 21.143 17.3333 20.724 17.3333 20.1907C17.3333 19.6573 17.7523 19.2383 18.2856 19.2383Z" fill="#D0D4D8"/>
</g>
<defs>
<clipPath id="clip0_322_4264">
<rect width="40" height="40" fill="white" transform="translate(4 4)"/>
</clipPath>
</defs>
</svg>
