<svg width="1366" height="1390" viewBox="0 0 1366 1390" fill="none" xmlns="http://www.w3.org/2000/svg">
<rect x="-306" width="1831" height="1390" fill="white"/>
<path d="M655.184 68.8857C649.85 69.8191 629.584 77.4191 624.517 80.3524C610.65 88.4857 599.184 100.219 592.65 113.019C588.25 121.686 585.317 137.686 586.384 148.352C587.184 157.686 591.317 169.286 594.65 172.086C597.584 174.486 596.784 175.952 592.65 175.952C572.917 175.952 532.517 193.152 504.517 213.552C483.317 229.019 451.984 261.286 445.184 274.619C443.85 277.152 440.917 281.952 438.517 285.286C430.65 296.086 417.717 323.952 411.984 342.086C400.917 377.286 397.317 403.819 398.117 442.219L398.784 469.286L393.717 472.752C382.117 480.752 374.517 496.219 372.384 515.819C371.184 527.552 371.317 530.752 373.717 543.019C376.384 556.886 380.784 568.752 385.584 575.686C388.117 579.152 388.117 579.552 385.717 588.619C382.517 601.152 365.317 651.286 354.65 679.952C336.384 728.486 331.45 753.952 332.917 789.286C334.517 823.286 344.784 852.352 361.05 868.486C367.984 875.419 368.784 876.619 367.317 878.886C353.184 901.552 330.517 947.019 319.984 974.352C301.85 1020.75 283.984 1074.49 275.184 1108.62C263.05 1156.22 265.317 1194.35 281.317 1213.95C284.517 1217.95 287.184 1221.55 287.184 1221.95C287.184 1222.35 240.517 1222.62 183.45 1222.62H79.5836L76.7836 1225.69C73.0502 1229.55 73.0502 1230.75 76.9169 1234.35L80.1169 1237.29H193.584L307.184 1237.15L316.784 1241.82C334.65 1250.22 358.25 1255.42 385.85 1256.75C395.584 1257.29 402.917 1258.35 403.45 1259.15C404.917 1261.29 404.65 1270.22 403.05 1277.15C399.984 1290.62 407.717 1308.35 419.45 1314.35L425.45 1317.42L659.184 1317.29H893.05L898.784 1313.82C910.65 1306.89 916.117 1294.75 914.65 1278.35C913.45 1265.55 913.584 1261.02 914.784 1259.82C915.45 1259.29 920.384 1258.49 925.85 1258.09C942.117 1256.75 972.517 1251.42 992.517 1246.49C993.984 1246.09 994.65 1247.29 994.917 1250.62C995.584 1259.55 1000.92 1277.95 1004.38 1284.09C1011.18 1295.95 1020.92 1304.75 1035.18 1311.95C1047.45 1318.22 1058.78 1320.22 1083.58 1321.02C1117.32 1321.95 1138.12 1318.62 1156.78 1309.15C1167.05 1303.95 1180.25 1291.29 1185.18 1281.95C1187.32 1277.82 1189.58 1274.22 1190.12 1273.82C1190.65 1273.42 1194.92 1272.49 1199.45 1271.82C1211.45 1269.95 1224.65 1264.62 1235.98 1257.02C1244.92 1251.02 1255.18 1241.02 1255.18 1238.35C1255.18 1237.82 1262.38 1237.29 1271.05 1237.29C1288.65 1237.29 1291.18 1236.22 1291.18 1229.42C1291.18 1223.55 1289.05 1222.62 1276.12 1222.62C1265.58 1222.62 1264.38 1222.35 1265.05 1220.22C1268.38 1208.62 1269.05 1204.09 1268.92 1191.95C1268.78 1169.69 1263.72 1154.35 1252.38 1142.75C1242.38 1132.35 1222.65 1125.69 1205.72 1126.89L1199.18 1127.29V1123.02C1199.18 1109.42 1189.05 1100.75 1165.85 1094.35C1140.12 1087.15 1088.52 1084.35 1054.12 1088.49C1040.65 1089.95 1037.85 1089.55 1037.85 1085.95C1037.85 1082.62 1021.98 1034.62 1008.52 997.286C994.517 958.352 971.717 909.552 955.05 883.019C953.45 880.352 953.717 879.819 956.784 877.286C961.317 873.819 971.05 859.952 975.45 850.619C979.85 841.419 985.317 823.419 987.85 809.952C990.784 795.152 990.384 765.419 987.184 744.486C983.85 722.486 981.317 713.019 970.384 681.952C965.584 667.952 958.917 649.152 955.717 639.952C951.05 626.352 943.984 603.552 940.117 588.619C939.717 587.152 938.517 583.552 937.45 580.752C935.584 575.686 935.584 575.286 940.65 565.419C948.384 550.352 950.25 541.019 949.584 521.952C949.05 508.219 948.25 504.486 944.917 495.819C942.65 490.086 938.25 482.352 934.917 478.352L929.05 471.019L929.984 463.152C932.65 441.286 929.45 394.486 923.184 364.219C911.184 306.752 875.584 250.619 828.384 214.486C822.784 210.219 815.85 205.419 813.05 203.819C790.117 190.886 777.85 185.686 761.984 182.086C752.65 179.952 745.984 177.419 749.45 177.286C754.784 177.152 760.384 159.819 760.384 143.286C760.384 108.886 735.717 80.4857 697.317 70.619C687.317 68.0857 665.184 67.1525 655.184 68.8857ZM726.384 337.286C736.917 361.552 747.317 377.686 767.05 400.219C798.117 435.686 830.384 462.486 850.384 469.286L857.184 471.552L857.317 486.086C857.45 515.152 853.717 558.752 849.05 582.619C842.517 615.419 831.584 640.752 813.717 664.352C788.917 697.152 759.317 718.352 720.384 731.152C698.25 738.352 683.184 740.619 657.85 740.486C632.784 740.352 617.584 737.819 593.85 729.686C538.517 710.886 495.984 668.619 477.05 613.952C473.984 605.019 467.984 578.352 466.65 567.286C463.584 541.819 462.25 523.552 461.184 490.886L460.517 471.952L464.117 470.486C472.25 467.552 482.917 461.552 492.917 454.486C507.85 443.819 537.984 414.752 551.184 398.219C557.317 390.486 562.65 384.219 562.784 384.486C563.317 384.886 556.517 397.152 551.85 404.619C550.384 406.752 544.117 415.419 537.85 423.686C531.584 431.952 524.784 441.152 522.65 443.952C515.184 453.952 521.717 460.619 532.784 454.086C543.85 447.686 560.917 444.886 571.184 448.086C585.05 452.219 592.25 447.419 587.85 436.886C587.317 435.419 587.45 434.619 588.517 434.619C591.717 434.619 611.85 425.019 621.05 419.019C644.25 404.086 671.45 377.952 687.317 355.152C697.717 340.486 713.584 308.086 713.984 301.152C713.984 300.086 715.984 305.819 718.384 313.952C720.784 321.952 724.384 332.486 726.384 337.286ZM427.05 483.819C433.717 487.286 440.25 494.886 441.05 500.219C441.45 502.619 442.384 512.752 443.184 522.619C445.184 546.486 449.317 578.886 451.717 587.952C452.784 591.952 453.317 595.552 453.05 595.819C451.45 597.419 433.85 593.019 426.117 589.152C413.85 583.152 400.917 570.086 394.784 557.286C388.65 544.886 386.65 534.619 387.584 519.552C388.117 509.686 388.917 506.486 392.65 498.886C400.517 483.286 414.117 477.286 427.05 483.819ZM918.784 486.886C935.984 499.286 940.117 531.152 927.85 556.752C917.05 579.019 897.45 593.552 875.05 595.819C868.917 596.352 863.717 596.886 863.584 596.752C863.45 596.619 864.25 593.286 865.317 589.286C867.45 580.886 873.317 541.419 874.517 526.619C875.584 514.352 877.584 499.686 878.517 497.019C879.317 494.886 888.517 487.686 895.717 483.552C902.117 479.952 910.917 481.152 918.784 486.886ZM741.45 771.552C745.45 779.686 751.717 785.019 761.184 788.752C767.717 791.152 767.717 791.552 761.184 801.952C743.584 829.686 711.184 844.752 666.517 846.086C635.984 847.019 616.117 843.019 593.184 831.552C575.317 822.619 565.717 813.819 557.717 798.619L553.984 791.419L560.65 789.152C577.45 783.286 587.184 769.286 587.184 751.152V744.486L598.384 748.219C616.384 754.219 638.25 757.419 660.517 757.419C671.184 757.419 683.05 756.752 686.917 755.952C700.384 753.419 717.184 749.152 725.85 746.219L734.517 743.286L736.117 753.686C737.05 759.819 739.184 767.152 741.45 771.552ZM807.184 799.286C855.184 811.419 897.184 836.219 923.85 868.086C947.85 897.019 968.917 937.686 992.25 1000.22C1004.12 1031.82 1021.18 1082.35 1022.52 1089.69L1023.45 1094.35L1014.12 1097.15C1006.92 1099.29 1003.85 1101.15 1000.12 1105.15C992.25 1113.82 992.117 1115.02 991.984 1175.29L991.85 1229.95L980.517 1233.02C966.25 1236.75 942.517 1240.89 927.85 1242.09L916.517 1243.02L917.184 1239.15C917.584 1237.02 918.517 1228.35 919.184 1219.95C919.984 1211.55 922.117 1190.49 923.984 1173.29C925.717 1156.09 927.584 1137.55 928.117 1132.22C928.784 1123.95 929.45 1122.09 931.984 1120.49C936.917 1117.15 948.25 1114.62 961.85 1113.82C975.717 1112.89 979.184 1111.15 979.184 1105.55C979.184 1103.69 978.25 1101.02 976.917 1099.69C973.45 1095.82 957.984 1096.75 934.917 1102.09C931.717 1102.75 931.317 1102.62 931.85 1099.82C932.517 1094.89 933.717 1085.29 934.517 1077.29C934.917 1073.29 935.85 1064.22 936.517 1057.29C945.45 971.019 945.85 961.019 941.184 951.419C937.584 944.086 930.65 937.552 921.984 933.419L914.517 929.952H660.384H406.384L396.117 935.019C377.984 943.952 375.317 950.886 377.717 983.419C379.717 1011.02 384.117 1060.89 387.184 1089.82C387.984 1097.15 388.384 1103.15 388.25 1103.29C387.984 1103.55 382.517 1102.49 375.85 1101.15C369.317 1099.69 357.45 1098.22 349.584 1097.69C337.584 1097.02 334.784 1097.29 331.85 1099.15C328.117 1101.69 327.45 1105.95 330.384 1110.09C332.117 1112.62 334.25 1113.02 349.45 1113.69C366.117 1114.49 378.784 1116.89 385.984 1120.75C389.184 1122.35 389.717 1123.55 390.384 1130.89C390.784 1135.55 392.917 1157.55 395.184 1179.95C397.317 1202.35 399.584 1225.55 399.984 1231.69L400.917 1242.89L389.717 1241.95C359.85 1239.69 334.517 1233.69 319.184 1225.02C294.117 1210.89 284.917 1197.29 283.584 1171.82C281.85 1141.69 289.85 1105.95 313.584 1037.69C336.517 971.952 358.917 922.086 380.65 889.286C392.65 871.152 413.984 848.352 429.584 837.286C448.517 823.686 475.717 810.752 499.85 803.686C514.517 799.419 535.45 794.352 535.85 794.886C535.984 795.152 538.117 798.886 540.517 803.286C549.05 819.019 557.984 828.752 574.65 840.219C608.25 863.019 671.85 869.152 717.184 853.952C744.117 844.886 769.717 824.219 780.117 803.152C784.784 793.686 784.784 793.552 788.917 794.752C791.317 795.286 799.45 797.419 807.184 799.286ZM911.584 946.752C918.384 948.619 925.05 954.752 927.184 961.152C929.317 967.819 927.984 987.686 921.85 1038.62C921.184 1044.89 920.25 1053.82 919.717 1058.62C919.317 1063.42 917.85 1077.15 916.517 1089.29C915.05 1101.42 913.05 1121.15 911.85 1133.29C910.65 1145.42 908.25 1168.49 906.517 1184.62C904.65 1200.75 902.917 1217.82 902.517 1222.62C899.85 1252.09 898.517 1256.35 889.85 1262.22L885.45 1265.29H658.517H431.584L427.05 1262.22C423.584 1259.95 422.117 1257.42 420.25 1251.42C416.784 1240.09 413.05 1207.95 409.184 1157.29C406.917 1126.49 403.984 1093.55 401.184 1065.95C400.117 1055.69 398.384 1037.42 397.184 1025.29C396.117 1013.15 394.917 1000.62 394.517 997.286C390.784 963.686 391.05 961.019 397.317 954.086C399.317 952.086 403.317 949.152 406.384 947.819C411.717 945.419 420.784 945.286 659.184 945.286C827.717 945.286 908.117 945.686 911.584 946.752ZM1129.85 1103.42C1159.18 1106.75 1181.18 1113.29 1180.25 1118.22C1179.58 1121.55 1170.38 1125.69 1165.32 1124.89C1163.05 1124.62 1153.98 1122.89 1145.18 1121.29C1131.45 1118.62 1124.65 1118.22 1097.18 1118.09C1065.18 1117.95 1054.92 1118.89 1034.78 1123.69C1027.05 1125.42 1024.65 1125.55 1019.45 1124.09C1007.85 1121.02 1007.32 1116.89 1017.58 1112.22C1038.78 1102.62 1089.05 1098.62 1129.85 1103.42ZM1181.72 1179.29C1179.85 1253.15 1177.85 1266.75 1167.32 1280.75C1154.12 1298.35 1131.05 1305.15 1086.78 1304.35C1064.38 1304.09 1054.12 1301.95 1039.72 1295.15C1023.72 1287.55 1015.18 1275.42 1011.18 1254.62C1009.85 1247.95 1008.78 1211.29 1008.12 1158.89C1007.85 1134.09 1006.12 1136.35 1021.18 1140.49C1050.52 1148.49 1102.92 1151.15 1137.18 1146.49C1149.05 1144.75 1173.98 1139.55 1179.18 1137.55C1181.05 1136.89 1182.52 1136.35 1182.65 1136.49C1182.65 1136.49 1182.25 1155.82 1181.72 1179.29ZM1227.32 1145.15C1253.05 1154.75 1262.92 1196.09 1246.38 1224.62C1239.32 1236.89 1221.98 1249.69 1205.98 1254.62C1195.98 1257.82 1192.38 1257.95 1193.32 1255.42C1193.72 1254.49 1194.12 1251.02 1194.38 1247.95C1194.78 1242.22 1194.78 1242.22 1201.58 1240.49C1224.38 1234.62 1238.78 1218.22 1240.25 1196.62C1241.05 1183.55 1237.98 1173.55 1231.05 1165.95C1223.98 1158.22 1218.65 1155.95 1207.98 1155.95H1199.18V1148.49V1140.89L1209.58 1141.69C1215.45 1142.09 1223.32 1143.69 1227.32 1145.15ZM1217.72 1174.49C1233.45 1185.69 1225.45 1214.35 1203.98 1224.09C1194.38 1228.35 1194.78 1229.02 1195.72 1205.55C1196.25 1194.09 1196.92 1181.42 1197.45 1177.42L1198.25 1170.35L1205.72 1170.89C1210.92 1171.29 1214.78 1172.49 1217.72 1174.49ZM898.784 1282.22C897.05 1291.69 894.784 1296.22 890.784 1298.62C886.65 1301.29 882.25 1301.29 658.65 1301.29C432.784 1301.29 430.784 1301.29 426.517 1298.62C422.117 1295.95 419.317 1291.02 418.65 1285.15L418.25 1281.95L652.517 1282.35C790.117 1282.49 888.917 1282.09 891.984 1281.42C899.317 1279.69 899.184 1279.69 898.784 1282.22Z" fill="black"/>
<path d="M731.85 428.486C724.784 430.219 719.717 432.619 716.917 435.419C714.25 437.952 714.784 444.619 717.85 447.286C720.25 449.419 721.184 449.552 728.784 447.819C742.117 444.886 752.917 445.686 765.717 450.486C778.784 455.286 779.584 455.419 782.384 452.486C785.584 449.419 784.917 445.952 780.517 440.752C775.584 435.152 766.917 430.752 755.984 428.486C746.117 426.352 740.517 426.352 731.85 428.486Z" fill="black"/>
<path d="M560.517 503.552C545.717 511.152 545.183 548.219 559.85 557.286C566.117 561.152 570.65 560.752 575.85 555.552C584.783 546.619 587.05 526.619 580.517 513.019C575.85 503.152 568.383 499.552 560.517 503.552Z" fill="black"/>
<path d="M739.184 503.686C729.05 508.619 724.117 528.886 729.05 545.552C734.917 566.086 755.05 564.752 761.184 543.419C765.184 529.686 761.584 511.286 753.584 504.619C748.917 500.619 745.584 500.486 739.184 503.686Z" fill="black"/>
<path d="M637.45 567.819C633.05 570.619 627.717 578.086 626.517 583.019C624.917 589.286 632.117 599.819 641.45 604.486C651.984 609.819 661.584 600.352 653.05 592.886C651.184 591.286 648.784 588.486 647.85 586.619C646.384 583.686 646.517 582.619 648.65 578.619C651.45 573.152 651.85 569.152 649.584 566.886C647.184 564.486 641.717 564.886 637.45 567.819Z" fill="black"/>
<path d="M691.184 639.419C671.584 655.286 641.851 654.219 620.251 637.152C615.584 633.419 610.784 634.486 608.517 639.952C607.051 643.552 607.184 644.219 610.517 648.219C615.317 653.952 626.251 660.886 634.517 663.286C651.584 668.486 674.384 667.019 689.317 659.819C698.251 655.686 707.184 646.886 707.184 642.619C707.184 639.819 701.717 633.152 699.584 633.419C699.051 633.419 695.184 636.086 691.184 639.419Z" fill="black"/>
<path d="M610.917 948.886C611.85 949.286 613.05 949.153 613.45 948.753C613.984 948.353 613.184 947.953 611.717 948.086C610.25 948.086 609.85 948.486 610.917 948.886Z" fill="black"/>
<path d="M395.45 987.952C395.45 989.819 395.717 990.486 396.117 989.552C396.384 988.752 396.384 987.152 396.117 986.219C395.717 985.419 395.45 986.086 395.45 987.952Z" fill="black"/>
<path d="M683.583 1038.09C682.117 1038.75 678.783 1046.89 660.383 1094.62C656.917 1103.82 648.517 1125.29 641.983 1142.22C635.317 1159.29 629.85 1174.35 629.85 1175.82C629.85 1177.15 631.183 1179.82 632.65 1181.82C634.917 1184.75 636.383 1185.42 640.383 1185.02C644.65 1184.62 645.583 1183.95 648.25 1178.35C651.45 1171.95 668.517 1128.62 675.45 1109.29C677.717 1103.02 683.583 1087.29 688.65 1074.22C698.25 1049.42 699.45 1043.15 695.45 1039.55C693.05 1037.42 687.05 1036.75 683.583 1038.09Z" fill="black"/>
<path d="M670.517 1060.09C669.983 1060.89 669.85 1061.69 670.25 1062.09C670.517 1062.49 671.183 1061.82 671.583 1060.62C672.517 1058.35 671.717 1057.95 670.517 1060.09Z" fill="black"/>
<path d="M598.917 1063.55C583.583 1076.35 550.25 1106.09 548.917 1108.49C545.45 1114.49 546.783 1116.62 564.25 1133.42C600.65 1168.62 603.85 1170.75 610.917 1165.82C613.183 1164.22 613.85 1162.49 613.85 1157.95C613.85 1152.22 613.717 1152.09 593.183 1133.02L572.65 1113.95L578.917 1107.55C582.25 1104.09 585.983 1101.55 586.917 1101.95C587.85 1102.22 588.383 1102.09 587.85 1101.42C587.45 1100.75 590.917 1096.62 595.45 1092.35C617.317 1072.09 618.117 1070.75 612.383 1063.42C608.917 1058.89 604.517 1059.02 598.917 1063.55Z" fill="black"/>
<path d="M712.784 1062.89C711.317 1064.62 709.584 1067.55 709.184 1069.69C708.251 1073.02 709.451 1074.62 723.984 1088.35C732.784 1096.62 742.517 1105.82 745.717 1108.75L751.451 1114.09L736.384 1128.09C727.984 1135.82 718.517 1144.62 715.451 1147.42C710.384 1151.95 709.584 1153.42 709.584 1157.95C709.584 1163.95 713.317 1167.95 719.051 1167.95C722.651 1167.95 734.917 1157.42 762.251 1131.02C781.051 1112.75 781.451 1114.49 751.717 1086.62C738.784 1074.49 726.651 1063.55 724.651 1062.35C719.984 1059.15 716.251 1059.42 712.784 1062.89Z" fill="black"/>
<path d="M555.05 1098.22C553.317 1100.35 553.45 1100.49 555.583 1098.75C556.783 1097.82 557.85 1096.75 557.85 1096.49C557.85 1095.42 556.783 1096.09 555.05 1098.22Z" fill="black"/>
<path d="M740.517 1107.15C740.517 1107.42 741.584 1108.49 742.917 1109.42C744.917 1111.15 745.05 1111.02 743.317 1108.89C741.584 1106.75 740.517 1106.09 740.517 1107.15Z" fill="black"/>
<path d="M909.984 1120.75C909.984 1122.22 910.384 1122.62 910.784 1121.55C911.184 1120.62 911.05 1119.42 910.65 1119.02C910.25 1118.49 909.85 1119.29 909.984 1120.75Z" fill="black"/>
<path d="M641.317 1135.55C640.517 1137.42 640.65 1137.55 641.983 1136.35C642.917 1135.42 643.317 1134.35 642.917 1133.95C642.517 1133.55 641.717 1134.22 641.317 1135.55Z" fill="black"/>
<path d="M447.983 1139.55C447.183 1141.42 447.317 1141.55 448.65 1140.35C449.583 1139.42 449.983 1138.35 449.583 1137.95C449.183 1137.55 448.383 1138.22 447.983 1139.55Z" fill="black"/>
<path d="M644.517 1186.62C643.317 1187.42 643.184 1187.95 644.117 1187.95C644.917 1187.95 646.117 1187.29 646.517 1186.62C647.584 1185.02 647.05 1185.02 644.517 1186.62Z" fill="black"/>
<path d="M573.184 1225.29C572.784 1226.09 573.317 1226.22 574.384 1225.82C576.784 1224.89 577.184 1223.95 575.317 1223.95C574.517 1223.95 573.584 1224.49 573.184 1225.29Z" fill="black"/>
<path d="M752.384 1247.55C750.65 1249.69 750.784 1249.82 752.917 1248.09C754.117 1247.15 755.184 1246.09 755.184 1245.82C755.184 1244.75 754.117 1245.42 752.384 1247.55Z" fill="black"/>
<path d="M485.583 1263.55C486.383 1263.82 487.983 1263.82 488.917 1263.55C489.717 1263.15 489.05 1262.89 487.183 1262.89C485.317 1262.89 484.65 1263.15 485.583 1263.55Z" fill="black"/>
<path d="M510.917 1263.55C511.85 1263.95 513.05 1263.82 513.45 1263.42C513.984 1263.02 513.184 1262.62 511.717 1262.75C510.25 1262.75 509.85 1263.15 510.917 1263.55Z" fill="black"/>
<path d="M646.917 1263.55C647.717 1263.82 649.317 1263.82 650.25 1263.55C651.05 1263.15 650.384 1262.89 648.517 1262.89C646.65 1262.89 645.984 1263.15 646.917 1263.55Z" fill="black"/>
<path d="M786.917 1263.55C787.85 1263.95 789.05 1263.82 789.45 1263.42C789.984 1263.02 789.184 1262.62 787.717 1262.75C786.25 1262.75 785.85 1263.15 786.917 1263.55Z" fill="black"/>
<path d="M802.917 1263.55C803.85 1263.95 805.05 1263.82 805.45 1263.42C805.984 1263.02 805.184 1262.62 803.717 1262.75C802.25 1262.75 801.85 1263.15 802.917 1263.55Z" fill="black"/>
<path d="M457.584 1284.89C458.517 1285.29 459.717 1285.15 460.117 1284.75C460.65 1284.35 459.85 1283.95 458.384 1284.09C456.917 1284.09 456.517 1284.49 457.584 1284.89Z" fill="black"/>
<path d="M464.25 1284.89C465.183 1285.29 466.383 1285.15 466.783 1284.75C467.317 1284.35 466.517 1283.95 465.05 1284.09C463.583 1284.09 463.183 1284.49 464.25 1284.89Z" fill="black"/>
<path d="M472.25 1284.89C473.05 1285.15 474.65 1285.15 475.584 1284.89C476.384 1284.49 475.717 1284.22 473.85 1284.22C471.984 1284.22 471.317 1284.49 472.25 1284.89Z" fill="black"/>
<path d="M496.25 1284.89C497.183 1285.29 498.383 1285.15 498.783 1284.75C499.317 1284.35 498.517 1283.95 497.05 1284.09C495.583 1284.09 495.183 1284.49 496.25 1284.89Z" fill="black"/>
<path d="M525.583 1284.89C526.383 1285.15 527.983 1285.15 528.917 1284.89C529.717 1284.49 529.05 1284.22 527.183 1284.22C525.317 1284.22 524.65 1284.49 525.583 1284.89Z" fill="black"/>
<path d="M545.584 1284.89C546.517 1285.29 547.717 1285.15 548.117 1284.75C548.65 1284.35 547.85 1283.95 546.384 1284.09C544.917 1284.09 544.517 1284.49 545.584 1284.89Z" fill="black"/>
<path d="M552.25 1284.89C553.05 1285.15 554.65 1285.15 555.584 1284.89C556.384 1284.49 555.717 1284.22 553.85 1284.22C551.984 1284.22 551.317 1284.49 552.25 1284.89Z" fill="black"/>
<path d="M652.251 1284.89C654.651 1285.15 658.251 1285.15 660.251 1284.89C662.251 1284.62 660.251 1284.35 655.851 1284.35C651.451 1284.35 649.851 1284.62 652.251 1284.89Z" fill="black"/>
<path d="M699.584 1284.89C700.784 1285.15 702.917 1285.15 704.25 1284.89C705.45 1284.49 704.384 1284.22 701.85 1284.22C699.317 1284.22 698.25 1284.49 699.584 1284.89Z" fill="black"/>
<path d="M724.917 1284.89C726.117 1285.15 728.25 1285.15 729.583 1284.89C730.783 1284.49 729.717 1284.22 727.183 1284.22C724.65 1284.22 723.583 1284.49 724.917 1284.89Z" fill="black"/>
<path d="M733.584 1284.89C734.517 1285.29 735.717 1285.15 736.117 1284.75C736.65 1284.35 735.85 1283.95 734.384 1284.09C732.917 1284.09 732.517 1284.49 733.584 1284.89Z" fill="black"/>
<path d="M746.917 1284.89C747.85 1285.29 749.05 1285.15 749.45 1284.75C749.984 1284.35 749.184 1283.95 747.717 1284.09C746.25 1284.09 745.85 1284.49 746.917 1284.89Z" fill="black"/>
<path d="M762.917 1284.89C763.85 1285.29 765.05 1285.15 765.45 1284.75C765.984 1284.35 765.184 1283.95 763.717 1284.09C762.25 1284.09 761.85 1284.49 762.917 1284.89Z" fill="black"/>
<path d="M811.583 1284.89C812.783 1285.15 814.65 1285.15 815.583 1284.89C816.383 1284.49 815.45 1284.22 813.183 1284.22C811.05 1284.22 810.25 1284.49 811.583 1284.89Z" fill="black"/>
<path d="M837.85 1288.09C837.85 1288.75 838.517 1289.02 839.183 1288.62C839.983 1288.22 840.517 1287.55 840.517 1287.15C840.517 1286.89 839.983 1286.62 839.183 1286.62C838.517 1286.62 837.85 1287.29 837.85 1288.09Z" fill="black"/>
<path d="M494.517 1295.95C494.117 1296.62 494.384 1297.29 495.05 1297.29C495.85 1297.29 496.517 1296.62 496.517 1295.95C496.517 1295.15 496.25 1294.62 495.984 1294.62C495.584 1294.62 494.917 1295.15 494.517 1295.95Z" fill="black"/>
<path d="M448.25 1299.55C449.183 1299.95 450.383 1299.82 450.783 1299.42C451.317 1299.02 450.517 1298.62 449.05 1298.75C447.583 1298.75 447.183 1299.15 448.25 1299.55Z" fill="black"/>
<path d="M459.584 1299.55C461.584 1299.82 464.517 1299.82 466.25 1299.55C467.85 1299.29 466.25 1299.02 462.517 1299.02C458.917 1299.02 457.45 1299.29 459.584 1299.55Z" fill="black"/>
<path d="M477.583 1299.55C478.383 1299.82 479.983 1299.82 480.917 1299.55C481.717 1299.15 481.05 1298.89 479.183 1298.89C477.317 1298.89 476.65 1299.15 477.583 1299.55Z" fill="black"/>
<path d="M485.583 1299.55C487.183 1299.82 489.583 1299.82 490.917 1299.55C492.117 1299.15 490.783 1298.89 487.85 1299.02C484.917 1299.02 483.85 1299.29 485.583 1299.55Z" fill="black"/>
<path d="M560.25 1299.55C561.183 1299.95 562.383 1299.82 562.783 1299.42C563.317 1299.02 562.517 1298.62 561.05 1298.75C559.583 1298.75 559.183 1299.15 560.25 1299.55Z" fill="black"/>
<path d="M566.25 1299.55C567.45 1299.82 569.317 1299.82 570.25 1299.55C571.05 1299.15 570.117 1298.89 567.85 1298.89C565.717 1298.89 564.917 1299.15 566.25 1299.55Z" fill="black"/>
<path d="M594.917 1299.55C595.85 1299.95 597.05 1299.82 597.45 1299.42C597.984 1299.02 597.184 1298.62 595.717 1298.75C594.25 1298.75 593.85 1299.15 594.917 1299.55Z" fill="black"/>
<path d="M628.25 1299.55C629.05 1299.82 630.65 1299.82 631.584 1299.55C632.384 1299.15 631.717 1298.89 629.85 1298.89C627.984 1298.89 627.317 1299.15 628.25 1299.55Z" fill="black"/>
<path d="M634.917 1299.55C635.85 1299.95 637.05 1299.82 637.45 1299.42C637.984 1299.02 637.184 1298.62 635.717 1298.75C634.25 1298.75 633.85 1299.15 634.917 1299.55Z" fill="black"/>
<path d="M694.917 1299.55C695.85 1299.95 697.05 1299.82 697.45 1299.42C697.984 1299.02 697.184 1298.62 695.717 1298.75C694.25 1298.75 693.85 1299.15 694.917 1299.55Z" fill="black"/>
<path d="M745.584 1299.55C746.517 1299.95 747.717 1299.82 748.117 1299.42C748.65 1299.02 747.85 1298.62 746.384 1298.75C744.917 1298.75 744.517 1299.15 745.584 1299.55Z" fill="black"/>
<path d="M794.917 1299.55C795.85 1299.95 797.05 1299.82 797.45 1299.42C797.984 1299.02 797.184 1298.62 795.717 1298.75C794.25 1298.75 793.85 1299.15 794.917 1299.55Z" fill="black"/>
<path d="M819.583 1299.55C820.783 1299.82 822.65 1299.82 823.583 1299.55C824.383 1299.15 823.45 1298.89 821.183 1298.89C819.05 1298.89 818.25 1299.15 819.583 1299.55Z" fill="black"/>
<path d="M841.584 1299.55C842.517 1299.95 843.717 1299.82 844.117 1299.42C844.65 1299.02 843.85 1298.62 842.384 1298.75C840.917 1298.75 840.517 1299.15 841.584 1299.55Z" fill="black"/>
<path d="M866.917 1299.55C867.717 1299.82 869.317 1299.82 870.25 1299.55C871.05 1299.15 870.384 1298.89 868.517 1298.89C866.65 1298.89 865.984 1299.15 866.917 1299.55Z" fill="black"/>
</svg>
