<svg width="252" height="252" viewBox="0 0 252 252" fill="none" xmlns="http://www.w3.org/2000/svg">
<g clip-path="url(#clip0_84_52)">
<path d="M31.5 0C14.049 0 0 14.049 0 31.5V220.5C0 237.951 14.049 252 31.5 252H220.5C237.951 252 252 237.951 252 220.5V31.5C252 14.049 237.951 0 220.5 0H31.5ZM103.772 65.625C110.387 65.625 114.324 68.775 115.584 75.075L130.945 162.257C135.828 155.799 139.828 150.36 142.978 145.95C147.861 139.02 152.355 131.061 156.45 122.083C160.702 113.106 162.834 105.073 162.834 97.986C162.834 93.7335 161.648 90.3525 159.285 87.8325C157.08 85.155 152.901 81.774 146.759 77.679C153.059 69.6465 160.933 65.625 170.383 65.625C175.423 65.625 179.603 67.1265 182.91 70.119C186.375 73.1115 188.097 77.511 188.097 83.349C188.097 93.114 184.002 105.325 175.812 119.973C167.779 134.463 152.281 156.272 129.286 185.409L105.903 187.047L87.9375 85.953H64.3125V76.02C70.6125 73.9725 78.015 71.757 86.52 69.405C95.025 66.885 100.779 65.625 103.772 65.625Z" fill="white" fill-opacity="0.79"/>
</g>
<defs>
<clipPath id="clip0_84_52">
<rect width="252" height="252" fill="white"/>
</clipPath>
</defs>
</svg>
