<svg width="423" height="412" viewBox="0 0 423 412" fill="none" xmlns="http://www.w3.org/2000/svg">
<rect x="0.5" y="0.5" width="247" height="411" rx="4.5" stroke="#9747FF" stroke-dasharray="10 5"/>
<rect x="20" y="20" width="208" height="56" rx="12" fill="#9935FF"/>
<path d="M91.4316 54V41.2734H99.9746V43.4531H94.0683V46.5469H99.5351V48.7266H94.0683V51.8203H99.9921V54H91.4316ZM104.4 48.4805V54H101.798V44.4551H104.277V46.125H104.382C104.813 45.0264 105.833 44.332 107.248 44.332C109.243 44.332 110.544 45.6943 110.535 47.918V54H107.951V48.375C107.942 47.1973 107.309 46.4941 106.228 46.4941C105.147 46.4941 104.4 47.2236 104.4 48.4805ZM111.919 51.3281C111.928 49.2012 113.633 48.5068 115.47 48.3926C116.156 48.3486 117.439 48.2871 117.843 48.2695V47.4961C117.834 46.6963 117.289 46.2393 116.314 46.2305C115.426 46.2393 114.872 46.6348 114.732 47.2852H112.253C112.411 45.6328 113.853 44.332 116.384 44.332C118.467 44.332 120.436 45.2637 120.427 47.5664V54H117.966V52.6816H117.896C117.43 53.5605 116.516 54.1846 115.101 54.1758C113.273 54.1846 111.928 53.2178 111.919 51.3281ZM114.415 51.2578C114.415 51.9873 115.004 52.374 115.839 52.3828C117.026 52.374 117.852 51.6006 117.843 50.5898V49.8955C117.448 49.9131 116.331 49.9746 115.892 50.0098C114.987 50.0889 114.415 50.5195 114.415 51.2578ZM122.286 54V41.2734H124.888V46.0547H124.958C125.318 45.2812 126.074 44.332 127.683 44.332C129.792 44.332 131.559 45.9668 131.567 49.2363C131.559 52.4268 129.862 54.1582 127.683 54.1582C126.127 54.1582 125.336 53.2617 124.958 52.4707H124.853V54H122.286ZM124.835 49.2188C124.826 50.9414 125.573 52.0752 126.856 52.084C128.184 52.0752 128.904 50.9062 128.896 49.2188C128.904 47.5576 128.201 46.4062 126.856 46.4062C125.564 46.4062 124.826 47.5049 124.835 49.2188ZM135.659 41.2734V54H133.057V41.2734H135.659ZM141.825 54.1934C138.898 54.1846 137.105 52.2949 137.114 49.2715C137.105 46.3271 138.924 44.332 141.719 44.332C144.224 44.332 146.202 45.9141 146.202 49.166V49.9043H139.68C139.68 51.3457 140.533 52.2334 141.877 52.2422C142.765 52.2334 143.398 51.8467 143.653 51.2754H146.131C145.762 53.042 144.18 54.1846 141.825 54.1934ZM139.68 48.2695H143.741C143.732 47.1094 142.932 46.2744 141.772 46.2832C140.577 46.2744 139.733 47.1709 139.68 48.2695ZM151.172 54.1582C148.992 54.1582 147.287 52.4268 147.287 49.2363C147.287 45.9668 149.063 44.332 151.172 44.332C152.772 44.332 153.536 45.2812 153.879 46.0547H153.967V41.2734H156.568V54H154.002V52.4707H153.879C153.519 53.2617 152.728 54.1582 151.172 54.1582ZM149.959 49.2188C149.95 50.9062 150.662 52.0752 151.981 52.084C153.281 52.0752 154.02 50.9414 154.02 49.2188C154.02 47.5049 153.29 46.4062 151.981 46.4062C150.653 46.4062 149.95 47.5576 149.959 49.2188Z" fill="white"/>
<rect x="20" y="99" width="208" height="56" rx="12" fill="#CCCCCC"/>
<path d="M93.2091 133H88.7267V120.273H93.2618C97.0939 120.273 99.4405 122.655 99.4318 126.619C99.4405 130.601 97.0939 133 93.2091 133ZM91.3634 130.732H93.1036C95.5294 130.732 96.795 129.476 96.795 126.619C96.795 123.789 95.5294 122.541 93.1212 122.541H91.3634V130.732ZM101.115 133V123.455H103.717V133H101.115ZM100.992 120.889C100.992 120.15 101.634 119.562 102.416 119.553C103.189 119.562 103.831 120.15 103.822 120.889C103.831 121.609 103.189 122.207 102.416 122.207C101.634 122.207 100.992 121.609 100.992 120.889ZM111.007 126.285C110.893 125.617 110.313 125.187 109.443 125.178C108.599 125.187 107.958 125.582 107.966 126.162C107.958 126.593 108.291 126.927 109.197 127.111L110.902 127.463C112.756 127.85 113.653 128.676 113.662 130.047C113.653 131.928 111.965 133.185 109.425 133.193C106.85 133.185 105.338 132.033 105.119 130.17H107.738C107.861 130.917 108.467 131.304 109.425 131.312C110.374 131.304 111.007 130.926 111.007 130.311C111.007 129.818 110.603 129.511 109.707 129.326L108.124 129.01C106.305 128.649 105.374 127.718 105.382 126.303C105.374 124.475 106.947 123.332 109.408 123.332C111.816 123.332 113.31 124.475 113.451 126.285H111.007ZM114.624 130.328C114.633 128.201 116.338 127.507 118.175 127.393C118.861 127.349 120.144 127.287 120.548 127.27V126.496C120.539 125.696 119.994 125.239 119.019 125.23C118.131 125.239 117.577 125.635 117.437 126.285H114.958C115.116 124.633 116.558 123.332 119.089 123.332C121.172 123.332 123.141 124.264 123.132 126.566V133H120.671V131.682H120.601C120.135 132.561 119.221 133.185 117.806 133.176C115.978 133.185 114.633 132.218 114.624 130.328ZM117.12 130.258C117.12 130.987 117.709 131.374 118.544 131.383C119.731 131.374 120.557 130.601 120.548 129.59V128.896C120.152 128.913 119.036 128.975 118.597 129.01C117.692 129.089 117.12 129.52 117.12 130.258ZM124.991 133V120.273H127.593V125.055H127.663C128.023 124.281 128.779 123.332 130.388 123.332C132.497 123.332 134.264 124.967 134.272 128.236C134.264 131.427 132.567 133.158 130.388 133.158C128.832 133.158 128.041 132.262 127.663 131.471H127.557V133H124.991ZM127.54 128.219C127.531 129.941 128.278 131.075 129.561 131.084C130.889 131.075 131.609 129.906 131.6 128.219C131.609 126.558 130.906 125.406 129.561 125.406C128.269 125.406 127.531 126.505 127.54 128.219ZM138.364 120.273V133H135.762V120.273H138.364ZM144.529 133.193C141.603 133.185 139.81 131.295 139.819 128.271C139.81 125.327 141.629 123.332 144.424 123.332C146.929 123.332 148.906 124.914 148.906 128.166V128.904H142.385C142.385 130.346 143.238 131.233 144.582 131.242C145.47 131.233 146.103 130.847 146.358 130.275H148.836C148.467 132.042 146.885 133.185 144.529 133.193ZM142.385 127.27H146.446C146.437 126.109 145.637 125.274 144.477 125.283C143.281 125.274 142.438 126.171 142.385 127.27ZM153.877 133.158C151.697 133.158 149.992 131.427 149.992 128.236C149.992 124.967 151.767 123.332 153.877 123.332C155.476 123.332 156.241 124.281 156.584 125.055H156.672V120.273H159.273V133H156.707V131.471H156.584C156.224 132.262 155.433 133.158 153.877 133.158ZM152.664 128.219C152.655 129.906 153.367 131.075 154.685 131.084C155.986 131.075 156.724 129.941 156.724 128.219C156.724 126.505 155.995 125.406 154.685 125.406C153.358 125.406 152.655 126.558 152.664 128.219Z" fill="white"/>
<rect x="20" y="178" width="208" height="56" rx="12" fill="#861DEE"/>
<path d="M100.225 212V199.273H102.862V204.547H108.381V199.273H111.036V212H108.381V206.727H102.862V212H100.225ZM117.237 212.193C114.354 212.185 112.552 210.207 112.561 207.254C112.552 204.31 114.354 202.332 117.237 202.332C120.128 202.332 121.921 204.31 121.93 207.254C121.921 210.207 120.128 212.185 117.237 212.193ZM115.198 207.254C115.198 208.924 115.892 210.163 117.254 210.172C118.581 210.163 119.284 208.924 119.276 207.254C119.284 205.575 118.581 204.318 117.254 204.318C115.892 204.318 115.198 205.575 115.198 207.254ZM131.928 202.455L128.57 212H125.652L122.312 202.455H125.055L127.059 209.311H127.164L129.168 202.455H131.928ZM137.021 212.193C134.094 212.185 132.301 210.295 132.31 207.271C132.301 204.327 134.121 202.332 136.916 202.332C139.421 202.332 141.398 203.914 141.398 207.166V207.904H134.877C134.877 209.346 135.729 210.233 137.074 210.242C137.962 210.233 138.594 209.847 138.849 209.275H141.328C140.959 211.042 139.377 212.185 137.021 212.193ZM134.877 206.27H138.937C138.928 205.109 138.129 204.274 136.968 204.283C135.773 204.274 134.929 205.171 134.877 206.27ZM142.853 212V202.455H145.367V204.107H145.472C145.815 202.938 146.702 202.314 147.775 202.314C148.038 202.314 148.372 202.35 148.601 202.402V204.723C148.355 204.644 147.854 204.582 147.494 204.582C146.316 204.582 145.446 205.399 145.454 206.568V212H142.853Z" fill="white"/>
<rect x="20" y="257" width="208" height="56" rx="12" fill="#6E0AD1"/>
<path d="M91.1064 291V278.273H96.0986C98.9902 278.273 100.651 280.058 100.651 282.562C100.651 285.103 98.9638 286.852 96.0283 286.852H93.7431V291H91.1064ZM93.7431 284.725H95.6064C97.1709 284.725 97.9355 283.846 97.9267 282.562C97.9355 281.297 97.1709 280.444 95.6064 280.436H93.7431V284.725ZM102.089 291V281.455H104.602V283.107H104.708C105.05 281.938 105.938 281.314 107.01 281.314C107.274 281.314 107.608 281.35 107.837 281.402V283.723C107.59 283.644 107.089 283.582 106.729 283.582C105.551 283.582 104.681 284.399 104.69 285.568V291H102.089ZM112.948 291.193C110.021 291.185 108.228 289.295 108.237 286.271C108.228 283.327 110.047 281.332 112.842 281.332C115.347 281.332 117.325 282.914 117.325 286.166V286.904H110.803C110.803 288.346 111.656 289.233 113 289.242C113.888 289.233 114.521 288.847 114.776 288.275H117.254C116.885 290.042 115.303 291.185 112.948 291.193ZM110.803 285.27H114.864C114.855 284.109 114.055 283.274 112.895 283.283C111.7 283.274 110.856 284.171 110.803 285.27ZM124.229 284.285C124.114 283.617 123.534 283.187 122.664 283.178C121.82 283.187 121.179 283.582 121.188 284.162C121.179 284.593 121.513 284.927 122.418 285.111L124.123 285.463C125.978 285.85 126.874 286.676 126.883 288.047C126.874 289.928 125.187 291.185 122.646 291.193C120.071 291.185 118.56 290.033 118.34 288.17H120.959C121.082 288.917 121.688 289.304 122.646 289.312C123.596 289.304 124.229 288.926 124.229 288.311C124.229 287.818 123.824 287.511 122.928 287.326L121.346 287.01C119.526 286.649 118.595 285.718 118.604 284.303C118.595 282.475 120.168 281.332 122.629 281.332C125.037 281.332 126.531 282.475 126.672 284.285H124.229ZM133.752 284.285C133.637 283.617 133.057 283.187 132.187 283.178C131.343 283.187 130.702 283.582 130.711 284.162C130.702 284.593 131.036 284.927 131.941 285.111L133.646 285.463C135.501 285.85 136.397 286.676 136.406 288.047C136.397 289.928 134.71 291.185 132.17 291.193C129.594 291.185 128.083 290.033 127.863 288.17H130.482C130.605 288.917 131.212 289.304 132.17 289.312C133.119 289.304 133.752 288.926 133.752 288.311C133.752 287.818 133.347 287.511 132.451 287.326L130.869 287.01C129.049 286.649 128.118 285.718 128.127 284.303C128.118 282.475 129.691 281.332 132.152 281.332C134.56 281.332 136.054 282.475 136.195 284.285H133.752ZM142.15 291.193C139.223 291.185 137.43 289.295 137.439 286.271C137.43 283.327 139.249 281.332 142.044 281.332C144.549 281.332 146.527 282.914 146.527 286.166V286.904H140.005C140.005 288.346 140.858 289.233 142.202 289.242C143.09 289.233 143.723 288.847 143.978 288.275H146.456C146.087 290.042 144.505 291.185 142.15 291.193ZM140.005 285.27H144.066C144.057 284.109 143.257 283.274 142.097 283.283C140.902 283.274 140.058 284.171 140.005 285.27ZM151.497 291.158C149.317 291.158 147.612 289.427 147.612 286.236C147.612 282.967 149.388 281.332 151.497 281.332C153.097 281.332 153.861 282.281 154.204 283.055H154.292V278.273H156.894V291H154.327V289.471H154.204C153.844 290.262 153.053 291.158 151.497 291.158ZM150.284 286.219C150.275 287.906 150.987 289.075 152.306 289.084C153.606 289.075 154.345 287.941 154.345 286.219C154.345 284.505 153.615 283.406 152.306 283.406C150.979 283.406 150.275 284.558 150.284 286.219Z" fill="white"/>
<rect x="21" y="337" width="206" height="54" rx="11" fill="#6E0AD1"/>
<rect x="21" y="337" width="206" height="54" rx="11" stroke="#5603A7" stroke-width="2"/>
<path d="M100.12 370V357.273H108.505V359.453H102.756V362.547H107.96V364.727H102.756V370H100.12ZM113.598 370.193C110.715 370.185 108.913 368.207 108.922 365.254C108.913 362.31 110.715 360.332 113.598 360.332C116.49 360.332 118.283 362.31 118.291 365.254C118.283 368.207 116.49 370.185 113.598 370.193ZM111.559 365.254C111.559 366.924 112.253 368.163 113.616 368.172C114.943 368.163 115.646 366.924 115.637 365.254C115.646 363.575 114.943 362.318 113.616 362.318C112.253 362.318 111.559 363.575 111.559 365.254ZM124.035 370.193C121.108 370.185 119.351 368.163 119.359 365.254C119.351 362.336 121.144 360.332 124.035 360.332C126.496 360.332 128.166 361.765 128.271 363.953H125.828C125.67 363.013 125.055 362.362 124.07 362.354C122.822 362.362 121.996 363.408 121.996 365.219C121.996 367.064 122.805 368.119 124.07 368.119C124.984 368.119 125.661 367.548 125.828 366.537H128.271C128.157 368.699 126.566 370.185 124.035 370.193ZM135.826 365.939V360.455H138.427V370H135.931V368.277H135.826C135.395 369.385 134.367 370.123 132.925 370.123C131.018 370.123 129.709 368.77 129.709 366.537V360.455H132.31V366.08C132.31 367.214 132.961 367.917 133.98 367.926C134.929 367.917 135.826 367.24 135.826 365.939ZM145.718 363.285C145.604 362.617 145.024 362.187 144.154 362.178C143.31 362.187 142.668 362.582 142.677 363.162C142.668 363.593 143.002 363.927 143.908 364.111L145.613 364.463C147.467 364.85 148.364 365.676 148.372 367.047C148.364 368.928 146.676 370.185 144.136 370.193C141.561 370.185 140.049 369.033 139.829 367.17H142.449C142.572 367.917 143.178 368.304 144.136 368.312C145.085 368.304 145.718 367.926 145.718 367.311C145.718 366.818 145.314 366.511 144.417 366.326L142.835 366.01C141.016 365.649 140.084 364.718 140.093 363.303C140.084 361.475 141.658 360.332 144.119 360.332C146.527 360.332 148.021 361.475 148.161 363.285H145.718Z" fill="white"/>
<rect x="261.5" y="0.5" width="161" height="399" rx="4.5" stroke="#9747FF" stroke-dasharray="10 5"/>
<rect x="281.5" y="20.5" width="121" height="39" rx="5.5" fill="white"/>
<rect x="281.5" y="20.5" width="121" height="39" rx="5.5" stroke="#9935FF"/>
<path d="M314.839 46V34.6875H321.699V35.9375H316.246V39.7188H321.339V40.9531H316.246V44.75H321.777V46H314.839ZM324.929 40.9062V46H323.586V37.5156H324.882V38.8438H324.992C325.39 37.9766 326.187 37.4062 327.476 37.4062C329.195 37.4062 330.343 38.4531 330.336 40.6094V46H328.992V40.7031C328.992 39.3906 328.273 38.6094 327.07 38.6094C325.836 38.6094 324.929 39.4375 324.929 40.9062ZM331.926 43.5938C331.926 41.6484 333.644 41.2031 335.113 41.0938C335.66 41.0547 337.027 40.9766 337.41 40.9688V40.2812C337.41 39.2031 336.769 38.5781 335.488 38.5781C334.418 38.5781 333.769 39.0703 333.582 39.7188H332.176C332.347 38.3516 333.676 37.4062 335.551 37.4062C336.66 37.4062 338.746 37.7344 338.738 40.4062V46H337.41V44.8438H337.347C337.066 45.4141 336.293 46.1953 334.816 46.2031C333.207 46.1953 331.926 45.25 331.926 43.5938ZM333.269 43.6562C333.277 44.5547 334.019 45.0078 335.051 45C336.566 45.0078 337.41 43.9922 337.41 42.9219V42.0703C337.012 42.0938 335.676 42.1953 335.269 42.2188C334.051 42.2969 333.277 42.7266 333.269 43.6562ZM340.906 46V34.6875H342.25V38.8594H342.359C342.648 38.4062 343.156 37.4062 344.812 37.4062C346.938 37.4062 348.43 39.0938 348.438 41.7812C348.43 44.4766 346.938 46.1797 344.828 46.1719C343.203 46.1797 342.648 45.1719 342.359 44.7031H342.203V46H340.906ZM342.219 41.75C342.219 43.6562 343.078 44.9688 344.625 44.9688C346.242 44.9688 347.07 43.5547 347.078 41.75C347.07 39.9766 346.266 38.6094 344.625 38.6094C343.062 38.6094 342.219 39.8672 342.219 41.75ZM351.371 34.6875V46H350.028V34.6875H351.371ZM356.914 46.1719C354.461 46.1797 352.946 44.4297 352.946 41.8281C352.946 39.2188 354.485 37.4062 356.789 37.4062C358.571 37.4062 360.453 38.5 360.446 41.6406V42.2031H354.289C354.36 44 355.407 44.9844 356.914 44.9844C357.93 44.9844 358.571 44.5391 358.883 44.0156H360.321C359.922 45.3047 358.664 46.1797 356.914 46.1719ZM354.297 41.0625H359.086C359.078 39.6484 358.188 38.5938 356.789 38.5938C355.321 38.5938 354.391 39.75 354.297 41.0625ZM365.239 46.1719C363.122 46.1797 361.629 44.4766 361.629 41.7812C361.629 39.0938 363.122 37.4062 365.254 37.4062C366.903 37.4062 367.418 38.4062 367.708 38.8594H367.801V34.6875H369.161V46H367.848V44.7031H367.708C367.411 45.1719 366.856 46.1797 365.239 46.1719ZM362.989 41.75C362.989 43.5547 363.817 44.9688 365.426 44.9688C366.981 44.9688 367.84 43.6562 367.848 41.75C367.84 39.8672 367.004 38.6094 365.426 38.6094C363.793 38.6094 362.989 39.9766 362.989 41.75Z" fill="#861DEE"/>
<rect x="281.5" y="178.5" width="121" height="39" rx="5.5" fill="#F8F0FF"/>
<rect x="281.5" y="178.5" width="121" height="39" rx="5.5" stroke="#861DEE"/>
<path d="M322.242 204V192.688H323.648V197.719H329.632V192.688H331.054V204H329.632V198.953H323.648V204H322.242ZM336.676 204.172C334.363 204.18 332.801 202.43 332.801 199.797C332.801 197.148 334.363 195.406 336.676 195.406C338.98 195.406 340.527 197.148 340.519 199.797C340.527 202.43 338.98 204.18 336.676 204.172ZM334.144 199.797C334.152 201.492 334.949 202.984 336.676 202.984C338.387 202.984 339.176 201.492 339.176 199.797C339.176 198.109 338.387 196.594 336.676 196.594C334.949 196.594 334.152 198.109 334.144 199.797ZM348.797 195.516L345.656 204H344.266L341.141 195.516H342.609L344.922 202.25H345.016L347.328 195.516H348.797ZM353.371 204.172C350.918 204.18 349.403 202.43 349.403 199.828C349.403 197.219 350.942 195.406 353.246 195.406C355.028 195.406 356.91 196.5 356.903 199.641V200.203H350.746C350.817 202 351.863 202.984 353.371 202.984C354.387 202.984 355.028 202.539 355.34 202.016H356.778C356.379 203.305 355.121 204.18 353.371 204.172ZM350.754 199.062H355.543C355.535 197.648 354.645 196.594 353.246 196.594C351.778 196.594 350.848 197.75 350.754 199.062ZM358.493 204V195.516H359.789V196.812H359.883C360.188 195.953 361.071 195.383 362.071 195.375C362.274 195.383 362.618 195.391 362.774 195.406V196.766C362.672 196.742 362.313 196.672 361.961 196.672C360.743 196.672 359.836 197.516 359.836 198.656V204H358.493Z" fill="#9935FF"/>
<rect x="281.5" y="260.5" width="121" height="39" rx="5.5" fill="#F8F0FF"/>
<rect x="281.5" y="260.5" width="121" height="39" rx="5.5" stroke="#6E0AD1"/>
<path d="M314.73 286V274.688H318.574C321.222 274.688 322.433 276.266 322.433 278.281C322.433 280.289 321.222 281.891 318.589 281.891H316.136V286H314.73ZM316.136 280.641H318.527C320.332 280.641 321.035 279.625 321.042 278.281C321.035 276.93 320.332 275.938 318.511 275.938H316.136V280.641ZM324.07 286V277.516H325.367V278.812H325.461C325.765 277.953 326.648 277.383 327.648 277.375C327.851 277.383 328.195 277.391 328.351 277.406V278.766C328.25 278.742 327.89 278.672 327.539 278.672C326.32 278.672 325.414 279.516 325.414 280.656V286H324.07ZM332.785 286.172C330.332 286.18 328.816 284.43 328.816 281.828C328.816 279.219 330.355 277.406 332.66 277.406C334.441 277.406 336.324 278.5 336.316 281.641V282.203H330.16C330.23 284 331.277 284.984 332.785 284.984C333.801 284.984 334.441 284.539 334.754 284.016H336.191C335.793 285.305 334.535 286.18 332.785 286.172ZM330.168 281.062H334.957C334.949 279.648 334.058 278.594 332.66 278.594C331.191 278.594 330.262 279.75 330.168 281.062ZM342.625 279.719C342.438 279.016 341.898 278.555 340.906 278.547C339.859 278.555 339.117 279.117 339.109 279.828C339.117 280.391 339.57 280.773 340.562 281.016L341.828 281.328C343.344 281.688 344.086 282.445 344.094 283.625C344.086 285.094 342.891 286.18 340.766 286.172C338.859 286.18 337.727 285.328 337.5 283.781H338.906C339.062 284.609 339.664 285.008 340.734 285C341.945 285.008 342.703 284.5 342.703 283.703C342.703 283.102 342.273 282.711 341.312 282.484L340.031 282.188C338.555 281.844 337.766 281.039 337.766 279.906C337.766 278.453 339.039 277.406 340.906 277.406C342.664 277.406 343.766 278.344 343.938 279.719H342.625ZM350.403 279.719C350.215 279.016 349.676 278.555 348.684 278.547C347.637 278.555 346.895 279.117 346.887 279.828C346.895 280.391 347.348 280.773 348.34 281.016L349.606 281.328C351.121 281.688 351.863 282.445 351.871 283.625C351.863 285.094 350.668 286.18 348.543 286.172C346.637 286.18 345.504 285.328 345.278 283.781H346.684C346.84 284.609 347.442 285.008 348.512 285C349.723 285.008 350.481 284.5 350.481 283.703C350.481 283.102 350.051 282.711 349.09 282.484L347.809 282.188C346.332 281.844 345.543 281.039 345.543 279.906C345.543 278.453 346.817 277.406 348.684 277.406C350.442 277.406 351.543 278.344 351.715 279.719H350.403ZM357.024 286.172C354.571 286.18 353.055 284.43 353.055 281.828C353.055 279.219 354.594 277.406 356.899 277.406C358.68 277.406 360.563 278.5 360.555 281.641V282.203H354.399C354.469 284 355.516 284.984 357.024 284.984C358.039 284.984 358.68 284.539 358.993 284.016H360.43C360.032 285.305 358.774 286.18 357.024 286.172ZM354.407 281.062H359.196C359.188 279.648 358.297 278.594 356.899 278.594C355.43 278.594 354.5 279.75 354.407 281.062ZM365.348 286.172C363.231 286.18 361.739 284.477 361.739 281.781C361.739 279.094 363.231 277.406 365.364 277.406C367.012 277.406 367.528 278.406 367.817 278.859H367.911V274.688H369.27V286H367.958V284.703H367.817C367.52 285.172 366.965 286.18 365.348 286.172ZM363.098 281.75C363.098 283.555 363.926 284.969 365.536 284.969C367.09 284.969 367.95 283.656 367.958 281.75C367.95 279.867 367.114 278.609 365.536 278.609C363.903 278.609 363.098 279.977 363.098 281.75Z" fill="#9935FF"/>
<rect x="281.5" y="340.5" width="121" height="39" rx="5.5" fill="white"/>
<rect x="281.5" y="340.5" width="121" height="39" rx="5.5" stroke="#6E0AD1"/>
<path d="M322.265 366V354.688H329.078V355.938H323.672V359.719H328.562V360.953H323.672V366H322.265ZM333.683 366.172C331.371 366.18 329.808 364.43 329.808 361.797C329.808 359.148 331.371 357.406 333.683 357.406C335.988 357.406 337.535 359.148 337.527 361.797C337.535 364.43 335.988 366.18 333.683 366.172ZM331.152 361.797C331.16 363.492 331.957 364.984 333.683 364.984C335.394 364.984 336.183 363.492 336.183 361.797C336.183 360.109 335.394 358.594 333.683 358.594C331.957 358.594 331.16 360.109 331.152 361.797ZM342.602 366.172C340.195 366.18 338.727 364.344 338.727 361.797C338.727 359.219 340.266 357.406 342.57 357.406C344.375 357.406 345.734 358.477 345.945 360.078H344.602C344.406 359.305 343.734 358.594 342.602 358.594C341.086 358.594 340.078 359.844 340.07 361.75C340.078 363.711 341.062 364.969 342.602 364.969C343.602 364.969 344.367 364.43 344.602 363.5H345.945C345.734 365.016 344.484 366.18 342.602 366.172ZM352.801 362.516V357.516H354.129V366H352.801V364.562H352.707C352.309 365.422 351.465 366.109 350.192 366.109C348.582 366.109 347.434 365.062 347.442 362.906V357.516H348.785V362.812C348.785 364.031 349.543 364.82 350.629 364.812C351.59 364.82 352.793 364.102 352.801 362.516ZM360.844 359.719C360.657 359.016 360.118 358.555 359.125 358.547C358.078 358.555 357.336 359.117 357.328 359.828C357.336 360.391 357.789 360.773 358.782 361.016L360.047 361.328C361.563 361.688 362.305 362.445 362.313 363.625C362.305 365.094 361.11 366.18 358.985 366.172C357.078 366.18 355.946 365.328 355.719 363.781H357.125C357.282 364.609 357.883 365.008 358.953 365C360.164 365.008 360.922 364.5 360.922 363.703C360.922 363.102 360.493 362.711 359.532 362.484L358.25 362.188C356.774 361.844 355.985 361.039 355.985 359.906C355.985 358.453 357.258 357.406 359.125 357.406C360.883 357.406 361.985 358.344 362.157 359.719H360.844Z" fill="#9747FF"/>
<rect x="281" y="100" width="122" height="40" rx="6" fill="#CCCCCC"/>
<path d="M316.232 126H312.716V114.688H316.372C319.677 114.688 321.622 116.805 321.622 120.328C321.622 123.859 319.677 126 316.232 126ZM314.122 124.75H316.138C318.912 124.75 320.247 123.07 320.247 120.328C320.247 117.594 318.912 115.938 316.279 115.938H314.122V124.75ZM323.353 126V117.516H324.697V126H323.353ZM323.087 115.219C323.08 114.719 323.509 114.32 324.025 114.328C324.541 114.32 324.97 114.719 324.978 115.219C324.97 115.711 324.541 116.109 324.025 116.109C323.509 116.109 323.08 115.711 323.087 115.219ZM331.396 119.719C331.209 119.016 330.67 118.555 329.677 118.547C328.631 118.555 327.888 119.117 327.881 119.828C327.888 120.391 328.342 120.773 329.334 121.016L330.599 121.328C332.115 121.688 332.857 122.445 332.865 123.625C332.857 125.094 331.662 126.18 329.537 126.172C327.631 126.18 326.498 125.328 326.271 123.781H327.677C327.834 124.609 328.435 125.008 329.506 125C330.717 125.008 331.474 124.5 331.474 123.703C331.474 123.102 331.045 122.711 330.084 122.484L328.802 122.188C327.326 121.844 326.537 121.039 326.537 119.906C326.537 118.453 327.81 117.406 329.677 117.406C331.435 117.406 332.537 118.344 332.709 119.719H331.396ZM334.049 123.594C334.049 121.648 335.768 121.203 337.236 121.094C337.783 121.055 339.15 120.977 339.533 120.969V120.281C339.533 119.203 338.893 118.578 337.611 118.578C336.541 118.578 335.893 119.07 335.705 119.719H334.299C334.471 118.352 335.799 117.406 337.674 117.406C338.783 117.406 340.869 117.734 340.861 120.406V126H339.533V124.844H339.471C339.189 125.414 338.416 126.195 336.939 126.203C335.33 126.195 334.049 125.25 334.049 123.594ZM335.393 123.656C335.4 124.555 336.143 125.008 337.174 125C338.689 125.008 339.533 123.992 339.533 122.922V122.07C339.135 122.094 337.799 122.195 337.393 122.219C336.174 122.297 335.4 122.727 335.393 123.656ZM343.029 126V114.688H344.373V118.859H344.482C344.772 118.406 345.279 117.406 346.936 117.406C349.061 117.406 350.553 119.094 350.561 121.781C350.553 124.477 349.061 126.18 346.951 126.172C345.326 126.18 344.772 125.172 344.482 124.703H344.326V126H343.029ZM344.342 121.75C344.342 123.656 345.201 124.969 346.748 124.969C348.365 124.969 349.193 123.555 349.201 121.75C349.193 119.977 348.389 118.609 346.748 118.609C345.186 118.609 344.342 119.867 344.342 121.75ZM353.494 114.688V126H352.151V114.688H353.494ZM359.037 126.172C356.584 126.18 355.069 124.43 355.069 121.828C355.069 119.219 356.608 117.406 358.912 117.406C360.694 117.406 362.577 118.5 362.569 121.641V122.203H356.412C356.483 124 357.53 124.984 359.037 124.984C360.053 124.984 360.694 124.539 361.006 124.016H362.444C362.045 125.305 360.787 126.18 359.037 126.172ZM356.42 121.062H361.209C361.202 119.648 360.311 118.594 358.912 118.594C357.444 118.594 356.514 119.75 356.42 121.062ZM367.362 126.172C365.245 126.18 363.753 124.477 363.753 121.781C363.753 119.094 365.245 117.406 367.378 117.406C369.026 117.406 369.542 118.406 369.831 118.859H369.924V114.688H371.284V126H369.971V124.703H369.831C369.534 125.172 368.979 126.18 367.362 126.172ZM365.112 121.75C365.112 123.555 365.94 124.969 367.549 124.969C369.104 124.969 369.963 123.656 369.971 121.75C369.963 119.867 369.128 118.609 367.549 118.609C365.917 118.609 365.112 119.977 365.112 121.75Z" fill="white"/>
</svg>
