<svg width="360" height="680" viewBox="0 0 360 680" fill="none" xmlns="http://www.w3.org/2000/svg">
<rect x="0.5" y="0.5" width="359" height="679" rx="4.5" stroke="#9747FF" stroke-dasharray="10 5"/>
<rect x="20.5" y="588.5" width="319" height="49" rx="7.5" fill="white"/>
<rect x="20.5" y="588.5" width="319" height="49" rx="7.5" stroke="#DC3A3A"/>
<path d="M37.25 619V607.688H41.0938C43.7422 607.688 44.9531 609.266 44.9531 611.281C44.9531 613.289 43.7422 614.891 41.1094 614.891H38.6562V619H37.25ZM38.6562 613.641H41.0469C42.8516 613.641 43.5547 612.625 43.5625 611.281C43.5547 609.93 42.8516 608.938 41.0312 608.938H38.6562V613.641ZM47.9338 607.688V619H46.59V607.688H47.9338ZM49.5081 616.594C49.5081 614.648 51.2269 614.203 52.6956 614.094C53.2425 614.055 54.6097 613.977 54.9925 613.969V613.281C54.9925 612.203 54.3519 611.578 53.0706 611.578C52.0003 611.578 51.3519 612.07 51.1644 612.719H49.7581C49.93 611.352 51.2581 610.406 53.1331 610.406C54.2425 610.406 56.3284 610.734 56.3206 613.406V619H54.9925V617.844H54.93C54.6488 618.414 53.8753 619.195 52.3988 619.203C50.7894 619.195 49.5081 618.25 49.5081 616.594ZM50.8519 616.656C50.8597 617.555 51.6019 618.008 52.6331 618C54.1488 618.008 54.9925 616.992 54.9925 615.922V615.07C54.5941 615.094 53.2581 615.195 52.8519 615.219C51.6331 615.297 50.8597 615.727 50.8519 616.656ZM61.7856 619.172C59.3794 619.18 57.9106 617.344 57.9106 614.797C57.9106 612.219 59.4497 610.406 61.7544 610.406C63.5591 610.406 64.9184 611.477 65.1294 613.078H63.7856C63.5903 612.305 62.9184 611.594 61.7856 611.594C60.27 611.594 59.2622 612.844 59.2544 614.75C59.2622 616.711 60.2466 617.969 61.7856 617.969C62.7856 617.969 63.5513 617.43 63.7856 616.5H65.1294C64.9184 618.016 63.6684 619.18 61.7856 619.172ZM70.1881 619.172C67.735 619.18 66.2194 617.43 66.2194 614.828C66.2194 612.219 67.7584 610.406 70.0631 610.406C71.8444 610.406 73.7272 611.5 73.7194 614.641V615.203H67.5631C67.6334 617 68.6803 617.984 70.1881 617.984C71.2038 617.984 71.8444 617.539 72.1569 617.016H73.5944C73.1959 618.305 71.9381 619.18 70.1881 619.172ZM67.5709 614.062H72.36C72.3522 612.648 71.4616 611.594 70.0631 611.594C68.5944 611.594 67.6647 612.75 67.5709 614.062ZM76.6531 613.906V619H75.3094V607.688H76.6531V611.844H76.7625C77.1609 610.969 77.9188 610.406 79.2625 610.406C80.9969 610.406 82.1531 611.43 82.1531 613.609V619H80.8094V613.703C80.8094 612.367 80.075 611.609 78.8563 611.609C77.5906 611.609 76.6531 612.438 76.6531 613.906ZM87.6181 619.172C85.3056 619.18 83.7431 617.43 83.7431 614.797C83.7431 612.148 85.3056 610.406 87.6181 610.406C89.9228 610.406 91.4697 612.148 91.4619 614.797C91.4697 617.43 89.9228 619.18 87.6181 619.172ZM85.0869 614.797C85.0947 616.492 85.8916 617.984 87.6181 617.984C89.3291 617.984 90.1181 616.492 90.1181 614.797C90.1181 613.109 89.3291 611.594 87.6181 611.594C85.8916 611.594 85.0947 613.109 85.0869 614.797ZM94.4113 607.688V619H93.0675V607.688H94.4113ZM99.595 619.172C97.4778 619.18 95.9856 617.477 95.9856 614.781C95.9856 612.094 97.4778 610.406 99.6106 610.406C101.259 610.406 101.775 611.406 102.064 611.859H102.158V607.688H103.517V619H102.204V617.703H102.064C101.767 618.172 101.212 619.18 99.595 619.172ZM97.345 614.75C97.345 616.555 98.1731 617.969 99.7825 617.969C101.337 617.969 102.197 616.656 102.204 614.75C102.197 612.867 101.361 611.609 99.7825 611.609C98.1497 611.609 97.345 612.977 97.345 614.75ZM109.247 619.172C106.794 619.18 105.279 617.43 105.279 614.828C105.279 612.219 106.818 610.406 109.122 610.406C110.904 610.406 112.787 611.5 112.779 614.641V615.203H106.622C106.693 617 107.74 617.984 109.247 617.984C110.263 617.984 110.904 617.539 111.216 617.016H112.654C112.255 618.305 110.997 619.18 109.247 619.172ZM106.63 614.062H111.419C111.412 612.648 110.521 611.594 109.122 611.594C107.654 611.594 106.724 612.75 106.63 614.062ZM114.369 619V610.516H115.666V611.812H115.759C116.064 610.953 116.947 610.383 117.947 610.375C118.15 610.383 118.494 610.391 118.65 610.406V611.766C118.548 611.742 118.189 611.672 117.838 611.672C116.619 611.672 115.713 612.516 115.713 613.656V619H114.369Z" fill="#181818"/>
<path d="M20.9375 655V646.516H26.082V647.453H21.9922V650.289H25.8125V651.215H21.9922V654.062H26.1406V655H20.9375ZM27.5572 655V648.637H28.5298V649.609H28.6002C28.8287 648.965 29.4908 648.537 30.2408 648.531C30.3931 648.537 30.6509 648.543 30.7681 648.555V649.574C30.692 649.557 30.4224 649.504 30.1588 649.504C29.2447 649.504 28.565 650.137 28.565 650.992V655H27.5572ZM31.6925 655V648.637H32.6652V649.609H32.7355C32.964 648.965 33.6261 648.537 34.3761 648.531C34.5284 648.537 34.7863 648.543 34.9034 648.555V649.574C34.8273 649.557 34.5577 649.504 34.2941 649.504C33.38 649.504 32.7003 650.137 32.7003 650.992V655H31.6925ZM38.2184 655.129C36.4841 655.135 35.3122 653.822 35.3122 651.848C35.3122 649.861 36.4841 648.555 38.2184 648.555C39.947 648.555 41.1071 649.861 41.1012 651.848C41.1071 653.822 39.947 655.135 38.2184 655.129ZM36.32 651.848C36.3259 653.119 36.9235 654.238 38.2184 654.238C39.5016 654.238 40.0934 653.119 40.0934 651.848C40.0934 650.582 39.5016 649.445 38.2184 649.445C36.9235 649.445 36.3259 650.582 36.32 651.848ZM42.3655 655V648.637H43.3381V649.609H43.4084C43.637 648.965 44.2991 648.537 45.0491 648.531C45.2014 648.537 45.4592 648.543 45.5764 648.555V649.574C45.5002 649.557 45.2307 649.504 44.967 649.504C44.053 649.504 43.3733 650.137 43.3733 650.992V655H42.3655ZM49.5814 646.516H50.847L53.7064 653.5H53.8119L56.6712 646.516H57.9369V655H56.9408V648.59H56.8587L54.222 655H53.2845L50.6478 648.59H50.5775V655H49.5814V646.516ZM59.3183 653.195C59.3183 651.736 60.6073 651.402 61.7089 651.32C62.1191 651.291 63.1445 651.232 63.4316 651.227V650.711C63.4316 649.902 62.9511 649.434 61.9902 649.434C61.1874 649.434 60.7011 649.803 60.5605 650.289H59.5058C59.6347 649.264 60.6308 648.555 62.037 648.555C62.8691 648.555 64.4335 648.801 64.4277 650.805V655H63.4316V654.133H63.3847C63.1738 654.561 62.5937 655.146 61.4863 655.152C60.2792 655.146 59.3183 654.438 59.3183 653.195ZM60.3261 653.242C60.332 653.916 60.8886 654.256 61.662 654.25C62.7988 654.256 63.4316 653.494 63.4316 652.691V652.053C63.1327 652.07 62.1308 652.146 61.8261 652.164C60.912 652.223 60.332 652.545 60.3261 653.242ZM69.5239 650.289C69.3833 649.762 68.979 649.416 68.2348 649.41C67.4497 649.416 66.893 649.838 66.8872 650.371C66.893 650.793 67.2329 651.08 67.977 651.262L68.9263 651.496C70.063 651.766 70.6196 652.334 70.6255 653.219C70.6196 654.32 69.7231 655.135 68.1294 655.129C66.6997 655.135 65.8501 654.496 65.6802 653.336H66.7348C66.852 653.957 67.3032 654.256 68.1059 654.25C69.0141 654.256 69.5825 653.875 69.5825 653.277C69.5825 652.826 69.2602 652.533 68.5395 652.363L67.5786 652.141C66.4712 651.883 65.8794 651.279 65.8794 650.43C65.8794 649.34 66.8345 648.555 68.2348 648.555C69.5532 648.555 70.3794 649.258 70.5083 650.289H69.5239ZM75.417 650.289C75.2764 649.762 74.8721 649.416 74.128 649.41C73.3428 649.416 72.7862 649.838 72.7803 650.371C72.7862 650.793 73.126 651.08 73.8702 651.262L74.8194 651.496C75.9561 651.766 76.5127 652.334 76.5186 653.219C76.5127 654.32 75.6162 655.135 74.0225 655.129C72.5928 655.135 71.7432 654.496 71.5733 653.336H72.628C72.7452 653.957 73.1963 654.256 73.9991 654.25C74.9073 654.256 75.4756 653.875 75.4756 653.277C75.4756 652.826 75.1534 652.533 74.4327 652.363L73.4717 652.141C72.3643 651.883 71.7725 651.279 71.7725 650.43C71.7725 649.34 72.7276 648.555 74.128 648.555C75.4463 648.555 76.2725 649.258 76.4014 650.289H75.417ZM77.4664 653.195C77.4664 651.736 78.7555 651.402 79.857 651.32C80.2672 651.291 81.2926 651.232 81.5797 651.227V650.711C81.5797 649.902 81.0992 649.434 80.1383 649.434C79.3355 649.434 78.8492 649.803 78.7086 650.289H77.6539C77.7828 649.264 78.7789 648.555 80.1852 648.555C81.0172 648.555 82.5816 648.801 82.5758 650.805V655H81.5797V654.133H81.5328C81.3219 654.561 80.7418 655.146 79.6344 655.152C78.4273 655.146 77.4664 654.438 77.4664 653.195ZM78.4742 653.242C78.4801 653.916 79.0367 654.256 79.8102 654.25C80.9469 654.256 81.5797 653.494 81.5797 652.691V652.053C81.2809 652.07 80.2789 652.146 79.9742 652.164C79.0602 652.223 78.4801 652.545 78.4742 653.242ZM86.7111 657.52C85.1701 657.52 84.1271 656.846 84.0158 655.668H85.0705C85.2052 656.318 85.8088 656.641 86.7111 656.641C87.8009 656.641 88.4689 656.166 88.4689 655.117V653.828H88.3869C88.1701 654.18 87.7658 654.9 86.5353 654.906C84.9884 654.9 83.8283 653.734 83.8283 651.73C83.8283 649.773 84.9474 648.555 86.547 648.555C87.7834 648.555 88.1818 649.305 88.4103 649.645H88.4923V648.637H89.4767V655.176C89.4709 656.816 88.2638 657.52 86.7111 657.52ZM84.8478 651.766C84.8478 653.084 85.4689 654.004 86.6759 654.004C87.842 654.004 88.4865 653.166 88.4923 651.766C88.4865 650.4 87.8595 649.457 86.6759 649.457C85.4513 649.457 84.8478 650.482 84.8478 651.766ZM93.6941 655.129C91.8542 655.135 90.7175 653.822 90.7175 651.871C90.7175 649.914 91.8718 648.555 93.6003 648.555C94.9362 648.555 96.3484 649.375 96.3425 651.73V652.152H91.7253C91.778 653.5 92.5632 654.238 93.6941 654.238C94.4558 654.238 94.9362 653.904 95.1706 653.512H96.2487C95.9499 654.479 95.0066 655.135 93.6941 655.129ZM91.7312 651.297H95.323C95.3171 650.236 94.6491 649.445 93.6003 649.445C92.4987 649.445 91.8015 650.312 91.7312 651.297Z" fill="#DC3A3A"/>
<rect x="20.5" y="468.5" width="319" height="49" rx="7.5" fill="#F6F6F6"/>
<rect x="20.5" y="468.5" width="319" height="49" rx="7.5" stroke="#CCCCCC"/>
<path d="M37.25 499V487.688H41.0938C43.7422 487.688 44.9531 489.266 44.9531 491.281C44.9531 493.289 43.7422 494.891 41.1094 494.891H38.6562V499H37.25ZM38.6562 493.641H41.0469C42.8516 493.641 43.5547 492.625 43.5625 491.281C43.5547 489.93 42.8516 488.938 41.0312 488.938H38.6562V493.641ZM47.9338 487.688V499H46.59V487.688H47.9338ZM49.5081 496.594C49.5081 494.648 51.2269 494.203 52.6956 494.094C53.2425 494.055 54.6097 493.977 54.9925 493.969V493.281C54.9925 492.203 54.3519 491.578 53.0706 491.578C52.0003 491.578 51.3519 492.07 51.1644 492.719H49.7581C49.93 491.352 51.2581 490.406 53.1331 490.406C54.2425 490.406 56.3284 490.734 56.3206 493.406V499H54.9925V497.844H54.93C54.6488 498.414 53.8753 499.195 52.3988 499.203C50.7894 499.195 49.5081 498.25 49.5081 496.594ZM50.8519 496.656C50.8597 497.555 51.6019 498.008 52.6331 498C54.1488 498.008 54.9925 496.992 54.9925 495.922V495.07C54.5941 495.094 53.2581 495.195 52.8519 495.219C51.6331 495.297 50.8597 495.727 50.8519 496.656ZM61.7856 499.172C59.3794 499.18 57.9106 497.344 57.9106 494.797C57.9106 492.219 59.4497 490.406 61.7544 490.406C63.5591 490.406 64.9184 491.477 65.1294 493.078H63.7856C63.5903 492.305 62.9184 491.594 61.7856 491.594C60.27 491.594 59.2622 492.844 59.2544 494.75C59.2622 496.711 60.2466 497.969 61.7856 497.969C62.7856 497.969 63.5513 497.43 63.7856 496.5H65.1294C64.9184 498.016 63.6684 499.18 61.7856 499.172ZM70.1881 499.172C67.735 499.18 66.2194 497.43 66.2194 494.828C66.2194 492.219 67.7584 490.406 70.0631 490.406C71.8444 490.406 73.7272 491.5 73.7194 494.641V495.203H67.5631C67.6334 497 68.6803 497.984 70.1881 497.984C71.2038 497.984 71.8444 497.539 72.1569 497.016H73.5944C73.1959 498.305 71.9381 499.18 70.1881 499.172ZM67.5709 494.062H72.36C72.3522 492.648 71.4616 491.594 70.0631 491.594C68.5944 491.594 67.6647 492.75 67.5709 494.062ZM76.6531 493.906V499H75.3094V487.688H76.6531V491.844H76.7625C77.1609 490.969 77.9188 490.406 79.2625 490.406C80.9969 490.406 82.1531 491.43 82.1531 493.609V499H80.8094V493.703C80.8094 492.367 80.075 491.609 78.8563 491.609C77.5906 491.609 76.6531 492.438 76.6531 493.906ZM87.6181 499.172C85.3056 499.18 83.7431 497.43 83.7431 494.797C83.7431 492.148 85.3056 490.406 87.6181 490.406C89.9228 490.406 91.4697 492.148 91.4619 494.797C91.4697 497.43 89.9228 499.18 87.6181 499.172ZM85.0869 494.797C85.0947 496.492 85.8916 497.984 87.6181 497.984C89.3291 497.984 90.1181 496.492 90.1181 494.797C90.1181 493.109 89.3291 491.594 87.6181 491.594C85.8916 491.594 85.0947 493.109 85.0869 494.797ZM94.4113 487.688V499H93.0675V487.688H94.4113ZM99.595 499.172C97.4778 499.18 95.9856 497.477 95.9856 494.781C95.9856 492.094 97.4778 490.406 99.6106 490.406C101.259 490.406 101.775 491.406 102.064 491.859H102.158V487.688H103.517V499H102.204V497.703H102.064C101.767 498.172 101.212 499.18 99.595 499.172ZM97.345 494.75C97.345 496.555 98.1731 497.969 99.7825 497.969C101.337 497.969 102.197 496.656 102.204 494.75C102.197 492.867 101.361 491.609 99.7825 491.609C98.1497 491.609 97.345 492.977 97.345 494.75ZM109.247 499.172C106.794 499.18 105.279 497.43 105.279 494.828C105.279 492.219 106.818 490.406 109.122 490.406C110.904 490.406 112.787 491.5 112.779 494.641V495.203H106.622C106.693 497 107.74 497.984 109.247 497.984C110.263 497.984 110.904 497.539 111.216 497.016H112.654C112.255 498.305 110.997 499.18 109.247 499.172ZM106.63 494.062H111.419C111.412 492.648 110.521 491.594 109.122 491.594C107.654 491.594 106.724 492.75 106.63 494.062ZM114.369 499V490.516H115.666V491.812H115.759C116.064 490.953 116.947 490.383 117.947 490.375C118.15 490.383 118.494 490.391 118.65 490.406V491.766C118.548 491.742 118.189 491.672 117.838 491.672C116.619 491.672 115.713 492.516 115.713 493.656V499H114.369Z" fill="#999999"/>
<rect x="21" y="248" width="318" height="48" rx="7" fill="white"/>
<rect x="21" y="248" width="318" height="48" rx="7" stroke="#3A3A3A" stroke-width="2"/>
<path d="M37.25 278V266.688H41.0938C43.7422 266.688 44.9531 268.266 44.9531 270.281C44.9531 272.289 43.7422 273.891 41.1094 273.891H38.6562V278H37.25ZM38.6562 272.641H41.0469C42.8516 272.641 43.5547 271.625 43.5625 270.281C43.5547 268.93 42.8516 267.938 41.0312 267.938H38.6562V272.641ZM47.9338 266.688V278H46.59V266.688H47.9338ZM49.5081 275.594C49.5081 273.648 51.2269 273.203 52.6956 273.094C53.2425 273.055 54.6097 272.977 54.9925 272.969V272.281C54.9925 271.203 54.3519 270.578 53.0706 270.578C52.0003 270.578 51.3519 271.07 51.1644 271.719H49.7581C49.93 270.352 51.2581 269.406 53.1331 269.406C54.2425 269.406 56.3284 269.734 56.3206 272.406V278H54.9925V276.844H54.93C54.6488 277.414 53.8753 278.195 52.3988 278.203C50.7894 278.195 49.5081 277.25 49.5081 275.594ZM50.8519 275.656C50.8597 276.555 51.6019 277.008 52.6331 277C54.1488 277.008 54.9925 275.992 54.9925 274.922V274.07C54.5941 274.094 53.2581 274.195 52.8519 274.219C51.6331 274.297 50.8597 274.727 50.8519 275.656ZM61.7856 278.172C59.3794 278.18 57.9106 276.344 57.9106 273.797C57.9106 271.219 59.4497 269.406 61.7544 269.406C63.5591 269.406 64.9184 270.477 65.1294 272.078H63.7856C63.5903 271.305 62.9184 270.594 61.7856 270.594C60.27 270.594 59.2622 271.844 59.2544 273.75C59.2622 275.711 60.2466 276.969 61.7856 276.969C62.7856 276.969 63.5513 276.43 63.7856 275.5H65.1294C64.9184 277.016 63.6684 278.18 61.7856 278.172ZM70.1881 278.172C67.735 278.18 66.2194 276.43 66.2194 273.828C66.2194 271.219 67.7584 269.406 70.0631 269.406C71.8444 269.406 73.7272 270.5 73.7194 273.641V274.203H67.5631C67.6334 276 68.6803 276.984 70.1881 276.984C71.2038 276.984 71.8444 276.539 72.1569 276.016H73.5944C73.1959 277.305 71.9381 278.18 70.1881 278.172ZM67.5709 273.062H72.36C72.3522 271.648 71.4616 270.594 70.0631 270.594C68.5944 270.594 67.6647 271.75 67.5709 273.062ZM76.6531 272.906V278H75.3094V266.688H76.6531V270.844H76.7625C77.1609 269.969 77.9188 269.406 79.2625 269.406C80.9969 269.406 82.1531 270.43 82.1531 272.609V278H80.8094V272.703C80.8094 271.367 80.075 270.609 78.8563 270.609C77.5906 270.609 76.6531 271.438 76.6531 272.906ZM87.6181 278.172C85.3056 278.18 83.7431 276.43 83.7431 273.797C83.7431 271.148 85.3056 269.406 87.6181 269.406C89.9228 269.406 91.4697 271.148 91.4619 273.797C91.4697 276.43 89.9228 278.18 87.6181 278.172ZM85.0869 273.797C85.0947 275.492 85.8916 276.984 87.6181 276.984C89.3291 276.984 90.1181 275.492 90.1181 273.797C90.1181 272.109 89.3291 270.594 87.6181 270.594C85.8916 270.594 85.0947 272.109 85.0869 273.797ZM94.4113 266.688V278H93.0675V266.688H94.4113ZM99.595 278.172C97.4778 278.18 95.9856 276.477 95.9856 273.781C95.9856 271.094 97.4778 269.406 99.6106 269.406C101.259 269.406 101.775 270.406 102.064 270.859H102.158V266.688H103.517V278H102.204V276.703H102.064C101.767 277.172 101.212 278.18 99.595 278.172ZM97.345 273.75C97.345 275.555 98.1731 276.969 99.7825 276.969C101.337 276.969 102.197 275.656 102.204 273.75C102.197 271.867 101.361 270.609 99.7825 270.609C98.1497 270.609 97.345 271.977 97.345 273.75ZM109.247 278.172C106.794 278.18 105.279 276.43 105.279 273.828C105.279 271.219 106.818 269.406 109.122 269.406C110.904 269.406 112.787 270.5 112.779 273.641V274.203H106.622C106.693 276 107.74 276.984 109.247 276.984C110.263 276.984 110.904 276.539 111.216 276.016H112.654C112.255 277.305 110.997 278.18 109.247 278.172ZM106.63 273.062H111.419C111.412 271.648 110.521 270.594 109.122 270.594C107.654 270.594 106.724 271.75 106.63 273.062ZM114.369 278V269.516H115.666V270.812H115.759C116.064 269.953 116.947 269.383 117.947 269.375C118.15 269.383 118.494 269.391 118.65 269.406V270.766C118.548 270.742 118.189 270.672 117.838 270.672C116.619 270.672 115.713 271.516 115.713 272.656V278H114.369Z" fill="#181818"/>
<rect x="21" y="127" width="318" height="48" rx="7" fill="white"/>
<rect x="21" y="127" width="318" height="48" rx="7" stroke="#555555" stroke-width="2"/>
<path d="M37.25 157V145.688H41.0938C43.7422 145.688 44.9531 147.266 44.9531 149.281C44.9531 151.289 43.7422 152.891 41.1094 152.891H38.6562V157H37.25ZM38.6562 151.641H41.0469C42.8516 151.641 43.5547 150.625 43.5625 149.281C43.5547 147.93 42.8516 146.938 41.0312 146.938H38.6562V151.641ZM47.9338 145.688V157H46.59V145.688H47.9338ZM49.5081 154.594C49.5081 152.648 51.2269 152.203 52.6956 152.094C53.2425 152.055 54.6097 151.977 54.9925 151.969V151.281C54.9925 150.203 54.3519 149.578 53.0706 149.578C52.0003 149.578 51.3519 150.07 51.1644 150.719H49.7581C49.93 149.352 51.2581 148.406 53.1331 148.406C54.2425 148.406 56.3284 148.734 56.3206 151.406V157H54.9925V155.844H54.93C54.6488 156.414 53.8753 157.195 52.3988 157.203C50.7894 157.195 49.5081 156.25 49.5081 154.594ZM50.8519 154.656C50.8597 155.555 51.6019 156.008 52.6331 156C54.1488 156.008 54.9925 154.992 54.9925 153.922V153.07C54.5941 153.094 53.2581 153.195 52.8519 153.219C51.6331 153.297 50.8597 153.727 50.8519 154.656ZM61.7856 157.172C59.3794 157.18 57.9106 155.344 57.9106 152.797C57.9106 150.219 59.4497 148.406 61.7544 148.406C63.5591 148.406 64.9184 149.477 65.1294 151.078H63.7856C63.5903 150.305 62.9184 149.594 61.7856 149.594C60.27 149.594 59.2622 150.844 59.2544 152.75C59.2622 154.711 60.2466 155.969 61.7856 155.969C62.7856 155.969 63.5513 155.43 63.7856 154.5H65.1294C64.9184 156.016 63.6684 157.18 61.7856 157.172ZM70.1881 157.172C67.735 157.18 66.2194 155.43 66.2194 152.828C66.2194 150.219 67.7584 148.406 70.0631 148.406C71.8444 148.406 73.7272 149.5 73.7194 152.641V153.203H67.5631C67.6334 155 68.6803 155.984 70.1881 155.984C71.2038 155.984 71.8444 155.539 72.1569 155.016H73.5944C73.1959 156.305 71.9381 157.18 70.1881 157.172ZM67.5709 152.062H72.36C72.3522 150.648 71.4616 149.594 70.0631 149.594C68.5944 149.594 67.6647 150.75 67.5709 152.062ZM76.6531 151.906V157H75.3094V145.688H76.6531V149.844H76.7625C77.1609 148.969 77.9188 148.406 79.2625 148.406C80.9969 148.406 82.1531 149.43 82.1531 151.609V157H80.8094V151.703C80.8094 150.367 80.075 149.609 78.8563 149.609C77.5906 149.609 76.6531 150.438 76.6531 151.906ZM87.6181 157.172C85.3056 157.18 83.7431 155.43 83.7431 152.797C83.7431 150.148 85.3056 148.406 87.6181 148.406C89.9228 148.406 91.4697 150.148 91.4619 152.797C91.4697 155.43 89.9228 157.18 87.6181 157.172ZM85.0869 152.797C85.0947 154.492 85.8916 155.984 87.6181 155.984C89.3291 155.984 90.1181 154.492 90.1181 152.797C90.1181 151.109 89.3291 149.594 87.6181 149.594C85.8916 149.594 85.0947 151.109 85.0869 152.797ZM94.4113 145.688V157H93.0675V145.688H94.4113ZM99.595 157.172C97.4778 157.18 95.9856 155.477 95.9856 152.781C95.9856 150.094 97.4778 148.406 99.6106 148.406C101.259 148.406 101.775 149.406 102.064 149.859H102.158V145.688H103.517V157H102.204V155.703H102.064C101.767 156.172 101.212 157.18 99.595 157.172ZM97.345 152.75C97.345 154.555 98.1731 155.969 99.7825 155.969C101.337 155.969 102.197 154.656 102.204 152.75C102.197 150.867 101.361 149.609 99.7825 149.609C98.1497 149.609 97.345 150.977 97.345 152.75ZM109.247 157.172C106.794 157.18 105.279 155.43 105.279 152.828C105.279 150.219 106.818 148.406 109.122 148.406C110.904 148.406 112.787 149.5 112.779 152.641V153.203H106.622C106.693 155 107.74 155.984 109.247 155.984C110.263 155.984 110.904 155.539 111.216 155.016H112.654C112.255 156.305 110.997 157.18 109.247 157.172ZM106.63 152.062H111.419C111.412 150.648 110.521 149.594 109.122 149.594C107.654 149.594 106.724 150.75 106.63 152.062ZM114.369 157V148.516H115.666V149.812H115.759C116.064 148.953 116.947 148.383 117.947 148.375C118.15 148.383 118.494 148.391 118.65 148.406V149.766C118.548 149.742 118.189 149.672 117.838 149.672C116.619 149.672 115.713 150.516 115.713 151.656V157H114.369Z" fill="#181818"/>
<rect x="122" y="142" width="1" height="18" fill="#181818"/>
<rect x="20.5" y="20.5" width="319" height="49" rx="7.5" fill="white"/>
<rect x="20.5" y="20.5" width="319" height="49" rx="7.5" stroke="#CCCCCC"/>
<path d="M37.25 51V39.6875H41.0938C43.7422 39.6875 44.9531 41.2656 44.9531 43.2812C44.9531 45.2891 43.7422 46.8906 41.1094 46.8906H38.6562V51H37.25ZM38.6562 45.6406H41.0469C42.8516 45.6406 43.5547 44.625 43.5625 43.2812C43.5547 41.9297 42.8516 40.9375 41.0312 40.9375H38.6562V45.6406ZM47.9338 39.6875V51H46.59V39.6875H47.9338ZM49.5081 48.5938C49.5081 46.6484 51.2269 46.2031 52.6956 46.0938C53.2425 46.0547 54.6097 45.9766 54.9925 45.9688V45.2812C54.9925 44.2031 54.3519 43.5781 53.0706 43.5781C52.0003 43.5781 51.3519 44.0703 51.1644 44.7188H49.7581C49.93 43.3516 51.2581 42.4062 53.1331 42.4062C54.2425 42.4062 56.3284 42.7344 56.3206 45.4062V51H54.9925V49.8438H54.93C54.6488 50.4141 53.8753 51.1953 52.3988 51.2031C50.7894 51.1953 49.5081 50.25 49.5081 48.5938ZM50.8519 48.6562C50.8597 49.5547 51.6019 50.0078 52.6331 50C54.1488 50.0078 54.9925 48.9922 54.9925 47.9219V47.0703C54.5941 47.0938 53.2581 47.1953 52.8519 47.2188C51.6331 47.2969 50.8597 47.7266 50.8519 48.6562ZM61.7856 51.1719C59.3794 51.1797 57.9106 49.3438 57.9106 46.7969C57.9106 44.2188 59.4497 42.4062 61.7544 42.4062C63.5591 42.4062 64.9184 43.4766 65.1294 45.0781H63.7856C63.5903 44.3047 62.9184 43.5938 61.7856 43.5938C60.27 43.5938 59.2622 44.8438 59.2544 46.75C59.2622 48.7109 60.2466 49.9688 61.7856 49.9688C62.7856 49.9688 63.5513 49.4297 63.7856 48.5H65.1294C64.9184 50.0156 63.6684 51.1797 61.7856 51.1719ZM70.1881 51.1719C67.735 51.1797 66.2194 49.4297 66.2194 46.8281C66.2194 44.2188 67.7584 42.4062 70.0631 42.4062C71.8444 42.4062 73.7272 43.5 73.7194 46.6406V47.2031H67.5631C67.6334 49 68.6803 49.9844 70.1881 49.9844C71.2038 49.9844 71.8444 49.5391 72.1569 49.0156H73.5944C73.1959 50.3047 71.9381 51.1797 70.1881 51.1719ZM67.5709 46.0625H72.36C72.3522 44.6484 71.4616 43.5938 70.0631 43.5938C68.5944 43.5938 67.6647 44.75 67.5709 46.0625ZM76.6531 45.9062V51H75.3094V39.6875H76.6531V43.8438H76.7625C77.1609 42.9688 77.9188 42.4062 79.2625 42.4062C80.9969 42.4062 82.1531 43.4297 82.1531 45.6094V51H80.8094V45.7031C80.8094 44.3672 80.075 43.6094 78.8563 43.6094C77.5906 43.6094 76.6531 44.4375 76.6531 45.9062ZM87.6181 51.1719C85.3056 51.1797 83.7431 49.4297 83.7431 46.7969C83.7431 44.1484 85.3056 42.4062 87.6181 42.4062C89.9228 42.4062 91.4697 44.1484 91.4619 46.7969C91.4697 49.4297 89.9228 51.1797 87.6181 51.1719ZM85.0869 46.7969C85.0947 48.4922 85.8916 49.9844 87.6181 49.9844C89.3291 49.9844 90.1181 48.4922 90.1181 46.7969C90.1181 45.1094 89.3291 43.5938 87.6181 43.5938C85.8916 43.5938 85.0947 45.1094 85.0869 46.7969ZM94.4113 39.6875V51H93.0675V39.6875H94.4113ZM99.595 51.1719C97.4778 51.1797 95.9856 49.4766 95.9856 46.7812C95.9856 44.0938 97.4778 42.4062 99.6106 42.4062C101.259 42.4062 101.775 43.4062 102.064 43.8594H102.158V39.6875H103.517V51H102.204V49.7031H102.064C101.767 50.1719 101.212 51.1797 99.595 51.1719ZM97.345 46.75C97.345 48.5547 98.1731 49.9688 99.7825 49.9688C101.337 49.9688 102.197 48.6562 102.204 46.75C102.197 44.8672 101.361 43.6094 99.7825 43.6094C98.1497 43.6094 97.345 44.9766 97.345 46.75ZM109.247 51.1719C106.794 51.1797 105.279 49.4297 105.279 46.8281C105.279 44.2188 106.818 42.4062 109.122 42.4062C110.904 42.4062 112.787 43.5 112.779 46.6406V47.2031H106.622C106.693 49 107.74 49.9844 109.247 49.9844C110.263 49.9844 110.904 49.5391 111.216 49.0156H112.654C112.255 50.3047 110.997 51.1797 109.247 51.1719ZM106.63 46.0625H111.419C111.412 44.6484 110.521 43.5938 109.122 43.5938C107.654 43.5938 106.724 44.75 106.63 46.0625ZM114.369 51V42.5156H115.666V43.8125H115.759C116.064 42.9531 116.947 42.3828 117.947 42.375C118.15 42.3828 118.494 42.3906 118.65 42.4062V43.7656C118.548 43.7422 118.189 43.6719 117.838 43.6719C116.619 43.6719 115.713 44.5156 115.713 45.6562V51H114.369Z" fill="#555555"/>
<rect x="20.5" y="367.5" width="319" height="49" rx="7.5" fill="white"/>
<rect x="20.5" y="367.5" width="319" height="49" rx="7.5" stroke="#555555"/>
<path d="M37.25 398V386.688H41.0938C43.7422 386.688 44.9531 388.266 44.9531 390.281C44.9531 392.289 43.7422 393.891 41.1094 393.891H38.6562V398H37.25ZM38.6562 392.641H41.0469C42.8516 392.641 43.5547 391.625 43.5625 390.281C43.5547 388.93 42.8516 387.938 41.0312 387.938H38.6562V392.641ZM47.9338 386.688V398H46.59V386.688H47.9338ZM49.5081 395.594C49.5081 393.648 51.2269 393.203 52.6956 393.094C53.2425 393.055 54.6097 392.977 54.9925 392.969V392.281C54.9925 391.203 54.3519 390.578 53.0706 390.578C52.0003 390.578 51.3519 391.07 51.1644 391.719H49.7581C49.93 390.352 51.2581 389.406 53.1331 389.406C54.2425 389.406 56.3284 389.734 56.3206 392.406V398H54.9925V396.844H54.93C54.6488 397.414 53.8753 398.195 52.3988 398.203C50.7894 398.195 49.5081 397.25 49.5081 395.594ZM50.8519 395.656C50.8597 396.555 51.6019 397.008 52.6331 397C54.1488 397.008 54.9925 395.992 54.9925 394.922V394.07C54.5941 394.094 53.2581 394.195 52.8519 394.219C51.6331 394.297 50.8597 394.727 50.8519 395.656ZM61.7856 398.172C59.3794 398.18 57.9106 396.344 57.9106 393.797C57.9106 391.219 59.4497 389.406 61.7544 389.406C63.5591 389.406 64.9184 390.477 65.1294 392.078H63.7856C63.5903 391.305 62.9184 390.594 61.7856 390.594C60.27 390.594 59.2622 391.844 59.2544 393.75C59.2622 395.711 60.2466 396.969 61.7856 396.969C62.7856 396.969 63.5513 396.43 63.7856 395.5H65.1294C64.9184 397.016 63.6684 398.18 61.7856 398.172ZM70.1881 398.172C67.735 398.18 66.2194 396.43 66.2194 393.828C66.2194 391.219 67.7584 389.406 70.0631 389.406C71.8444 389.406 73.7272 390.5 73.7194 393.641V394.203H67.5631C67.6334 396 68.6803 396.984 70.1881 396.984C71.2038 396.984 71.8444 396.539 72.1569 396.016H73.5944C73.1959 397.305 71.9381 398.18 70.1881 398.172ZM67.5709 393.062H72.36C72.3522 391.648 71.4616 390.594 70.0631 390.594C68.5944 390.594 67.6647 391.75 67.5709 393.062ZM76.6531 392.906V398H75.3094V386.688H76.6531V390.844H76.7625C77.1609 389.969 77.9188 389.406 79.2625 389.406C80.9969 389.406 82.1531 390.43 82.1531 392.609V398H80.8094V392.703C80.8094 391.367 80.075 390.609 78.8563 390.609C77.5906 390.609 76.6531 391.438 76.6531 392.906ZM87.6181 398.172C85.3056 398.18 83.7431 396.43 83.7431 393.797C83.7431 391.148 85.3056 389.406 87.6181 389.406C89.9228 389.406 91.4697 391.148 91.4619 393.797C91.4697 396.43 89.9228 398.18 87.6181 398.172ZM85.0869 393.797C85.0947 395.492 85.8916 396.984 87.6181 396.984C89.3291 396.984 90.1181 395.492 90.1181 393.797C90.1181 392.109 89.3291 390.594 87.6181 390.594C85.8916 390.594 85.0947 392.109 85.0869 393.797ZM94.4113 386.688V398H93.0675V386.688H94.4113ZM99.595 398.172C97.4778 398.18 95.9856 396.477 95.9856 393.781C95.9856 391.094 97.4778 389.406 99.6106 389.406C101.259 389.406 101.775 390.406 102.064 390.859H102.158V386.688H103.517V398H102.204V396.703H102.064C101.767 397.172 101.212 398.18 99.595 398.172ZM97.345 393.75C97.345 395.555 98.1731 396.969 99.7825 396.969C101.337 396.969 102.197 395.656 102.204 393.75C102.197 391.867 101.361 390.609 99.7825 390.609C98.1497 390.609 97.345 391.977 97.345 393.75ZM109.247 398.172C106.794 398.18 105.279 396.43 105.279 393.828C105.279 391.219 106.818 389.406 109.122 389.406C110.904 389.406 112.787 390.5 112.779 393.641V394.203H106.622C106.693 396 107.74 396.984 109.247 396.984C110.263 396.984 110.904 396.539 111.216 396.016H112.654C112.255 397.305 110.997 398.18 109.247 398.172ZM106.63 393.062H111.419C111.412 391.648 110.521 390.594 109.122 390.594C107.654 390.594 106.724 391.75 106.63 393.062ZM114.369 398V389.516H115.666V390.812H115.759C116.064 389.953 116.947 389.383 117.947 389.375C118.15 389.383 118.494 389.391 118.65 389.406V390.766C118.548 390.742 118.189 390.672 117.838 390.672C116.619 390.672 115.713 391.516 115.713 392.656V398H114.369Z" fill="#555555"/>
</svg>
