<svg width="524" height="64" viewBox="0 0 524 64" fill="none" xmlns="http://www.w3.org/2000/svg">
<rect width="524" height="64" rx="8" fill="black" fill-opacity="0.8"/>
<path fill-rule="evenodd" clip-rule="evenodd" d="M54 32C54 38.6274 48.6274 44 42 44C35.3726 44 30 38.6274 30 32C30 25.3726 35.3726 20 42 20C48.6274 20 54 25.3726 54 32ZM47.9489 29.3011C48.3913 28.8077 48.3499 28.049 47.8564 27.6066C47.363 27.1642 46.6043 27.2055 46.1619 27.699L40.6407 33.8573L37.5477 31.1038C37.0527 30.6631 36.2942 30.7071 35.8535 31.2021C35.4129 31.6972 35.4569 32.4557 35.9519 32.8963L40.8312 37.2401L47.9489 29.3011Z" fill="#2BA600"/>
<path d="M74.6562 26.6875H76.0625V34.1719C76.0625 36.5 74.3203 38.1953 71.6562 38.2031C68.9844 38.1953 67.25 36.5 67.25 34.1719V26.6875H68.6562V34.0625C68.6484 35.7031 69.7891 36.8828 71.6562 36.8906C73.5234 36.8828 74.6484 35.7031 74.6562 34.0625V26.6875ZM78.4025 38V26.6875H82.2463C84.8947 26.6875 86.1056 28.1562 86.1056 30.1719C86.1056 31.6719 85.4338 32.8438 83.9963 33.3438L86.5431 38H84.9025L82.5353 33.6016C82.4494 33.6094 82.3556 33.6094 82.2619 33.6094H79.8088V38H78.4025ZM79.8088 32.3281H82.1994C84.0041 32.3281 84.7072 31.5156 84.715 30.1719C84.7072 28.8203 84.0041 27.9375 82.1838 27.9375H79.8088V32.3281ZM87.9769 38V26.6875H89.3831V36.75H94.6331V38H87.9769ZM107.114 25.375V39.2969H105.879V25.375H107.114ZM96.1763 31.2969C96.1841 28.3438 97.6528 26.4609 99.7231 26.4531C101.786 26.4609 103.278 28.3438 103.27 31.2969C103.278 34.2578 101.786 36.1328 99.7231 36.125C97.6528 36.1328 96.1841 34.2578 96.1763 31.2969ZM97.3638 31.2969C97.3638 33.5547 98.3325 35.0391 99.7231 35.0312C101.122 35.0391 102.083 33.5547 102.083 31.2969C102.083 29.0391 101.122 27.5547 99.7231 27.5469C98.3325 27.5547 97.3638 29.0391 97.3638 31.2969ZM125.841 32.5625V33.5781H113.184V32.5625H118.903V30.8906H114.872V25.7031H116.091V27.3125H122.966V25.7031H124.184V30.8906H120.122V32.5625H125.841ZM114.591 35.9375V34.9531H124.278V39.2656H123.044V35.9375H114.591ZM116.091 29.9062H122.966V28.25H116.091V29.9062ZM131.509 29.1094C131.509 31.5547 133.126 34.0781 135.103 35.0469L134.353 36.0312C132.821 35.2344 131.54 33.5859 130.923 31.6562C130.306 33.7031 128.993 35.4609 127.431 36.2969L126.649 35.3125C128.681 34.3125 130.29 31.6484 130.306 29.1094V26.5781H131.509V29.1094ZM136.384 39.2656V25.375H137.603V31.0156H139.931V32.0781H137.603V39.2656H136.384ZM152.658 31.375V32.3906H149.611V35.125C150.97 35.0703 152.337 34.9766 153.626 34.8281L153.72 35.75C150.642 36.1953 147.283 36.2578 144.626 36.25L144.454 35.2188C145.665 35.2188 147.009 35.2109 148.392 35.1719V32.3906H145.517V26.7031H152.595V27.7031H146.72V31.375H152.658ZM154.548 39.2969V25.375H155.767V39.2969H154.548ZM162.826 34.6875C162.818 35.9375 163.482 37.2422 164.802 38.0078C166.138 37.1719 166.818 35.7578 166.826 34.6875V33.8438H168.029V34.6875C168.021 36.125 169.06 37.5703 170.872 38.1719L170.232 39.0938C168.849 38.5859 167.88 37.6172 167.412 36.4453C166.974 37.5781 166.122 38.6562 164.826 39.2031C163.497 38.6875 162.638 37.6641 162.216 36.4922C161.716 37.6094 160.763 38.5859 159.435 39.0938L158.826 38.1719C160.583 37.5391 161.638 36.0312 161.654 34.6875V33.8438H162.826V34.6875ZM158.279 29.4219C158.279 27.5156 159.794 26.1641 161.872 26.1719C163.701 26.1641 165.13 27.2656 165.404 28.875H168.326V25.375H169.56V33.3125H168.326V29.8906H165.412C165.177 31.5469 163.732 32.6719 161.872 32.6719C159.794 32.6719 158.279 31.3359 158.279 29.4219ZM159.466 29.4219C159.451 30.7109 160.474 31.6484 161.872 31.6562C163.24 31.6484 164.263 30.7109 164.263 29.4219C164.263 28.1328 163.24 27.2031 161.872 27.2188C160.474 27.2031 159.451 28.1328 159.466 29.4219ZM174.541 33.7188V35.3438H181.478V33.7188H182.713V39.0781H173.322V33.7188H174.541ZM171.713 32.7344V31.7188H184.369V32.7344H171.713ZM172.431 29.75C174.908 29.4141 177.416 27.9531 177.416 26.1875V25.5312H178.681V26.1875C178.673 27.8984 181.205 29.4375 183.65 29.75L183.197 30.7344C181.048 30.4141 178.931 29.3203 178.048 27.7656C177.166 29.3281 175.041 30.4141 172.9 30.7344L172.431 29.75ZM174.541 38.0938H181.478V36.3125H174.541V38.0938ZM196.834 25.375V39.2656H195.615V25.375H196.834ZM186.287 35.6875V26.75H187.49V34.625C189.615 34.6094 191.802 34.4453 194.131 33.9531L194.302 35C191.834 35.5156 189.638 35.6875 187.412 35.6875H186.287ZM209.799 25.375V30.875H212.127V31.9062H209.799V39.2969H208.58V25.375H209.799ZM199.658 35.8125V26.7344H206.143V27.75H200.877V34.7812C203.393 34.7734 205.166 34.6641 207.236 34.2812L207.393 35.3438C205.213 35.7344 203.393 35.8125 200.752 35.8125H199.658ZM214.186 38.0938C213.639 38.0859 213.17 37.6328 213.186 37.0781C213.17 36.5312 213.639 36.0781 214.186 36.0781C214.74 36.0781 215.193 36.5312 215.186 37.0781C215.193 37.6328 214.74 38.0859 214.186 38.0938Z" fill="white"/>
<path fill-rule="evenodd" clip-rule="evenodd" d="M480.293 31.7071L474 25.4142L475.414 24L481.707 30.2929L488 24L489.414 25.4142L483.121 31.7071L489.414 38L488 39.4142L481.707 33.1213L475.414 39.4142L474 38L480.293 31.7071Z" fill="#CCCCCC"/>
</svg>
