<svg width="268" height="328" viewBox="0 0 268 328" fill="none" xmlns="http://www.w3.org/2000/svg">
<rect x="0.5" y="204.5" width="226" height="123" rx="4.5" stroke="#9747FF" stroke-dasharray="10 5"/>
<rect x="20.5" y="276.5" width="82" height="31" rx="3.5" fill="white"/>
<rect x="20.5" y="276.5" width="82" height="31" rx="3.5" stroke="#D9D9D9"/>
<path d="M60.2227 286.496V292.133H59.1094V286.496H60.2227ZM51.7266 289.414C51.7324 287.973 52.916 286.971 54.5273 286.977C56.1328 286.971 57.3164 287.973 57.3164 289.414C57.3164 290.85 56.1328 291.852 54.5273 291.84C52.916 291.852 51.7324 290.85 51.7266 289.414ZM52.8164 289.414C52.8105 290.322 53.5312 290.926 54.5273 290.926C55.5117 290.926 56.2266 290.322 56.2266 289.414C56.2266 288.518 55.5117 287.908 54.5273 287.914C53.5312 287.908 52.8105 288.518 52.8164 289.414ZM53.3555 296.867V292.637H54.4453V293.82H59.1211V292.637H60.2227V296.867H53.3555ZM54.4453 295.953H59.1211V294.699H54.4453V295.953ZM66.8906 287.129V290.188H63.4219V291.641C65.25 291.641 66.2461 291.6 67.4297 291.383L67.5352 292.285C66.252 292.502 65.1738 292.537 63.082 292.543H62.3203V289.344H65.7773V288.02H62.3086V287.129H66.8906ZM63.5156 294.395V293.492H70.6406V297.008H69.5273V294.395H63.5156ZM67.5586 291.113V290.223H69.5273V288.922H67.5586V288.031H69.5273V286.508H70.6406V292.965H69.5273V291.113H67.5586Z" fill="#5534DA"/>
<rect x="123.5" y="276.5" width="83" height="27" rx="3.5" fill="white"/>
<rect x="123.5" y="276.5" width="83" height="27" rx="3.5" stroke="#D9D9D9"/>
<path d="M163.723 284.496V290.133H162.609V284.496H163.723ZM155.227 287.414C155.232 285.973 156.416 284.971 158.027 284.977C159.633 284.971 160.816 285.973 160.816 287.414C160.816 288.85 159.633 289.852 158.027 289.84C156.416 289.852 155.232 288.85 155.227 287.414ZM156.316 287.414C156.311 288.322 157.031 288.926 158.027 288.926C159.012 288.926 159.727 288.322 159.727 287.414C159.727 286.518 159.012 285.908 158.027 285.914C157.031 285.908 156.311 286.518 156.316 287.414ZM156.855 294.867V290.637H157.945V291.82H162.621V290.637H163.723V294.867H156.855ZM157.945 293.953H162.621V292.699H157.945V293.953ZM170.391 285.129V288.188H166.922V289.641C168.75 289.641 169.746 289.6 170.93 289.383L171.035 290.285C169.752 290.502 168.674 290.537 166.582 290.543H165.82V287.344H169.277V286.02H165.809V285.129H170.391ZM167.016 292.395V291.492H174.141V295.008H173.027V292.395H167.016ZM171.059 289.113V288.223H173.027V286.922H171.059V286.031H173.027V284.508H174.141V290.965H173.027V289.113H171.059Z" fill="#5534DA"/>
<rect x="20.5" y="224.5" width="83" height="31" rx="3.5" fill="white"/>
<rect x="20.5" y="224.5" width="83" height="31" rx="3.5" stroke="#D9D9D9"/>
<path d="M54.6035 235.867C54.6035 237.46 55.7314 238.957 57.584 239.572L56.9141 240.584C55.5332 240.119 54.5146 239.148 53.9814 237.925C53.4482 239.258 52.4023 240.297 50.9531 240.803L50.2832 239.777C52.2041 239.128 53.3115 237.535 53.3184 235.758V234.541H54.6035V235.867ZM51.8828 242.949V241.896H59.9766V246.162H58.6777V242.949H51.8828ZM58.6777 241.336V233.912H59.9766V237.07H61.7539V238.164H59.9766V241.336H58.6777ZM72.9648 233.912V246.162H71.7207V233.912H72.9648ZM62.2734 242.785C64.0098 241.739 64.8916 239.511 64.8984 237.33V236.346H62.6426V235.293H68.248V236.346H66.1426V237.33C66.1426 239.422 66.9902 241.521 68.7129 242.512L67.9336 243.469C66.7646 242.771 65.9648 241.521 65.5342 240.044C65.0967 241.644 64.2627 243.011 63.0664 243.756L62.2734 242.785ZM67.3457 239.312V238.246H69.2461V234.172H70.4766V245.547H69.2461V239.312H67.3457Z" fill="#5534DA"/>
<rect x="124.5" y="224.5" width="51" height="31" rx="3.5" fill="white"/>
<rect x="124.5" y="224.5" width="51" height="31" rx="3.5" stroke="#D9D9D9"/>
<path d="M143.66 236.172C143.66 237.537 144.627 238.82 146.215 239.348L145.641 240.215C144.457 239.816 143.584 238.984 143.127 237.936C142.67 239.078 141.773 239.969 140.531 240.402L139.957 239.523C141.604 238.967 142.553 237.602 142.559 236.078V235.035H143.66V236.172ZM141.328 242.242V241.34H148.266V244.996H147.152V242.242H141.328ZM147.152 240.859V234.496H148.266V237.203H149.789V238.141H148.266V240.859H147.152ZM159.398 234.496V244.996H158.332V234.496H159.398ZM150.234 242.102C151.723 241.205 152.479 239.295 152.484 237.426V236.582H150.551V235.68H155.355V236.582H153.551V237.426C153.551 239.219 154.277 241.018 155.754 241.867L155.086 242.688C154.084 242.09 153.398 241.018 153.029 239.752C152.654 241.123 151.939 242.295 150.914 242.934L150.234 242.102ZM154.582 239.125V238.211H156.211V234.719H157.266V244.469H156.211V239.125H154.582Z" fill="#5534DA"/>
<rect x="0.5" y="0.5" width="267" height="173" rx="4.5" stroke="#9747FF" stroke-dasharray="10 5"/>
<rect x="20" y="20" width="84" height="32" rx="4" fill="#5534DA"/>
<path d="M56.627 30.9922C56.6201 32.6191 58.6094 34.1436 61.0156 34.4648L60.5098 35.5312C58.5068 35.21 56.75 34.1709 55.9502 32.7285C55.1504 34.1709 53.3936 35.21 51.4043 35.5312L50.8848 34.4648C53.2842 34.1436 55.2666 32.6396 55.2734 30.9922V30.3223H56.627V30.9922ZM50.3516 37.8008V36.7344H61.5215V37.8008H56.5449V42.1621H55.2734V37.8008H50.3516ZM68.5215 30.6367V34.1367H64.2559V35.709C66.3818 35.6953 67.8857 35.627 69.6699 35.3262L69.8066 36.3789C67.9131 36.7002 66.293 36.7822 63.9414 36.7754H62.957V33.125H67.25V31.6895H62.9434V30.6367H68.5215ZM63.9824 39.0312V37.9785H72.0762V42.1484H70.7773V39.0312H63.9824ZM70.7773 37.3633V29.9258H72.0762V32.9883H73.8672V34.0684H72.0762V37.3633H70.7773Z" fill="white"/>
<rect x="114.5" y="20.5" width="83" height="31" rx="3.5" fill="white"/>
<rect x="114.5" y="20.5" width="83" height="31" rx="3.5" stroke="#D9D9D9"/>
<path d="M154.551 29.9121V42.1621H153.266V35.832H150.518V34.7656H153.266V29.9121H154.551ZM144.324 38.8672C147.571 37.2812 149.014 35.0732 149.239 32.2637H144.871V31.2246H150.559C150.545 34.7725 149.164 37.835 145.008 39.8926L144.324 38.8672ZM160.799 31.7578C160.799 33.1455 161.92 34.5332 163.738 35.0801L163.123 36.1055C161.729 35.6748 160.696 34.7725 160.163 33.6445C159.609 34.8887 158.529 35.9209 157.094 36.3926L156.451 35.3672C158.304 34.752 159.5 33.2412 159.5 31.7441V31.5527H156.834V30.5H163.438V31.5527H160.799V31.7578ZM158.639 37.8145V36.7754H166.65V39.8379H159.965V41H167.088V42.0254H158.666V38.8535H165.365V37.8145H158.639ZM163.082 33.6309V32.5781H165.365V29.9121H166.65V36.2148H165.365V33.6309H163.082Z" fill="#5534DA"/>
<rect x="20" y="122" width="109" height="32" rx="4" fill="#5534DA"/>
<path d="M69.8945 133.422C69.8887 134.816 71.5938 136.123 73.6562 136.398L73.2227 137.312C71.5059 137.037 70 136.146 69.3145 134.91C68.6289 136.146 67.123 137.037 65.418 137.312L64.9727 136.398C67.0293 136.123 68.7285 134.834 68.7344 133.422V132.848H69.8945V133.422ZM64.5156 139.258V138.344H74.0898V139.258H69.8242V142.996H68.7344V139.258H64.5156ZM80.0898 133.117V136.117H76.4336V137.465C78.2559 137.453 79.5449 137.395 81.0742 137.137L81.1914 138.039C79.5684 138.314 78.1797 138.385 76.1641 138.379H75.3203V135.25H79V134.02H75.3086V133.117H80.0898ZM76.1992 140.312V139.41H83.1367V142.984H82.0234V140.312H76.1992ZM82.0234 138.883V132.508H83.1367V135.133H84.6719V136.059H83.1367V138.883H82.0234Z" fill="white"/>
<rect x="139.5" y="122.5" width="108" height="31" rx="3.5" fill="white"/>
<rect x="139.5" y="122.5" width="108" height="31" rx="3.5" stroke="#D9D9D9"/>
<path d="M192.258 132.496V142.996H191.156V137.57H188.801V136.656H191.156V132.496H192.258ZM183.492 140.172C186.275 138.812 187.512 136.92 187.705 134.512H183.961V133.621H188.836C188.824 136.662 187.641 139.287 184.078 141.051L183.492 140.172ZM197.613 134.078C197.613 135.268 198.574 136.457 200.133 136.926L199.605 137.805C198.41 137.436 197.525 136.662 197.068 135.695C196.594 136.762 195.668 137.646 194.438 138.051L193.887 137.172C195.475 136.645 196.5 135.35 196.5 134.066V133.902H194.215V133H199.875V133.902H197.613V134.078ZM195.762 139.27V138.379H202.629V141.004H196.898V142H203.004V142.879H195.785V140.16H201.527V139.27H195.762ZM199.57 135.684V134.781H201.527V132.496H202.629V137.898H201.527V135.684H199.57Z" fill="#5534DA"/>
<rect x="20" y="72" width="72" height="30" rx="4" fill="#5534DA"/>
<path d="M50.627 81.9922C50.6201 83.6191 52.6094 85.1436 55.0156 85.4648L54.5098 86.5312C52.5068 86.21 50.75 85.1709 49.9502 83.7285C49.1504 85.1709 47.3936 86.21 45.4043 86.5312L44.8848 85.4648C47.2842 85.1436 49.2666 83.6396 49.2734 81.9922V81.3223H50.627V81.9922ZM44.3516 88.8008V87.7344H55.5215V88.8008H50.5449V93.1621H49.2734V88.8008H44.3516ZM62.5215 81.6367V85.1367H58.2559V86.709C60.3818 86.6953 61.8857 86.627 63.6699 86.3262L63.8066 87.3789C61.9131 87.7002 60.293 87.7822 57.9414 87.7754H56.957V84.125H61.25V82.6895H56.9434V81.6367H62.5215ZM57.9824 90.0312V88.9785H66.0762V93.1484H64.7773V90.0312H57.9824ZM64.7773 88.3633V80.9258H66.0762V83.9883H67.8672V85.0684H66.0762V88.3633H64.7773Z" fill="white"/>
<rect x="102.5" y="72.5" width="71" height="29" rx="3.5" fill="white"/>
<rect x="102.5" y="72.5" width="71" height="29" rx="3.5" stroke="#D9D9D9"/>
<path d="M136.551 80.9121V93.1621H135.266V86.832H132.518V85.7656H135.266V80.9121H136.551ZM126.324 89.8672C129.571 88.2812 131.014 86.0732 131.239 83.2637H126.871V82.2246H132.559C132.545 85.7725 131.164 88.835 127.008 90.8926L126.324 89.8672ZM142.799 82.7578C142.799 84.1455 143.92 85.5332 145.738 86.0801L145.123 87.1055C143.729 86.6748 142.696 85.7725 142.163 84.6445C141.609 85.8887 140.529 86.9209 139.094 87.3926L138.451 86.3672C140.304 85.752 141.5 84.2412 141.5 82.7441V82.5527H138.834V81.5H145.438V82.5527H142.799V82.7578ZM140.639 88.8145V87.7754H148.65V90.8379H141.965V92H149.088V93.0254H140.666V89.8535H147.365V88.8145H140.639ZM145.082 84.6309V83.5781H147.365V80.9121H148.65V87.2148H147.365V84.6309H145.082Z" fill="#5534DA"/>
</svg>
