<svg width="1141" height="179" viewBox="0 0 1141 179" fill="none" xmlns="http://www.w3.org/2000/svg">
<mask id="path-1-inside-1_278_3988" fill="white">
<path d="M0 0H1141V70H0V0Z"/>
</mask>
<path d="M0 0H1141V70H0V0Z" fill="white"/>
<path d="M1141 70V69H0V70V71H1141V70Z" fill="#D9D9D9" mask="url(#path-1-inside-1_278_3988)"/>
<g clip-path="url(#clip0_278_3988)">
<path d="M108.994 22.0323C108.981 22.0057 108.95 21.9881 108.919 21.9969C108.649 22.1118 108.379 22.209 108.1 22.3107C107.333 22.5935 106.536 22.7791 105.738 22.9647C104.825 23.168 103.895 23.3138 102.987 23.5392C102.203 23.7292 101.423 23.959 100.67 24.2595C100.103 24.4805 99.5445 24.7191 99.0217 25.024C98.4014 25.3643 97.9008 25.8725 97.4134 26.3763C96.966 26.8448 96.5141 27.3132 96.1198 27.8302C95.8983 28.1219 95.7122 28.4401 95.535 28.7583C95.8141 27.7065 96.204 26.6459 96.9172 25.8062C96.9704 25.74 96.9084 25.6604 96.8331 25.6958C96.6514 25.7841 96.4831 25.899 96.3103 26.0051C94.99 26.8978 93.8115 28.007 92.797 29.2311C92.3008 29.8365 91.8223 30.4552 91.428 31.1314C90.9717 31.9224 90.6261 32.7753 90.378 33.6547C90.3514 33.1333 90.3957 32.6118 90.4666 32.0948C90.4799 32.0019 90.4932 31.9136 90.4976 31.8208C90.4976 31.7589 90.5153 31.6705 90.4533 31.6352C90.409 31.6131 90.3647 31.6352 90.3337 31.6705C90.2938 31.7103 90.2628 31.7545 90.2274 31.7987C90.1565 31.8915 90.0856 31.9887 90.0191 32.0859C89.7976 32.3997 89.5983 32.7311 89.4255 33.0758C89.0002 33.9464 88.6103 34.8258 88.216 35.7097C87.8172 36.5935 87.4495 37.495 87.0641 38.3833C86.6964 39.2229 86.2932 40.0493 85.8767 40.8668C85.6508 41.3043 85.4204 41.7418 85.1502 42.1573C85.035 42.334 84.9153 42.5064 84.7913 42.6743C84.809 42.6389 84.8267 42.608 84.8445 42.5727C85.2077 41.8612 85.4558 41.1011 85.6818 40.3365C85.8679 39.846 86.054 39.3555 86.2622 38.8782C86.5058 38.3346 86.7229 37.7823 86.9312 37.2254C87.3476 36.1737 87.8527 35.1661 88.4286 34.1894C88.8008 33.5575 89.1995 32.9388 89.5628 32.298C89.904 31.697 90.1742 31.0607 90.4843 30.4464C90.7147 29.9868 90.9495 29.5272 91.1489 29.0543C91.2065 28.9218 91.2641 28.7848 91.3172 28.6478C91.3394 28.5815 91.366 28.5108 91.3793 28.4401C91.3793 28.4136 91.3837 28.3826 91.366 28.3561C91.3261 28.2942 91.2464 28.3163 91.1976 28.3561C91.0558 28.4622 90.9229 28.5727 90.7856 28.6876C90.3426 29.0632 89.8818 29.4167 89.4077 29.7526C90.4223 28.524 91.5033 27.269 91.9907 25.7223C92.0261 25.5897 92.1236 25.2583 92.0261 25.1478C91.9596 25.0903 91.8843 25.1699 91.8445 25.2185C91.4324 25.7311 90.9983 26.2261 90.5153 26.6724C90.7014 26.3807 90.8786 26.0802 91.0381 25.7709C91.304 25.2406 91.5653 24.7059 91.7824 24.1535C92.0394 23.4773 92.2343 22.7835 92.4381 22.0941C92.6464 21.3429 92.8324 20.5828 93.0584 19.8359C93.0805 19.7652 93.1027 19.6945 93.116 19.6194C93.116 19.5973 93.1248 19.5708 93.116 19.5487C93.1027 19.5089 93.054 19.4824 93.0141 19.4956C92.9786 19.5045 92.9432 19.5266 92.9122 19.5531C92.4603 19.9773 92.0571 20.4502 91.6229 20.8877C91.304 21.2147 90.9805 21.5461 90.6748 21.8864C90.059 22.5847 89.5096 23.3448 89.0755 24.1667C88.6812 24.9136 88.3932 25.7223 88.216 26.5487C87.9767 27.6269 87.897 28.7317 87.7464 29.8233C87.5736 29.3504 87.4717 28.8511 87.4495 28.3429C87.4407 28.1749 87.4318 27.9982 87.4229 27.817C87.4229 27.733 87.4229 27.5518 87.2945 27.5916C87.2546 27.6137 87.2324 27.6579 87.2103 27.7021C87.1704 27.7816 87.135 27.8656 87.0995 27.9496C86.9888 28.2059 86.8647 28.4533 86.7495 28.7052C86.4217 29.4123 86.1381 30.1459 85.9919 30.9104C85.8634 31.5379 85.797 32.1787 85.797 32.8151C85.797 33.7078 85.9343 34.5872 85.9299 35.4843C85.6862 35.091 85.4381 34.6932 85.3362 34.2336C85.2831 34.0171 85.2432 33.8006 85.2077 33.584C85.1989 33.5222 85.1856 33.4559 85.1767 33.394C85.1679 33.3498 85.1679 33.2924 85.1324 33.2614C85.0527 33.1995 84.9995 33.3056 84.9818 33.3719C84.8312 33.8492 84.7558 34.353 84.7381 34.8567C84.716 35.365 84.7647 35.8732 84.8134 36.3814C84.8577 36.841 84.9065 37.3006 84.9375 37.7646C84.9153 37.9325 84.9065 38.1004 84.8932 38.2684C84.84 39.0948 84.747 39.9211 84.5875 40.7343C84.4812 41.3883 84.3438 42.0335 84.1134 42.661C83.9805 43.1074 83.8077 43.5405 83.5907 43.9514C83.5552 44.0089 83.5242 44.0708 83.4932 44.1282C83.0634 44.8927 82.6691 45.6749 82.235 46.435C81.9736 46.8814 81.721 47.3365 81.4862 47.8006C81.3134 48.1011 81.154 48.406 81.0166 48.7198C80.897 48.9849 80.7818 49.2545 80.6755 49.524C80.6356 49.6389 80.5204 49.8687 80.5824 49.9836C80.6755 50.0676 80.7508 49.9571 80.8084 49.8378C80.8217 49.8246 80.835 49.8113 80.8438 49.798C80.8793 49.7494 80.9103 49.7008 80.9369 49.6478C81.0077 49.5285 81.0786 49.4136 81.1451 49.2987C81.4375 48.7905 81.721 48.2778 82.009 47.7652C82.4388 46.9698 82.9084 46.1964 83.3824 45.423C83.4622 45.2949 83.5375 45.1667 83.6172 45.0341C83.7147 44.8927 83.8122 44.7557 83.9141 44.6143C84.0957 44.3668 84.2907 44.1282 84.5033 43.9073C84.7647 43.62 85.0926 43.3416 85.3983 43.0985C85.8413 42.7406 86.24 42.334 86.6299 41.923C87.5381 40.9376 88.3932 39.9035 89.2793 38.8959C89.8685 38.1888 90.5021 37.5083 91.1799 36.8896C91.6805 36.4698 92.1989 36.0676 92.7261 35.6831C93.5679 35.0821 94.454 34.5474 95.2913 33.9376C96.2793 33.2172 97.2451 32.466 98.1312 31.6219C98.1577 31.591 98.1888 31.5556 98.171 31.5114C98.1533 31.454 98.0824 31.4628 98.0337 31.4761C97.8343 31.5291 97.6438 31.6086 97.4489 31.6573C97.2495 31.7014 97.0457 31.7412 96.8464 31.7766C96.3014 31.8826 95.7432 31.9268 95.1894 31.9312C95.504 31.8119 95.8229 31.697 96.1419 31.591C96.935 31.3523 97.7369 31.149 98.5122 30.8574C99.89 30.3845 101.095 29.536 102.198 28.6036C102.469 28.3782 102.743 28.1528 102.991 27.9009C103.036 27.8479 103.102 27.7993 103.111 27.7242C103.111 27.6358 103.005 27.6358 102.938 27.6535C102.318 27.786 101.693 27.9142 101.064 27.9805C100.648 28.0203 100.213 28.0512 99.797 27.9761C100.28 27.8302 100.767 27.7021 101.263 27.6004C101.724 27.5076 102.189 27.4192 102.637 27.2823C103.332 27.079 103.957 26.6812 104.489 26.1951C104.808 25.8902 105.105 25.5632 105.397 25.2317C105.707 24.8782 105.986 24.4982 106.314 24.1579C106.744 23.7071 107.213 23.2961 107.714 22.9293C108.086 22.6377 108.485 22.3902 108.897 22.156C108.928 22.1383 108.959 22.1295 108.99 22.1118C109.017 22.0941 109.025 22.0632 109.012 22.0323H108.994ZM84.7824 43.0278C84.7824 43.0278 84.7824 43.0278 84.7736 43.0278H84.778H84.7824ZM85.8413 38.2772C86.1824 37.1636 86.5103 36.0455 86.8647 34.9363C87.197 33.8006 87.5293 32.6648 87.8793 31.5379C88.2691 30.2033 88.5793 28.8466 88.9913 27.5165C89.2837 26.5796 89.6115 25.6516 89.9793 24.7412C90.3115 23.9192 90.6837 23.1105 91.1888 22.3769C90.7767 23.3536 90.3514 24.3214 89.9926 25.3157C89.647 26.1863 89.3546 27.0745 89.1021 27.9761C88.4862 29.9691 88.1141 32.0285 87.5204 34.0259C87.2679 34.9098 86.9843 35.7848 86.6786 36.6554C86.4615 37.2785 86.2046 37.9016 85.9919 38.5247C85.5179 39.9079 85.0793 41.3043 84.5388 42.6655C84.5299 42.6743 84.521 42.6831 84.5122 42.692C84.4945 42.6876 84.4767 42.692 84.4634 42.6964C84.5565 42.4047 84.6451 42.1086 84.7204 41.8126C85.0793 40.6282 85.4736 39.4571 85.8413 38.2772V38.2772ZM99.159 27.4148C98.6451 27.7684 98.1312 28.1219 97.6438 28.5064C96.8331 29.1516 96.0445 29.8189 95.2603 30.495C94.804 30.9016 94.3919 31.3567 93.9622 31.7942C93.5369 32.2362 93.1071 32.6692 92.704 33.1288C92.1679 33.7254 91.6185 34.3132 91.1046 34.9319C90.6527 35.4622 90.2407 36.0278 89.8331 36.5935C89.5318 36.9956 89.2261 37.3978 88.9426 37.8132C88.6058 38.2949 88.2558 38.7633 87.9191 39.245C87.5824 39.7311 87.2502 40.2172 86.9223 40.7078C86.7141 41.0171 86.5058 41.3309 86.2622 41.6181C85.9742 41.9584 85.6774 42.3163 85.3495 42.6301C85.2255 42.7406 85.1058 42.8511 84.9862 42.966C84.9862 42.966 84.9862 42.966 84.9818 42.966C84.9242 42.9527 84.9242 42.8997 84.9375 42.8555C85.1723 42.5948 85.4071 42.3384 85.6375 42.0733C85.9166 41.7507 86.1691 41.406 86.404 41.0525C87.6533 39.2317 88.916 37.4155 90.2584 35.6566C90.759 35.007 91.2774 34.3662 91.8356 33.7652C92.797 32.7488 93.7894 31.7677 94.7818 30.7778C96.0622 29.5051 97.4267 28.3119 98.9109 27.2823C100.094 26.4868 101.352 25.8062 102.65 25.2185C101.436 25.8681 100.302 26.6591 99.159 27.4192V27.4148Z" fill="#5534DA"/>
<path d="M100.249 49.7759C100.214 49.851 100.165 49.9173 100.112 49.9792C99.5537 50.5581 98.7296 50.8586 97.9499 51.0132C97.1613 51.1768 96.3505 51.0265 95.5796 50.8542C96.3461 50.2222 97.2056 49.4842 97.3784 48.4545C97.5467 47.2216 96.3815 46.4217 95.2607 46.3687C91.5126 46.2449 88.1277 48.2733 84.9512 50.0278C83.7461 50.6862 82.4037 51.5303 80.9727 51.1989C80.7733 51.1414 80.5695 51.0132 80.5075 50.8011C80.5119 50.7437 80.4853 50.6774 80.4277 50.6509C79.9847 50.5625 80.2993 51.1856 80.5031 51.2961C82.2619 52.2992 84.7075 50.4388 86.2626 49.6345C87.8663 48.7595 89.5233 47.8756 91.2689 47.3055C92.7176 46.8769 94.4322 46.3996 95.9252 46.8018C96.6872 47.0227 97.2809 47.8182 97.0372 48.6136C96.7315 49.5328 95.9385 50.1824 95.1986 50.7569C94.0334 50.4785 92.8239 50.1736 91.6189 50.346C90.9543 50.4653 90.1879 50.6995 89.8556 51.3358C89.3372 52.3788 90.6353 52.5821 91.3885 52.56C92.8018 52.5158 94.1486 51.9369 95.2651 51.084C96.5322 51.4154 97.786 51.5391 99.022 51.0177C99.5803 50.7614 100.214 50.4785 100.515 49.9084C100.608 49.7361 100.333 49.5947 100.245 49.767L100.249 49.7759ZM91.3486 52.2639C90.941 52.2329 90.2233 52.2904 90.0505 51.8352C90.0239 51.2607 90.6619 50.9249 91.1404 50.779C92.3676 50.4078 93.6613 50.7172 94.8752 51C93.8518 51.7468 92.6246 52.2285 91.3486 52.2639V52.2639Z" fill="#5534DA"/>
</g>
<path d="M114.03 45.0066V32.3716H109V29.4353H122.699V32.3716H117.669V45.0066H114.03Z" fill="#5534DA"/>
<path d="M130.696 45.0066V42.6709L130.471 42.1593V37.9772C130.471 37.2358 130.239 36.6574 129.775 36.2422C129.326 35.8269 128.63 35.6193 127.687 35.6193C127.043 35.6193 126.406 35.7231 125.778 35.9307C125.164 36.1235 124.64 36.3905 124.206 36.7315L122.948 34.3069C123.607 33.8472 124.4 33.4912 125.329 33.2391C126.257 32.987 127.2 32.861 128.158 32.861C130 32.861 131.429 33.291 132.448 34.1512C133.466 35.0113 133.975 36.3534 133.975 38.1775V45.0066H130.696ZM127.013 45.1845C126.07 45.1845 125.261 45.0288 124.587 44.7174C123.914 44.3911 123.397 43.9537 123.038 43.405C122.679 42.8563 122.499 42.2408 122.499 41.5586C122.499 40.8468 122.671 40.224 123.015 39.6901C123.375 39.1562 123.936 38.741 124.7 38.4444C125.463 38.133 126.459 37.9772 127.687 37.9772H130.898V40.0015H128.068C127.245 40.0015 126.676 40.135 126.362 40.4019C126.062 40.6689 125.912 41.0025 125.912 41.4029C125.912 41.8478 126.085 42.2037 126.429 42.4707C126.788 42.7228 127.275 42.8488 127.889 42.8488C128.473 42.8488 128.997 42.7154 129.461 42.4484C129.925 42.1667 130.262 41.7588 130.471 41.225L131.01 42.8266C130.756 43.5977 130.292 44.1835 129.618 44.5839C128.944 44.9843 128.076 45.1845 127.013 45.1845Z" fill="#5534DA"/>
<path d="M140.7 45.1845C139.667 45.1845 138.671 45.0659 137.713 44.8286C136.77 44.5765 136.021 44.2651 135.467 43.8943L136.635 41.4029C137.189 41.744 137.84 42.0258 138.589 42.2482C139.352 42.4558 140.101 42.5597 140.834 42.5597C141.643 42.5597 142.212 42.4633 142.541 42.2705C142.886 42.0777 143.058 41.8107 143.058 41.4697C143.058 41.1879 142.923 40.9803 142.653 40.8468C142.399 40.6985 142.055 40.5873 141.62 40.5131C141.186 40.439 140.707 40.3648 140.183 40.2907C139.674 40.2165 139.158 40.1202 138.634 40.0015C138.11 39.868 137.631 39.6753 137.196 39.4232C136.762 39.171 136.41 38.83 136.141 38.3999C135.886 37.9698 135.759 37.4137 135.759 36.7315C135.759 35.9752 135.976 35.3079 136.41 34.7295C136.859 34.1512 137.503 33.6989 138.342 33.3726C139.18 33.0315 140.183 32.861 141.351 32.861C142.174 32.861 143.013 32.9499 143.866 33.1279C144.72 33.3059 145.431 33.5654 146 33.9065L144.832 36.3756C144.248 36.0345 143.657 35.8047 143.058 35.686C142.474 35.5526 141.905 35.4858 141.351 35.4858C140.572 35.4858 140.003 35.5897 139.644 35.7973C139.285 36.0049 139.105 36.2718 139.105 36.5981C139.105 36.8947 139.232 37.1171 139.487 37.2654C139.756 37.4137 140.108 37.5324 140.542 37.6213C140.977 37.7103 141.448 37.7919 141.957 37.866C142.481 37.9253 143.005 38.0217 143.529 38.1552C144.053 38.2887 144.525 38.4815 144.944 38.7336C145.378 38.9708 145.73 39.3045 146 39.7346C146.269 40.1498 146.404 40.6985 146.404 41.3807C146.404 42.1222 146.179 42.7821 145.73 43.3605C145.281 43.924 144.63 44.3689 143.776 44.6951C142.938 45.0214 141.912 45.1845 140.7 45.1845Z" fill="#5534DA"/>
<path d="M150.952 42.5597L151.042 38.3332L156.679 33.0389H160.856L155.443 38.4889L153.624 39.957L150.952 42.5597ZM148.055 45.0066V28.501H151.558V45.0066H148.055ZM157.06 45.0066L152.973 39.9793L155.174 37.2877L161.305 45.0066H157.06Z" fill="#5534DA"/>
<path d="M162.37 45.0066V33.0389H165.873V45.0066H162.37ZM164.122 31.3706C163.478 31.3706 162.954 31.1852 162.55 30.8145C162.145 30.4437 161.943 29.984 161.943 29.4353C161.943 28.8866 162.145 28.4269 162.55 28.0561C162.954 27.6854 163.478 27.5 164.122 27.5C164.765 27.5 165.289 27.678 165.694 28.0339C166.098 28.375 166.3 28.8199 166.3 29.3686C166.3 29.9469 166.098 30.4289 165.694 30.8145C165.304 31.1852 164.78 31.3706 164.122 31.3706Z" fill="#5534DA"/>
<path d="M169.041 45.0066V32.772C169.041 31.4225 169.445 30.3473 170.254 29.5465C171.062 28.7309 172.215 28.3231 173.712 28.3231C174.221 28.3231 174.708 28.375 175.172 28.4788C175.651 28.5826 176.055 28.7457 176.384 28.9682L175.464 31.4818C175.269 31.3483 175.052 31.2445 174.812 31.1704C174.573 31.0962 174.318 31.0592 174.049 31.0592C173.54 31.0592 173.143 31.2074 172.859 31.504C172.589 31.7858 172.454 32.2159 172.454 32.7942V33.9065L172.544 35.3969V45.0066H169.041ZM167.177 35.9752V33.3059H175.554V35.9752H167.177Z" fill="#5534DA"/>
<path d="M178.535 49.5C177.906 49.5 177.285 49.4036 176.671 49.2108C176.057 49.018 175.556 48.7511 175.166 48.41L176.446 45.9408C176.716 46.1781 177.023 46.3635 177.367 46.497C177.726 46.6304 178.078 46.6972 178.423 46.6972C178.917 46.6972 179.306 46.5785 179.59 46.3413C179.89 46.1188 180.159 45.7406 180.399 45.2068L181.028 43.7386L181.297 43.3605L185.631 33.0389H189L183.543 45.7406C183.154 46.7046 182.704 47.4609 182.195 48.0096C181.701 48.5583 181.147 48.9439 180.534 49.1663C179.935 49.3888 179.269 49.5 178.535 49.5ZM180.601 45.4737L175.211 33.0389H178.827L183.004 43.049L180.601 45.4737Z" fill="#5534DA"/>
<path d="M950.281 40.5469H937.562V39.5156H943.281V36.8906H939.156V32.6094H947.469V30.4219H939.125V29.4062H948.672V33.6094H940.375V35.875H949V36.8906H944.484V39.5156H950.281V40.5469ZM962.344 31.25C962.344 32.0469 962.333 32.7422 962.312 33.3359C962.297 33.9297 962.253 34.6224 962.18 35.4141C962.107 36.2057 961.99 37.0677 961.828 38L960.578 37.875C960.75 36.9948 960.878 36.1667 960.961 35.3906C961.044 34.6094 961.094 33.9219 961.109 33.3281C961.13 32.7292 961.141 32.0365 961.141 31.25V30.875H952.766V29.8594H962.344V31.25ZM964.047 40.2188H951.391V39.2031H964.047V40.2188ZM976.688 38.5469H975.469V28.3906H976.688V38.5469ZM977.125 41.9688H967.719V37.5156H968.938V40.9375H977.125V41.9688ZM969.188 29.3594C969.875 29.3594 970.495 29.5052 971.047 29.7969C971.604 30.0833 972.039 30.487 972.352 31.0078C972.669 31.5234 972.828 32.1094 972.828 32.7656C972.828 33.4323 972.669 34.026 972.352 34.5469C972.039 35.0625 971.604 35.4661 971.047 35.7578C970.495 36.0443 969.875 36.1875 969.188 36.1875C968.5 36.1875 967.878 36.0443 967.32 35.7578C966.768 35.4661 966.333 35.0625 966.016 34.5469C965.703 34.026 965.547 33.4323 965.547 32.7656C965.547 32.1094 965.703 31.5234 966.016 31.0078C966.333 30.487 966.768 30.0833 967.32 29.7969C967.878 29.5052 968.5 29.3594 969.188 29.3594ZM969.188 30.4375C968.724 30.4375 968.305 30.5365 967.93 30.7344C967.56 30.9323 967.268 31.2083 967.055 31.5625C966.846 31.9167 966.745 32.3177 966.75 32.7656C966.745 33.2188 966.846 33.625 967.055 33.9844C967.268 34.3385 967.56 34.6146 967.93 34.8125C968.305 35.0104 968.724 35.1094 969.188 35.1094C969.641 35.1094 970.052 35.0104 970.422 34.8125C970.797 34.6146 971.091 34.3385 971.305 33.9844C971.518 33.625 971.625 33.2188 971.625 32.7656C971.625 32.3229 971.518 31.9245 971.305 31.5703C971.091 31.2161 970.797 30.9401 970.422 30.7422C970.052 30.5391 969.641 30.4375 969.188 30.4375Z" fill="#333236"/>
<path d="M1026.95 42.2656H1025.73V28.375H1026.95V42.2656ZM1015.64 38.5625C1017.38 38.5521 1018.69 38.5339 1019.59 38.5078V36.9844C1019.04 36.9271 1018.56 36.7865 1018.14 36.5625C1017.73 36.3385 1017.41 36.0495 1017.19 35.6953C1016.96 35.3359 1016.85 34.9271 1016.86 34.4688C1016.85 33.9531 1016.99 33.5026 1017.27 33.1172C1017.54 32.7266 1017.93 32.4245 1018.44 32.2109C1018.94 31.9974 1019.53 31.8906 1020.19 31.8906C1020.85 31.8906 1021.43 31.9974 1021.94 32.2109C1022.45 32.4245 1022.84 32.7266 1023.12 33.1172C1023.41 33.5026 1023.55 33.9531 1023.55 34.4688C1023.55 34.9219 1023.43 35.3281 1023.21 35.6875C1022.99 36.0417 1022.67 36.3307 1022.26 36.5547C1021.85 36.7734 1021.38 36.9141 1020.83 36.9766V38.4609C1022.34 38.3932 1023.67 38.2812 1024.81 38.125L1024.91 39.0625C1023.53 39.2865 1022.09 39.4349 1020.6 39.5078C1019.11 39.5755 1017.52 39.6094 1015.83 39.6094L1015.64 38.5625ZM1024.45 31.0938H1015.94V30.0938H1019.59V28.3906H1020.83V30.0938H1024.45V31.0938ZM1020.19 32.8438C1019.77 32.8438 1019.39 32.9115 1019.05 33.0469C1018.72 33.1823 1018.46 33.375 1018.27 33.625C1018.09 33.8698 1018 34.151 1018 34.4688C1018 34.7865 1018.09 35.0651 1018.27 35.3047C1018.46 35.5443 1018.72 35.7292 1019.05 35.8594C1019.39 35.9896 1019.77 36.0521 1020.19 36.0469C1020.61 36.0521 1020.99 35.9922 1021.32 35.8672C1021.65 35.737 1021.91 35.5521 1022.09 35.3125C1022.28 35.0677 1022.38 34.7865 1022.38 34.4688C1022.38 34.151 1022.28 33.8698 1022.09 33.625C1021.91 33.375 1021.65 33.1823 1021.32 33.0469C1020.99 32.9115 1020.61 32.8438 1020.19 32.8438ZM1040.84 38.9375H1039.61V37.5H1036.73V36.6094H1039.61V28.3906H1040.84V38.9375ZM1041.19 41.9688H1031.31V37.9062H1032.55V40.9375H1041.19V41.9688ZM1029.31 34.8281C1031.22 34.8177 1032.88 34.7891 1034.28 34.7422C1035.69 34.6953 1037.05 34.5885 1038.36 34.4219L1038.44 35.3125C1037.29 35.4948 1036.02 35.6276 1034.62 35.7109V38.4531H1033.39V35.7734C1032.35 35.8099 1031.3 35.8281 1030.23 35.8281H1029.48L1029.31 34.8281ZM1033.88 28.9531C1034.55 28.9531 1035.14 29.0547 1035.66 29.2578C1036.18 29.4557 1036.58 29.7396 1036.87 30.1094C1037.16 30.474 1037.31 30.8958 1037.31 31.375C1037.31 31.8646 1037.16 32.2917 1036.87 32.6562C1036.58 33.0156 1036.18 33.2943 1035.66 33.4922C1035.14 33.6849 1034.55 33.7812 1033.88 33.7812C1033.2 33.7812 1032.6 33.6849 1032.08 33.4922C1031.56 33.2943 1031.15 33.0156 1030.87 32.6562C1030.58 32.2917 1030.44 31.8646 1030.44 31.375C1030.44 30.8958 1030.58 30.474 1030.87 30.1094C1031.15 29.7396 1031.56 29.4557 1032.08 29.2578C1032.6 29.0547 1033.2 28.9531 1033.88 28.9531ZM1033.88 29.8906C1033.43 29.8854 1033.03 29.9453 1032.69 30.0703C1032.34 30.1953 1032.08 30.3724 1031.88 30.6016C1031.7 30.8255 1031.6 31.0833 1031.61 31.375C1031.6 31.6719 1031.7 31.9349 1031.88 32.1641C1032.07 32.388 1032.34 32.5625 1032.68 32.6875C1033.03 32.8125 1033.43 32.875 1033.88 32.875C1034.31 32.875 1034.7 32.8125 1035.04 32.6875C1035.38 32.5625 1035.65 32.388 1035.84 32.1641C1036.04 31.9349 1036.14 31.6719 1036.14 31.375C1036.14 31.0833 1036.03 30.8255 1035.84 30.6016C1035.64 30.3724 1035.38 30.1953 1035.03 30.0703C1034.69 29.9453 1034.31 29.8854 1033.88 29.8906ZM1053.97 34.0312H1056.22V35.0625H1053.97V42.2656H1052.75V28.375H1053.97V34.0312ZM1050.38 29.875C1050.38 31.9427 1049.86 33.8177 1048.82 35.5C1047.78 37.1771 1046.18 38.5521 1044 39.625L1043.31 38.6562C1045.1 37.7656 1046.48 36.6667 1047.46 35.3594C1048.44 34.0469 1049 32.5625 1049.14 30.9062H1043.95V29.875H1050.38ZM1068.52 35.8281H1067.3V28.375H1068.52V35.8281ZM1060.73 38.2188H1067.3V36.5312H1068.52V42.0781H1059.52V36.5312H1060.73V38.2188ZM1067.3 41.0781V39.2031H1060.73V41.0781H1067.3ZM1061.02 29.0625C1061.71 29.0573 1062.34 29.1875 1062.89 29.4531C1063.44 29.7188 1063.88 30.0964 1064.19 30.5859C1064.5 31.0703 1064.66 31.625 1064.66 32.25C1064.66 32.8698 1064.5 33.4219 1064.19 33.9062C1063.88 34.3906 1063.44 34.7682 1062.89 35.0391C1062.34 35.3047 1061.71 35.4375 1061.02 35.4375C1060.32 35.4375 1059.69 35.3047 1059.14 35.0391C1058.59 34.7682 1058.16 34.3906 1057.84 33.9062C1057.53 33.4219 1057.38 32.8698 1057.38 32.25C1057.38 31.625 1057.53 31.0703 1057.84 30.5859C1058.16 30.0964 1058.59 29.7188 1059.14 29.4531C1059.69 29.1875 1060.32 29.0573 1061.02 29.0625ZM1061.02 30.0938C1060.55 30.0885 1060.12 30.1797 1059.75 30.3672C1059.38 30.5495 1059.09 30.8047 1058.88 31.1328C1058.67 31.4609 1058.57 31.8333 1058.58 32.25C1058.57 32.6667 1058.67 33.0417 1058.88 33.375C1059.09 33.7031 1059.38 33.9609 1059.75 34.1484C1060.12 34.3307 1060.55 34.4219 1061.02 34.4219C1061.48 34.4219 1061.9 34.3307 1062.27 34.1484C1062.64 33.9609 1062.92 33.7031 1063.13 33.375C1063.35 33.0417 1063.45 32.6667 1063.45 32.25C1063.45 31.8333 1063.35 31.4609 1063.13 31.1328C1062.92 30.8047 1062.64 30.5495 1062.27 30.3672C1061.9 30.1797 1061.48 30.0885 1061.02 30.0938Z" fill="#333236"/>
<mask id="path-8-inside-2_278_3988" fill="white">
<path d="M0 109H1141V179H0V109Z"/>
</mask>
<path d="M0 109H1141V179H0V109Z" fill="white"/>
<path d="M1141 179V178H0V179V180H1141V179Z" fill="#D9D9D9" mask="url(#path-8-inside-2_278_3988)"/>
<rect x="677.5" y="124.5" width="87" height="39" rx="7.5" fill="white"/>
<rect x="677.5" y="124.5" width="87" height="39" rx="7.5" stroke="#D9D9D9"/>
<path d="M701.734 151.916C701.547 151.916 701.385 151.854 701.248 151.728C701.112 151.602 701.029 151.446 701.002 151.259L700.76 149.378C700.536 149.303 700.307 149.198 700.073 149.064C699.838 148.929 699.629 148.785 699.444 148.631L697.704 149.365C697.525 149.443 697.348 149.452 697.172 149.392C696.997 149.332 696.858 149.22 696.758 149.056L695.505 146.873C695.41 146.709 695.38 146.533 695.417 146.346C695.453 146.159 695.546 146.008 695.697 145.894L697.204 144.754C697.184 144.631 697.171 144.506 697.163 144.381C697.155 144.256 697.151 144.132 697.151 144.008C697.151 143.889 697.155 143.769 697.163 143.646C697.171 143.524 697.184 143.39 697.204 143.245L695.697 142.105C695.546 141.991 695.452 141.84 695.413 141.653C695.374 141.467 695.404 141.291 695.505 141.126L696.758 138.96C696.858 138.795 696.995 138.683 697.168 138.623C697.341 138.563 697.517 138.572 697.696 138.65L699.436 139.376C699.637 139.217 699.851 139.072 700.079 138.94C700.307 138.808 700.532 138.702 700.752 138.621L701.002 136.74C701.029 136.553 701.112 136.397 701.248 136.271C701.385 136.146 701.547 136.083 701.734 136.083H704.258C704.445 136.083 704.608 136.146 704.748 136.271C704.887 136.397 704.971 136.553 704.998 136.74L705.24 138.629C705.49 138.72 705.717 138.826 705.919 138.948C706.122 139.069 706.326 139.212 706.532 139.376L708.304 138.65C708.483 138.572 708.659 138.562 708.832 138.619C709.005 138.676 709.142 138.787 709.242 138.952L710.495 141.126C710.596 141.291 710.626 141.467 710.587 141.653C710.548 141.84 710.453 141.991 710.303 142.105L708.764 143.269C708.794 143.403 708.811 143.529 708.813 143.646C708.816 143.763 708.817 143.881 708.817 144C708.817 144.113 708.815 144.228 708.809 144.345C708.804 144.462 708.785 144.596 708.752 144.746L710.274 145.894C710.425 146.008 710.519 146.159 710.558 146.346C710.597 146.533 710.567 146.709 710.466 146.873L709.213 149.043C709.113 149.207 708.972 149.32 708.792 149.382C708.612 149.443 708.433 149.435 708.255 149.357L706.532 148.623C706.326 148.788 706.115 148.933 705.901 149.06C705.686 149.186 705.466 149.29 705.24 149.37L704.998 151.259C704.971 151.446 704.887 151.602 704.748 151.728C704.608 151.854 704.445 151.916 704.258 151.916H701.734ZM702.167 150.666H703.804L704.104 148.434C704.529 148.323 704.918 148.165 705.27 147.96C705.622 147.756 705.962 147.493 706.288 147.171L708.359 148.041L709.179 146.625L707.372 145.262C707.441 145.047 707.489 144.835 707.514 144.628C707.539 144.421 707.551 144.211 707.551 144C707.551 143.783 707.539 143.573 707.514 143.371C707.489 143.17 707.441 142.963 707.372 142.753L709.196 141.375L708.375 139.958L706.28 140.841C706.002 140.543 705.667 140.28 705.278 140.051C704.889 139.822 704.495 139.66 704.096 139.565L703.833 137.333H702.179L701.904 139.557C701.479 139.658 701.086 139.812 700.726 140.019C700.366 140.226 700.022 140.493 699.696 140.82L697.625 139.958L696.804 141.375L698.604 142.716C698.535 142.914 698.486 143.119 698.458 143.333C698.431 143.547 698.417 143.772 698.417 144.008C698.417 144.225 698.431 144.437 698.458 144.645C698.486 144.854 698.532 145.059 698.596 145.262L696.804 146.625L697.625 148.041L699.687 147.166C700.004 147.491 700.342 147.757 700.702 147.964C701.062 148.172 701.46 148.331 701.896 148.442L702.167 150.666ZM703.01 146.5C703.703 146.5 704.293 146.256 704.78 145.77C705.266 145.283 705.51 144.693 705.51 144C705.51 143.306 705.266 142.716 704.78 142.23C704.293 141.743 703.703 141.5 703.01 141.5C702.308 141.5 701.716 141.743 701.233 142.23C700.751 142.716 700.51 143.306 700.51 144C700.51 144.693 700.751 145.283 701.233 145.77C701.716 146.256 702.308 146.5 703.01 146.5Z" fill="#787486"/>
<path d="M729.312 138.391V139.172C729.297 140.109 729.297 141.5 728.953 143.312L727.484 143.172C727.789 141.625 727.836 140.492 727.852 139.609H722.25V138.391H729.312ZM721.406 144.516C722.266 144.516 723.242 144.508 724.266 144.484V141.531H725.734V144.438C727.234 144.375 728.781 144.266 730.188 144.062L730.281 145.141C727.359 145.656 724.016 145.711 721.547 145.719L721.406 144.516ZM723.531 151.031V146.891H725.016V149.828H733.047V151.031H723.531ZM731.078 147.844V137.328H732.594V141.781H734.516V143.031H732.594V147.844H731.078ZM746.969 137.328V151.359H745.484V137.328H746.969ZM736.125 139.797V138.594H742.688V143.703H737.656V146.766C739.93 146.758 741.906 146.648 744.25 146.266L744.391 147.484C741.914 147.898 739.805 147.992 737.328 148H736.141V142.516H741.172V139.797H736.125Z" fill="#787486"/>
<rect x="781.5" y="124.5" width="115" height="39" rx="7.5" fill="white"/>
<rect x="781.5" y="124.5" width="115" height="39" rx="7.5" stroke="#D9D9D9"/>
<path d="M806.375 144.708V147.417C806.375 147.594 806.435 147.742 806.555 147.862C806.674 147.982 806.823 148.042 807 148.042C807.177 148.042 807.326 147.982 807.446 147.862C807.565 147.742 807.625 147.594 807.625 147.417V144.708H810.333C810.511 144.708 810.659 144.648 810.779 144.529C810.898 144.409 810.958 144.261 810.958 144.083C810.958 143.906 810.898 143.757 810.779 143.638C810.659 143.518 810.511 143.458 810.333 143.458H807.625V140.75C807.625 140.573 807.565 140.424 807.446 140.304C807.326 140.185 807.177 140.125 807 140.125C806.823 140.125 806.674 140.185 806.555 140.304C806.435 140.424 806.375 140.573 806.375 140.75V143.458H803.667C803.489 143.458 803.341 143.518 803.221 143.638C803.102 143.757 803.042 143.906 803.042 144.083C803.042 144.261 803.102 144.409 803.221 144.529C803.341 144.648 803.489 144.708 803.667 144.708H806.375ZM801.423 151.167C801.002 151.167 800.646 151.021 800.354 150.729C800.063 150.437 799.917 150.081 799.917 149.66V138.506C799.917 138.085 800.063 137.729 800.354 137.438C800.646 137.146 801.002 137 801.423 137H812.577C812.998 137 813.354 137.146 813.646 137.438C813.937 137.729 814.083 138.085 814.083 138.506V149.66C814.083 150.081 813.937 150.437 813.646 150.729C813.354 151.021 812.998 151.167 812.577 151.167H801.423ZM801.423 149.917H812.577C812.641 149.917 812.7 149.89 812.753 149.837C812.807 149.783 812.833 149.724 812.833 149.66V138.506C812.833 138.442 812.807 138.384 812.753 138.33C812.7 138.277 812.641 138.25 812.577 138.25H801.423C801.359 138.25 801.3 138.277 801.247 138.33C801.193 138.384 801.167 138.442 801.167 138.506V149.66C801.167 149.724 801.193 149.783 801.247 149.837C801.3 149.89 801.359 149.917 801.423 149.917Z" fill="#787486"/>
<path d="M838.328 148.391V149.609H825.516V148.391H831.172V145.344H832.641V148.391H838.328ZM826.141 144.672C829.016 144.25 831.086 142.625 831.156 140.656H826.672V139.453H831.172V137.578H832.641V139.453H837.141V140.656H832.656C832.727 142.625 834.797 144.25 837.672 144.672L837.109 145.828C834.766 145.461 832.812 144.352 831.898 142.719C830.992 144.352 829.047 145.461 826.703 145.828L826.141 144.672ZM851.359 137.328V151.328H849.938V144.094H848.125V150.609H846.766V137.609H848.125V142.875H849.938V137.328H851.359ZM839.812 147.969V139.016H845.062V140.219H841.297V146.703C843.016 146.695 844.312 146.617 845.812 146.328L845.922 147.547C844.242 147.898 842.789 147.953 840.75 147.969H839.812ZM864.078 137.328V143H866.328V144.234H864.078V151.328H862.609V137.328H864.078ZM853.094 140.734V139.516H856.547V137.516H858.031V139.516H861.391V140.734H853.094ZM853.812 145.016C853.812 143.109 855.281 141.766 857.297 141.766C859.305 141.766 860.773 143.109 860.781 145.016C860.773 146.938 859.305 148.273 857.297 148.281C855.281 148.273 853.812 146.938 853.812 145.016ZM855.234 145.016C855.227 146.234 856.102 147.047 857.297 147.031C858.484 147.047 859.352 146.234 859.359 145.016C859.352 143.82 858.484 142.992 857.297 142.984C856.102 142.992 855.227 143.82 855.234 145.016ZM878.641 137.328V151.328H877.141V137.328H878.641ZM867.141 147.578C870.859 145.805 872.68 143.281 872.969 140.016H867.812V138.828H874.469C874.469 142.93 872.727 146.477 867.922 148.781L867.141 147.578Z" fill="#787486"/>
<path d="M933 125V163" stroke="#D9D9D9"/>
<rect x="970" y="126" width="36" height="36" rx="18" fill="#A3C4A2"/>
<rect x="970" y="126" width="36" height="36" rx="18" stroke="white" stroke-width="2"/>
<path d="M983.418 150V138.8H988.666C990.01 138.8 991.034 139.067 991.738 139.6C992.442 140.123 992.794 140.827 992.794 141.712C992.794 142.309 992.655 142.821 992.378 143.248C992.101 143.664 991.727 143.989 991.258 144.224C990.799 144.448 990.298 144.56 989.754 144.56L990.042 143.984C990.671 143.984 991.237 144.101 991.738 144.336C992.239 144.56 992.634 144.891 992.922 145.328C993.221 145.765 993.37 146.309 993.37 146.96C993.37 147.92 993.002 148.667 992.266 149.2C991.53 149.733 990.437 150 988.986 150H983.418ZM985.498 148.368H988.858C989.637 148.368 990.234 148.24 990.65 147.984C991.066 147.728 991.274 147.317 991.274 146.752C991.274 146.197 991.066 145.792 990.65 145.536C990.234 145.269 989.637 145.136 988.858 145.136H985.338V143.52H988.442C989.167 143.52 989.722 143.392 990.106 143.136C990.501 142.88 990.698 142.496 990.698 141.984C990.698 141.461 990.501 141.072 990.106 140.816C989.722 140.56 989.167 140.432 988.442 140.432H985.498V148.368Z" fill="white"/>
<path d="M1021.39 138.625V141.969H1024.06V138.625H1025.44V147.875H1019.98V138.625H1021.39ZM1021.39 146.672H1024.06V143.141H1021.39V146.672ZM1027 150.641V137.594H1028.41V142.812H1030.14V137.328H1031.56V151.328H1030.14V144.031H1028.41V150.641H1027ZM1046.14 145.234V146.453H1042.89V151.328H1041.39V146.453H1038.05V151.328H1036.52V146.453H1033.33V145.234H1046.14ZM1034.72 140.953C1034.73 139.062 1036.74 137.859 1039.7 137.859C1042.66 137.859 1044.7 139.062 1044.69 140.953C1044.7 142.82 1042.66 144 1039.7 143.984C1036.74 144 1034.73 142.82 1034.72 140.953ZM1036.25 140.953C1036.24 142.102 1037.62 142.812 1039.7 142.812C1041.79 142.812 1043.16 142.102 1043.17 140.953C1043.16 139.773 1041.79 139.055 1039.7 139.047C1037.62 139.055 1036.24 139.773 1036.25 140.953ZM1052.08 140.078C1052.08 141.531 1053.48 142.844 1055.62 143.312L1054.95 144.453C1053.29 144.062 1052.02 143.172 1051.38 141.992C1050.74 143.289 1049.47 144.273 1047.75 144.719L1047.09 143.562C1049.23 143.023 1050.61 141.641 1050.61 140.078V139.844H1047.56V138.656H1050.61V137.266H1052.09V138.656H1055.12V139.844H1052.08V140.078ZM1049.67 146.422V145.266H1058.83V148.719H1051.19V150.031H1059.33V151.188H1049.7V147.625H1057.36V146.422H1049.67ZM1054.72 141.938V140.75H1057.36V137.328H1058.83V144.656H1057.36V141.938H1054.72Z" fill="#333236"/>
<path d="M96.8594 152.797H94.457V143.91H92.7969V151.938H90.4531V135.316H92.7969V141.898H94.457V135.023H96.8594V152.797ZM84.75 146.283C86.4036 146.238 87.9727 146.072 89.457 145.785L89.7109 147.934C87.6667 148.285 85.5833 148.461 83.4609 148.461H82.25V136.996H84.75V146.283ZM118.793 152.797H116.43V143.871H114.711V151.938H112.426V135.316H114.711V141.879H116.43V135.023H118.793V152.797ZM110.551 139.086H106.43V146.674C107.367 146.661 108.227 146.625 109.008 146.566C109.789 146.508 110.583 146.404 111.391 146.254L111.566 148.285C110.57 148.474 109.594 148.601 108.637 148.666C107.68 148.725 106.521 148.76 105.16 148.773H103.93V137.074H110.551V139.086ZM127.621 139.047C127.621 140.16 127.79 141.238 128.129 142.279C128.467 143.314 128.972 144.236 129.643 145.043C130.32 145.844 131.143 146.449 132.113 146.859L130.648 148.852C129.659 148.402 128.806 147.761 128.09 146.928C127.38 146.088 126.817 145.102 126.4 143.969C125.984 145.206 125.404 146.28 124.662 147.191C123.926 148.103 123.031 148.799 121.977 149.281L120.473 147.211C121.475 146.788 122.322 146.16 123.012 145.326C123.702 144.486 124.219 143.526 124.564 142.445C124.916 141.365 125.095 140.232 125.102 139.047V136.391H127.621V139.047ZM135.59 152.836H133.07V135.023H135.59V152.836ZM154.262 150.727H137.992V148.695H144.848V145.414H139.711V136.156H142.211V138.91H149.965V136.156H152.445V145.414H147.328V148.695H154.262V150.727ZM149.965 143.422V140.902H142.211V143.422H149.965ZM169.77 145.238H157.191V136.508H169.633V138.52H159.652V143.246H169.77V145.238ZM171.547 150.629H155.277V148.578H171.547V150.629Z" fill="#333236"/>
<defs>
<clipPath id="clip0_278_3988">
<rect width="28.7975" height="33.0688" fill="white" transform="translate(80.2021 19.5)"/>
</clipPath>
</defs>
</svg>
