<svg xmlns="http://www.w3.org/2000/svg" xmlns:xlink="http://www.w3.org/1999/xlink" viewBox="0,0,256,256" width="100px" height="100px" fill-rule="nonzero"><g fill="#000000" fill-rule="nonzero" stroke="none" stroke-width="1" stroke-linecap="butt" stroke-linejoin="miter" stroke-miterlimit="10" stroke-dasharray="" stroke-dashoffset="0" font-family="none" font-weight="none" font-size="none" text-anchor="none" style="mix-blend-mode: normal"><g transform="scale(9.84615,9.84615)"><path d="M13,0c-7.17969,0 -13,5.14844 -13,11.5c0,3.25781 1.53516,6.19141 3.99609,8.28516c-0.67578,2.86328 -4.09766,4.04297 -3.875,4.85547c2.16797,1.24609 7.99219,-1.12891 9.88672,-1.96094c0.96094,0.20313 1.96094,0.32031 2.99219,0.32031c7.17969,0 13,-5.14844 13,-11.5c0,-6.35156 -5.82031,-11.5 -13,-11.5zM14.92578,17.41406c-0.48828,0.20313 -1.625,0.72656 -2.67187,0.72656c-0.96875,0 -2.28906,-0.44531 -2.28906,-1.875c0,-1.65625 1.17188,-4.01562 1.17188,-5.38281c0,-1.52344 -1.98047,-0.69922 -2.125,-0.64453l0.19922,-0.8125c0.48828,-0.19922 1.64844,-0.72656 2.67578,-0.72656c0.83203,0 2.25,0.30078 2.25,1.875c0,1.58203 -1.17187,4.11328 -1.17187,5.38281c0,0.35156 -0.04687,0.90625 1.04688,0.90625c0.42578,0 1.01172,-0.21484 1.11719,-0.26172zM13.53906,7.19531c-0.70703,0 -1.78125,-0.48437 -1.78125,-1.65625c0,-1.1875 1.14453,-1.66797 1.78125,-1.66797c0.75391,0 1.77734,0.55078 1.77734,1.66797c0,0.67578 -0.53125,1.65625 -1.77734,1.65625z"></path></g></g></svg>