<svg width="742" height="327" viewBox="0 0 742 327" fill="none" xmlns="http://www.w3.org/2000/svg">
<g clip-path="url(#clip0_330_4326)">
<rect width="147.684" height="33.8947" transform="translate(229 110.039)" fill="#1F2024" fill-opacity="0.1"/>
<circle cx="250.184" cy="126.987" r="4.23684" fill="white"/>
<circle cx="265.013" cy="126.987" r="4.23684" fill="white"/>
<circle cx="279.842" cy="126.987" r="4.23684" fill="white"/>
<path d="M229 143.934H376.684" stroke="white" stroke-width="3.17763" stroke-linecap="round"/>
<rect width="147.684" height="81.8421" transform="translate(229 143.934)" fill="#1F2024" fill-opacity="0.05"/>
<path d="M286.548 194.581C285.495 194.581 284.541 194.31 283.686 193.769C282.837 193.221 282.163 192.418 281.664 191.358C281.17 190.293 280.924 188.987 280.924 187.441C280.924 185.852 281.179 184.531 281.691 183.477C282.203 182.418 282.883 181.627 283.731 181.103C284.586 180.574 285.522 180.309 286.539 180.309C287.315 180.309 287.962 180.441 288.48 180.706C289.003 180.965 289.424 181.29 289.743 181.681C290.068 182.066 290.315 182.445 290.484 182.818H290.601V175.867H294.438V194.355H290.646V192.135H290.484C290.303 192.52 290.047 192.902 289.716 193.281C289.391 193.654 288.967 193.964 288.443 194.211C287.926 194.458 287.294 194.581 286.548 194.581ZM287.766 191.521C288.386 191.521 288.91 191.352 289.337 191.015C289.77 190.672 290.101 190.194 290.33 189.58C290.565 188.966 290.682 188.247 290.682 187.422C290.682 186.598 290.568 185.882 290.339 185.274C290.111 184.666 289.78 184.197 289.346 183.866C288.913 183.535 288.386 183.369 287.766 183.369C287.134 183.369 286.602 183.541 286.169 183.884C285.735 184.227 285.407 184.702 285.185 185.31C284.962 185.918 284.851 186.622 284.851 187.422C284.851 188.229 284.962 188.942 285.185 189.562C285.413 190.176 285.741 190.657 286.169 191.006C286.602 191.349 287.134 191.521 287.766 191.521ZM303.919 194.626C302.492 194.626 301.265 194.337 300.235 193.76C299.212 193.176 298.424 192.351 297.87 191.286C297.317 190.215 297.04 188.948 297.04 187.486C297.04 186.059 297.317 184.808 297.87 183.73C298.424 182.653 299.203 181.813 300.208 181.212C301.219 180.61 302.405 180.309 303.765 180.309C304.68 180.309 305.532 180.456 306.32 180.751C307.114 181.04 307.806 181.476 308.396 182.06C308.992 182.644 309.455 183.378 309.786 184.263C310.117 185.142 310.283 186.171 310.283 187.35V188.406H298.574V186.023H306.663C306.663 185.47 306.543 184.979 306.302 184.552C306.061 184.124 305.727 183.79 305.3 183.55C304.879 183.303 304.388 183.18 303.828 183.18C303.245 183.18 302.727 183.315 302.276 183.586C301.83 183.851 301.481 184.209 301.228 184.66C300.976 185.105 300.846 185.602 300.84 186.15V188.415C300.84 189.102 300.967 189.694 301.219 190.194C301.478 190.693 301.842 191.079 302.312 191.349C302.781 191.62 303.338 191.756 303.982 191.756C304.409 191.756 304.8 191.695 305.155 191.575C305.51 191.455 305.814 191.274 306.067 191.033C306.32 190.793 306.512 190.498 306.645 190.149L310.202 190.383C310.021 191.238 309.651 191.984 309.091 192.622C308.538 193.254 307.821 193.748 306.943 194.103C306.07 194.452 305.062 194.626 303.919 194.626ZM325.347 180.489L320.5 194.355H316.166L311.319 180.489H315.381L318.261 190.411H318.405L321.276 180.489H325.347Z" fill="white"/>
</g>
<rect x="229" y="110.039" width="147.684" height="115.737" rx="16.9474" stroke="white" stroke-width="3.17763"/>
<path d="M474.003 40.1309H442.671C423.952 40.1309 408.776 55.3061 408.776 74.0256V260.447C408.776 279.166 423.951 294.341 442.671 294.341H474.003" stroke="white" stroke-width="3.17763" stroke-linecap="round"/>
<path d="M408.776 167.236L381.2 167.236" stroke="white" stroke-width="3.17763" stroke-linecap="round"/>
<path d="M475.607 38.6054L464.948 31.9794C463.671 31.1856 462.024 31.9398 461.77 33.3099C461.726 33.5507 461.779 33.7962 461.862 34.0267L464.063 40.13L461.862 46.2333C461.779 46.4638 461.726 46.7093 461.77 46.9501C462.021 48.3008 463.628 49.0587 464.905 48.3066L475.564 42.0293C476.881 41.2541 476.904 39.4114 475.607 38.6054Z" fill="white"/>
<path d="M475.607 292.816L464.948 286.19C463.671 285.397 462.024 286.151 461.77 287.521C461.726 287.762 461.779 288.007 461.862 288.238L464.063 294.341L461.862 300.444C461.779 300.675 461.726 300.92 461.77 301.161C462.021 302.512 463.628 303.27 464.905 302.517L475.564 296.24C476.881 295.465 476.904 293.622 475.607 292.816Z" fill="white"/>
<path d="M377 172.531C374.075 172.531 371.704 170.16 371.704 167.235C371.704 164.31 374.075 161.939 377 161.939C379.925 161.939 382.296 164.31 382.296 167.235C382.296 170.16 379.925 172.531 377 172.531Z" fill="white" stroke="white" stroke-width="6.35526"/>
<path d="M476.515 165.949L465.856 159.323C464.579 158.529 462.932 159.284 462.678 160.654C462.634 160.894 462.687 161.14 462.77 161.37L464.971 167.474L462.77 173.577C462.687 173.808 462.634 174.053 462.678 174.294C462.929 175.645 464.535 176.402 465.813 175.65L476.472 169.373C477.789 168.598 477.812 166.755 476.515 165.949Z" fill="white"/>
<path d="M382 167L471.348 167" stroke="white" stroke-width="3.17763" stroke-linecap="round"/>
<rect x="476.566" y="2" width="231.684" height="76.8421" rx="38.4211" fill="#1F2024" fill-opacity="0.05"/>
<rect x="476.566" y="2" width="231.684" height="76.8421" rx="38.4211" stroke="white" stroke-width="3.17763" stroke-linecap="round" stroke-linejoin="round"/>
<path d="M534.76 36.8669V38.6723H528.23V36.8669H534.76ZM530.02 48.4219V35.5278C530.02 34.8056 530.178 34.2063 530.494 33.7298C530.81 33.2484 531.229 32.8898 531.751 32.6541C532.272 32.4134 532.839 32.293 533.451 32.293C533.902 32.293 534.288 32.3306 534.609 32.4058C534.93 32.476 535.168 32.5412 535.324 32.6014L534.797 34.4219C534.692 34.3918 534.557 34.3567 534.391 34.3166C534.226 34.2715 534.025 34.2489 533.789 34.2489C533.243 34.2489 532.851 34.3843 532.616 34.6551C532.385 34.926 532.27 35.3172 532.27 35.8287V48.4219H530.02ZM541.605 48.6551C540.467 48.6551 539.486 48.4118 538.664 47.9254C537.847 47.4339 537.215 46.7443 536.768 45.8566C536.327 44.9639 536.106 43.9182 536.106 42.7196C536.106 41.536 536.327 40.4928 536.768 39.5901C537.215 38.6874 537.836 37.9827 538.634 37.4762C539.436 36.9697 540.374 36.7164 541.447 36.7164C542.099 36.7164 542.731 36.8242 543.343 37.0399C543.955 37.2555 544.504 37.5941 544.991 38.0555C545.477 38.5169 545.861 39.1162 546.142 39.8534C546.423 40.5856 546.563 41.4758 546.563 42.524V43.3214H537.378V41.6363H544.359C544.359 41.0445 544.238 40.5204 543.998 40.064C543.757 39.6026 543.418 39.239 542.982 38.9732C542.551 38.7074 542.044 38.5745 541.462 38.5745C540.831 38.5745 540.279 38.73 539.807 39.0409C539.341 39.3469 538.98 39.7481 538.724 40.2446C538.473 40.7361 538.348 41.2702 538.348 41.8469V43.1634C538.348 43.9358 538.483 44.5928 538.754 45.1344C539.03 45.6761 539.414 46.0898 539.905 46.3757C540.397 46.6565 540.971 46.7969 541.628 46.7969C542.054 46.7969 542.443 46.7368 542.794 46.6164C543.145 46.491 543.449 46.3055 543.704 46.0597C543.96 45.814 544.156 45.5106 544.291 45.1495L546.42 45.5331C546.249 46.16 545.944 46.7092 545.502 47.1806C545.066 47.647 544.517 48.0106 543.855 48.2714C543.198 48.5272 542.448 48.6551 541.605 48.6551ZM552.421 48.6777C551.689 48.6777 551.027 48.5422 550.435 48.2714C549.844 47.9956 549.375 47.5969 549.029 47.0753C548.688 46.5537 548.517 45.9143 548.517 45.157C548.517 44.505 548.642 43.9684 548.893 43.5471C549.144 43.1258 549.482 42.7923 549.909 42.5466C550.335 42.3008 550.811 42.1153 551.338 41.9899C551.865 41.8645 552.401 41.7692 552.948 41.704C553.64 41.6238 554.202 41.5586 554.633 41.5084C555.064 41.4533 555.378 41.3655 555.573 41.2451C555.769 41.1248 555.867 40.9292 555.867 40.6583V40.6057C555.867 39.9487 555.681 39.4396 555.31 39.0786C554.944 38.7175 554.397 38.5369 553.67 38.5369C552.913 38.5369 552.316 38.7049 551.88 39.0409C551.448 39.3719 551.15 39.7406 550.984 40.1468L548.871 39.6653C549.121 38.9632 549.487 38.3965 549.969 37.9652C550.455 37.5289 551.015 37.2129 551.646 37.0173C552.278 36.8167 552.943 36.7164 553.64 36.7164C554.101 36.7164 554.59 36.7716 555.107 36.8819C555.629 36.9872 556.115 37.1828 556.566 37.4687C557.023 37.7545 557.396 38.1633 557.687 38.6949C557.978 39.2215 558.124 39.9061 558.124 40.7486V48.4219H555.927V46.8421H555.837C555.691 47.133 555.473 47.4188 555.182 47.6997C554.891 47.9805 554.518 48.2137 554.061 48.3993C553.605 48.5849 553.058 48.6777 552.421 48.6777ZM552.91 46.8722C553.532 46.8722 554.064 46.7493 554.505 46.5036C554.951 46.2578 555.29 45.9368 555.521 45.5406C555.756 45.1394 555.874 44.7106 555.874 44.2542V42.7647C555.794 42.845 555.639 42.9202 555.408 42.9904C555.182 43.0556 554.924 43.1133 554.633 43.1634C554.342 43.2086 554.059 43.2512 553.783 43.2913C553.507 43.3264 553.276 43.3565 553.091 43.3816C552.655 43.4368 552.256 43.5295 551.895 43.6599C551.539 43.7903 551.253 43.9784 551.037 44.2242C550.826 44.4649 550.721 44.7859 550.721 45.1871C550.721 45.7438 550.927 46.165 551.338 46.4509C551.749 46.7318 552.273 46.8722 552.91 46.8722ZM566.513 36.8669V38.6723H560.202V36.8669H566.513ZM561.894 34.0985H564.144V45.0291C564.144 45.4654 564.209 45.7939 564.339 46.0146C564.47 46.2302 564.638 46.3782 564.843 46.4584C565.054 46.5337 565.282 46.5713 565.528 46.5713C565.708 46.5713 565.866 46.5587 566.002 46.5337C566.137 46.5086 566.243 46.4885 566.318 46.4735L566.724 48.3316C566.594 48.3818 566.408 48.4319 566.167 48.4821C565.927 48.5372 565.626 48.5673 565.265 48.5723C564.673 48.5824 564.121 48.477 563.61 48.2564C563.098 48.0357 562.684 47.6947 562.368 47.2333C562.052 46.7719 561.894 46.1926 561.894 45.4955V34.0985ZM576.321 43.6298V36.8669H578.578V48.4219H576.366V46.4208H576.246C575.98 47.0377 575.554 47.5517 574.967 47.963C574.385 48.3692 573.661 48.5723 572.793 48.5723C572.051 48.5723 571.394 48.4093 570.822 48.0833C570.255 47.7523 569.809 47.2634 569.483 46.6164C569.162 45.9694 569.002 45.1695 569.002 44.2166V36.8669H571.251V43.9458C571.251 44.7332 571.469 45.3601 571.905 45.8265C572.342 46.2929 572.908 46.5261 573.606 46.5261C574.027 46.5261 574.446 46.4208 574.862 46.2102C575.283 45.9995 575.632 45.6811 575.908 45.2548C576.188 44.8285 576.326 44.2868 576.321 43.6298ZM581.6 48.4219V36.8669H583.774V38.7024H583.895C584.105 38.0805 584.477 37.5915 585.008 37.2355C585.545 36.8744 586.152 36.6938 586.829 36.6938C586.969 36.6938 587.135 36.6988 587.325 36.7089C587.521 36.7189 587.674 36.7314 587.784 36.7465V38.898C587.694 38.8729 587.533 38.8453 587.303 38.8153C587.072 38.7801 586.841 38.7626 586.611 38.7626C586.079 38.7626 585.605 38.8754 585.189 39.1011C584.778 39.3218 584.452 39.6302 584.211 40.0264C583.97 40.4176 583.85 40.864 583.85 41.3655V48.4219H581.6ZM594.297 48.6551C593.159 48.6551 592.178 48.4118 591.356 47.9254C590.538 47.4339 589.906 46.7443 589.46 45.8566C589.019 44.9639 588.798 43.9182 588.798 42.7196C588.798 41.536 589.019 40.4928 589.46 39.5901C589.906 38.6874 590.528 37.9827 591.325 37.4762C592.128 36.9697 593.066 36.7164 594.139 36.7164C594.791 36.7164 595.423 36.8242 596.035 37.0399C596.647 37.2555 597.196 37.5941 597.682 38.0555C598.169 38.5169 598.552 39.1162 598.833 39.8534C599.114 40.5856 599.255 41.4758 599.255 42.524V43.3214H590.069V41.6363H597.05C597.05 41.0445 596.93 40.5204 596.689 40.064C596.449 39.6026 596.11 39.239 595.674 38.9732C595.242 38.7074 594.736 38.5745 594.154 38.5745C593.522 38.5745 592.97 38.73 592.499 39.0409C592.033 39.3469 591.672 39.7481 591.416 40.2446C591.165 40.7361 591.04 41.2702 591.04 41.8469V43.1634C591.04 43.9358 591.175 44.5928 591.446 45.1344C591.722 45.6761 592.105 46.0898 592.597 46.3757C593.088 46.6565 593.663 46.7969 594.32 46.7969C594.746 46.7969 595.135 46.7368 595.486 46.6164C595.837 46.491 596.14 46.3055 596.396 46.0597C596.652 45.814 596.847 45.5106 596.983 45.1495L599.112 45.5331C598.941 46.16 598.635 46.7092 598.194 47.1806C597.757 47.647 597.208 48.0106 596.546 48.2714C595.889 48.5272 595.14 48.6551 594.297 48.6551ZM607.618 32.293L602.653 50.7389H600.644L605.609 32.293H607.618ZM611.778 33.0152V48.4219H609.529V33.0152H611.778ZM619.671 48.6551C618.588 48.6551 617.643 48.4068 616.835 47.9103C616.028 47.4138 615.401 46.7192 614.955 45.8265C614.508 44.9338 614.285 43.8906 614.285 42.697C614.285 41.4984 614.508 40.4502 614.955 39.5525C615.401 38.6548 616.028 37.9577 616.835 37.4612C617.643 36.9646 618.588 36.7164 619.671 36.7164C620.755 36.7164 621.7 36.9646 622.508 37.4612C623.315 37.9577 623.942 38.6548 624.388 39.5525C624.835 40.4502 625.058 41.4984 625.058 42.697C625.058 43.8906 624.835 44.9338 624.388 45.8265C623.942 46.7192 623.315 47.4138 622.508 47.9103C621.7 48.4068 620.755 48.6551 619.671 48.6551ZM619.679 46.7669C620.381 46.7669 620.963 46.5813 621.424 46.2102C621.886 45.839 622.227 45.345 622.447 44.7282C622.673 44.1113 622.786 43.4317 622.786 42.6895C622.786 41.9523 622.673 41.2752 622.447 40.6583C622.227 40.0365 621.886 39.5374 621.424 39.1613C620.963 38.7852 620.381 38.5971 619.679 38.5971C618.972 38.5971 618.385 38.7852 617.919 39.1613C617.457 39.5374 617.114 40.0365 616.888 40.6583C616.667 41.2752 616.557 41.9523 616.557 42.6895C616.557 43.4317 616.667 44.1113 616.888 44.7282C617.114 45.345 617.457 45.839 617.919 46.2102C618.385 46.5813 618.972 46.7669 619.679 46.7669ZM632.413 52.9957C631.495 52.9957 630.705 52.8754 630.043 52.6346C629.386 52.3939 628.85 52.0754 628.434 51.6792C628.017 51.283 627.706 50.8492 627.501 50.3778L629.434 49.5804C629.57 49.8011 629.75 50.0343 629.976 50.28C630.206 50.5308 630.517 50.7439 630.909 50.9194C631.305 51.095 631.814 51.1827 632.436 51.1827C633.288 51.1827 633.993 50.9746 634.55 50.5584C635.106 50.1471 635.385 49.4901 635.385 48.5874V46.3155H635.242C635.106 46.5612 634.911 46.8346 634.655 47.1355C634.404 47.4364 634.058 47.6972 633.617 47.9178C633.175 48.1385 632.601 48.2489 631.894 48.2489C630.981 48.2489 630.159 48.0357 629.427 47.6094C628.699 47.1781 628.123 46.5437 627.696 45.7061C627.275 44.8636 627.064 43.828 627.064 42.5992C627.064 41.3705 627.273 40.3173 627.689 39.4396C628.11 38.562 628.687 37.89 629.419 37.4235C630.151 36.9521 630.981 36.7164 631.909 36.7164C632.626 36.7164 633.206 36.8368 633.647 37.0775C634.088 37.3132 634.432 37.589 634.678 37.905C634.928 38.221 635.121 38.4993 635.257 38.74H635.422V36.8669H637.626V48.6777C637.626 49.6707 637.396 50.4856 636.934 51.1226C636.473 51.7595 635.849 52.2309 635.061 52.5368C634.279 52.8428 633.396 52.9957 632.413 52.9957ZM632.391 46.3832C633.038 46.3832 633.584 46.2327 634.031 45.9318C634.482 45.6259 634.823 45.1896 635.054 44.6229C635.289 44.0511 635.407 43.3666 635.407 42.5691C635.407 41.7918 635.292 41.1072 635.061 40.5154C634.83 39.9236 634.492 39.4622 634.046 39.1312C633.599 38.7952 633.048 38.6272 632.391 38.6272C631.714 38.6272 631.149 38.8027 630.698 39.1538C630.247 39.4998 629.906 39.9713 629.675 40.5681C629.449 41.1649 629.336 41.8319 629.336 42.5691C629.336 43.3264 629.452 43.9909 629.682 44.5627C629.913 45.1344 630.254 45.5808 630.705 45.9017C631.162 46.2227 631.724 46.3832 632.391 46.3832ZM640.643 48.4219V36.8669H642.892V48.4219H640.643ZM641.779 35.0839C641.388 35.0839 641.052 34.9536 640.771 34.6928C640.495 34.427 640.357 34.111 640.357 33.7449C640.357 33.3738 640.495 33.0578 640.771 32.797C641.052 32.5312 641.388 32.3983 641.779 32.3983C642.17 32.3983 642.504 32.5312 642.78 32.797C643.06 33.0578 643.201 33.3738 643.201 33.7449C643.201 34.111 643.06 34.427 642.78 34.6928C642.504 34.9536 642.17 35.0839 641.779 35.0839ZM648.168 41.5611V48.4219H645.918V36.8669H648.078V38.7476H648.22C648.486 38.1357 648.903 37.6442 649.469 37.2731C650.041 36.902 650.761 36.7164 651.628 36.7164C652.416 36.7164 653.105 36.8819 653.697 37.2129C654.289 37.5389 654.748 38.0254 655.074 38.6723C655.4 39.3193 655.563 40.1192 655.563 41.0721V48.4219H653.313V41.3429C653.313 40.5054 653.095 39.8509 652.659 39.3795C652.223 38.903 651.623 38.6648 650.861 38.6648C650.339 38.6648 649.875 38.7776 649.469 39.0033C649.068 39.229 648.75 39.56 648.514 39.9963C648.283 40.4276 648.168 40.9492 648.168 41.5611Z" fill="white"/>
<rect x="476.566" y="129.105" width="263.684" height="76.8421" rx="38.4211" fill="#1F2024" fill-opacity="0.05"/>
<rect x="476.566" y="129.105" width="263.684" height="76.8421" rx="38.4211" stroke="white" stroke-width="3.17763" stroke-linecap="round" stroke-linejoin="round"/>
<path d="M534.809 163.972V165.778H528.28V163.972H534.809ZM530.07 175.527V162.633C530.07 161.911 530.228 161.312 530.544 160.835C530.86 160.354 531.279 159.995 531.8 159.76C532.322 159.519 532.889 159.398 533.5 159.398C533.952 159.398 534.338 159.436 534.659 159.511C534.98 159.582 535.218 159.647 535.374 159.707L534.847 161.527C534.742 161.497 534.606 161.462 534.441 161.422C534.275 161.377 534.075 161.354 533.839 161.354C533.292 161.354 532.901 161.49 532.665 161.761C532.435 162.031 532.319 162.423 532.319 162.934V175.527H530.07ZM541.655 175.761C540.517 175.761 539.536 175.517 538.714 175.031C537.896 174.539 537.264 173.85 536.818 172.962C536.377 172.069 536.156 171.024 536.156 169.825C536.156 168.641 536.377 167.598 536.818 166.696C537.264 165.793 537.886 165.088 538.684 164.582C539.486 164.075 540.424 163.822 541.497 163.822C542.149 163.822 542.781 163.93 543.393 164.145C544.005 164.361 544.554 164.7 545.04 165.161C545.527 165.622 545.911 166.222 546.191 166.959C546.472 167.691 546.613 168.581 546.613 169.629V170.427H537.427V168.742H544.409C544.409 168.15 544.288 167.626 544.047 167.17C543.807 166.708 543.468 166.345 543.032 166.079C542.601 165.813 542.094 165.68 541.512 165.68C540.88 165.68 540.329 165.835 539.857 166.146C539.391 166.452 539.03 166.854 538.774 167.35C538.523 167.842 538.398 168.376 538.398 168.952V170.269C538.398 171.041 538.533 171.698 538.804 172.24C539.08 172.782 539.464 173.195 539.955 173.481C540.447 173.762 541.021 173.902 541.678 173.902C542.104 173.902 542.493 173.842 542.844 173.722C543.195 173.596 543.498 173.411 543.754 173.165C544.01 172.919 544.205 172.616 544.341 172.255L546.47 172.639C546.299 173.265 545.993 173.815 545.552 174.286C545.116 174.752 544.567 175.116 543.905 175.377C543.248 175.633 542.498 175.761 541.655 175.761ZM552.471 175.783C551.739 175.783 551.077 175.648 550.485 175.377C549.893 175.101 549.424 174.702 549.078 174.181C548.737 173.659 548.567 173.02 548.567 172.262C548.567 171.61 548.692 171.074 548.943 170.653C549.194 170.231 549.532 169.898 549.958 169.652C550.385 169.406 550.861 169.221 551.388 169.095C551.914 168.97 552.451 168.875 552.998 168.809C553.69 168.729 554.251 168.664 554.683 168.614C555.114 168.559 555.428 168.471 555.623 168.351C555.819 168.23 555.917 168.035 555.917 167.764V167.711C555.917 167.054 555.731 166.545 555.36 166.184C554.994 165.823 554.447 165.642 553.72 165.642C552.963 165.642 552.366 165.81 551.929 166.146C551.498 166.477 551.2 166.846 551.034 167.252L548.92 166.771C549.171 166.069 549.537 165.502 550.019 165.071C550.505 164.634 551.064 164.318 551.696 164.123C552.328 163.922 552.993 163.822 553.69 163.822C554.151 163.822 554.64 163.877 555.157 163.987C555.678 164.093 556.165 164.288 556.616 164.574C557.073 164.86 557.446 165.269 557.737 165.8C558.028 166.327 558.173 167.012 558.173 167.854V175.527H555.977V173.948H555.886C555.741 174.238 555.523 174.524 555.232 174.805C554.941 175.086 554.567 175.319 554.111 175.505C553.655 175.69 553.108 175.783 552.471 175.783ZM552.96 173.978C553.582 173.978 554.114 173.855 554.555 173.609C555.001 173.363 555.34 173.042 555.57 172.646C555.806 172.245 555.924 171.816 555.924 171.36V169.87C555.844 169.95 555.688 170.026 555.458 170.096C555.232 170.161 554.974 170.219 554.683 170.269C554.392 170.314 554.109 170.357 553.833 170.397C553.557 170.432 553.326 170.462 553.141 170.487C552.704 170.542 552.306 170.635 551.945 170.765C551.588 170.896 551.303 171.084 551.087 171.33C550.876 171.57 550.771 171.891 550.771 172.293C550.771 172.849 550.977 173.271 551.388 173.556C551.799 173.837 552.323 173.978 552.96 173.978ZM566.563 163.972V165.778H560.252V163.972H566.563ZM561.944 161.204H564.194V172.135C564.194 172.571 564.259 172.899 564.389 173.12C564.519 173.336 564.688 173.484 564.893 173.564C565.104 173.639 565.332 173.677 565.578 173.677C565.758 173.677 565.916 173.664 566.052 173.639C566.187 173.614 566.292 173.594 566.368 173.579L566.774 175.437C566.643 175.487 566.458 175.537 566.217 175.588C565.976 175.643 565.675 175.673 565.314 175.678C564.723 175.688 564.171 175.583 563.659 175.362C563.148 175.141 562.734 174.8 562.418 174.339C562.102 173.877 561.944 173.298 561.944 172.601V161.204ZM576.371 170.735V163.972H578.628V175.527H576.416V173.526H576.296C576.03 174.143 575.604 174.657 575.017 175.068C574.435 175.475 573.71 175.678 572.843 175.678C572.101 175.678 571.444 175.515 570.872 175.189C570.305 174.858 569.859 174.369 569.533 173.722C569.212 173.075 569.051 172.275 569.051 171.322V163.972H571.301V171.051C571.301 171.839 571.519 172.466 571.955 172.932C572.391 173.398 572.958 173.632 573.655 173.632C574.077 173.632 574.495 173.526 574.912 173.316C575.333 173.105 575.681 172.787 575.957 172.36C576.238 171.934 576.376 171.392 576.371 170.735ZM581.65 175.527V163.972H583.824V165.808H583.945C584.155 165.186 584.526 164.697 585.058 164.341C585.595 163.98 586.201 163.799 586.879 163.799C587.019 163.799 587.184 163.804 587.375 163.814C587.571 163.824 587.724 163.837 587.834 163.852V166.003C587.744 165.978 587.583 165.951 587.352 165.921C587.122 165.886 586.891 165.868 586.66 165.868C586.129 165.868 585.655 165.981 585.239 166.207C584.827 166.427 584.501 166.736 584.261 167.132C584.02 167.523 583.899 167.969 583.899 168.471V175.527H581.65ZM594.347 175.761C593.208 175.761 592.228 175.517 591.405 175.031C590.588 174.539 589.956 173.85 589.51 172.962C589.068 172.069 588.848 171.024 588.848 169.825C588.848 168.641 589.068 167.598 589.51 166.696C589.956 165.793 590.578 165.088 591.375 164.582C592.178 164.075 593.116 163.822 594.189 163.822C594.841 163.822 595.473 163.93 596.085 164.145C596.696 164.361 597.246 164.7 597.732 165.161C598.219 165.622 598.602 166.222 598.883 166.959C599.164 167.691 599.304 168.581 599.304 169.629V170.427H590.119V168.742H597.1C597.1 168.15 596.98 167.626 596.739 167.17C596.498 166.708 596.16 166.345 595.723 166.079C595.292 165.813 594.786 165.68 594.204 165.68C593.572 165.68 593.02 165.835 592.549 166.146C592.082 166.452 591.721 166.854 591.466 167.35C591.215 167.842 591.089 168.376 591.089 168.952V170.269C591.089 171.041 591.225 171.698 591.496 172.24C591.771 172.782 592.155 173.195 592.647 173.481C593.138 173.762 593.712 173.902 594.369 173.902C594.796 173.902 595.184 173.842 595.535 173.722C595.886 173.596 596.19 173.411 596.446 173.165C596.701 172.919 596.897 172.616 597.032 172.255L599.161 172.639C598.991 173.265 598.685 173.815 598.244 174.286C597.807 174.752 597.258 175.116 596.596 175.377C595.939 175.633 595.189 175.761 594.347 175.761ZM607.668 159.398L602.703 177.844H600.694L605.659 159.398H607.668ZM609.579 175.527V163.972H611.738V165.853H611.881C612.121 165.216 612.515 164.72 613.062 164.364C613.608 164.002 614.263 163.822 615.025 163.822C615.797 163.822 616.444 164.002 616.966 164.364C617.493 164.725 617.881 165.221 618.132 165.853H618.252C618.528 165.236 618.967 164.745 619.569 164.379C620.171 164.007 620.888 163.822 621.72 163.822C622.769 163.822 623.624 164.15 624.286 164.807C624.953 165.464 625.286 166.455 625.286 167.779V175.527H623.037V167.989C623.037 167.207 622.824 166.64 622.397 166.289C621.971 165.938 621.462 165.763 620.87 165.763C620.138 165.763 619.569 165.988 619.163 166.44C618.756 166.886 618.553 167.46 618.553 168.163V175.527H616.311V167.847C616.311 167.22 616.116 166.716 615.725 166.334C615.334 165.953 614.824 165.763 614.198 165.763C613.771 165.763 613.378 165.876 613.016 166.101C612.66 166.322 612.372 166.63 612.151 167.027C611.936 167.423 611.828 167.882 611.828 168.403V175.527H609.579ZM629.309 179.86C628.973 179.86 628.667 179.833 628.391 179.778C628.115 179.728 627.91 179.672 627.774 179.612L628.316 177.769C628.727 177.879 629.093 177.927 629.414 177.912C629.735 177.897 630.019 177.777 630.264 177.551C630.515 177.325 630.736 176.957 630.926 176.445L631.205 175.678L626.977 163.972H629.384L632.311 172.939H632.431L635.357 163.972H637.772L633.01 177.07C632.79 177.671 632.509 178.18 632.168 178.597C631.827 179.018 631.42 179.334 630.949 179.545C630.478 179.755 629.931 179.86 629.309 179.86ZM639.886 179.86V163.972H642.083V165.845H642.271C642.401 165.605 642.589 165.326 642.835 165.01C643.081 164.695 643.422 164.419 643.858 164.183C644.294 163.942 644.871 163.822 645.588 163.822C646.521 163.822 647.354 164.058 648.086 164.529C648.818 165 649.392 165.68 649.809 166.568C650.23 167.455 650.441 168.524 650.441 169.772C650.441 171.021 650.232 172.092 649.816 172.985C649.4 173.872 648.828 174.557 648.101 175.038C647.374 175.515 646.544 175.753 645.611 175.753C644.909 175.753 644.335 175.635 643.888 175.399C643.447 175.164 643.101 174.888 642.85 174.572C642.599 174.256 642.406 173.975 642.271 173.729H642.135V179.86H639.886ZM642.09 169.75C642.09 170.562 642.208 171.274 642.444 171.886C642.68 172.498 643.021 172.977 643.467 173.323C643.913 173.664 644.46 173.835 645.107 173.835C645.779 173.835 646.341 173.657 646.792 173.301C647.243 172.939 647.584 172.451 647.815 171.834C648.051 171.217 648.169 170.522 648.169 169.75C648.169 168.988 648.053 168.303 647.823 167.696C647.597 167.089 647.256 166.61 646.8 166.259C646.348 165.908 645.784 165.733 645.107 165.733C644.455 165.733 643.903 165.901 643.452 166.237C643.006 166.573 642.667 167.042 642.436 167.643C642.206 168.245 642.09 168.947 642.09 169.75ZM656.323 175.783C655.591 175.783 654.929 175.648 654.337 175.377C653.746 175.101 653.277 174.702 652.931 174.181C652.59 173.659 652.419 173.02 652.419 172.262C652.419 171.61 652.544 171.074 652.795 170.653C653.046 170.231 653.384 169.898 653.811 169.652C654.237 169.406 654.714 169.221 655.24 169.095C655.767 168.97 656.303 168.875 656.85 168.809C657.542 168.729 658.104 168.664 658.535 168.614C658.966 168.559 659.28 168.471 659.475 168.351C659.671 168.23 659.769 168.035 659.769 167.764V167.711C659.769 167.054 659.583 166.545 659.212 166.184C658.846 165.823 658.299 165.642 657.572 165.642C656.815 165.642 656.218 165.81 655.782 166.146C655.35 166.477 655.052 166.846 654.887 167.252L652.773 166.771C653.023 166.069 653.389 165.502 653.871 165.071C654.357 164.634 654.917 164.318 655.549 164.123C656.18 163.922 656.845 163.822 657.542 163.822C658.003 163.822 658.492 163.877 659.009 163.987C659.531 164.093 660.017 164.288 660.468 164.574C660.925 164.86 661.298 165.269 661.589 165.8C661.88 166.327 662.026 167.012 662.026 167.854V175.527H659.829V173.948H659.739C659.593 174.238 659.375 174.524 659.084 174.805C658.793 175.086 658.42 175.319 657.963 175.505C657.507 175.69 656.96 175.783 656.323 175.783ZM656.812 173.978C657.434 173.978 657.966 173.855 658.407 173.609C658.854 173.363 659.192 173.042 659.423 172.646C659.658 172.245 659.776 171.816 659.776 171.36V169.87C659.696 169.95 659.541 170.026 659.31 170.096C659.084 170.161 658.826 170.219 658.535 170.269C658.244 170.314 657.961 170.357 657.685 170.397C657.409 170.432 657.178 170.462 656.993 170.487C656.557 170.542 656.158 170.635 655.797 170.765C655.441 170.896 655.155 171.084 654.939 171.33C654.729 171.57 654.623 171.891 654.623 172.293C654.623 172.849 654.829 173.271 655.24 173.556C655.651 173.837 656.175 173.978 656.812 173.978ZM669.866 180.101C668.949 180.101 668.159 179.981 667.497 179.74C666.84 179.499 666.303 179.181 665.887 178.785C665.47 178.389 665.16 177.955 664.954 177.483L666.887 176.686C667.023 176.907 667.203 177.14 667.429 177.385C667.66 177.636 667.971 177.849 668.362 178.025C668.758 178.2 669.267 178.288 669.889 178.288C670.741 178.288 671.446 178.08 672.003 177.664C672.559 177.253 672.838 176.596 672.838 175.693V173.421H672.695C672.559 173.667 672.364 173.94 672.108 174.241C671.857 174.542 671.511 174.803 671.07 175.023C670.629 175.244 670.054 175.354 669.347 175.354C668.434 175.354 667.612 175.141 666.88 174.715C666.153 174.284 665.576 173.649 665.15 172.812C664.728 171.969 664.518 170.933 664.518 169.705C664.518 168.476 664.726 167.423 665.142 166.545C665.563 165.667 666.14 164.995 666.872 164.529C667.604 164.058 668.434 163.822 669.362 163.822C670.079 163.822 670.659 163.942 671.1 164.183C671.541 164.419 671.885 164.695 672.131 165.01C672.381 165.326 672.575 165.605 672.71 165.845H672.875V163.972H675.08V175.783C675.08 176.776 674.849 177.591 674.388 178.228C673.926 178.865 673.302 179.336 672.514 179.642C671.732 179.948 670.849 180.101 669.866 180.101ZM669.844 173.489C670.491 173.489 671.037 173.338 671.484 173.037C671.935 172.731 672.276 172.295 672.507 171.728C672.743 171.157 672.86 170.472 672.86 169.675C672.86 168.897 672.745 168.213 672.514 167.621C672.284 167.029 671.945 166.568 671.499 166.237C671.052 165.901 670.501 165.733 669.844 165.733C669.167 165.733 668.602 165.908 668.151 166.259C667.7 166.605 667.359 167.077 667.128 167.674C666.902 168.27 666.789 168.937 666.789 169.675C666.789 170.432 666.905 171.096 667.136 171.668C667.366 172.24 667.707 172.686 668.159 173.007C668.615 173.328 669.177 173.489 669.844 173.489ZM683.076 175.761C681.938 175.761 680.957 175.517 680.135 175.031C679.317 174.539 678.686 173.85 678.239 172.962C677.798 172.069 677.577 171.024 677.577 169.825C677.577 168.641 677.798 167.598 678.239 166.696C678.686 165.793 679.307 165.088 680.105 164.582C680.907 164.075 681.845 163.822 682.918 163.822C683.57 163.822 684.202 163.93 684.814 164.145C685.426 164.361 685.975 164.7 686.462 165.161C686.948 165.622 687.332 166.222 687.613 166.959C687.893 167.691 688.034 168.581 688.034 169.629V170.427H678.849V168.742H685.83C685.83 168.15 685.709 167.626 685.469 167.17C685.228 166.708 684.889 166.345 684.453 166.079C684.022 165.813 683.515 165.68 682.933 165.68C682.301 165.68 681.75 165.835 681.278 166.146C680.812 166.452 680.451 166.854 680.195 167.35C679.944 167.842 679.819 168.376 679.819 168.952V170.269C679.819 171.041 679.954 171.698 680.225 172.24C680.501 172.782 680.885 173.195 681.376 173.481C681.868 173.762 682.442 173.902 683.099 173.902C683.525 173.902 683.914 173.842 684.265 173.722C684.616 173.596 684.919 173.411 685.175 173.165C685.431 172.919 685.627 172.616 685.762 172.255L687.891 172.639C687.72 173.265 687.414 173.815 686.973 174.286C686.537 174.752 685.988 175.116 685.326 175.377C684.669 175.633 683.919 175.761 683.076 175.761Z" fill="white"/>
<rect x="476.566" y="247.736" width="152.684" height="76.8421" rx="38.4211" fill="#1F2024" fill-opacity="0.05"/>
<rect x="476.566" y="247.736" width="152.684" height="76.8421" rx="38.4211" stroke="white" stroke-width="3.17763" stroke-linecap="round" stroke-linejoin="round"/>
<path d="M534.711 282.603V284.409H528.181V282.603H534.711ZM529.972 294.158V281.264C529.972 280.542 530.13 279.943 530.446 279.466C530.762 278.985 531.18 278.626 531.702 278.39C532.224 278.15 532.79 278.029 533.402 278.029C533.854 278.029 534.24 278.067 534.561 278.142C534.882 278.212 535.12 278.278 535.275 278.338L534.749 280.158C534.643 280.128 534.508 280.093 534.343 280.053C534.177 280.008 533.976 279.985 533.741 279.985C533.194 279.985 532.803 280.121 532.567 280.391C532.336 280.662 532.221 281.053 532.221 281.565V294.158H529.972ZM537.032 294.158V282.603H539.281V294.158H537.032ZM538.168 280.82C537.777 280.82 537.441 280.69 537.16 280.429C536.884 280.163 536.746 279.847 536.746 279.481C536.746 279.11 536.884 278.794 537.16 278.533C537.441 278.268 537.777 278.135 538.168 278.135C538.559 278.135 538.893 278.268 539.168 278.533C539.449 278.794 539.59 279.11 539.59 279.481C539.59 279.847 539.449 280.163 539.168 280.429C538.893 280.69 538.559 280.82 538.168 280.82ZM544.083 282.603L546.633 287.102L549.206 282.603H551.666L548.062 288.381L551.696 294.158H549.236L546.633 289.84L544.038 294.158H541.57L545.166 288.381L541.615 282.603H544.083ZM559.843 278.029L554.878 296.475H552.869L557.834 278.029H559.843ZM569.073 289.366V282.603H571.33V294.158H569.119V292.157H568.998C568.732 292.774 568.306 293.288 567.719 293.699C567.138 294.106 566.413 294.309 565.545 294.309C564.803 294.309 564.146 294.146 563.574 293.82C563.008 293.489 562.561 293 562.235 292.353C561.914 291.706 561.754 290.906 561.754 289.953V282.603H564.003V289.682C564.003 290.47 564.221 291.096 564.658 291.563C565.094 292.029 565.661 292.262 566.358 292.262C566.779 292.262 567.198 292.157 567.614 291.946C568.035 291.736 568.384 291.417 568.66 290.991C568.94 290.565 569.078 290.023 569.073 289.366ZM574.353 294.158V282.603H576.602V294.158H574.353ZM575.488 280.82C575.097 280.82 574.761 280.69 574.48 280.429C574.205 280.163 574.067 279.847 574.067 279.481C574.067 279.11 574.205 278.794 574.48 278.533C574.761 278.268 575.097 278.135 575.488 278.135C575.88 278.135 576.213 278.268 576.489 278.533C576.77 278.794 576.91 279.11 576.91 279.481C576.91 279.847 576.77 280.163 576.489 280.429C576.213 280.69 575.88 280.82 575.488 280.82Z" fill="white"/>
<g clip-path="url(#clip1_330_4326)">
<rect width="162.684" height="33.8947" transform="translate(2 110.039)" fill="#1F2024" fill-opacity="0.1"/>
<circle cx="23.1842" cy="126.987" r="4.23684" fill="white"/>
<circle cx="38.0132" cy="126.987" r="4.23684" fill="white"/>
<circle cx="52.8421" cy="126.987" r="4.23684" fill="white"/>
<path d="M2 143.934H164.684" stroke="white" stroke-width="3.17763" stroke-linecap="round"/>
<rect width="162.684" height="81.8421" transform="translate(2 143.934)" fill="#1F2024" fill-opacity="0.05"/>
<path d="M54.5753 175.867H59.396L64.4874 188.289H64.704L69.7955 175.867H74.6161V194.355H70.8246V182.322H70.6711L65.8866 194.265H63.3048L58.5203 182.277H58.3668V194.355H54.5753V175.867ZM81.7184 194.617C80.8337 194.617 80.0453 194.464 79.3532 194.157C78.6611 193.844 78.1134 193.384 77.7102 192.776C77.313 192.162 77.1144 191.398 77.1144 190.483C77.1144 189.712 77.2558 189.065 77.5387 188.542C77.8216 188.018 78.2067 187.597 78.6942 187.278C79.1817 186.959 79.7354 186.718 80.3552 186.556C80.9811 186.393 81.6371 186.279 82.3232 186.213C83.1296 186.129 83.7796 186.05 84.2731 185.978C84.7666 185.9 85.1247 185.785 85.3474 185.635C85.57 185.485 85.6814 185.262 85.6814 184.967V184.913C85.6814 184.341 85.5008 183.899 85.1397 183.586C84.7847 183.273 84.2791 183.116 83.6231 183.116C82.931 183.116 82.3804 183.27 81.9711 183.577C81.5619 183.878 81.2911 184.257 81.1587 184.714L77.6019 184.425C77.7824 183.583 78.1375 182.855 78.6671 182.241C79.1967 181.621 79.8798 181.145 80.7163 180.814C81.5589 180.477 82.5338 180.309 83.6412 180.309C84.4115 180.309 85.1488 180.399 85.8529 180.58C86.5631 180.76 87.192 181.04 87.7396 181.419C88.2933 181.798 88.7296 182.286 89.0486 182.882C89.3676 183.471 89.527 184.179 89.527 185.003V194.355H85.88V192.433H85.7717C85.549 192.866 85.2511 193.248 84.8779 193.579C84.5048 193.904 84.0565 194.16 83.5329 194.346C83.0093 194.527 82.4044 194.617 81.7184 194.617ZM82.8197 191.963C83.3854 191.963 83.8849 191.852 84.3182 191.629C84.7516 191.401 85.0916 191.094 85.3383 190.708C85.5851 190.323 85.7085 189.887 85.7085 189.399V187.928C85.5881 188.006 85.4226 188.078 85.212 188.145C85.0073 188.205 84.7756 188.262 84.5169 188.316C84.2581 188.364 83.9993 188.409 83.7405 188.452C83.4817 188.488 83.247 188.521 83.0364 188.551C82.585 188.617 82.1908 188.722 81.8538 188.867C81.5168 189.011 81.255 189.207 81.0684 189.454C80.8818 189.694 80.7885 189.995 80.7885 190.356C80.7885 190.88 80.9781 191.28 81.3573 191.557C81.7424 191.828 82.2299 191.963 82.8197 191.963ZM92.5106 194.355V180.489H96.3562V194.355H92.5106ZM94.4424 178.702C93.8707 178.702 93.3802 178.512 92.971 178.133C92.5678 177.748 92.3661 177.288 92.3661 176.752C92.3661 176.223 92.5678 175.768 92.971 175.389C93.3802 175.004 93.8707 174.811 94.4424 174.811C95.0142 174.811 95.5016 175.004 95.9049 175.389C96.3141 175.768 96.5187 176.223 96.5187 176.752C96.5187 177.288 96.3141 177.748 95.9049 178.133C95.5016 178.512 95.0142 178.702 94.4424 178.702ZM103.282 186.339V194.355H99.4368V180.489H103.102V182.936H103.264C103.571 182.129 104.086 181.491 104.808 181.022C105.53 180.547 106.406 180.309 107.435 180.309C108.398 180.309 109.238 180.52 109.954 180.941C110.67 181.362 111.227 181.964 111.624 182.746C112.021 183.523 112.22 184.449 112.22 185.527V194.355H108.374V186.213C108.38 185.364 108.163 184.702 107.724 184.227C107.285 183.745 106.68 183.505 105.909 183.505C105.392 183.505 104.934 183.616 104.537 183.839C104.146 184.061 103.839 184.386 103.616 184.814C103.4 185.235 103.288 185.743 103.282 186.339Z" fill="white"/>
</g>
<rect x="2" y="110.039" width="162.684" height="115.737" rx="16.9474" stroke="white" stroke-width="3.17763"/>
<path d="M229 167L165 167" stroke="white" stroke-width="3.17763" stroke-linecap="round"/>
<path d="M165.474 172.531C162.549 172.531 160.178 170.16 160.178 167.235C160.178 164.31 162.549 161.939 165.474 161.939C168.399 161.939 170.77 164.31 170.77 167.235C170.77 170.16 168.399 172.531 165.474 172.531Z" fill="white" stroke="white" stroke-width="6.35526"/>
<path d="M228.87 165.949L218.211 159.323C216.934 158.529 215.287 159.284 215.033 160.654C214.989 160.894 215.042 161.14 215.126 161.37L217.326 167.474L215.126 173.577C215.042 173.808 214.989 174.053 215.034 174.294C215.284 175.645 216.891 176.402 218.168 175.65L228.827 169.373C230.144 168.598 230.167 166.755 228.87 165.949Z" fill="white"/>
<defs>
<clipPath id="clip0_330_4326">
<rect x="229" y="110.039" width="147.684" height="115.737" rx="16.9474" fill="white"/>
</clipPath>
<clipPath id="clip1_330_4326">
<rect x="2" y="110.039" width="162.684" height="115.737" rx="16.9474" fill="white"/>
</clipPath>
</defs>
</svg>
