<svg width="710" height="327" viewBox="0 0 710 327" fill="none" xmlns="http://www.w3.org/2000/svg">
<g clip-path="url(#clip0_323_4324)">
<rect width="147.684" height="33.8947" transform="translate(197 110.039)" fill="#1F2024" fill-opacity="0.1"/>
<circle cx="218.184" cy="126.987" r="4.23684" fill="white"/>
<circle cx="233.013" cy="126.987" r="4.23684" fill="white"/>
<circle cx="247.842" cy="126.987" r="4.23684" fill="white"/>
<path d="M197 143.934H344.684" stroke="white" stroke-width="3.17763" stroke-linecap="round"/>
<rect width="147.684" height="81.8421" transform="translate(197 143.934)" fill="#1F2024" fill-opacity="0.05"/>
<path d="M254.548 194.581C253.495 194.581 252.541 194.31 251.686 193.769C250.837 193.221 250.163 192.418 249.664 191.358C249.17 190.293 248.924 188.987 248.924 187.441C248.924 185.852 249.179 184.531 249.691 183.477C250.203 182.418 250.883 181.627 251.731 181.103C252.586 180.574 253.522 180.309 254.539 180.309C255.315 180.309 255.962 180.441 256.48 180.706C257.003 180.965 257.424 181.29 257.743 181.681C258.068 182.066 258.315 182.445 258.484 182.818H258.601V175.867H262.438V194.355H258.646V192.135H258.484C258.303 192.52 258.047 192.902 257.716 193.281C257.391 193.654 256.967 193.964 256.443 194.211C255.926 194.458 255.294 194.581 254.548 194.581ZM255.766 191.521C256.386 191.521 256.91 191.352 257.337 191.015C257.77 190.672 258.101 190.194 258.33 189.58C258.565 188.966 258.682 188.247 258.682 187.422C258.682 186.598 258.568 185.882 258.339 185.274C258.111 184.666 257.78 184.197 257.346 183.866C256.913 183.535 256.386 183.369 255.766 183.369C255.134 183.369 254.602 183.541 254.169 183.884C253.735 184.227 253.407 184.702 253.185 185.31C252.962 185.918 252.851 186.622 252.851 187.422C252.851 188.229 252.962 188.942 253.185 189.562C253.413 190.176 253.741 190.657 254.169 191.006C254.602 191.349 255.134 191.521 255.766 191.521ZM271.919 194.626C270.492 194.626 269.265 194.337 268.235 193.76C267.212 193.176 266.424 192.351 265.87 191.286C265.317 190.215 265.04 188.948 265.04 187.486C265.04 186.059 265.317 184.808 265.87 183.73C266.424 182.653 267.203 181.813 268.208 181.212C269.219 180.61 270.405 180.309 271.765 180.309C272.68 180.309 273.532 180.456 274.32 180.751C275.114 181.04 275.806 181.476 276.396 182.06C276.992 182.644 277.455 183.378 277.786 184.263C278.117 185.142 278.283 186.171 278.283 187.35V188.406H266.574V186.023H274.663C274.663 185.47 274.543 184.979 274.302 184.552C274.061 184.124 273.727 183.79 273.3 183.55C272.879 183.303 272.388 183.18 271.828 183.18C271.245 183.18 270.727 183.315 270.276 183.586C269.83 183.851 269.481 184.209 269.228 184.66C268.976 185.105 268.846 185.602 268.84 186.15V188.415C268.84 189.102 268.967 189.694 269.219 190.194C269.478 190.693 269.842 191.079 270.312 191.349C270.781 191.62 271.338 191.756 271.982 191.756C272.409 191.756 272.8 191.695 273.155 191.575C273.51 191.455 273.814 191.274 274.067 191.033C274.32 190.793 274.512 190.498 274.645 190.149L278.202 190.383C278.021 191.238 277.651 191.984 277.091 192.622C276.538 193.254 275.821 193.748 274.943 194.103C274.07 194.452 273.062 194.626 271.919 194.626ZM293.347 180.489L288.5 194.355H284.166L279.319 180.489H283.381L286.261 190.411H286.405L289.276 180.489H293.347Z" fill="white"/>
</g>
<rect x="197" y="110.039" width="147.684" height="115.737" rx="16.9474" stroke="white" stroke-width="3.17763"/>
<path d="M442.003 40.1309H410.671C391.952 40.1309 376.776 55.3061 376.776 74.0256V260.447C376.776 279.166 391.951 294.341 410.671 294.341H442.003" stroke="white" stroke-width="3.17763" stroke-linecap="round"/>
<path d="M376.776 167.236L349.2 167.236" stroke="white" stroke-width="3.17763" stroke-linecap="round"/>
<path d="M443.607 38.6054L432.948 31.9794C431.671 31.1856 430.024 31.9398 429.77 33.3099C429.726 33.5507 429.779 33.7962 429.862 34.0267L432.063 40.13L429.862 46.2333C429.779 46.4638 429.726 46.7093 429.77 46.9501C430.021 48.3008 431.628 49.0587 432.905 48.3066L443.564 42.0293C444.881 41.2541 444.904 39.4114 443.607 38.6054Z" fill="white"/>
<path d="M443.607 292.816L432.948 286.19C431.671 285.397 430.024 286.151 429.77 287.521C429.726 287.762 429.779 288.007 429.862 288.238L432.063 294.341L429.862 300.444C429.779 300.675 429.726 300.92 429.77 301.161C430.021 302.512 431.628 303.27 432.905 302.517L443.564 296.24C444.881 295.465 444.904 293.622 443.607 292.816Z" fill="white"/>
<path d="M345 172.531C342.075 172.531 339.704 170.16 339.704 167.235C339.704 164.31 342.075 161.939 345 161.939C347.925 161.939 350.296 164.31 350.296 167.235C350.296 170.16 347.925 172.531 345 172.531Z" fill="white" stroke="white" stroke-width="6.35526"/>
<rect x="444.566" y="2" width="231.684" height="76.8421" rx="38.4211" fill="#1F2024" fill-opacity="0.05"/>
<rect x="444.566" y="2" width="231.684" height="76.8421" rx="38.4211" stroke="white" stroke-width="3.17763" stroke-linecap="round" stroke-linejoin="round"/>
<path d="M502.76 36.8669V38.6723H496.23V36.8669H502.76ZM498.02 48.4219V35.5278C498.02 34.8056 498.178 34.2063 498.494 33.7298C498.81 33.2484 499.229 32.8898 499.751 32.6541C500.272 32.4134 500.839 32.293 501.451 32.293C501.902 32.293 502.288 32.3306 502.609 32.4058C502.93 32.476 503.168 32.5412 503.324 32.6014L502.797 34.4219C502.692 34.3918 502.557 34.3567 502.391 34.3166C502.226 34.2715 502.025 34.2489 501.789 34.2489C501.243 34.2489 500.851 34.3843 500.616 34.6551C500.385 34.926 500.27 35.3172 500.27 35.8287V48.4219H498.02ZM509.605 48.6551C508.467 48.6551 507.486 48.4118 506.664 47.9254C505.847 47.4339 505.215 46.7443 504.768 45.8566C504.327 44.9639 504.106 43.9182 504.106 42.7196C504.106 41.536 504.327 40.4928 504.768 39.5901C505.215 38.6874 505.836 37.9827 506.634 37.4762C507.436 36.9697 508.374 36.7164 509.447 36.7164C510.099 36.7164 510.731 36.8242 511.343 37.0399C511.955 37.2555 512.504 37.5941 512.991 38.0555C513.477 38.5169 513.861 39.1162 514.142 39.8534C514.423 40.5856 514.563 41.4758 514.563 42.524V43.3214H505.378V41.6363H512.359C512.359 41.0445 512.238 40.5204 511.998 40.064C511.757 39.6026 511.418 39.239 510.982 38.9732C510.551 38.7074 510.044 38.5745 509.462 38.5745C508.831 38.5745 508.279 38.73 507.807 39.0409C507.341 39.3469 506.98 39.7481 506.724 40.2446C506.473 40.7361 506.348 41.2702 506.348 41.8469V43.1634C506.348 43.9358 506.483 44.5928 506.754 45.1344C507.03 45.6761 507.414 46.0898 507.905 46.3757C508.397 46.6565 508.971 46.7969 509.628 46.7969C510.054 46.7969 510.443 46.7368 510.794 46.6164C511.145 46.491 511.449 46.3055 511.704 46.0597C511.96 45.814 512.156 45.5106 512.291 45.1495L514.42 45.5331C514.249 46.16 513.944 46.7092 513.502 47.1806C513.066 47.647 512.517 48.0106 511.855 48.2714C511.198 48.5272 510.448 48.6551 509.605 48.6551ZM520.421 48.6777C519.689 48.6777 519.027 48.5422 518.435 48.2714C517.844 47.9956 517.375 47.5969 517.029 47.0753C516.688 46.5537 516.517 45.9143 516.517 45.157C516.517 44.505 516.642 43.9684 516.893 43.5471C517.144 43.1258 517.482 42.7923 517.909 42.5466C518.335 42.3008 518.811 42.1153 519.338 41.9899C519.865 41.8645 520.401 41.7692 520.948 41.704C521.64 41.6238 522.202 41.5586 522.633 41.5084C523.064 41.4533 523.378 41.3655 523.573 41.2451C523.769 41.1248 523.867 40.9292 523.867 40.6583V40.6057C523.867 39.9487 523.681 39.4396 523.31 39.0786C522.944 38.7175 522.397 38.5369 521.67 38.5369C520.913 38.5369 520.316 38.7049 519.88 39.0409C519.448 39.3719 519.15 39.7406 518.984 40.1468L516.871 39.6653C517.121 38.9632 517.487 38.3965 517.969 37.9652C518.455 37.5289 519.015 37.2129 519.646 37.0173C520.278 36.8167 520.943 36.7164 521.64 36.7164C522.101 36.7164 522.59 36.7716 523.107 36.8819C523.629 36.9872 524.115 37.1828 524.566 37.4687C525.023 37.7545 525.396 38.1633 525.687 38.6949C525.978 39.2215 526.124 39.9061 526.124 40.7486V48.4219H523.927V46.8421H523.837C523.691 47.133 523.473 47.4188 523.182 47.6997C522.891 47.9805 522.518 48.2137 522.061 48.3993C521.605 48.5849 521.058 48.6777 520.421 48.6777ZM520.91 46.8722C521.532 46.8722 522.064 46.7493 522.505 46.5036C522.951 46.2578 523.29 45.9368 523.521 45.5406C523.756 45.1394 523.874 44.7106 523.874 44.2542V42.7647C523.794 42.845 523.639 42.9202 523.408 42.9904C523.182 43.0556 522.924 43.1133 522.633 43.1634C522.342 43.2086 522.059 43.2512 521.783 43.2913C521.507 43.3264 521.276 43.3565 521.091 43.3816C520.655 43.4368 520.256 43.5295 519.895 43.6599C519.539 43.7903 519.253 43.9784 519.037 44.2242C518.826 44.4649 518.721 44.7859 518.721 45.1871C518.721 45.7438 518.927 46.165 519.338 46.4509C519.749 46.7318 520.273 46.8722 520.91 46.8722ZM534.513 36.8669V38.6723H528.202V36.8669H534.513ZM529.894 34.0985H532.144V45.0291C532.144 45.4654 532.209 45.7939 532.339 46.0146C532.47 46.2302 532.638 46.3782 532.843 46.4584C533.054 46.5337 533.282 46.5713 533.528 46.5713C533.708 46.5713 533.866 46.5587 534.002 46.5337C534.137 46.5086 534.243 46.4885 534.318 46.4735L534.724 48.3316C534.594 48.3818 534.408 48.4319 534.167 48.4821C533.927 48.5372 533.626 48.5673 533.265 48.5723C532.673 48.5824 532.121 48.477 531.61 48.2564C531.098 48.0357 530.684 47.6947 530.368 47.2333C530.052 46.7719 529.894 46.1926 529.894 45.4955V34.0985ZM544.321 43.6298V36.8669H546.578V48.4219H544.366V46.4208H544.246C543.98 47.0377 543.554 47.5517 542.967 47.963C542.385 48.3692 541.661 48.5723 540.793 48.5723C540.051 48.5723 539.394 48.4093 538.822 48.0833C538.255 47.7523 537.809 47.2634 537.483 46.6164C537.162 45.9694 537.002 45.1695 537.002 44.2166V36.8669H539.251V43.9458C539.251 44.7332 539.469 45.3601 539.905 45.8265C540.342 46.2929 540.908 46.5261 541.606 46.5261C542.027 46.5261 542.446 46.4208 542.862 46.2102C543.283 45.9995 543.632 45.6811 543.908 45.2548C544.188 44.8285 544.326 44.2868 544.321 43.6298ZM549.6 48.4219V36.8669H551.774V38.7024H551.895C552.105 38.0805 552.477 37.5915 553.008 37.2355C553.545 36.8744 554.152 36.6938 554.829 36.6938C554.969 36.6938 555.135 36.6988 555.325 36.7089C555.521 36.7189 555.674 36.7314 555.784 36.7465V38.898C555.694 38.8729 555.533 38.8453 555.303 38.8153C555.072 38.7801 554.841 38.7626 554.611 38.7626C554.079 38.7626 553.605 38.8754 553.189 39.1011C552.778 39.3218 552.452 39.6302 552.211 40.0264C551.97 40.4176 551.85 40.864 551.85 41.3655V48.4219H549.6ZM562.297 48.6551C561.159 48.6551 560.178 48.4118 559.356 47.9254C558.538 47.4339 557.906 46.7443 557.46 45.8566C557.019 44.9639 556.798 43.9182 556.798 42.7196C556.798 41.536 557.019 40.4928 557.46 39.5901C557.906 38.6874 558.528 37.9827 559.325 37.4762C560.128 36.9697 561.066 36.7164 562.139 36.7164C562.791 36.7164 563.423 36.8242 564.035 37.0399C564.647 37.2555 565.196 37.5941 565.682 38.0555C566.169 38.5169 566.552 39.1162 566.833 39.8534C567.114 40.5856 567.255 41.4758 567.255 42.524V43.3214H558.069V41.6363H565.05C565.05 41.0445 564.93 40.5204 564.689 40.064C564.449 39.6026 564.11 39.239 563.674 38.9732C563.242 38.7074 562.736 38.5745 562.154 38.5745C561.522 38.5745 560.97 38.73 560.499 39.0409C560.033 39.3469 559.672 39.7481 559.416 40.2446C559.165 40.7361 559.04 41.2702 559.04 41.8469V43.1634C559.04 43.9358 559.175 44.5928 559.446 45.1344C559.722 45.6761 560.105 46.0898 560.597 46.3757C561.088 46.6565 561.663 46.7969 562.32 46.7969C562.746 46.7969 563.135 46.7368 563.486 46.6164C563.837 46.491 564.14 46.3055 564.396 46.0597C564.652 45.814 564.847 45.5106 564.983 45.1495L567.112 45.5331C566.941 46.16 566.635 46.7092 566.194 47.1806C565.757 47.647 565.208 48.0106 564.546 48.2714C563.889 48.5272 563.14 48.6551 562.297 48.6551ZM575.618 32.293L570.653 50.7389H568.644L573.609 32.293H575.618ZM579.778 33.0152V48.4219H577.529V33.0152H579.778ZM587.671 48.6551C586.588 48.6551 585.643 48.4068 584.835 47.9103C584.028 47.4138 583.401 46.7192 582.955 45.8265C582.508 44.9338 582.285 43.8906 582.285 42.697C582.285 41.4984 582.508 40.4502 582.955 39.5525C583.401 38.6548 584.028 37.9577 584.835 37.4612C585.643 36.9646 586.588 36.7164 587.671 36.7164C588.755 36.7164 589.7 36.9646 590.508 37.4612C591.315 37.9577 591.942 38.6548 592.388 39.5525C592.835 40.4502 593.058 41.4984 593.058 42.697C593.058 43.8906 592.835 44.9338 592.388 45.8265C591.942 46.7192 591.315 47.4138 590.508 47.9103C589.7 48.4068 588.755 48.6551 587.671 48.6551ZM587.679 46.7669C588.381 46.7669 588.963 46.5813 589.424 46.2102C589.886 45.839 590.227 45.345 590.447 44.7282C590.673 44.1113 590.786 43.4317 590.786 42.6895C590.786 41.9523 590.673 41.2752 590.447 40.6583C590.227 40.0365 589.886 39.5374 589.424 39.1613C588.963 38.7852 588.381 38.5971 587.679 38.5971C586.972 38.5971 586.385 38.7852 585.919 39.1613C585.457 39.5374 585.114 40.0365 584.888 40.6583C584.667 41.2752 584.557 41.9523 584.557 42.6895C584.557 43.4317 584.667 44.1113 584.888 44.7282C585.114 45.345 585.457 45.839 585.919 46.2102C586.385 46.5813 586.972 46.7669 587.679 46.7669ZM600.413 52.9957C599.495 52.9957 598.705 52.8754 598.043 52.6346C597.386 52.3939 596.85 52.0754 596.434 51.6792C596.017 51.283 595.706 50.8492 595.501 50.3778L597.434 49.5804C597.57 49.8011 597.75 50.0343 597.976 50.28C598.206 50.5308 598.517 50.7439 598.909 50.9194C599.305 51.095 599.814 51.1827 600.436 51.1827C601.288 51.1827 601.993 50.9746 602.55 50.5584C603.106 50.1471 603.385 49.4901 603.385 48.5874V46.3155H603.242C603.106 46.5612 602.911 46.8346 602.655 47.1355C602.404 47.4364 602.058 47.6972 601.617 47.9178C601.175 48.1385 600.601 48.2489 599.894 48.2489C598.981 48.2489 598.159 48.0357 597.427 47.6094C596.699 47.1781 596.123 46.5437 595.696 45.7061C595.275 44.8636 595.064 43.828 595.064 42.5992C595.064 41.3705 595.273 40.3173 595.689 39.4396C596.11 38.562 596.687 37.89 597.419 37.4235C598.151 36.9521 598.981 36.7164 599.909 36.7164C600.626 36.7164 601.206 36.8368 601.647 37.0775C602.088 37.3132 602.432 37.589 602.678 37.905C602.928 38.221 603.121 38.4993 603.257 38.74H603.422V36.8669H605.626V48.6777C605.626 49.6707 605.396 50.4856 604.934 51.1226C604.473 51.7595 603.849 52.2309 603.061 52.5368C602.279 52.8428 601.396 52.9957 600.413 52.9957ZM600.391 46.3832C601.038 46.3832 601.584 46.2327 602.031 45.9318C602.482 45.6259 602.823 45.1896 603.054 44.6229C603.289 44.0511 603.407 43.3666 603.407 42.5691C603.407 41.7918 603.292 41.1072 603.061 40.5154C602.83 39.9236 602.492 39.4622 602.046 39.1312C601.599 38.7952 601.048 38.6272 600.391 38.6272C599.714 38.6272 599.149 38.8027 598.698 39.1538C598.247 39.4998 597.906 39.9713 597.675 40.5681C597.449 41.1649 597.336 41.8319 597.336 42.5691C597.336 43.3264 597.452 43.9909 597.682 44.5627C597.913 45.1344 598.254 45.5808 598.705 45.9017C599.162 46.2227 599.724 46.3832 600.391 46.3832ZM608.643 48.4219V36.8669H610.892V48.4219H608.643ZM609.779 35.0839C609.388 35.0839 609.052 34.9536 608.771 34.6928C608.495 34.427 608.357 34.111 608.357 33.7449C608.357 33.3738 608.495 33.0578 608.771 32.797C609.052 32.5312 609.388 32.3983 609.779 32.3983C610.17 32.3983 610.504 32.5312 610.78 32.797C611.06 33.0578 611.201 33.3738 611.201 33.7449C611.201 34.111 611.06 34.427 610.78 34.6928C610.504 34.9536 610.17 35.0839 609.779 35.0839ZM616.168 41.5611V48.4219H613.918V36.8669H616.078V38.7476H616.22C616.486 38.1357 616.903 37.6442 617.469 37.2731C618.041 36.902 618.761 36.7164 619.628 36.7164C620.416 36.7164 621.105 36.8819 621.697 37.2129C622.289 37.5389 622.748 38.0254 623.074 38.6723C623.4 39.3193 623.563 40.1192 623.563 41.0721V48.4219H621.313V41.3429C621.313 40.5054 621.095 39.8509 620.659 39.3795C620.223 38.903 619.623 38.6648 618.861 38.6648C618.339 38.6648 617.875 38.7776 617.469 39.0033C617.068 39.229 616.75 39.56 616.514 39.9963C616.283 40.4276 616.168 40.9492 616.168 41.5611Z" fill="white"/>
<rect x="444.566" y="129.105" width="263.684" height="76.8421" rx="38.4211" fill="#1F2024" fill-opacity="0.05"/>
<rect x="444.566" y="129.105" width="263.684" height="76.8421" rx="38.4211" stroke="white" stroke-width="3.17763" stroke-linecap="round" stroke-linejoin="round"/>
<path d="M502.809 163.972V165.778H496.28V163.972H502.809ZM498.07 175.527V162.633C498.07 161.911 498.228 161.312 498.544 160.835C498.86 160.354 499.279 159.995 499.8 159.76C500.322 159.519 500.889 159.398 501.5 159.398C501.952 159.398 502.338 159.436 502.659 159.511C502.98 159.582 503.218 159.647 503.374 159.707L502.847 161.527C502.742 161.497 502.606 161.462 502.441 161.422C502.275 161.377 502.075 161.354 501.839 161.354C501.292 161.354 500.901 161.49 500.665 161.761C500.435 162.031 500.319 162.423 500.319 162.934V175.527H498.07ZM509.655 175.761C508.517 175.761 507.536 175.517 506.714 175.031C505.896 174.539 505.264 173.85 504.818 172.962C504.377 172.069 504.156 171.024 504.156 169.825C504.156 168.641 504.377 167.598 504.818 166.696C505.264 165.793 505.886 165.088 506.684 164.582C507.486 164.075 508.424 163.822 509.497 163.822C510.149 163.822 510.781 163.93 511.393 164.145C512.005 164.361 512.554 164.7 513.04 165.161C513.527 165.622 513.911 166.222 514.191 166.959C514.472 167.691 514.613 168.581 514.613 169.629V170.427H505.427V168.742H512.409C512.409 168.15 512.288 167.626 512.047 167.17C511.807 166.708 511.468 166.345 511.032 166.079C510.601 165.813 510.094 165.68 509.512 165.68C508.88 165.68 508.329 165.835 507.857 166.146C507.391 166.452 507.03 166.854 506.774 167.35C506.523 167.842 506.398 168.376 506.398 168.952V170.269C506.398 171.041 506.533 171.698 506.804 172.24C507.08 172.782 507.464 173.195 507.955 173.481C508.447 173.762 509.021 173.902 509.678 173.902C510.104 173.902 510.493 173.842 510.844 173.722C511.195 173.596 511.498 173.411 511.754 173.165C512.01 172.919 512.205 172.616 512.341 172.255L514.47 172.639C514.299 173.265 513.993 173.815 513.552 174.286C513.116 174.752 512.567 175.116 511.905 175.377C511.248 175.633 510.498 175.761 509.655 175.761ZM520.471 175.783C519.739 175.783 519.077 175.648 518.485 175.377C517.893 175.101 517.424 174.702 517.078 174.181C516.737 173.659 516.567 173.02 516.567 172.262C516.567 171.61 516.692 171.074 516.943 170.653C517.194 170.231 517.532 169.898 517.958 169.652C518.385 169.406 518.861 169.221 519.388 169.095C519.914 168.97 520.451 168.875 520.998 168.809C521.69 168.729 522.251 168.664 522.683 168.614C523.114 168.559 523.428 168.471 523.623 168.351C523.819 168.23 523.917 168.035 523.917 167.764V167.711C523.917 167.054 523.731 166.545 523.36 166.184C522.994 165.823 522.447 165.642 521.72 165.642C520.963 165.642 520.366 165.81 519.929 166.146C519.498 166.477 519.2 166.846 519.034 167.252L516.92 166.771C517.171 166.069 517.537 165.502 518.019 165.071C518.505 164.634 519.064 164.318 519.696 164.123C520.328 163.922 520.993 163.822 521.69 163.822C522.151 163.822 522.64 163.877 523.157 163.987C523.678 164.093 524.165 164.288 524.616 164.574C525.073 164.86 525.446 165.269 525.737 165.8C526.028 166.327 526.173 167.012 526.173 167.854V175.527H523.977V173.948H523.886C523.741 174.238 523.523 174.524 523.232 174.805C522.941 175.086 522.567 175.319 522.111 175.505C521.655 175.69 521.108 175.783 520.471 175.783ZM520.96 173.978C521.582 173.978 522.114 173.855 522.555 173.609C523.001 173.363 523.34 173.042 523.57 172.646C523.806 172.245 523.924 171.816 523.924 171.36V169.87C523.844 169.95 523.688 170.026 523.458 170.096C523.232 170.161 522.974 170.219 522.683 170.269C522.392 170.314 522.109 170.357 521.833 170.397C521.557 170.432 521.326 170.462 521.141 170.487C520.704 170.542 520.306 170.635 519.945 170.765C519.588 170.896 519.303 171.084 519.087 171.33C518.876 171.57 518.771 171.891 518.771 172.293C518.771 172.849 518.977 173.271 519.388 173.556C519.799 173.837 520.323 173.978 520.96 173.978ZM534.563 163.972V165.778H528.252V163.972H534.563ZM529.944 161.204H532.194V172.135C532.194 172.571 532.259 172.899 532.389 173.12C532.519 173.336 532.688 173.484 532.893 173.564C533.104 173.639 533.332 173.677 533.578 173.677C533.758 173.677 533.916 173.664 534.052 173.639C534.187 173.614 534.292 173.594 534.368 173.579L534.774 175.437C534.643 175.487 534.458 175.537 534.217 175.588C533.976 175.643 533.675 175.673 533.314 175.678C532.723 175.688 532.171 175.583 531.659 175.362C531.148 175.141 530.734 174.8 530.418 174.339C530.102 173.877 529.944 173.298 529.944 172.601V161.204ZM544.371 170.735V163.972H546.628V175.527H544.416V173.526H544.296C544.03 174.143 543.604 174.657 543.017 175.068C542.435 175.475 541.71 175.678 540.843 175.678C540.101 175.678 539.444 175.515 538.872 175.189C538.305 174.858 537.859 174.369 537.533 173.722C537.212 173.075 537.051 172.275 537.051 171.322V163.972H539.301V171.051C539.301 171.839 539.519 172.466 539.955 172.932C540.391 173.398 540.958 173.632 541.655 173.632C542.077 173.632 542.495 173.526 542.912 173.316C543.333 173.105 543.681 172.787 543.957 172.36C544.238 171.934 544.376 171.392 544.371 170.735ZM549.65 175.527V163.972H551.824V165.808H551.945C552.155 165.186 552.526 164.697 553.058 164.341C553.595 163.98 554.201 163.799 554.879 163.799C555.019 163.799 555.184 163.804 555.375 163.814C555.571 163.824 555.724 163.837 555.834 163.852V166.003C555.744 165.978 555.583 165.951 555.352 165.921C555.122 165.886 554.891 165.868 554.66 165.868C554.129 165.868 553.655 165.981 553.239 166.207C552.827 166.427 552.501 166.736 552.261 167.132C552.02 167.523 551.899 167.969 551.899 168.471V175.527H549.65ZM562.347 175.761C561.208 175.761 560.228 175.517 559.405 175.031C558.588 174.539 557.956 173.85 557.51 172.962C557.068 172.069 556.848 171.024 556.848 169.825C556.848 168.641 557.068 167.598 557.51 166.696C557.956 165.793 558.578 165.088 559.375 164.582C560.178 164.075 561.116 163.822 562.189 163.822C562.841 163.822 563.473 163.93 564.085 164.145C564.696 164.361 565.246 164.7 565.732 165.161C566.219 165.622 566.602 166.222 566.883 166.959C567.164 167.691 567.304 168.581 567.304 169.629V170.427H558.119V168.742H565.1C565.1 168.15 564.98 167.626 564.739 167.17C564.498 166.708 564.16 166.345 563.723 166.079C563.292 165.813 562.786 165.68 562.204 165.68C561.572 165.68 561.02 165.835 560.549 166.146C560.082 166.452 559.721 166.854 559.466 167.35C559.215 167.842 559.089 168.376 559.089 168.952V170.269C559.089 171.041 559.225 171.698 559.496 172.24C559.771 172.782 560.155 173.195 560.647 173.481C561.138 173.762 561.712 173.902 562.369 173.902C562.796 173.902 563.184 173.842 563.535 173.722C563.886 173.596 564.19 173.411 564.446 173.165C564.701 172.919 564.897 172.616 565.032 172.255L567.161 172.639C566.991 173.265 566.685 173.815 566.244 174.286C565.807 174.752 565.258 175.116 564.596 175.377C563.939 175.633 563.189 175.761 562.347 175.761ZM575.668 159.398L570.703 177.844H568.694L573.659 159.398H575.668ZM577.579 175.527V163.972H579.738V165.853H579.881C580.121 165.216 580.515 164.72 581.062 164.364C581.608 164.002 582.263 163.822 583.025 163.822C583.797 163.822 584.444 164.002 584.966 164.364C585.493 164.725 585.881 165.221 586.132 165.853H586.252C586.528 165.236 586.967 164.745 587.569 164.379C588.171 164.007 588.888 163.822 589.72 163.822C590.769 163.822 591.624 164.15 592.286 164.807C592.953 165.464 593.286 166.455 593.286 167.779V175.527H591.037V167.989C591.037 167.207 590.824 166.64 590.397 166.289C589.971 165.938 589.462 165.763 588.87 165.763C588.138 165.763 587.569 165.988 587.163 166.44C586.756 166.886 586.553 167.46 586.553 168.163V175.527H584.311V167.847C584.311 167.22 584.116 166.716 583.725 166.334C583.334 165.953 582.824 165.763 582.198 165.763C581.771 165.763 581.378 165.876 581.016 166.101C580.66 166.322 580.372 166.63 580.151 167.027C579.936 167.423 579.828 167.882 579.828 168.403V175.527H577.579ZM597.309 179.86C596.973 179.86 596.667 179.833 596.391 179.778C596.115 179.728 595.91 179.672 595.774 179.612L596.316 177.769C596.727 177.879 597.093 177.927 597.414 177.912C597.735 177.897 598.019 177.777 598.264 177.551C598.515 177.325 598.736 176.957 598.926 176.445L599.205 175.678L594.977 163.972H597.384L600.311 172.939H600.431L603.357 163.972H605.772L601.01 177.07C600.79 177.671 600.509 178.18 600.168 178.597C599.827 179.018 599.42 179.334 598.949 179.545C598.478 179.755 597.931 179.86 597.309 179.86ZM607.886 179.86V163.972H610.083V165.845H610.271C610.401 165.605 610.589 165.326 610.835 165.01C611.081 164.695 611.422 164.419 611.858 164.183C612.294 163.942 612.871 163.822 613.588 163.822C614.521 163.822 615.354 164.058 616.086 164.529C616.818 165 617.392 165.68 617.809 166.568C618.23 167.455 618.441 168.524 618.441 169.772C618.441 171.021 618.232 172.092 617.816 172.985C617.4 173.872 616.828 174.557 616.101 175.038C615.374 175.515 614.544 175.753 613.611 175.753C612.909 175.753 612.335 175.635 611.888 175.399C611.447 175.164 611.101 174.888 610.85 174.572C610.599 174.256 610.406 173.975 610.271 173.729H610.135V179.86H607.886ZM610.09 169.75C610.09 170.562 610.208 171.274 610.444 171.886C610.68 172.498 611.021 172.977 611.467 173.323C611.913 173.664 612.46 173.835 613.107 173.835C613.779 173.835 614.341 173.657 614.792 173.301C615.243 172.939 615.584 172.451 615.815 171.834C616.051 171.217 616.169 170.522 616.169 169.75C616.169 168.988 616.053 168.303 615.823 167.696C615.597 167.089 615.256 166.61 614.8 166.259C614.348 165.908 613.784 165.733 613.107 165.733C612.455 165.733 611.903 165.901 611.452 166.237C611.006 166.573 610.667 167.042 610.436 167.643C610.206 168.245 610.09 168.947 610.09 169.75ZM624.323 175.783C623.591 175.783 622.929 175.648 622.337 175.377C621.746 175.101 621.277 174.702 620.931 174.181C620.59 173.659 620.419 173.02 620.419 172.262C620.419 171.61 620.544 171.074 620.795 170.653C621.046 170.231 621.384 169.898 621.811 169.652C622.237 169.406 622.714 169.221 623.24 169.095C623.767 168.97 624.303 168.875 624.85 168.809C625.542 168.729 626.104 168.664 626.535 168.614C626.966 168.559 627.28 168.471 627.475 168.351C627.671 168.23 627.769 168.035 627.769 167.764V167.711C627.769 167.054 627.583 166.545 627.212 166.184C626.846 165.823 626.299 165.642 625.572 165.642C624.815 165.642 624.218 165.81 623.782 166.146C623.35 166.477 623.052 166.846 622.887 167.252L620.773 166.771C621.023 166.069 621.389 165.502 621.871 165.071C622.357 164.634 622.917 164.318 623.549 164.123C624.18 163.922 624.845 163.822 625.542 163.822C626.003 163.822 626.492 163.877 627.009 163.987C627.531 164.093 628.017 164.288 628.468 164.574C628.925 164.86 629.298 165.269 629.589 165.8C629.88 166.327 630.026 167.012 630.026 167.854V175.527H627.829V173.948H627.739C627.593 174.238 627.375 174.524 627.084 174.805C626.793 175.086 626.42 175.319 625.963 175.505C625.507 175.69 624.96 175.783 624.323 175.783ZM624.812 173.978C625.434 173.978 625.966 173.855 626.407 173.609C626.854 173.363 627.192 173.042 627.423 172.646C627.658 172.245 627.776 171.816 627.776 171.36V169.87C627.696 169.95 627.541 170.026 627.31 170.096C627.084 170.161 626.826 170.219 626.535 170.269C626.244 170.314 625.961 170.357 625.685 170.397C625.409 170.432 625.178 170.462 624.993 170.487C624.557 170.542 624.158 170.635 623.797 170.765C623.441 170.896 623.155 171.084 622.939 171.33C622.729 171.57 622.623 171.891 622.623 172.293C622.623 172.849 622.829 173.271 623.24 173.556C623.651 173.837 624.175 173.978 624.812 173.978ZM637.866 180.101C636.949 180.101 636.159 179.981 635.497 179.74C634.84 179.499 634.303 179.181 633.887 178.785C633.47 178.389 633.16 177.955 632.954 177.483L634.887 176.686C635.023 176.907 635.203 177.14 635.429 177.385C635.66 177.636 635.971 177.849 636.362 178.025C636.758 178.2 637.267 178.288 637.889 178.288C638.741 178.288 639.446 178.08 640.003 177.664C640.559 177.253 640.838 176.596 640.838 175.693V173.421H640.695C640.559 173.667 640.364 173.94 640.108 174.241C639.857 174.542 639.511 174.803 639.07 175.023C638.629 175.244 638.054 175.354 637.347 175.354C636.434 175.354 635.612 175.141 634.88 174.715C634.153 174.284 633.576 173.649 633.15 172.812C632.728 171.969 632.518 170.933 632.518 169.705C632.518 168.476 632.726 167.423 633.142 166.545C633.563 165.667 634.14 164.995 634.872 164.529C635.604 164.058 636.434 163.822 637.362 163.822C638.079 163.822 638.659 163.942 639.1 164.183C639.541 164.419 639.885 164.695 640.131 165.01C640.381 165.326 640.575 165.605 640.71 165.845H640.875V163.972H643.08V175.783C643.08 176.776 642.849 177.591 642.388 178.228C641.926 178.865 641.302 179.336 640.514 179.642C639.732 179.948 638.849 180.101 637.866 180.101ZM637.844 173.489C638.491 173.489 639.037 173.338 639.484 173.037C639.935 172.731 640.276 172.295 640.507 171.728C640.743 171.157 640.86 170.472 640.86 169.675C640.86 168.897 640.745 168.213 640.514 167.621C640.284 167.029 639.945 166.568 639.499 166.237C639.052 165.901 638.501 165.733 637.844 165.733C637.167 165.733 636.602 165.908 636.151 166.259C635.7 166.605 635.359 167.077 635.128 167.674C634.902 168.27 634.789 168.937 634.789 169.675C634.789 170.432 634.905 171.096 635.136 171.668C635.366 172.24 635.707 172.686 636.159 173.007C636.615 173.328 637.177 173.489 637.844 173.489ZM651.076 175.761C649.938 175.761 648.957 175.517 648.135 175.031C647.317 174.539 646.686 173.85 646.239 172.962C645.798 172.069 645.577 171.024 645.577 169.825C645.577 168.641 645.798 167.598 646.239 166.696C646.686 165.793 647.307 165.088 648.105 164.582C648.907 164.075 649.845 163.822 650.918 163.822C651.57 163.822 652.202 163.93 652.814 164.145C653.426 164.361 653.975 164.7 654.462 165.161C654.948 165.622 655.332 166.222 655.613 166.959C655.893 167.691 656.034 168.581 656.034 169.629V170.427H646.849V168.742H653.83C653.83 168.15 653.709 167.626 653.469 167.17C653.228 166.708 652.889 166.345 652.453 166.079C652.022 165.813 651.515 165.68 650.933 165.68C650.301 165.68 649.75 165.835 649.278 166.146C648.812 166.452 648.451 166.854 648.195 167.35C647.944 167.842 647.819 168.376 647.819 168.952V170.269C647.819 171.041 647.954 171.698 648.225 172.24C648.501 172.782 648.885 173.195 649.376 173.481C649.868 173.762 650.442 173.902 651.099 173.902C651.525 173.902 651.914 173.842 652.265 173.722C652.616 173.596 652.919 173.411 653.175 173.165C653.431 172.919 653.627 172.616 653.762 172.255L655.891 172.639C655.72 173.265 655.414 173.815 654.973 174.286C654.537 174.752 653.988 175.116 653.326 175.377C652.669 175.633 651.919 175.761 651.076 175.761Z" fill="white"/>
<rect x="444.566" y="247.736" width="152.684" height="76.8421" rx="38.4211" fill="#1F2024" fill-opacity="0.05"/>
<rect x="444.566" y="247.736" width="152.684" height="76.8421" rx="38.4211" stroke="white" stroke-width="3.17763" stroke-linecap="round" stroke-linejoin="round"/>
<path d="M502.711 282.603V284.409H496.181V282.603H502.711ZM497.972 294.158V281.264C497.972 280.542 498.13 279.943 498.446 279.466C498.762 278.985 499.18 278.626 499.702 278.39C500.224 278.15 500.79 278.029 501.402 278.029C501.854 278.029 502.24 278.067 502.561 278.142C502.882 278.212 503.12 278.278 503.275 278.338L502.749 280.158C502.643 280.128 502.508 280.093 502.343 280.053C502.177 280.008 501.976 279.985 501.741 279.985C501.194 279.985 500.803 280.121 500.567 280.391C500.336 280.662 500.221 281.053 500.221 281.565V294.158H497.972ZM505.032 294.158V282.603H507.281V294.158H505.032ZM506.168 280.82C505.777 280.82 505.441 280.69 505.16 280.429C504.884 280.163 504.746 279.847 504.746 279.481C504.746 279.11 504.884 278.794 505.16 278.533C505.441 278.268 505.777 278.135 506.168 278.135C506.559 278.135 506.893 278.268 507.168 278.533C507.449 278.794 507.59 279.11 507.59 279.481C507.59 279.847 507.449 280.163 507.168 280.429C506.893 280.69 506.559 280.82 506.168 280.82ZM512.083 282.603L514.633 287.102L517.206 282.603H519.666L516.062 288.381L519.696 294.158H517.236L514.633 289.84L512.038 294.158H509.57L513.166 288.381L509.615 282.603H512.083ZM527.843 278.029L522.878 296.475H520.869L525.834 278.029H527.843ZM537.073 289.366V282.603H539.33V294.158H537.119V292.157H536.998C536.732 292.774 536.306 293.288 535.719 293.699C535.138 294.106 534.413 294.309 533.545 294.309C532.803 294.309 532.146 294.146 531.574 293.82C531.008 293.489 530.561 293 530.235 292.353C529.914 291.706 529.754 290.906 529.754 289.953V282.603H532.003V289.682C532.003 290.47 532.221 291.096 532.658 291.563C533.094 292.029 533.661 292.262 534.358 292.262C534.779 292.262 535.198 292.157 535.614 291.946C536.035 291.736 536.384 291.417 536.66 290.991C536.94 290.565 537.078 290.023 537.073 289.366ZM542.353 294.158V282.603H544.602V294.158H542.353ZM543.488 280.82C543.097 280.82 542.761 280.69 542.48 280.429C542.205 280.163 542.067 279.847 542.067 279.481C542.067 279.11 542.205 278.794 542.48 278.533C542.761 278.268 543.097 278.135 543.488 278.135C543.88 278.135 544.213 278.268 544.489 278.533C544.77 278.794 544.91 279.11 544.91 279.481C544.91 279.847 544.77 280.163 544.489 280.429C544.213 280.69 543.88 280.82 543.488 280.82Z" fill="white"/>
<g clip-path="url(#clip1_323_4324)">
<rect width="162.684" height="33.8947" transform="translate(2 110.039)" fill="#1F2024" fill-opacity="0.1"/>
<circle cx="23.1842" cy="126.987" r="4.23684" fill="white"/>
<circle cx="38.0131" cy="126.987" r="4.23684" fill="white"/>
<circle cx="52.8421" cy="126.987" r="4.23684" fill="white"/>
<path d="M2 143.934H164.684" stroke="white" stroke-width="3.17763" stroke-linecap="round"/>
<rect width="162.684" height="81.8421" transform="translate(2 143.934)" fill="#1F2024" fill-opacity="0.05"/>
<path d="M54.5753 175.867H59.3959L64.4873 188.289H64.704L69.7954 175.867H74.616V194.355H70.8245V182.322H70.6711L65.8866 194.265H63.3047L58.5202 182.277H58.3668V194.355H54.5753V175.867ZM81.7183 194.617C80.8336 194.617 80.0452 194.464 79.3531 194.157C78.661 193.844 78.1134 193.384 77.7102 192.776C77.313 192.162 77.1144 191.398 77.1144 190.483C77.1144 189.712 77.2558 189.065 77.5386 188.542C77.8215 188.018 78.2067 187.597 78.6941 187.278C79.1816 186.959 79.7353 186.718 80.3552 186.556C80.9811 186.393 81.6371 186.279 82.3231 186.213C83.1296 186.129 83.7796 186.05 84.2731 185.978C84.7665 185.9 85.1246 185.785 85.3473 185.635C85.57 185.485 85.6813 185.262 85.6813 184.967V184.913C85.6813 184.341 85.5008 183.899 85.1397 183.586C84.7846 183.273 84.2791 183.116 83.6231 183.116C82.931 183.116 82.3803 183.27 81.9711 183.577C81.5618 183.878 81.291 184.257 81.1586 184.714L77.6018 184.425C77.7824 183.583 78.1375 182.855 78.6671 182.241C79.1967 181.621 79.8797 181.145 80.7163 180.814C81.5588 180.477 82.5338 180.309 83.6411 180.309C84.4115 180.309 85.1487 180.399 85.8528 180.58C86.563 180.76 87.1919 181.04 87.7396 181.419C88.2932 181.798 88.7296 182.286 89.0485 182.882C89.3675 183.471 89.527 184.179 89.527 185.003V194.355H85.8799V192.433H85.7716C85.5489 192.866 85.251 193.248 84.8779 193.579C84.5048 193.904 84.0564 194.16 83.5328 194.346C83.0092 194.527 82.4044 194.617 81.7183 194.617ZM82.8196 191.963C83.3854 191.963 83.8849 191.852 84.3182 191.629C84.7515 191.401 85.0915 191.094 85.3383 190.708C85.585 190.323 85.7084 189.887 85.7084 189.399V187.928C85.588 188.006 85.4225 188.078 85.2119 188.145C85.0073 188.205 84.7756 188.262 84.5168 188.316C84.258 188.364 83.9992 188.409 83.7404 188.452C83.4817 188.488 83.2469 188.521 83.0363 188.551C82.5849 188.617 82.1907 188.722 81.8537 188.867C81.5167 189.011 81.2549 189.207 81.0683 189.454C80.8818 189.694 80.7885 189.995 80.7885 190.356C80.7885 190.88 80.9781 191.28 81.3572 191.557C81.7424 191.828 82.2299 191.963 82.8196 191.963ZM92.5105 194.355V180.489H96.3562V194.355H92.5105ZM94.4424 178.702C93.8706 178.702 93.3802 178.512 92.9709 178.133C92.5677 177.748 92.3661 177.288 92.3661 176.752C92.3661 176.223 92.5677 175.768 92.9709 175.389C93.3802 175.004 93.8706 174.811 94.4424 174.811C95.0141 174.811 95.5016 175.004 95.9048 175.389C96.314 175.768 96.5187 176.223 96.5187 176.752C96.5187 177.288 96.314 177.748 95.9048 178.133C95.5016 178.512 95.0141 178.702 94.4424 178.702ZM103.282 186.339V194.355H99.4368V180.489H103.102V182.936H103.264C103.571 182.129 104.086 181.491 104.808 181.022C105.53 180.547 106.406 180.309 107.435 180.309C108.398 180.309 109.237 180.52 109.954 180.941C110.67 181.362 111.226 181.964 111.624 182.746C112.021 183.523 112.22 184.449 112.22 185.527V194.355H108.374V186.213C108.38 185.364 108.163 184.702 107.724 184.227C107.285 183.745 106.68 183.505 105.909 183.505C105.392 183.505 104.934 183.616 104.537 183.839C104.146 184.061 103.839 184.386 103.616 184.814C103.4 185.235 103.288 185.743 103.282 186.339Z" fill="white"/>
</g>
<rect x="2" y="110.039" width="162.684" height="115.737" rx="16.9474" stroke="white" stroke-width="3.17763"/>
<path d="M196.776 167.236L169.2 167.236" stroke="white" stroke-width="3.17763" stroke-linecap="round"/>
<path d="M165 172.531C162.075 172.531 159.704 170.16 159.704 167.235C159.704 164.31 162.075 161.939 165 161.939C167.925 161.939 170.296 164.31 170.296 167.235C170.296 170.16 167.925 172.531 165 172.531Z" fill="white" stroke="white" stroke-width="6.35526"/>
<path d="M356 167L445.348 167" stroke="white" stroke-width="3.17763" stroke-linecap="round"/>
<defs>
<clipPath id="clip0_323_4324">
<rect x="197" y="110.039" width="147.684" height="115.737" rx="16.9474" fill="white"/>
</clipPath>
<clipPath id="clip1_323_4324">
<rect x="2" y="110.039" width="162.684" height="115.737" rx="16.9474" fill="white"/>
</clipPath>
</defs>
</svg>
