<svg width="492" height="187" viewBox="0 0 492 187" fill="none" xmlns="http://www.w3.org/2000/svg">
<g filter="url(#filter0_d_259_1619)">
<path d="M124.53 96.6434C125.322 95.7855 126.678 95.7855 127.47 96.6434L137.03 107.001H472C476.418 107.001 480 110.583 480 115.001V167.001C480 171.419 476.418 175.001 472 175.001H12C7.58173 175.001 4.00001 171.419 4 167.001V115.001C4 110.583 7.58172 107.001 12 107.001H114.97L124.53 96.6434Z" fill="#2A2C3D"/>
<circle cx="46" cy="141" r="11" fill="#DEDEDE"/>
<rect x="45" y="134" width="2" height="10" fill="#3E415B"/>
<circle cx="46" cy="147" r="1" fill="#3E415B"/>
<path d="M86.8223 132.082V135.637H89.2832V137.434H86.8223V140.949H84.6543V132.082H86.8223ZM86.8223 141.711V146.34H77.4473V147.805H87.3691V149.523H75.2988V144.758H84.6543V143.391H75.2793V141.711H86.8223ZM77.7793 132.668C80.4746 132.668 82.4473 134.289 82.4668 136.633C82.4473 138.938 80.4746 140.578 77.7793 140.578C75.084 140.578 73.0723 138.938 73.0918 136.633C73.0723 134.289 75.084 132.668 77.7793 132.668ZM77.7793 134.426C76.2949 134.426 75.2012 135.285 75.2207 136.633C75.2012 137.961 76.2949 138.859 77.7793 138.859C79.2637 138.859 80.3574 137.961 80.3574 136.633C80.3574 135.285 79.2637 134.426 77.7793 134.426ZM104.01 132.082V138.801H106.725V140.637H104.01V149.738H101.842V132.082H104.01ZM92.9551 133.527V137.941H97.1152V133.527H99.2832V145.598H90.8066V133.527H92.9551ZM92.9551 143.82H97.1152V139.641H92.9551V143.82ZM123.561 140.754V142.473H107.467V140.754H114.4V139.133H109.01V137.375H111.334V134.348H108.912V132.609H122.076V134.348H119.654V137.375H121.979V139.133H116.568V140.754H123.561ZM121.607 143.859V149.523H109.361V143.859H121.607ZM111.51 145.559V147.766H119.498V145.559H111.51ZM113.502 137.375H117.467V134.348H113.502V137.375ZM144.283 132.102V145.539H142.115V142.062H139.498V140.324H142.115V138.352H139.498V136.594H142.115V132.102H144.283ZM139.4 134.055V135.793H129.537V134.055H133.482V132.082H135.65V134.055H139.4ZM134.537 136.516C136.939 136.516 138.658 137.922 138.678 139.953C138.658 141.984 136.939 143.391 134.537 143.391C132.154 143.391 130.436 141.984 130.455 139.953C130.436 137.922 132.154 136.516 134.537 136.516ZM134.537 138.215C133.326 138.234 132.467 138.879 132.486 139.953C132.467 141.066 133.326 141.711 134.537 141.711C135.748 141.711 136.627 141.066 136.627 139.953C136.627 138.879 135.748 138.234 134.537 138.215ZM144.674 147.629V149.387H132.643V144.387H134.85V147.629H144.674ZM162.096 132.082V149.738H160.025V140.793H158.209V148.879H156.158V132.395H158.209V138.996H160.025V132.082H162.096ZM152.271 136.594C152.271 139.738 153.326 142.629 155.943 143.977L154.674 145.637C152.994 144.738 151.891 143.186 151.275 141.262C150.67 143.459 149.566 145.227 147.818 146.262L146.49 144.602C149.107 143.117 150.162 140.031 150.162 136.594V135.754H147.018V134.016H155.162V135.754H152.271V136.594ZM175.514 135.676C175.514 137.863 177.018 140.012 179.83 140.891L178.717 142.59C176.715 141.936 175.26 140.617 174.459 138.938C173.658 140.764 172.164 142.219 170.064 142.941L168.951 141.223C171.783 140.285 173.307 138 173.326 135.676V135.168H169.518V133.43H179.225V135.168H175.514V135.676ZM183.521 132.102V144.914H181.334V132.102H183.521ZM184.01 147.629V149.387H171.842V143.742H174.029V147.629H184.01ZM201.197 132.082V143.176H199.127V138.371H197.408V142.59H195.377V132.434H197.408V136.613H199.127V132.082H201.197ZM194.791 133.996V135.695H186.002V133.996H189.342V132.238H191.49V133.996H194.791ZM190.416 136.418C192.662 136.418 194.244 137.629 194.264 139.465C194.244 141.301 192.662 142.512 190.416 142.512C188.209 142.512 186.607 141.301 186.627 139.465C186.607 137.629 188.209 136.418 190.416 136.418ZM190.416 137.98C189.322 137.98 188.561 138.547 188.561 139.465C188.561 140.383 189.303 140.949 190.416 140.949C191.529 140.949 192.291 140.383 192.291 139.465C192.291 138.547 191.529 137.98 190.416 137.98ZM195.24 143.391C199.01 143.391 201.275 144.543 201.295 146.574C201.275 148.566 199.01 149.719 195.24 149.719C191.471 149.719 189.186 148.566 189.186 146.574C189.186 144.543 191.471 143.391 195.24 143.391ZM195.24 145.051C192.721 145.031 191.354 145.539 191.354 146.574C191.354 147.551 192.721 148.059 195.24 148.059C197.74 148.059 199.107 147.551 199.107 146.574C199.107 145.539 197.74 145.031 195.24 145.051ZM209.635 134.895C209.635 137.121 211.08 139.211 213.795 140.07L212.623 141.77C210.719 141.125 209.352 139.836 208.6 138.195C207.818 140.07 206.393 141.545 204.361 142.258L203.189 140.559C206.041 139.562 207.447 137.219 207.467 134.699V133.02H209.635V134.895ZM217.311 132.082V136.379H219.771V138.176H217.311V142.648H215.143V132.082H217.311ZM211.568 143.039C215.221 143.02 217.467 144.27 217.486 146.359C217.467 148.488 215.221 149.719 211.568 149.719C207.877 149.719 205.592 148.488 205.592 146.359C205.592 144.27 207.877 143.02 211.568 143.039ZM211.568 144.738C209.146 144.738 207.76 145.324 207.76 146.359C207.76 147.453 209.146 148 211.568 148C213.99 148 215.338 147.453 215.338 146.359C215.338 145.324 213.99 144.738 211.568 144.738ZM228.424 133.996V135.734H223.385V138.625H228.111V140.324H223.385V143.762C225.562 143.742 227.076 143.664 228.873 143.391L229.049 145.168C226.998 145.52 225.26 145.578 222.506 145.578H221.314V133.996H228.424ZM235.904 132.082V149.738H233.814V140.773H231.998V148.879H229.947V132.395H231.998V139.016H233.814V132.082H235.904ZM254.068 140.09V141.73H237.936V140.09H254.068ZM252.115 142.785V146.809H241.998V148.039H252.643V149.543H239.83V145.402H249.967V144.309H239.811V142.785H252.115ZM252.076 132.473V136.457H242.135V137.609H252.389V139.094H239.986V135.051H249.908V133.977H239.928V132.473H252.076ZM274.771 132.102V145.129H272.604V140.695H269.049V142.258H260.787V133.254H262.955V136.105H266.9V133.254H269.049V135.148H272.604V132.102H274.771ZM275.162 147.629V149.387H263.131V143.84H265.338V147.629H275.162ZM262.955 140.539H266.9V137.785H262.955V140.539ZM269.049 138.938H272.604V136.906H269.049V138.938ZM292.057 132.102V142.414H289.889V140.461H285.689V138.703H289.889V136.809H285.865C284.742 139.621 282.174 141.584 278.326 142.648L277.447 140.93C281.578 139.807 283.775 137.717 284.127 135.09H278.385V133.332H286.49C286.49 133.947 286.441 134.533 286.334 135.09H289.889V132.102H292.057ZM286.217 142.609C289.791 142.609 292.174 143.957 292.174 146.125C292.174 148.293 289.791 149.641 286.217 149.641C282.604 149.641 280.221 148.293 280.221 146.125C280.221 143.957 282.604 142.609 286.217 142.609ZM286.217 144.309C283.834 144.309 282.389 144.953 282.389 146.125C282.389 147.277 283.834 147.922 286.217 147.922C288.541 147.922 290.006 147.277 290.006 146.125C290.006 144.953 288.541 144.309 286.217 144.309ZM308.482 132.043V136.027H310.963V137.785H308.482V141.672H306.314V132.043H308.482ZM308.482 142.453V146.711H299.107V147.961H309.029V149.582H296.959V145.207H306.314V144.035H296.939V142.453H308.482ZM305.045 133.508V135.168H294.576V133.508H298.736V131.945H300.904V133.508H305.045ZM299.811 135.715C302.428 135.734 304.107 136.848 304.127 138.605C304.107 140.422 302.428 141.496 299.811 141.496C297.193 141.496 295.475 140.422 295.475 138.605C295.475 136.848 297.193 135.734 299.811 135.715ZM299.811 137.277C298.443 137.277 297.584 137.766 297.584 138.605C297.584 139.465 298.443 139.934 299.811 139.934C301.178 139.934 302.057 139.465 302.057 138.605C302.057 137.766 301.178 137.277 299.811 137.277ZM325.787 133.547C325.787 135.773 328.268 138.02 332.037 138.508L331.178 140.266C328.18 139.816 325.797 138.342 324.654 136.34C323.492 138.342 321.119 139.816 318.15 140.266L317.291 138.508C321.021 138.02 323.502 135.773 323.502 133.547V132.648H325.787V133.547ZM332.682 141.789V143.586H325.67V149.738H323.521V143.586H316.588V141.789H332.682ZM344.889 143.566C344.889 145.031 345.562 146.574 347.076 147.531C348.609 146.506 349.322 144.904 349.342 143.566V142.844H351.471V143.566C351.451 145.422 352.545 147.141 354.869 147.883L353.814 149.465C352.096 148.889 350.953 147.766 350.338 146.359C349.771 147.746 348.727 148.986 347.135 149.621C345.455 149.016 344.4 147.824 343.854 146.418C343.219 147.775 342.096 148.879 340.455 149.465L339.381 147.883C341.666 147.082 342.76 145.285 342.779 143.566V142.844H344.889V143.566ZM353.326 132.102V142.102H351.139V132.102H353.326ZM343.697 133.039C346.412 133.039 348.443 134.758 348.443 137.238C348.443 139.699 346.412 141.418 343.697 141.418C340.963 141.418 338.932 139.699 338.932 137.238C338.932 134.758 340.963 133.039 343.697 133.039ZM343.697 134.875C342.154 134.875 341.041 135.793 341.061 137.238C341.041 138.684 342.154 139.621 343.697 139.621C345.221 139.621 346.314 138.684 346.314 137.238C346.314 135.793 345.221 134.875 343.697 134.875ZM360.729 133.371C363.121 133.371 364.889 135.363 365.201 138.586H368.561V132.082H370.709V149.758H368.561V140.344H365.221C364.986 143.752 363.189 145.852 360.729 145.852C358.072 145.852 356.197 143.449 356.197 139.602C356.197 135.793 358.072 133.371 360.729 133.371ZM360.729 135.324C359.264 135.324 358.268 136.906 358.287 139.602C358.268 142.316 359.264 143.898 360.729 143.898C362.193 143.898 363.17 142.316 363.189 139.602C363.17 136.906 362.193 135.324 360.729 135.324ZM389.322 145.812V147.59H373.189V145.812H376.92V141.34C375.514 140.539 374.664 139.279 374.674 137.707C374.654 134.895 377.428 133.039 381.217 133.039C385.025 133.039 387.799 134.895 387.799 137.707C387.799 139.25 386.979 140.49 385.611 141.301V145.812H389.322ZM381.217 134.758C378.58 134.758 376.783 135.871 376.803 137.707C376.783 139.523 378.58 140.656 381.217 140.656C383.854 140.656 385.67 139.523 385.67 137.707C385.67 135.871 383.854 134.758 381.217 134.758ZM379.068 145.812H383.404V142.121C382.73 142.277 381.998 142.355 381.217 142.355C380.455 142.355 379.732 142.277 379.068 142.141V145.812ZM394.107 133.859L393.893 143.84H391.686L391.451 133.859H394.107ZM392.799 148.156C391.959 148.156 391.275 147.473 391.275 146.633C391.275 145.812 391.959 145.129 392.799 145.129C393.6 145.129 394.303 145.812 394.303 146.633C394.303 147.473 393.6 148.156 392.799 148.156Z" fill="white"/>
<path d="M457 134L443 148" stroke="#ABABAB" stroke-width="2" stroke-linecap="round"/>
<path d="M443 134L457 148" stroke="#ABABAB" stroke-width="2" stroke-linecap="round"/>
</g>
<rect x="4" width="476" height="64" rx="8" fill="#2A2C3D"/>
<circle cx="47" cy="32" r="11" fill="#F89A05"/>
<path d="M42 31.4L45.75 35L52 29" stroke="white" stroke-width="2" stroke-linecap="round"/>
<path d="M88.3711 23.082V33.5703H86.2031V29.2539H83.1953V27.4766H86.2031V23.082H88.3711ZM82.3945 34.0195C86.1445 34.0195 88.4297 35.25 88.4297 37.3789C88.4297 39.5078 86.1445 40.7383 82.3945 40.7383C78.6641 40.7383 76.3789 39.5078 76.3984 37.3789C76.3789 35.25 78.6641 34.0195 82.3945 34.0195ZM82.3945 35.6797C79.9336 35.6797 78.5469 36.2656 78.5469 37.3789C78.5469 38.4727 79.9336 39.0586 82.3945 39.0586C84.8555 39.0586 86.2617 38.4727 86.2617 37.3789C86.2617 36.2656 84.8555 35.6797 82.3945 35.6797ZM80.0703 26.1094C80.0703 28.2578 81.4961 30.4258 84.2305 31.3438L83.1367 33.0625C81.1738 32.3984 79.7773 31.0508 79.0156 29.3906C78.2344 31.2754 76.7598 32.7793 74.6602 33.5312L73.5273 31.8125C76.3594 30.8359 77.8633 28.4531 77.8633 26.1289V25.9922H74.1914V24.2344H83.7227V25.9922H80.0703V26.1094ZM107.004 36.832V38.6094H90.8711V36.832H97.8242V33.3945H92.6484V24.2539H94.8164V27.1445H103V24.2539H105.168V33.3945H99.9727V36.832H107.004ZM94.8164 31.6367H103V28.8828H94.8164V31.6367ZM121.984 23.082V29.9766H124.602V31.793H121.984V40.6992H119.816V23.082H121.984ZM117.316 24.918C117.316 30.1133 115.168 34.6641 109.289 37.5547L108.059 35.875C112.355 33.7363 114.68 30.7285 115.129 26.7148H109.016V24.918H117.316ZM139.387 24.5469C139.387 26.7734 141.867 29.0195 145.637 29.5078L144.777 31.2656C141.779 30.8164 139.396 29.3418 138.254 27.3398C137.092 29.3418 134.719 30.8164 131.75 31.2656L130.891 29.5078C134.621 29.0195 137.102 26.7734 137.102 24.5469V23.6484H139.387V24.5469ZM146.281 32.7891V34.5859H139.27V40.7383H137.121V34.5859H130.188V32.7891H146.281ZM162.258 23.082V33.5703H160.09V29.2539H157.082V27.4766H160.09V23.082H162.258ZM156.281 34.0195C160.031 34.0195 162.316 35.25 162.316 37.3789C162.316 39.5078 160.031 40.7383 156.281 40.7383C152.551 40.7383 150.266 39.5078 150.285 37.3789C150.266 35.25 152.551 34.0195 156.281 34.0195ZM156.281 35.6797C153.82 35.6797 152.434 36.2656 152.434 37.3789C152.434 38.4727 153.82 39.0586 156.281 39.0586C158.742 39.0586 160.148 38.4727 160.148 37.3789C160.148 36.2656 158.742 35.6797 156.281 35.6797ZM153.957 26.1094C153.957 28.2578 155.383 30.4258 158.117 31.3438L157.023 33.0625C155.061 32.3984 153.664 31.0508 152.902 29.3906C152.121 31.2754 150.646 32.7793 148.547 33.5312L147.414 31.8125C150.246 30.8359 151.75 28.4531 151.75 26.1289V25.9922H148.078V24.2344H157.609V25.9922H153.957V26.1094ZM175.266 30.4062V32.1641H171.691V35.25C173.234 35.1816 174.777 35.0742 176.242 34.918L176.418 36.5195C172.531 37.1055 168.449 37.1445 165.109 37.1445L164.836 35.3477C166.291 35.3574 167.883 35.3574 169.523 35.3086V32.1641H166.066V24.7031H175.188V26.4219H168.215V30.4062H175.266ZM179.465 23.082V40.7578H177.297V23.082H179.465ZM188.508 34.5273C188.488 36.0215 189.172 37.5645 190.695 38.5508C192.219 37.4863 192.902 35.8555 192.922 34.5273V33.707H195.051V34.5273C195.051 36.3633 196.125 38.1406 198.488 38.8828L197.395 40.5039C195.686 39.8984 194.553 38.7656 193.957 37.3398C193.371 38.7461 192.316 39.9961 190.695 40.6406C189.055 40.0254 188.01 38.8242 187.434 37.3984C186.809 38.7656 185.686 39.8887 184.055 40.5039L183 38.8828C185.285 38.1016 186.379 36.2656 186.398 34.5273V33.707H188.508V34.5273ZM186.945 24.0195C189.201 24.0195 191.018 25.3477 191.477 27.3008H194.66V23.082H196.828V33.043H194.66V29.0586H191.496C191.076 31.0703 189.24 32.418 186.945 32.418C184.27 32.418 182.277 30.6797 182.277 28.2188C182.277 25.7773 184.27 24.0195 186.945 24.0195ZM186.945 25.8359C185.461 25.8359 184.367 26.7734 184.367 28.2188C184.367 29.6445 185.461 30.6211 186.945 30.6211C188.391 30.6211 189.484 29.6445 189.484 28.2188C189.484 26.7734 188.391 25.8359 186.945 25.8359ZM203.41 33.668V35.3477H211.184V33.668H213.352V40.5234H201.262V33.668H203.41ZM203.41 38.8047H211.184V37.0078H203.41V38.8047ZM215.422 30.8945V32.6719H199.328V30.8945H215.422ZM208.488 23.9414C208.488 25.8359 210.91 27.8281 214.562 28.2578L213.801 29.9766C210.842 29.5762 208.508 28.2676 207.375 26.4805C206.232 28.2773 203.889 29.5762 200.949 29.9766L200.148 28.2578C203.84 27.8086 206.242 25.8945 206.262 23.9414V23.2773H208.488V23.9414ZM231.34 23.082V40.7383H229.191V23.082H231.34ZM219.777 24.8008V34.4492C222.258 34.4102 224.895 34.1855 227.609 33.6484L227.883 35.4648C224.777 36.1094 221.887 36.3047 219.152 36.3047H217.629V24.8008H219.777ZM247.727 23.082V29.7812H250.441V31.5586H247.727V40.7578H245.559V23.082H247.727ZM242.883 24.7617V26.5195H236.789V34.625C239.533 34.625 241.701 34.4883 244.133 34.0586L244.387 35.8945C241.652 36.3633 239.27 36.4414 236.086 36.4414H234.621V24.7617H242.883ZM253.332 39.1562C252.492 39.1562 251.809 38.4727 251.809 37.6328C251.809 36.8125 252.492 36.1289 253.332 36.1289C254.133 36.1289 254.836 36.8125 254.836 37.6328C254.836 38.4727 254.133 39.1562 253.332 39.1562Z" fill="white"/>
<defs>
<filter id="filter0_d_259_1619" x="0" y="92" width="492" height="95.001" filterUnits="userSpaceOnUse" color-interpolation-filters="sRGB">
<feFlood flood-opacity="0" result="BackgroundImageFix"/>
<feColorMatrix in="SourceAlpha" type="matrix" values="0 0 0 0 0 0 0 0 0 0 0 0 0 0 0 0 0 0 127 0" result="hardAlpha"/>
<feOffset dx="4" dy="4"/>
<feGaussianBlur stdDeviation="4"/>
<feComposite in2="hardAlpha" operator="out"/>
<feColorMatrix type="matrix" values="0 0 0 0 0.683415 0 0 0 0 0.683415 0 0 0 0 0.683415 0 0 0 0.25 0"/>
<feBlend mode="normal" in2="BackgroundImageFix" result="effect1_dropShadow_259_1619"/>
<feBlend mode="normal" in="SourceGraphic" in2="effect1_dropShadow_259_1619" result="shape"/>
</filter>
</defs>
</svg>
