<svg width="382" height="489" viewBox="0 0 382 489" fill="none" xmlns="http://www.w3.org/2000/svg">
<rect x="0.5" y="0.5" width="381" height="488" rx="4.5" stroke="#9747FF" stroke-dasharray="10 5"/>
<rect x="16" y="16" width="350" height="48" rx="6" fill="#112211"/>
<path d="M168.023 44.2188V45.8594H155.008V44.2188H160.492V42.0781H156.508V37.2969H164.555V35.7344H156.492V34.1406H166.523V38.8594H158.508V40.4531H166.852V42.0781H162.477V44.2188H168.023ZM180.211 34.5312V36.2344C180.203 38.1875 180.203 40.1172 179.695 43.0625L177.68 42.8906C178.219 40.1562 178.219 38.125 178.227 36.2344V36.125H170.18V34.5312H180.211ZM168.836 45.5781V43.9375H181.805V45.5781H168.836ZM194.57 33.2344V43.4531H192.57V33.2344H194.57ZM182.883 37.7188C182.883 35.6328 184.586 34.1328 186.773 34.1406C188.953 34.1328 190.656 35.6328 190.664 37.7188C190.656 39.8359 188.953 41.3281 186.773 41.3281C184.586 41.3281 182.883 39.8359 182.883 37.7188ZM184.836 37.7188C184.82 38.9062 185.656 39.5938 186.773 39.5938C187.852 39.5938 188.688 38.9062 188.695 37.7188C188.688 36.5625 187.852 35.8672 186.773 35.875C185.656 35.8672 184.82 36.5625 184.836 37.7188ZM185.039 47.1875V42.4219H187.055V45.5938H194.945V47.1875H185.039ZM211.398 33.2188V38.7812H213.492V40.4219H211.398V47.4375H209.43V33.2188H211.398ZM200.102 36.9375V35.3438H203.32V33.4375H205.32V35.3438H208.461V36.9375H200.102ZM200.68 41.125C200.672 39.1406 202.219 37.7266 204.32 37.7344C206.391 37.7266 207.945 39.1406 207.945 41.125C207.945 43.1094 206.391 44.5078 204.32 44.5156C202.219 44.5078 200.672 43.1094 200.68 41.125ZM202.586 41.125C202.586 42.2266 203.312 42.8828 204.32 42.875C205.312 42.8828 206.039 42.2266 206.039 41.125C206.039 40.0312 205.312 39.3594 204.32 39.3438C203.312 39.3594 202.586 40.0312 202.586 41.125ZM225.961 33.2188V47.4375H223.945V33.2188H225.961ZM214.055 43.4062C217.727 41.6719 219.344 39.4219 219.664 36.2656H214.82V34.7031H221.695C221.688 39.0156 220.18 42.6016 215.102 45L214.055 43.4062Z" fill="white"/>
<rect x="16" y="208" width="108" height="38" rx="6" fill="#112211"/>
<path d="M49.8955 230.441V231.877H38.5068V230.441H43.3057V228.568H39.8193V224.385H46.8604V223.018H39.8057V221.623H48.583V225.752H41.5693V227.146H48.8701V228.568H45.042V230.441H49.8955ZM60.5596 221.965V223.455C60.5527 225.164 60.5527 226.853 60.1084 229.43L58.3447 229.279C58.8164 226.887 58.8164 225.109 58.8232 223.455V223.359H51.7822V221.965H60.5596ZM50.6064 231.631V230.195H61.9541V231.631H50.6064ZM73.124 220.83V229.771H71.374V220.83H73.124ZM62.8975 224.754C62.8975 222.929 64.3877 221.616 66.3018 221.623C68.209 221.616 69.6992 222.929 69.7061 224.754C69.6992 226.606 68.209 227.912 66.3018 227.912C64.3877 227.912 62.8975 226.606 62.8975 224.754ZM64.6064 224.754C64.5928 225.793 65.3242 226.395 66.3018 226.395C67.2451 226.395 67.9766 225.793 67.9834 224.754C67.9766 223.742 67.2451 223.134 66.3018 223.141C65.3242 223.134 64.5928 223.742 64.6064 224.754ZM64.7842 233.039V228.869H66.5479V231.645H73.4521V233.039H64.7842ZM87.8486 220.816V225.684H89.6807V227.119H87.8486V233.258H86.126V220.816H87.8486ZM77.9639 224.07V222.676H80.7803V221.008H82.5303V222.676H85.2783V224.07H77.9639ZM78.4697 227.734C78.4629 225.998 79.8164 224.761 81.6553 224.768C83.4668 224.761 84.8271 225.998 84.8271 227.734C84.8271 229.471 83.4668 230.694 81.6553 230.701C79.8164 230.694 78.4629 229.471 78.4697 227.734ZM80.1377 227.734C80.1377 228.698 80.7734 229.272 81.6553 229.266C82.5234 229.272 83.1592 228.698 83.1592 227.734C83.1592 226.777 82.5234 226.189 81.6553 226.176C80.7734 226.189 80.1377 226.777 80.1377 227.734ZM100.591 220.816V233.258H98.8271V220.816H100.591ZM90.1729 229.73C93.3857 228.213 94.8008 226.244 95.0811 223.482H90.8428V222.115H96.8584C96.8516 225.889 95.5322 229.026 91.0889 231.125L90.1729 229.73Z" fill="white"/>
<rect x="16" y="377.957" width="144" height="48" rx="6" fill="#112211"/>
<path d="M65.0234 406.176V407.816H52.0078V406.176H57.4922V404.035H53.5078V399.254H61.5547V397.691H53.4922V396.098H63.5234V400.816H55.5078V402.41H63.8516V404.035H59.4766V406.176H65.0234ZM77.2109 396.488V398.191C77.2031 400.145 77.2031 402.074 76.6953 405.02L74.6797 404.848C75.2188 402.113 75.2188 400.082 75.2266 398.191V398.082H67.1797V396.488H77.2109ZM65.8359 407.535V405.895H78.8047V407.535H65.8359ZM91.5703 395.191V405.41H89.5703V395.191H91.5703ZM79.8828 399.676C79.8828 397.59 81.5859 396.09 83.7734 396.098C85.9531 396.09 87.6562 397.59 87.6641 399.676C87.6562 401.793 85.9531 403.285 83.7734 403.285C81.5859 403.285 79.8828 401.793 79.8828 399.676ZM81.8359 399.676C81.8203 400.863 82.6562 401.551 83.7734 401.551C84.8516 401.551 85.6875 400.863 85.6953 399.676C85.6875 398.52 84.8516 397.824 83.7734 397.832C82.6562 397.824 81.8203 398.52 81.8359 399.676ZM82.0391 409.145V404.379H84.0547V407.551H91.9453V409.145H82.0391ZM108.398 395.176V400.738H110.492V402.379H108.398V409.395H106.43V395.176H108.398ZM97.1016 398.895V397.301H100.32V395.395H102.32V397.301H105.461V398.895H97.1016ZM97.6797 403.082C97.6719 401.098 99.2188 399.684 101.32 399.691C103.391 399.684 104.945 401.098 104.945 403.082C104.945 405.066 103.391 406.465 101.32 406.473C99.2188 406.465 97.6719 405.066 97.6797 403.082ZM99.5859 403.082C99.5859 404.184 100.312 404.84 101.32 404.832C102.312 404.84 103.039 404.184 103.039 403.082C103.039 401.988 102.312 401.316 101.32 401.301C100.312 401.316 99.5859 401.988 99.5859 403.082ZM122.961 395.176V409.395H120.945V395.176H122.961ZM111.055 405.363C114.727 403.629 116.344 401.379 116.664 398.223H111.82V396.66H118.695C118.688 400.973 117.18 404.559 112.102 406.957L111.055 405.363Z" fill="white"/>
<rect x="16.5" y="431.457" width="143" height="47" rx="5.5" fill="white"/>
<rect x="16.5" y="431.457" width="143" height="47" rx="5.5" stroke="#112211"/>
<path d="M65.0234 459.176V460.816H52.0078V459.176H57.4922V457.035H53.5078V452.254H61.5547V450.691H53.4922V449.098H63.5234V453.816H55.5078V455.41H63.8516V457.035H59.4766V459.176H65.0234ZM77.2109 449.488V451.191C77.2031 453.145 77.2031 455.074 76.6953 458.02L74.6797 457.848C75.2188 455.113 75.2188 453.082 75.2266 451.191V451.082H67.1797V449.488H77.2109ZM65.8359 460.535V458.895H78.8047V460.535H65.8359ZM91.5703 448.191V458.41H89.5703V448.191H91.5703ZM79.8828 452.676C79.8828 450.59 81.5859 449.09 83.7734 449.098C85.9531 449.09 87.6562 450.59 87.6641 452.676C87.6562 454.793 85.9531 456.285 83.7734 456.285C81.5859 456.285 79.8828 454.793 79.8828 452.676ZM81.8359 452.676C81.8203 453.863 82.6562 454.551 83.7734 454.551C84.8516 454.551 85.6875 453.863 85.6953 452.676C85.6875 451.52 84.8516 450.824 83.7734 450.832C82.6562 450.824 81.8203 451.52 81.8359 452.676ZM82.0391 462.145V457.379H84.0547V460.551H91.9453V462.145H82.0391ZM108.398 448.176V453.738H110.492V455.379H108.398V462.395H106.43V448.176H108.398ZM97.1016 451.895V450.301H100.32V448.395H102.32V450.301H105.461V451.895H97.1016ZM97.6797 456.082C97.6719 454.098 99.2188 452.684 101.32 452.691C103.391 452.684 104.945 454.098 104.945 456.082C104.945 458.066 103.391 459.465 101.32 459.473C99.2188 459.465 97.6719 458.066 97.6797 456.082ZM99.5859 456.082C99.5859 457.184 100.312 457.84 101.32 457.832C102.312 457.84 103.039 457.184 103.039 456.082C103.039 454.988 102.312 454.316 101.32 454.301C100.312 454.316 99.5859 454.988 99.5859 456.082ZM122.961 448.176V462.395H120.945V448.176H122.961ZM111.055 458.363C114.727 456.629 116.344 454.379 116.664 451.223H111.82V449.66H118.695C118.688 453.973 117.18 457.559 112.102 459.957L111.055 458.363Z" fill="#112211"/>
<rect x="16.5" y="80.5" width="349" height="47" rx="5.5" fill="white"/>
<rect x="16.5" y="80.5" width="349" height="47" rx="5.5" stroke="#112211"/>
<path d="M168.023 108.219V109.859H155.008V108.219H160.492V106.078H156.508V101.297H164.555V99.7344H156.492V98.1406H166.523V102.859H158.508V104.453H166.852V106.078H162.477V108.219H168.023ZM180.211 98.5312V100.234C180.203 102.188 180.203 104.117 179.695 107.062L177.68 106.891C178.219 104.156 178.219 102.125 178.227 100.234V100.125H170.18V98.5312H180.211ZM168.836 109.578V107.938H181.805V109.578H168.836ZM194.57 97.2344V107.453H192.57V97.2344H194.57ZM182.883 101.719C182.883 99.6328 184.586 98.1328 186.773 98.1406C188.953 98.1328 190.656 99.6328 190.664 101.719C190.656 103.836 188.953 105.328 186.773 105.328C184.586 105.328 182.883 103.836 182.883 101.719ZM184.836 101.719C184.82 102.906 185.656 103.594 186.773 103.594C187.852 103.594 188.688 102.906 188.695 101.719C188.688 100.562 187.852 99.8672 186.773 99.875C185.656 99.8672 184.82 100.562 184.836 101.719ZM185.039 111.188V106.422H187.055V109.594H194.945V111.188H185.039ZM211.398 97.2188V102.781H213.492V104.422H211.398V111.438H209.43V97.2188H211.398ZM200.102 100.938V99.3438H203.32V97.4375H205.32V99.3438H208.461V100.938H200.102ZM200.68 105.125C200.672 103.141 202.219 101.727 204.32 101.734C206.391 101.727 207.945 103.141 207.945 105.125C207.945 107.109 206.391 108.508 204.32 108.516C202.219 108.508 200.672 107.109 200.68 105.125ZM202.586 105.125C202.586 106.227 203.312 106.883 204.32 106.875C205.312 106.883 206.039 106.227 206.039 105.125C206.039 104.031 205.312 103.359 204.32 103.344C203.312 103.359 202.586 104.031 202.586 105.125ZM225.961 97.2188V111.438H223.945V97.2188H225.961ZM214.055 107.406C217.727 105.672 219.344 103.422 219.664 100.266H214.82V98.7031H221.695C221.688 103.016 220.18 106.602 215.102 109L214.055 107.406Z" fill="#112211"/>
<rect x="16" y="144" width="350" height="48" rx="6" fill="#A4A1AA"/>
<path d="M173.828 161.234V171.609H171.828V161.234H173.828ZM161.875 168.094C164.258 167.297 165.297 165.32 165.297 163.391V162.016H167.375V163.391C167.359 165.273 168.367 167.109 170.703 167.859L169.688 169.422C168.078 168.891 166.977 167.828 166.344 166.477C165.703 167.93 164.57 169.102 162.906 169.672L161.875 168.094ZM164.297 175.188V170.609H166.312V173.594H174.203V175.188H164.297ZM183.859 162.703V164.266H180.984C181.008 165.727 182.07 167.211 184.359 167.797L183.438 169.328C181.812 168.922 180.68 168.023 180.031 166.867C179.414 168.18 178.273 169.219 176.594 169.703L175.656 168.156C177.93 167.5 178.984 165.875 179 164.266H176.141V162.703H179V161.156H181.016V162.703H183.859ZM177.984 172.719C177.984 171.016 179.859 170.055 182.875 170.047C185.906 170.055 187.773 171.016 187.781 172.719C187.773 174.445 185.906 175.445 182.875 175.438C179.859 175.445 177.984 174.445 177.984 172.719ZM179.969 172.719C179.969 173.5 180.992 173.922 182.875 173.922C184.797 173.922 185.789 173.5 185.797 172.719C185.789 171.961 184.797 171.578 182.875 171.578C180.992 171.578 179.969 171.961 179.969 172.719ZM183.438 166.625V165.031H185.75V161.219H187.734V169.812H185.75V166.625H183.438ZM196.891 161.438V162.422H202.594V161.438H204.578V166.203H194.922V161.438H196.891ZM193.266 168.547V166.938H206.234V168.547H200.734V169.438H204.656V173.031H196.734V173.844H205.031V175.344H194.781V171.656H202.688V170.891H194.766V169.438H198.734V168.547H193.266ZM196.891 164.719H202.594V163.859H196.891V164.719ZM218.312 161.219V166.672H220.328V168.312H218.312V175.406H216.312V161.219H218.312ZM206.938 171.422C210.305 169.734 212.117 167.469 212.492 164.297H207.75V162.672H214.516C214.5 166.922 212.844 170.602 208.062 172.953L206.938 171.422Z" fill="white"/>
<rect x="16.5" y="261.5" width="107" height="37" rx="5.5" fill="white"/>
<rect x="16.5" y="261.5" width="107" height="37" rx="5.5" stroke="#112211"/>
<path d="M49.8955 283.441V284.877H38.5068V283.441H43.3057V281.568H39.8193V277.385H46.8604V276.018H39.8057V274.623H48.583V278.752H41.5693V280.146H48.8701V281.568H45.042V283.441H49.8955ZM60.5596 274.965V276.455C60.5527 278.164 60.5527 279.853 60.1084 282.43L58.3447 282.279C58.8164 279.887 58.8164 278.109 58.8232 276.455V276.359H51.7822V274.965H60.5596ZM50.6064 284.631V283.195H61.9541V284.631H50.6064ZM73.124 273.83V282.771H71.374V273.83H73.124ZM62.8975 277.754C62.8975 275.929 64.3877 274.616 66.3018 274.623C68.209 274.616 69.6992 275.929 69.7061 277.754C69.6992 279.606 68.209 280.912 66.3018 280.912C64.3877 280.912 62.8975 279.606 62.8975 277.754ZM64.6064 277.754C64.5928 278.793 65.3242 279.395 66.3018 279.395C67.2451 279.395 67.9766 278.793 67.9834 277.754C67.9766 276.742 67.2451 276.134 66.3018 276.141C65.3242 276.134 64.5928 276.742 64.6064 277.754ZM64.7842 286.039V281.869H66.5479V284.645H73.4521V286.039H64.7842ZM87.8486 273.816V278.684H89.6807V280.119H87.8486V286.258H86.126V273.816H87.8486ZM77.9639 277.07V275.676H80.7803V274.008H82.5303V275.676H85.2783V277.07H77.9639ZM78.4697 280.734C78.4629 278.998 79.8164 277.761 81.6553 277.768C83.4668 277.761 84.8271 278.998 84.8271 280.734C84.8271 282.471 83.4668 283.694 81.6553 283.701C79.8164 283.694 78.4629 282.471 78.4697 280.734ZM80.1377 280.734C80.1377 281.698 80.7734 282.272 81.6553 282.266C82.5234 282.272 83.1592 281.698 83.1592 280.734C83.1592 279.777 82.5234 279.189 81.6553 279.176C80.7734 279.189 80.1377 279.777 80.1377 280.734ZM100.591 273.816V286.258H98.8271V273.816H100.591ZM90.1729 282.73C93.3857 281.213 94.8008 279.244 95.0811 276.482H90.8428V275.115H96.8584C96.8516 278.889 95.5322 282.026 91.0889 284.125L90.1729 282.73Z" fill="#112211"/>
<rect x="16" y="314" width="95" height="38" rx="6" fill="#A4A1AA"/>
<path d="M48.4746 326.83V335.908H46.7246V326.83H48.4746ZM38.0156 332.832C40.1006 332.135 41.0098 330.405 41.0098 328.717V327.514H42.8281V328.717C42.8145 330.364 43.6963 331.971 45.7402 332.627L44.8516 333.994C43.4434 333.529 42.4795 332.6 41.9258 331.417C41.3652 332.688 40.374 333.714 38.918 334.213L38.0156 332.832ZM40.1348 339.039V335.033H41.8984V337.645H48.8027V339.039H40.1348ZM57.252 328.115V329.482H54.7363C54.7568 330.761 55.6865 332.06 57.6895 332.572L56.8828 333.912C55.4609 333.557 54.4697 332.771 53.9023 331.759C53.3623 332.907 52.3643 333.816 50.8945 334.24L50.0742 332.887C52.0635 332.312 52.9863 330.891 53 329.482H50.498V328.115H53V326.762H54.7637V328.115H57.252ZM52.1113 336.879C52.1113 335.389 53.752 334.548 56.3906 334.541C59.043 334.548 60.6768 335.389 60.6836 336.879C60.6768 338.39 59.043 339.265 56.3906 339.258C53.752 339.265 52.1113 338.39 52.1113 336.879ZM53.8477 336.879C53.8477 337.562 54.7432 337.932 56.3906 337.932C58.0723 337.932 58.9404 337.562 58.9473 336.879C58.9404 336.216 58.0723 335.881 56.3906 335.881C54.7432 335.881 53.8477 336.216 53.8477 336.879ZM56.8828 331.547V330.152H58.9062V326.816H60.6426V334.336H58.9062V331.547H56.8828ZM68.6543 327.008V327.869H73.6445V327.008H75.3809V331.178H66.9316V327.008H68.6543ZM65.4824 333.229V331.82H76.8301V333.229H72.0176V334.008H75.4492V337.152H68.5176V337.863H75.7773V339.176H66.8086V335.949H73.7266V335.279H66.7949V334.008H70.2676V333.229H65.4824ZM68.6543 329.879H73.6445V329.127H68.6543V329.879ZM87.3984 326.816V331.588H89.1621V333.023H87.3984V339.23H85.6484V326.816H87.3984ZM77.4453 335.744C80.3916 334.268 81.9775 332.285 82.3057 329.51H78.1562V328.088H84.0762C84.0625 331.807 82.6133 335.026 78.4297 337.084L77.4453 335.744Z" fill="white"/>
</svg>
