<svg width="840" height="495" viewBox="0 0 840 495" fill="none" xmlns="http://www.w3.org/2000/svg">
<g clip-path="url(#clip0_152_7164)">
<rect x="20.5" y="98.5" width="799" height="55" rx="3.5" fill="white"/>
<rect x="20.5" y="98.5" width="799" height="55" rx="3.5" stroke="#79747E"/>
<rect width="56" height="26" transform="translate(36 113)" fill="white"/>
<path d="M43.7656 120.828C43.7578 124.836 42.3906 128.508 37.3906 130.969L36.7031 130.031C39.3125 128.758 40.8828 127.148 41.7266 125.281L36.9688 125.734L36.7656 124.656L42.1016 124.297C42.3516 123.516 42.4922 122.695 42.5469 121.844H37.4688V120.828H43.7656ZM46.0938 133.266V119.375H47.3125V125.031H49.5625V126.062H47.3125V133.266H46.0938ZM56.1094 121.078V122.062H52.1094V124.812H55.4688V125.797H52.1094V128.922C54.1016 128.898 55.3203 128.82 56.8281 128.547L56.9375 129.547C55.3281 129.875 54.0156 129.914 51.8125 129.922H50.9375V121.078H56.1094ZM56.2188 125.672V124.656H58.2656V119.719H59.4375V132.547H58.2656V125.672H56.2188ZM61.0938 133.266V119.375H62.2812V133.266H61.0938ZM75.3594 120.781V122.172C75.3438 123.875 75.3438 125.781 74.8438 128.578L73.5938 128.438C74.1172 125.781 74.1172 123.836 74.125 122.172V121.797H65.5625V120.781H75.3594ZM64.2188 131.297V130.281H69.1875V125.312H70.3906V130.281H76.875V131.297H64.2188ZM89.5156 119.375V133.297H88.2969V119.375H89.5156ZM78.8281 121.688V120.672H85.2969V125.609H80.1094V128.891C82.4141 128.898 84.4688 128.789 86.9531 128.391L87.0781 129.422C84.5234 129.82 82.4141 129.922 80.0156 129.922H78.8594V124.609H84.0625V121.688H78.8281Z" fill="#A4A1AA"/>
<path d="M789.25 129L796 122.25L802.75 129" stroke="#1B1B1B" stroke-width="1.5" stroke-linecap="round" stroke-linejoin="round"/>
<g filter="url(#filter0_d_152_7164)">
<g clip-path="url(#clip1_152_7164)">
<rect x="20" y="162" width="800" height="224" rx="6" fill="white"/>
<rect x="28" y="170" width="784" height="40" rx="6" fill="#112211"/>
<path fill-rule="evenodd" clip-rule="evenodd" d="M52.3283 185.223C52.6363 185.526 52.6411 186.02 52.339 186.328L44.3703 194.453C44.2243 194.602 44.0248 194.686 43.8163 194.687C43.6078 194.689 43.4075 194.606 43.2601 194.459L39.3538 190.552C39.0487 190.247 39.0487 189.753 39.3538 189.448C39.6589 189.142 40.1536 189.142 40.4587 189.448L43.8071 192.796L51.2235 185.234C51.5256 184.926 52.0202 184.921 52.3283 185.223Z" fill="white"/>
<path d="M77.2656 191.484V192.5H71.6094V195.344H70.3906V192.5H64.5469V191.484H77.2656ZM66.1719 197.969V193.969H67.4062V196.938H75.8438V197.969H66.1719ZM66.2031 189.891V185.062H75.6094V189.891H66.2031ZM67.4062 188.906H74.3906V186.031H67.4062V188.906ZM89.1719 184.375V190.297H91.3906V191.328H89.1719V198.266H87.9375V184.375H89.1719ZM78.2188 194.562C79.3516 194.562 80.6719 194.555 82.0469 194.516V192.984C80.4297 192.797 79.375 191.844 79.3906 190.469C79.375 188.898 80.7031 187.883 82.6719 187.891C84.6094 187.883 85.9609 188.898 85.9688 190.469C85.9609 191.852 84.8906 192.797 83.2812 192.984V194.469C84.5703 194.406 85.8828 194.297 87.0938 194.125L87.1719 195.062C84.1406 195.578 80.8594 195.609 78.4219 195.609L78.2188 194.562ZM78.4688 187.078V186.078H82.0469V184.406H83.2812V186.078H86.8438V187.078H78.4688ZM80.5312 190.469C80.5391 191.43 81.3828 192.062 82.6719 192.047C83.9375 192.062 84.7891 191.43 84.7969 190.469C84.7891 189.5 83.9375 188.844 82.6719 188.844C81.3828 188.844 80.5391 189.5 80.5312 190.469ZM108.141 184.375V198.266H106.953V184.375H108.141ZM96.4062 190.375C96.4141 187.422 97.5859 185.555 99.3906 185.547C100.578 185.555 101.492 186.359 101.992 187.75H104.203V184.672H105.375V197.562H104.203V193H101.992C101.5 194.398 100.578 195.211 99.3906 195.203C97.5859 195.211 96.4141 193.328 96.4062 190.375ZM97.5469 190.375C97.5391 192.625 98.25 194.047 99.3906 194.031C100.523 194.047 101.25 192.625 101.25 190.375C101.25 188.117 100.523 186.703 99.3906 186.703C98.25 186.703 97.5391 188.117 97.5469 190.375ZM102.25 188.766C102.344 189.258 102.391 189.797 102.391 190.375C102.391 190.945 102.344 191.484 102.258 191.969H104.203V188.766H102.25ZM117.031 184.984C117.023 186.711 119.531 188.039 122.031 188.344L121.594 189.281C119.406 188.984 117.266 188.008 116.391 186.508C115.5 188.008 113.352 188.984 111.188 189.281L110.766 188.344C113.258 188.039 115.766 186.711 115.766 184.984V184.453H117.031V184.984ZM110.062 191.188V190.188H122.719V191.188H116.984V192.578H121.094V195.734H112.844V197.141H121.516V198.109H111.625V194.812H119.891V193.547H111.594V192.578H115.766V191.188H110.062Z" fill="white"/>
<path d="M69.4844 228.391C69.4688 230.414 70.9375 232.219 73 232.938L72.375 233.906C70.7656 233.312 69.4922 232.117 68.8672 230.578C68.2578 232.227 66.9766 233.523 65.3438 234.156L64.7031 233.188C66.7812 232.414 68.2344 230.492 68.2344 228.391V227.062H69.4844V228.391ZM66.6875 236.453V235.438H76.0312V240.266H74.8125V236.453H66.6875ZM74.8125 234.75V226.375H76.0312V234.75H74.8125ZM84.7188 226.688C87.7422 226.688 89.6172 227.664 89.625 229.328C89.6172 230.969 87.7422 231.93 84.7188 231.922C81.6953 231.93 79.7969 230.969 79.7969 229.328C79.7969 227.664 81.6953 226.688 84.7188 226.688ZM78.3906 234.141V233.125H91.0469V234.141H78.3906ZM79.9375 240.078V235.516H89.5V240.078H79.9375ZM81.0625 229.328C81.0547 230.336 82.4688 230.945 84.7188 230.953C86.9453 230.945 88.3672 230.336 88.375 229.328C88.3672 228.289 86.9453 227.672 84.7188 227.672C82.4688 227.672 81.0547 228.289 81.0625 229.328ZM81.1562 239.078H88.2969V236.5H81.1562V239.078ZM104.938 237.516V238.547H92.2188V237.516H95.7969V234.875H93.8125V230.594H102.125V228.422H93.7812V227.406H103.328V231.609H95.0312V233.859H103.656V234.875H101.484V237.516H104.938ZM97 237.516H100.281V234.875H97V237.516Z" fill="#1B1B1B"/>
<path d="M71.4844 270.422C71.4922 272.805 74.2109 274.922 76.625 275.375L76.0625 276.406C73.9609 275.922 71.7578 274.43 70.8594 272.391C69.9531 274.43 67.7578 275.914 65.6562 276.406L65.0938 275.375C67.5 274.914 70.1953 272.812 70.2031 270.422V269.359H71.4844V270.422ZM64.5625 280.375V279.359H77.2812V280.375H64.5625ZM91.1094 279.5V280.547H78.3906V279.5H84.0938V276.297H79.5469V275.312H81.7188V270.75H79.5156V269.734H89.8906V270.75H87.6875V275.312H89.8594V276.297H85.2969V279.5H91.1094ZM82.9375 275.312H86.4844V270.75H82.9375V275.312ZM104.938 279.453V280.484H92.2188V279.453H104.938ZM93 276.125C95.625 275.648 97.9297 273.93 97.9375 271.625H93.4062V270.625H97.9531V268.719H99.1562V270.625H103.719V271.625H99.1875C99.1797 273.93 101.477 275.648 104.125 276.125L103.625 277.125C101.43 276.672 99.4297 275.477 98.5547 273.664C97.6875 275.477 95.6797 276.672 93.4844 277.125L93 276.125Z" fill="#1B1B1B"/>
<path d="M76.2656 318.797V319.812H70.4844V324.266H69.2812V319.812H63.5469V318.797H76.2656ZM65.25 317.359V311.031H74.6719V312.031H66.4688V313.656H74.3438V314.641H66.4688V316.359H74.8281V317.359H65.25ZM81.125 311.453C83.0156 311.461 84.3828 313.086 84.5703 315.688H87.6875V310.375H88.9062V324.297H87.6875V316.703H84.5859C84.4531 319.43 83.0625 321.133 81.125 321.125C79.0703 321.133 77.6328 319.258 77.6406 316.297C77.6328 313.344 79.0703 311.461 81.125 311.453ZM78.8125 316.297C78.8203 318.555 79.7578 320.039 81.125 320.031C82.4844 320.039 83.4375 318.555 83.4375 316.297C83.4375 314.039 82.4844 312.555 81.125 312.547C79.7578 312.555 78.8203 314.039 78.8125 316.297Z" fill="#1B1B1B"/>
<path d="M72.2656 353.453V354.188C72.2578 355.102 72.2578 356.484 71.9062 358.297L70.6719 358.203C71.0078 356.547 71.0391 355.367 71.0547 354.484H65.3438V353.453H72.2656ZM64.4844 359.594C65.3828 359.594 66.3984 359.586 67.4688 359.555V356.531H68.6875V359.516C70.2266 359.453 71.8203 359.344 73.2656 359.141L73.3438 360.047C70.4297 360.547 67.0859 360.602 64.6094 360.609L64.4844 359.594ZM66.625 365.969V361.891H67.8594V364.938H75.9062V365.969H66.625ZM74.2031 362.828V352.375H75.4531V356.906H77.4844V357.953H75.4531V362.828H74.2031ZM86.0938 353.25V354C86.0859 354.867 86.0859 356.125 85.7188 357.766L84.5 357.656C84.8281 356.188 84.8594 355.109 84.8594 354.281H79.1719V353.25H86.0938ZM78.3125 359.062C79.2188 359.062 80.2344 359.055 81.2969 359.023V356.266H82.5156V358.992C84.0625 358.93 85.6484 358.828 87.0938 358.641L87.1719 359.547C84.2578 360.016 80.9453 360.094 78.4375 360.094L78.3125 359.062ZM80.1406 363.703C80.1406 362.148 81.8906 361.234 84.7656 361.234C87.6406 361.234 89.3984 362.148 89.3906 363.703C89.3984 365.312 87.6406 366.227 84.7656 366.219C81.8906 366.227 80.1406 365.312 80.1406 363.703ZM81.375 363.703C81.3672 364.688 82.6641 365.242 84.7656 365.25C86.8594 365.242 88.1484 364.688 88.1562 363.703C88.1484 362.766 86.8594 362.195 84.7656 362.188C82.6641 362.195 81.3672 362.766 81.375 363.703ZM88.0312 361.062V352.375H89.2812V356.188H91.3125V357.219H89.2812V361.062H88.0312Z" fill="#1B1B1B"/>
</g>
</g>
<rect x="20.5" y="20.5" width="799" height="55" rx="3.5" fill="white"/>
<rect x="20.5" y="20.5" width="799" height="55" rx="3.5" stroke="#79747E"/>
<rect width="56" height="26" transform="translate(36 35)" fill="white"/>
<path d="M43.7656 42.8281C43.7578 46.8359 42.3906 50.5078 37.3906 52.9688L36.7031 52.0312C39.3125 50.7578 40.8828 49.1484 41.7266 47.2812L36.9688 47.7344L36.7656 46.6562L42.1016 46.2969C42.3516 45.5156 42.4922 44.6953 42.5469 43.8438H37.4688V42.8281H43.7656ZM46.0938 55.2656V41.375H47.3125V47.0312H49.5625V48.0625H47.3125V55.2656H46.0938ZM56.1094 43.0781V44.0625H52.1094V46.8125H55.4688V47.7969H52.1094V50.9219C54.1016 50.8984 55.3203 50.8203 56.8281 50.5469L56.9375 51.5469C55.3281 51.875 54.0156 51.9141 51.8125 51.9219H50.9375V43.0781H56.1094ZM56.2188 47.6719V46.6562H58.2656V41.7188H59.4375V54.5469H58.2656V47.6719H56.2188ZM61.0938 55.2656V41.375H62.2812V55.2656H61.0938ZM75.3594 42.7812V44.1719C75.3438 45.875 75.3438 47.7812 74.8438 50.5781L73.5938 50.4375C74.1172 47.7812 74.1172 45.8359 74.125 44.1719V43.7969H65.5625V42.7812H75.3594ZM64.2188 53.2969V52.2812H69.1875V47.3125H70.3906V52.2812H76.875V53.2969H64.2188ZM89.5156 41.375V55.2969H88.2969V41.375H89.5156ZM78.8281 43.6875V42.6719H85.2969V47.6094H80.1094V50.8906C82.4141 50.8984 84.4688 50.7891 86.9531 50.3906L87.0781 51.4219C84.5234 51.8203 82.4141 51.9219 80.0156 51.9219H78.8594V46.6094H84.0625V43.6875H78.8281Z" fill="#A4A1AA"/>
<path d="M789.25 45L796 51.75L802.75 45" stroke="#1B1B1B" stroke-width="1.5" stroke-linecap="round" stroke-linejoin="round"/>
</g>
<rect x="0.5" y="0.5" width="839" height="494" rx="4.5" stroke="#9747FF" stroke-dasharray="10 5"/>
<defs>
<filter id="filter0_d_152_7164" x="-13" y="139" width="866" height="290" filterUnits="userSpaceOnUse" color-interpolation-filters="sRGB">
<feFlood flood-opacity="0" result="BackgroundImageFix"/>
<feColorMatrix in="SourceAlpha" type="matrix" values="0 0 0 0 0 0 0 0 0 0 0 0 0 0 0 0 0 0 127 0" result="hardAlpha"/>
<feMorphology radius="3" operator="dilate" in="SourceAlpha" result="effect1_dropShadow_152_7164"/>
<feOffset dy="10"/>
<feGaussianBlur stdDeviation="15"/>
<feColorMatrix type="matrix" values="0 0 0 0 0.0196078 0 0 0 0 0.0627451 0 0 0 0 0.215686 0 0 0 0.15 0"/>
<feBlend mode="normal" in2="BackgroundImageFix" result="effect1_dropShadow_152_7164"/>
<feBlend mode="normal" in="SourceGraphic" in2="effect1_dropShadow_152_7164" result="shape"/>
</filter>
<clipPath id="clip0_152_7164">
<rect width="840" height="495" rx="5" fill="white"/>
</clipPath>
<clipPath id="clip1_152_7164">
<rect x="20" y="162" width="800" height="224" rx="6" fill="white"/>
</clipPath>
</defs>
</svg>
