<svg width="839" height="763" viewBox="0 0 839 763" fill="none" xmlns="http://www.w3.org/2000/svg">
<rect x="0.5" y="0.5" width="838" height="762" rx="4.5" stroke="#9747FF" stroke-dasharray="10 5"/>
<path d="M28.0156 22.375V36.2969H26.7812V22.375H28.0156ZM17.0781 28.2969C17.0859 25.3438 18.5547 23.4609 20.625 23.4531C22.6875 23.4609 24.1797 25.3438 24.1719 28.2969C24.1797 31.2578 22.6875 33.1328 20.625 33.125C18.5547 33.1328 17.0859 31.2578 17.0781 28.2969ZM18.2656 28.2969C18.2656 30.5547 19.2344 32.0391 20.625 32.0312C22.0234 32.0391 22.9844 30.5547 22.9844 28.2969C22.9844 26.0391 22.0234 24.5547 20.625 24.5469C19.2344 24.5547 18.2656 26.0391 18.2656 28.2969ZM36.2188 24V27.625H38.3281V22.6719H39.5V35.5625H38.3281V28.6406H36.2188V32.5312H30.9062V24H36.2188ZM32.0625 31.5469H35.0625V24.9844H32.0625V31.5469ZM41.1094 36.2656V22.375H42.2969V36.2656H41.1094ZM48.1562 22.8906C50.2344 22.8984 51.7422 24.1641 51.75 25.9688C51.7422 27.7812 50.2344 29.0312 48.1562 29.0312C46.0547 29.0312 44.5391 27.7812 44.5469 25.9688C44.5391 24.1641 46.0547 22.8984 48.1562 22.8906ZM45.75 25.9688C45.7344 27.1875 46.7578 28.0312 48.1562 28.0312C49.5312 28.0312 50.5625 27.1875 50.5625 25.9688C50.5625 24.7656 49.5312 23.9141 48.1562 23.9219C46.7578 23.9141 45.7344 24.7656 45.75 25.9688ZM46.6562 31.1719V30.1875H55.6875V33.5312H47.8906V35.0938H56.1875V36.0781H46.6875V32.6094H54.4688V31.1719H46.6562ZM54.4688 29.5156V22.375H55.6875V29.5156H54.4688Z" fill="#1B1B1B"/>
<rect x="16.5" y="50.5" width="349" height="57" rx="5.5" fill="white"/>
<rect x="16.5" y="50.5" width="349" height="57" rx="5.5" stroke="#79747E"/>
<path d="M48.0312 72.375V79.8281H46.8125V72.375H48.0312ZM36.8906 76.25C36.8828 74.3516 38.4219 73.0469 40.5312 73.0625C42.6406 73.0469 44.1641 74.3516 44.1719 76.25C44.1641 78.1406 42.6406 79.4453 40.5312 79.4375C38.4219 79.4453 36.8828 78.1406 36.8906 76.25ZM38.0938 76.25C38.0781 77.5156 39.1016 78.4141 40.5312 78.4219C41.9453 78.4141 42.9688 77.5156 42.9688 76.25C42.9688 74.9766 41.9453 74.0859 40.5312 74.0938C39.1016 74.0859 38.0781 74.9766 38.0938 76.25ZM39.0312 86.0781V80.5312H40.25V82.2188H46.8125V80.5312H48.0312V86.0781H39.0312ZM40.25 85.0781H46.8125V83.2031H40.25V85.0781ZM56.9844 73.2344V77.125H52.2031V79.2812C54.8125 79.2891 56.1641 79.2344 57.7969 78.9375L57.9219 79.9531C56.1953 80.2344 54.7812 80.2812 51.9688 80.2812H50.9844V76.1875H55.7656V74.2188H50.9531V73.2344H56.9844ZM52.5469 82.6719V81.6719H61.9062V86.2969H60.6719V82.6719H52.5469ZM57.9062 78.3438V77.3281H60.6719V75.4531H57.9062V74.4531H60.6719V72.3906H61.9062V80.9219H60.6719V78.3438H57.9062Z" fill="#A4A1AA"/>
<path d="M28.0156 158.375V172.297H26.7812V158.375H28.0156ZM17.0781 164.297C17.0859 161.344 18.5547 159.461 20.625 159.453C22.6875 159.461 24.1797 161.344 24.1719 164.297C24.1797 167.258 22.6875 169.133 20.625 169.125C18.5547 169.133 17.0859 167.258 17.0781 164.297ZM18.2656 164.297C18.2656 166.555 19.2344 168.039 20.625 168.031C22.0234 168.039 22.9844 166.555 22.9844 164.297C22.9844 162.039 22.0234 160.555 20.625 160.547C19.2344 160.555 18.2656 162.039 18.2656 164.297ZM36.2188 160V163.625H38.3281V158.672H39.5V171.562H38.3281V164.641H36.2188V168.531H30.9062V160H36.2188ZM32.0625 167.547H35.0625V160.984H32.0625V167.547ZM41.1094 172.266V158.375H42.2969V172.266H41.1094ZM48.1562 158.891C50.2344 158.898 51.7422 160.164 51.75 161.969C51.7422 163.781 50.2344 165.031 48.1562 165.031C46.0547 165.031 44.5391 163.781 44.5469 161.969C44.5391 160.164 46.0547 158.898 48.1562 158.891ZM45.75 161.969C45.7344 163.188 46.7578 164.031 48.1562 164.031C49.5312 164.031 50.5625 163.188 50.5625 161.969C50.5625 160.766 49.5312 159.914 48.1562 159.922C46.7578 159.914 45.7344 160.766 45.75 161.969ZM46.6562 167.172V166.188H55.6875V169.531H47.8906V171.094H56.1875V172.078H46.6875V168.609H54.4688V167.172H46.6562ZM54.4688 165.516V158.375H55.6875V165.516H54.4688Z" fill="#1B1B1B"/>
<rect x="16.5" y="186.5" width="349" height="57" rx="5.5" fill="white"/>
<rect x="16.5" y="186.5" width="349" height="57" rx="5.5" stroke="#79747E"/>
<path d="M40.5469 221.172C38.1406 221.18 36.6719 219.344 36.6719 216.797C36.6719 214.219 38.2109 212.406 40.5156 212.406C42.3203 212.406 43.6797 213.477 43.8906 215.078H42.5469C42.3516 214.305 41.6797 213.594 40.5469 213.594C39.0312 213.594 38.0234 214.844 38.0156 216.75C38.0234 218.711 39.0078 219.969 40.5469 219.969C41.5469 219.969 42.3125 219.43 42.5469 218.5H43.8906C43.6797 220.016 42.4297 221.18 40.5469 221.172ZM49.0156 221.172C46.7031 221.18 45.1406 219.43 45.1406 216.797C45.1406 214.148 46.7031 212.406 49.0156 212.406C51.3203 212.406 52.8672 214.148 52.8594 216.797C52.8672 219.43 51.3203 221.18 49.0156 221.172ZM46.4844 216.797C46.4922 218.492 47.2891 219.984 49.0156 219.984C50.7266 219.984 51.5156 218.492 51.5156 216.797C51.5156 215.109 50.7266 213.594 49.0156 213.594C47.2891 213.594 46.4922 215.109 46.4844 216.797ZM57.8281 221.172C55.7109 221.18 54.2188 219.477 54.2188 216.781C54.2188 214.094 55.7109 212.406 57.8438 212.406C59.4922 212.406 60.0078 213.406 60.2969 213.859H60.3906V209.688H61.75V221H60.4375V219.703H60.2969C60 220.172 59.4453 221.18 57.8281 221.172ZM55.5781 216.75C55.5781 218.555 56.4062 219.969 58.0156 219.969C59.5703 219.969 60.4297 218.656 60.4375 216.75C60.4297 214.867 59.5938 213.609 58.0156 213.609C56.3828 213.609 55.5781 214.977 55.5781 216.75ZM67.6406 221.172C65.1875 221.18 63.6719 219.43 63.6719 216.828C63.6719 214.219 65.2109 212.406 67.5156 212.406C69.2969 212.406 71.1797 213.5 71.1719 216.641V217.203H65.0156C65.0859 219 66.1328 219.984 67.6406 219.984C68.6562 219.984 69.2969 219.539 69.6094 219.016H71.0469C70.6484 220.305 69.3906 221.18 67.6406 221.172ZM65.0234 216.062H69.8125C69.8047 214.648 68.9141 213.594 67.5156 213.594C66.0469 213.594 65.1172 214.75 65.0234 216.062ZM72.9219 221V212.516H74.2656V221H72.9219ZM72.6562 210.219C72.6484 209.719 73.0781 209.32 73.5938 209.328C74.1094 209.32 74.5391 209.719 74.5469 210.219C74.5391 210.711 74.1094 211.109 73.5938 211.109C73.0781 211.109 72.6484 210.711 72.6562 210.219ZM80.1094 212.516V213.641H78.3281V218.562C78.3203 219.648 78.8672 219.828 79.4375 219.828C79.6797 219.828 80.0391 219.805 80.2344 219.797V221.047C80.0234 221.078 79.6953 221.109 79.2969 221.109C78.1641 221.109 76.9766 220.406 76.9688 218.906V213.641H75.6875V212.516H76.9688V210.484H78.3281V212.516H80.1094ZM87.4375 219.516C85.8672 219.508 84.7344 218.25 84.7344 216.219C84.7344 214.203 85.8906 212.945 87.4531 212.938C88.5781 212.945 89.0391 213.664 89.2344 214.016H89.3125V213.062H90.5V217.625C90.5234 218.234 90.7734 218.539 91.2812 218.531C92.25 218.539 92.8984 217.406 92.9062 215.781C92.9219 212.836 90.7891 210.914 87.7969 210.906C84.7031 210.922 82.7109 213.312 82.7031 216.219C82.7031 219.398 84.4375 221.578 87.7344 221.547C88.8281 221.531 89.5469 221.461 90.5 221.203V222.266C89.6797 222.484 88.7656 222.625 87.7344 222.625C83.9141 222.625 81.5703 220.18 81.5781 216.219C81.5625 212.523 84.1562 209.828 87.7969 209.828C91.5312 209.828 94.0469 212.367 94.0312 215.734C94.0391 218.164 92.7891 219.578 91.2031 219.578C90.2188 219.578 89.4766 219.023 89.4141 218.297H89.3125C89.1328 218.648 88.6562 219.508 87.4375 219.516ZM85.9531 216.203C85.9453 217.422 86.5547 218.367 87.6406 218.375C88.7578 218.367 89.3203 217.5 89.3281 216.203C89.3203 214.938 88.7656 214.086 87.6406 214.078C86.5469 214.086 85.9453 215.008 85.9531 216.203ZM99.3906 221.172C96.9844 221.18 95.5156 219.344 95.5156 216.797C95.5156 214.219 97.0547 212.406 99.3594 212.406C101.164 212.406 102.523 213.477 102.734 215.078H101.391C101.195 214.305 100.523 213.594 99.3906 213.594C97.875 213.594 96.8672 214.844 96.8594 216.75C96.8672 218.711 97.8516 219.969 99.3906 219.969C100.391 219.969 101.156 219.43 101.391 218.5H102.734C102.523 220.016 101.273 221.18 99.3906 221.172ZM107.859 221.172C105.547 221.18 103.984 219.43 103.984 216.797C103.984 214.148 105.547 212.406 107.859 212.406C110.164 212.406 111.711 214.148 111.703 216.797C111.711 219.43 110.164 221.18 107.859 221.172ZM105.328 216.797C105.336 218.492 106.133 219.984 107.859 219.984C109.57 219.984 110.359 218.492 110.359 216.797C110.359 215.109 109.57 213.594 107.859 213.594C106.133 213.594 105.336 215.109 105.328 216.797ZM116.672 221.172C114.555 221.18 113.062 219.477 113.062 216.781C113.062 214.094 114.555 212.406 116.688 212.406C118.336 212.406 118.852 213.406 119.141 213.859H119.234V209.688H120.594V221H119.281V219.703H119.141C118.844 220.172 118.289 221.18 116.672 221.172ZM114.422 216.75C114.422 218.555 115.25 219.969 116.859 219.969C118.414 219.969 119.273 218.656 119.281 216.75C119.273 214.867 118.438 213.609 116.859 213.609C115.227 213.609 114.422 214.977 114.422 216.75ZM126.484 221.172C124.031 221.18 122.516 219.43 122.516 216.828C122.516 214.219 124.055 212.406 126.359 212.406C128.141 212.406 130.023 213.5 130.016 216.641V217.203H123.859C123.93 219 124.977 219.984 126.484 219.984C127.5 219.984 128.141 219.539 128.453 219.016H129.891C129.492 220.305 128.234 221.18 126.484 221.172ZM123.867 216.062H128.656C128.648 214.648 127.758 213.594 126.359 213.594C124.891 213.594 123.961 214.75 123.867 216.062ZM131.766 221V212.516H133.109V221H131.766ZM131.5 210.219C131.492 209.719 131.922 209.32 132.438 209.328C132.953 209.32 133.383 209.719 133.391 210.219C133.383 210.711 132.953 211.109 132.438 211.109C131.922 211.109 131.492 210.711 131.5 210.219ZM138.953 212.516V213.641H137.172V218.562C137.164 219.648 137.711 219.828 138.281 219.828C138.523 219.828 138.883 219.805 139.078 219.797V221.047C138.867 221.078 138.539 221.109 138.141 221.109C137.008 221.109 135.82 220.406 135.812 218.906V213.641H134.531V212.516H135.812V210.484H137.172V212.516H138.953ZM141.641 221.094C141.094 221.086 140.625 220.633 140.641 220.078C140.625 219.531 141.094 219.078 141.641 219.078C142.195 219.078 142.648 219.531 142.641 220.078C142.648 220.633 142.195 221.086 141.641 221.094ZM148.219 221.172C145.812 221.18 144.344 219.344 144.344 216.797C144.344 214.219 145.883 212.406 148.188 212.406C149.992 212.406 151.352 213.477 151.562 215.078H150.219C150.023 214.305 149.352 213.594 148.219 213.594C146.703 213.594 145.695 214.844 145.688 216.75C145.695 218.711 146.68 219.969 148.219 219.969C149.219 219.969 149.984 219.43 150.219 218.5H151.562C151.352 220.016 150.102 221.18 148.219 221.172ZM156.688 221.172C154.375 221.18 152.812 219.43 152.812 216.797C152.812 214.148 154.375 212.406 156.688 212.406C158.992 212.406 160.539 214.148 160.531 216.797C160.539 219.43 158.992 221.18 156.688 221.172ZM154.156 216.797C154.164 218.492 154.961 219.984 156.688 219.984C158.398 219.984 159.188 218.492 159.188 216.797C159.188 215.109 158.398 213.594 156.688 213.594C154.961 213.594 154.164 215.109 154.156 216.797ZM162.297 221V212.516H163.594V213.844H163.703C164.055 212.938 164.875 212.406 165.984 212.406C167.094 212.406 167.852 212.938 168.25 213.844H168.344C168.773 212.969 169.672 212.406 170.891 212.406C172.398 212.406 173.484 213.328 173.484 215.328V221H172.141V215.344C172.133 214.094 171.352 213.609 170.422 213.609C169.242 213.609 168.57 214.406 168.562 215.484V221H167.203V215.203C167.211 214.25 166.523 213.609 165.547 213.609C164.531 213.609 163.641 214.469 163.641 215.703V221H162.297Z" fill="#1B1B1B"/>
<path d="M28.0156 294.375V308.297H26.7812V294.375H28.0156ZM17.0781 300.297C17.0859 297.344 18.5547 295.461 20.625 295.453C22.6875 295.461 24.1797 297.344 24.1719 300.297C24.1797 303.258 22.6875 305.133 20.625 305.125C18.5547 305.133 17.0859 303.258 17.0781 300.297ZM18.2656 300.297C18.2656 302.555 19.2344 304.039 20.625 304.031C22.0234 304.039 22.9844 302.555 22.9844 300.297C22.9844 298.039 22.0234 296.555 20.625 296.547C19.2344 296.555 18.2656 298.039 18.2656 300.297ZM36.2188 296V299.625H38.3281V294.672H39.5V307.562H38.3281V300.641H36.2188V304.531H30.9062V296H36.2188ZM32.0625 303.547H35.0625V296.984H32.0625V303.547ZM41.1094 308.266V294.375H42.2969V308.266H41.1094ZM48.1562 294.891C50.2344 294.898 51.7422 296.164 51.75 297.969C51.7422 299.781 50.2344 301.031 48.1562 301.031C46.0547 301.031 44.5391 299.781 44.5469 297.969C44.5391 296.164 46.0547 294.898 48.1562 294.891ZM45.75 297.969C45.7344 299.188 46.7578 300.031 48.1562 300.031C49.5312 300.031 50.5625 299.188 50.5625 297.969C50.5625 296.766 49.5312 295.914 48.1562 295.922C46.7578 295.914 45.7344 296.766 45.75 297.969ZM46.6562 303.172V302.188H55.6875V305.531H47.8906V307.094H56.1875V308.078H46.6875V304.609H54.4688V303.172H46.6562ZM54.4688 301.516V294.375H55.6875V301.516H54.4688Z" fill="#1B1B1B"/>
<rect x="16.5" y="322.5" width="349" height="57" rx="4.5" fill="white"/>
<rect x="16.5" y="322.5" width="349" height="57" rx="4.5" stroke="#FF472E"/>
<path d="M40.5469 357.172C38.1406 357.18 36.6719 355.344 36.6719 352.797C36.6719 350.219 38.2109 348.406 40.5156 348.406C42.3203 348.406 43.6797 349.477 43.8906 351.078H42.5469C42.3516 350.305 41.6797 349.594 40.5469 349.594C39.0312 349.594 38.0234 350.844 38.0156 352.75C38.0234 354.711 39.0078 355.969 40.5469 355.969C41.5469 355.969 42.3125 355.43 42.5469 354.5H43.8906C43.6797 356.016 42.4297 357.18 40.5469 357.172ZM49.0156 357.172C46.7031 357.18 45.1406 355.43 45.1406 352.797C45.1406 350.148 46.7031 348.406 49.0156 348.406C51.3203 348.406 52.8672 350.148 52.8594 352.797C52.8672 355.43 51.3203 357.18 49.0156 357.172ZM46.4844 352.797C46.4922 354.492 47.2891 355.984 49.0156 355.984C50.7266 355.984 51.5156 354.492 51.5156 352.797C51.5156 351.109 50.7266 349.594 49.0156 349.594C47.2891 349.594 46.4922 351.109 46.4844 352.797ZM57.8281 357.172C55.7109 357.18 54.2188 355.477 54.2188 352.781C54.2188 350.094 55.7109 348.406 57.8438 348.406C59.4922 348.406 60.0078 349.406 60.2969 349.859H60.3906V345.688H61.75V357H60.4375V355.703H60.2969C60 356.172 59.4453 357.18 57.8281 357.172ZM55.5781 352.75C55.5781 354.555 56.4062 355.969 58.0156 355.969C59.5703 355.969 60.4297 354.656 60.4375 352.75C60.4297 350.867 59.5938 349.609 58.0156 349.609C56.3828 349.609 55.5781 350.977 55.5781 352.75ZM67.6406 357.172C65.1875 357.18 63.6719 355.43 63.6719 352.828C63.6719 350.219 65.2109 348.406 67.5156 348.406C69.2969 348.406 71.1797 349.5 71.1719 352.641V353.203H65.0156C65.0859 355 66.1328 355.984 67.6406 355.984C68.6562 355.984 69.2969 355.539 69.6094 355.016H71.0469C70.6484 356.305 69.3906 357.18 67.6406 357.172ZM65.0234 352.062H69.8125C69.8047 350.648 68.9141 349.594 67.5156 349.594C66.0469 349.594 65.1172 350.75 65.0234 352.062ZM72.9219 357V348.516H74.2656V357H72.9219ZM72.6562 346.219C72.6484 345.719 73.0781 345.32 73.5938 345.328C74.1094 345.32 74.5391 345.719 74.5469 346.219C74.5391 346.711 74.1094 347.109 73.5938 347.109C73.0781 347.109 72.6484 346.711 72.6562 346.219ZM80.1094 348.516V349.641H78.3281V354.562C78.3203 355.648 78.8672 355.828 79.4375 355.828C79.6797 355.828 80.0391 355.805 80.2344 355.797V357.047C80.0234 357.078 79.6953 357.109 79.2969 357.109C78.1641 357.109 76.9766 356.406 76.9688 354.906V349.641H75.6875V348.516H76.9688V346.484H78.3281V348.516H80.1094ZM87.4375 355.516C85.8672 355.508 84.7344 354.25 84.7344 352.219C84.7344 350.203 85.8906 348.945 87.4531 348.938C88.5781 348.945 89.0391 349.664 89.2344 350.016H89.3125V349.062H90.5V353.625C90.5234 354.234 90.7734 354.539 91.2812 354.531C92.25 354.539 92.8984 353.406 92.9062 351.781C92.9219 348.836 90.7891 346.914 87.7969 346.906C84.7031 346.922 82.7109 349.312 82.7031 352.219C82.7031 355.398 84.4375 357.578 87.7344 357.547C88.8281 357.531 89.5469 357.461 90.5 357.203V358.266C89.6797 358.484 88.7656 358.625 87.7344 358.625C83.9141 358.625 81.5703 356.18 81.5781 352.219C81.5625 348.523 84.1562 345.828 87.7969 345.828C91.5312 345.828 94.0469 348.367 94.0312 351.734C94.0391 354.164 92.7891 355.578 91.2031 355.578C90.2188 355.578 89.4766 355.023 89.4141 354.297H89.3125C89.1328 354.648 88.6562 355.508 87.4375 355.516ZM85.9531 352.203C85.9453 353.422 86.5547 354.367 87.6406 354.375C88.7578 354.367 89.3203 353.5 89.3281 352.203C89.3203 350.938 88.7656 350.086 87.6406 350.078C86.5469 350.086 85.9453 351.008 85.9531 352.203ZM99.3906 357.172C96.9844 357.18 95.5156 355.344 95.5156 352.797C95.5156 350.219 97.0547 348.406 99.3594 348.406C101.164 348.406 102.523 349.477 102.734 351.078H101.391C101.195 350.305 100.523 349.594 99.3906 349.594C97.875 349.594 96.8672 350.844 96.8594 352.75C96.8672 354.711 97.8516 355.969 99.3906 355.969C100.391 355.969 101.156 355.43 101.391 354.5H102.734C102.523 356.016 101.273 357.18 99.3906 357.172ZM107.859 357.172C105.547 357.18 103.984 355.43 103.984 352.797C103.984 350.148 105.547 348.406 107.859 348.406C110.164 348.406 111.711 350.148 111.703 352.797C111.711 355.43 110.164 357.18 107.859 357.172ZM105.328 352.797C105.336 354.492 106.133 355.984 107.859 355.984C109.57 355.984 110.359 354.492 110.359 352.797C110.359 351.109 109.57 349.594 107.859 349.594C106.133 349.594 105.336 351.109 105.328 352.797ZM116.672 357.172C114.555 357.18 113.062 355.477 113.062 352.781C113.062 350.094 114.555 348.406 116.688 348.406C118.336 348.406 118.852 349.406 119.141 349.859H119.234V345.688H120.594V357H119.281V355.703H119.141C118.844 356.172 118.289 357.18 116.672 357.172ZM114.422 352.75C114.422 354.555 115.25 355.969 116.859 355.969C118.414 355.969 119.273 354.656 119.281 352.75C119.273 350.867 118.438 349.609 116.859 349.609C115.227 349.609 114.422 350.977 114.422 352.75ZM126.484 357.172C124.031 357.18 122.516 355.43 122.516 352.828C122.516 350.219 124.055 348.406 126.359 348.406C128.141 348.406 130.023 349.5 130.016 352.641V353.203H123.859C123.93 355 124.977 355.984 126.484 355.984C127.5 355.984 128.141 355.539 128.453 355.016H129.891C129.492 356.305 128.234 357.18 126.484 357.172ZM123.867 352.062H128.656C128.648 350.648 127.758 349.594 126.359 349.594C124.891 349.594 123.961 350.75 123.867 352.062ZM131.766 357V348.516H133.109V357H131.766ZM131.5 346.219C131.492 345.719 131.922 345.32 132.438 345.328C132.953 345.32 133.383 345.719 133.391 346.219C133.383 346.711 132.953 347.109 132.438 347.109C131.922 347.109 131.492 346.711 131.5 346.219ZM138.953 348.516V349.641H137.172V354.562C137.164 355.648 137.711 355.828 138.281 355.828C138.523 355.828 138.883 355.805 139.078 355.797V357.047C138.867 357.078 138.539 357.109 138.141 357.109C137.008 357.109 135.82 356.406 135.812 354.906V349.641H134.531V348.516H135.812V346.484H137.172V348.516H138.953ZM141.641 357.094C141.094 357.086 140.625 356.633 140.641 356.078C140.625 355.531 141.094 355.078 141.641 355.078C142.195 355.078 142.648 355.531 142.641 356.078C142.648 356.633 142.195 357.086 141.641 357.094ZM148.219 357.172C145.812 357.18 144.344 355.344 144.344 352.797C144.344 350.219 145.883 348.406 148.188 348.406C149.992 348.406 151.352 349.477 151.562 351.078H150.219C150.023 350.305 149.352 349.594 148.219 349.594C146.703 349.594 145.695 350.844 145.688 352.75C145.695 354.711 146.68 355.969 148.219 355.969C149.219 355.969 149.984 355.43 150.219 354.5H151.562C151.352 356.016 150.102 357.18 148.219 357.172Z" fill="#1B1B1B"/>
<path d="M27.9492 393.184C27.9375 394.426 29.0156 395.557 30.5508 396.008L30.1172 396.723C28.9102 396.365 27.9668 395.598 27.5039 394.613C27.0527 395.732 26.0684 396.594 24.7969 396.992L24.3398 396.277C25.916 395.785 27.0176 394.566 27.0234 393.207V392.879H24.6562V392.129H30.2695V392.879H27.9492V393.184ZM25.9219 398.129V397.391H32.5664V399.887H26.8477V401.129H32.9531V401.855H25.9453V399.207H31.6523V398.129H25.9219ZM31.6523 396.91V391.531H32.5664V393.816H34.1367V394.578H32.5664V396.91H31.6523ZM43.0781 391.977V395.469H39.9961V396.699H44.2852V397.449H34.793V396.699H39.0938V395.469H36.0234V391.977H43.0781ZM35.5312 401.152C37.4062 400.883 39.0703 399.857 39.0703 398.469V398.105H39.9961V398.469C39.9961 399.857 41.6543 400.883 43.5586 401.152L43.1836 401.891C41.6016 401.621 40.1602 400.883 39.5391 399.74C38.9121 400.883 37.4648 401.621 35.8828 401.891L35.5312 401.152ZM36.9258 394.719H42.1641V392.715H36.9258V394.719ZM51.2227 394.953V395.703H49.1133V397.156C50.0859 397.115 51.0586 397.045 51.9609 396.945L52.0312 397.625C49.7871 397.936 47.3086 398 45.3516 398L45.2109 397.25C46.125 397.244 47.1504 397.232 48.1992 397.197V395.703H46.1602V392.211H51.1406V392.973H47.0859V394.953H51.2227ZM46.9922 401.727V398.797H47.9062V400.953H54.0938V401.727H46.9922ZM52.8281 399.336V391.543H53.7539V399.336H52.8281ZM67.1367 391.531V401.973H66.2109V391.531H67.1367ZM58.9336 395.973C58.9395 393.758 60.041 392.346 61.5938 392.34C63.1406 392.346 64.2598 393.758 64.2539 395.973C64.2598 398.193 63.1406 399.6 61.5938 399.594C60.041 399.6 58.9395 398.193 58.9336 395.973ZM59.8242 395.973C59.8242 397.666 60.5508 398.779 61.5938 398.773C62.6426 398.779 63.3633 397.666 63.3633 395.973C63.3633 394.279 62.6426 393.166 61.5938 393.16C60.5508 393.166 59.8242 394.279 59.8242 395.973ZM73.2891 392.75V395.469H74.8711V391.754H75.75V401.422H74.8711V396.23H73.2891V399.148H69.3047V392.75H73.2891ZM70.1719 398.41H72.4219V393.488H70.1719V398.41ZM76.957 401.949V391.531H77.8477V401.949H76.957ZM82.2422 391.918C83.8008 391.924 84.9316 392.873 84.9375 394.227C84.9316 395.586 83.8008 396.523 82.2422 396.523C80.666 396.523 79.5293 395.586 79.5352 394.227C79.5293 392.873 80.666 391.924 82.2422 391.918ZM80.4375 394.227C80.4258 395.141 81.1934 395.773 82.2422 395.773C83.2734 395.773 84.0469 395.141 84.0469 394.227C84.0469 393.324 83.2734 392.686 82.2422 392.691C81.1934 392.686 80.4258 393.324 80.4375 394.227ZM81.1172 398.129V397.391H87.8906V399.898H82.043V401.07H88.2656V401.809H81.1406V399.207H86.9766V398.129H81.1172ZM86.9766 396.887V391.531H87.8906V396.887H86.9766ZM98.2617 391.531V397.121H97.3477V391.531H98.2617ZM89.9062 394.438C89.9004 393.014 91.0547 392.035 92.6367 392.047C94.2188 392.035 95.3613 393.014 95.3672 394.438C95.3613 395.855 94.2188 396.834 92.6367 396.828C91.0547 396.834 89.9004 395.855 89.9062 394.438ZM90.8086 394.438C90.7969 395.387 91.5645 396.061 92.6367 396.066C93.6973 396.061 94.4648 395.387 94.4648 394.438C94.4648 393.482 93.6973 392.814 92.6367 392.82C91.5645 392.814 90.7969 393.482 90.8086 394.438ZM91.5117 401.809V397.648H92.4258V398.914H97.3477V397.648H98.2617V401.809H91.5117ZM92.4258 401.059H97.3477V399.652H92.4258V401.059ZM108.621 391.531V401.949H107.707V391.531H108.621ZM100.711 399.266V392.562H101.613V398.469C103.207 398.457 104.848 398.334 106.594 397.965L106.723 398.75C104.871 399.137 103.225 399.266 101.555 399.266H100.711ZM118.465 391.531V395.656H120.211V396.43H118.465V401.973H117.551V391.531H118.465ZM110.859 399.359V392.551H115.723V393.312H111.773V398.586C113.66 398.58 114.99 398.498 116.543 398.211L116.66 399.008C115.025 399.301 113.66 399.359 111.68 399.359H110.859ZM121.875 401.07C121.465 401.064 121.113 400.725 121.125 400.309C121.113 399.898 121.465 399.559 121.875 399.559C122.291 399.559 122.631 399.898 122.625 400.309C122.631 400.725 122.291 401.064 121.875 401.07Z" fill="#FF472E"/>
<path d="M442.016 591.375V605.297H440.781V591.375H442.016ZM431.375 601.938V592.562H432.594V596.234H436.734V592.562H437.938V601.938H431.375ZM432.594 600.906H436.734V597.219H432.594V600.906ZM451.641 592.156V597.812H445.125V592.156H451.641ZM446.328 596.844H450.438V593.156H446.328V596.844ZM446.828 600.219V599.234H455.844V602.547H448.062V604.109H456.344V605.109H446.844V601.641H454.641V600.219H446.828ZM454.641 598.547V591.375H455.844V598.547H454.641ZM469.734 591.391V601.672H468.5V596.328H465.219V599.297H458.922V592.312H460.141V594.781H464.016V592.312H465.219V595.297H468.5V591.391H469.734ZM460.141 598.281H464.016V595.75H460.141V598.281ZM460.75 604.969V600.656H461.984V603.938H470.047V604.969H460.75ZM484.047 593.438V594.453H472.672V593.438H477.766V591.609H478.969V593.438H484.047ZM472.047 603.641V602.625H477.766V600.672C475.289 600.539 473.797 599.578 473.812 598.016C473.797 596.367 475.539 595.391 478.375 595.406C481.172 595.391 482.945 596.367 482.938 598.016C482.945 599.578 481.422 600.539 478.969 600.672V602.625H484.766V603.641H472.047ZM475.047 598.016C475.031 599.07 476.305 599.68 478.375 599.688C480.422 599.68 481.695 599.07 481.688 598.016C481.695 596.984 480.422 596.375 478.375 596.375C476.305 596.375 475.031 596.984 475.047 598.016Z" fill="#1B1B1B"/>
<rect x="430.5" y="619.5" width="349" height="57" rx="4.5" fill="white"/>
<rect x="430.5" y="619.5" width="349" height="57" rx="4.5" stroke="#0B3B2D"/>
<circle cx="454" cy="648" r="4" fill="#333236"/>
<circle cx="466" cy="648" r="4" fill="#333236"/>
<circle cx="478" cy="648" r="4" fill="#333236"/>
<circle cx="490" cy="648" r="4" fill="#333236"/>
<circle cx="502" cy="648" r="4" fill="#333236"/>
<circle cx="514" cy="648" r="4" fill="#333236"/>
<path d="M751.773 648.973L750.65 647.85C750.82 646.96 750.586 646.201 749.948 645.573C749.309 644.945 748.543 644.704 747.65 644.85L746.527 643.727C746.759 643.619 746.997 643.542 747.243 643.494C747.488 643.447 747.741 643.423 748 643.423C749.134 643.423 750.097 643.819 750.889 644.61C751.681 645.402 752.076 646.365 752.076 647.5C752.076 647.759 752.054 648.011 752.01 648.257C751.966 648.502 751.887 648.741 751.773 648.973ZM754.953 652.084L753.85 651.05C754.483 650.567 755.05 650.029 755.55 649.437C756.05 648.846 756.466 648.2 756.8 647.5C755.966 645.817 754.762 644.479 753.187 643.487C751.612 642.496 749.883 642 748 642C747.516 642 747.045 642.033 746.587 642.1C746.129 642.167 745.666 642.267 745.2 642.4L744.034 641.235C744.67 640.983 745.319 640.798 745.979 640.679C746.64 640.56 747.314 640.5 748 640.5C750.148 640.5 752.122 641.058 753.921 642.175C755.719 643.292 757.103 644.802 758.071 646.708C758.137 646.835 758.186 646.962 758.216 647.091C758.246 647.22 758.261 647.356 758.261 647.5C758.261 647.643 758.249 647.78 758.224 647.909C758.199 648.037 758.153 648.165 758.086 648.292C757.732 649.045 757.288 649.74 756.753 650.377C756.219 651.014 755.619 651.583 754.953 652.084ZM748 654.5C745.894 654.5 743.965 653.937 742.211 652.812C740.457 651.687 739.063 650.206 738.028 648.367C737.945 648.24 737.884 648.102 737.846 647.954C737.807 647.805 737.788 647.654 737.788 647.5C737.788 647.346 737.805 647.197 737.838 647.054C737.871 646.91 737.93 646.77 738.013 646.633C738.385 645.953 738.806 645.306 739.277 644.691C739.747 644.076 740.288 643.526 740.9 643.038L738.642 640.765C738.503 640.617 738.435 640.44 738.437 640.235C738.439 640.031 738.512 639.856 738.657 639.711C738.802 639.567 738.978 639.494 739.184 639.494C739.391 639.494 739.566 639.567 739.711 639.711L756.288 656.288C756.426 656.427 756.5 656.598 756.508 656.803C756.517 657.007 756.443 657.187 756.288 657.342C756.143 657.487 755.968 657.559 755.761 657.559C755.555 657.559 755.379 657.487 755.234 657.342L751.715 653.854C751.125 654.082 750.519 654.247 749.897 654.348C749.274 654.449 748.642 654.5 748 654.5ZM741.953 644.092C741.368 644.545 740.841 645.057 740.374 645.628C739.906 646.199 739.515 646.823 739.2 647.5C740.033 649.183 741.237 650.521 742.812 651.512C744.387 652.504 746.116 653 748 653C748.429 653 748.852 652.971 749.268 652.913C749.684 652.856 750.097 652.767 750.507 652.646L749.242 651.35C749.039 651.438 748.837 651.498 748.635 651.53C748.433 651.561 748.221 651.577 748 651.577C746.865 651.577 745.902 651.181 745.11 650.389C744.319 649.598 743.923 648.634 743.923 647.5C743.923 647.278 743.94 647.066 743.975 646.864C744.009 646.662 744.068 646.46 744.15 646.258L741.953 644.092Z" fill="#9FA6B2"/>
<path d="M441.633 698.117C439.846 698.117 438.615 697.127 438.621 695.75C438.615 694.654 439.377 693.746 440.344 693.594V693.547C439.5 693.354 438.943 692.574 438.949 691.648C438.943 690.354 440.08 689.398 441.633 689.398C443.18 689.398 444.316 690.354 444.328 691.648C444.316 692.574 443.754 693.354 442.922 693.547V693.594C443.883 693.746 444.645 694.654 444.656 695.75C444.645 697.127 443.402 698.117 441.633 698.117ZM439.676 695.691C439.658 696.582 440.414 697.186 441.633 697.191C442.846 697.186 443.602 696.582 443.602 695.691C443.602 694.754 442.775 694.062 441.633 694.062C440.496 694.062 439.658 694.754 439.676 695.691ZM439.969 691.73C439.975 692.586 440.66 693.166 441.633 693.172C442.6 693.166 443.297 692.586 443.297 691.73C443.297 690.881 442.623 690.307 441.633 690.312C440.625 690.307 439.975 690.881 439.969 691.73ZM449.227 691.73C449.215 693.4 450.422 695.24 451.934 695.961L451.406 696.688C450.234 696.113 449.244 694.883 448.775 693.471C448.295 695 447.252 696.348 446.086 696.945L445.523 696.219C447.023 695.486 448.312 693.506 448.324 691.73V690.371H445.898V689.609H451.57V690.371H449.227V691.73ZM452.848 698.949V688.531H453.762V692.75H455.508V693.535H453.762V698.949H452.848ZM467.672 688.531V698.973H466.746V688.531H467.672ZM459.469 692.973C459.475 690.758 460.576 689.346 462.129 689.34C463.676 689.346 464.795 690.758 464.789 692.973C464.795 695.193 463.676 696.6 462.129 696.594C460.576 696.6 459.475 695.193 459.469 692.973ZM460.359 692.973C460.359 694.666 461.086 695.779 462.129 695.773C463.178 695.779 463.898 694.666 463.898 692.973C463.898 691.279 463.178 690.166 462.129 690.16C461.086 690.166 460.359 691.279 460.359 692.973ZM472.934 690.219C472.934 691.637 474.012 692.938 475.523 693.453L475.02 694.18C473.871 693.758 472.963 692.896 472.506 691.807C472.061 693.043 471.129 693.998 469.91 694.473L469.418 693.734C470.977 693.154 472.025 691.76 472.031 690.148V689.07H472.934V690.219ZM470.801 697.027C470.807 695.838 472.113 695.141 474.258 695.141C476.396 695.141 477.691 695.838 477.691 697.027C477.691 698.24 476.396 698.926 474.258 698.926C472.113 698.926 470.807 698.24 470.801 697.027ZM471.727 697.027C471.715 697.766 472.688 698.193 474.258 698.199C475.834 698.193 476.795 697.766 476.801 697.027C476.795 696.318 475.834 695.879 474.258 695.879C472.688 695.879 471.715 696.318 471.727 697.027ZM476.684 694.871V688.531H477.598V691.25H479.168V692.023H477.598V694.871H476.684ZM491.438 688.531V694.121H490.523V688.531H491.438ZM483.082 691.438C483.076 690.014 484.23 689.035 485.812 689.047C487.395 689.035 488.537 690.014 488.543 691.438C488.537 692.855 487.395 693.834 485.812 693.828C484.23 693.834 483.076 692.855 483.082 691.438ZM483.984 691.438C483.973 692.387 484.74 693.061 485.812 693.066C486.873 693.061 487.641 692.387 487.641 691.438C487.641 690.482 486.873 689.814 485.812 689.82C484.74 689.814 483.973 690.482 483.984 691.438ZM484.688 698.809V694.648H485.602V695.914H490.523V694.648H491.438V698.809H484.688ZM485.602 698.059H490.523V696.652H485.602V698.059ZM498.152 689.176V692.094H494.566V693.711C496.523 693.717 497.537 693.676 498.762 693.453L498.855 694.215C497.561 694.426 496.5 694.461 494.391 694.461H493.652V691.391H497.238V689.914H493.629V689.176H498.152ZM494.824 696.254V695.504H501.844V698.973H500.918V696.254H494.824ZM498.844 693.008V692.246H500.918V690.84H498.844V690.09H500.918V688.543H501.844V694.941H500.918V693.008H498.844ZM508.781 690.336V691.086H503.555V690.336H505.723V688.848H506.637V690.336H508.781ZM503.93 694.156C503.93 692.773 504.873 691.795 506.168 691.789C507.48 691.795 508.418 692.773 508.43 694.156C508.418 695.557 507.48 696.541 506.168 696.547C504.873 696.541 503.93 695.557 503.93 694.156ZM504.75 694.156C504.75 695.082 505.342 695.744 506.168 695.738C507 695.744 507.609 695.082 507.609 694.156C507.609 693.242 507 692.574 506.168 692.562C505.342 692.574 504.75 693.242 504.75 694.156ZM509.32 698.434V688.789H510.188V692.926H511.57V688.531H512.449V698.949H511.57V693.688H510.188V698.434H509.32ZM522.223 690.008C522.217 691.402 524.074 692.586 525.891 692.855L525.551 693.582C523.928 693.307 522.34 692.439 521.707 691.186C521.074 692.439 519.486 693.307 517.887 693.582L517.523 692.855C519.334 692.586 521.186 691.402 521.191 690.008V689.938H517.852V689.188H525.551V689.938H522.223V690.008ZM516.961 695.234V694.473H526.453V695.234H522.141V698.949H521.238V695.234H516.961ZM530.426 691.496C530.426 693.154 531.234 694.941 532.617 695.762L532.09 696.477C531.082 695.867 530.361 694.754 529.998 693.482C529.617 694.871 528.844 696.066 527.801 696.699L527.215 696.008C528.656 695.164 529.535 693.318 529.535 691.531V689.516H530.426V691.496ZM531.469 693.055V692.27H533.238V688.754H534.105V698.422H533.238V693.055H531.469ZM535.371 698.949V688.531H536.262V698.949H535.371ZM547.242 696.84V697.613H537.703V696.84H540.07V694.033C539.18 693.57 538.641 692.82 538.641 691.871C538.641 690.26 540.223 689.199 542.449 689.188C544.676 689.199 546.258 690.26 546.258 691.871C546.258 692.803 545.736 693.541 544.875 694.004V696.84H547.242ZM539.531 691.871C539.525 693.037 540.738 693.816 542.449 693.816C544.143 693.816 545.367 693.037 545.367 691.871C545.367 690.705 544.143 689.938 542.449 689.949C540.738 689.938 539.525 690.705 539.531 691.871ZM540.973 696.84H543.949V694.361C543.498 694.479 542.994 694.543 542.449 694.543C541.916 694.543 541.418 694.484 540.973 694.367V696.84ZM549.176 698.07C548.766 698.064 548.414 697.725 548.426 697.309C548.414 696.898 548.766 696.559 549.176 696.559C549.592 696.559 549.932 696.898 549.926 697.309C549.932 697.725 549.592 698.064 549.176 698.07Z" fill="#0B3B2D"/>
<path d="M442.016 158.375V172.297H440.781V158.375H442.016ZM431.375 168.938V159.562H432.594V163.234H436.734V159.562H437.938V168.938H431.375ZM432.594 167.906H436.734V164.219H432.594V167.906ZM451.641 159.156V164.812H445.125V159.156H451.641ZM446.328 163.844H450.438V160.156H446.328V163.844ZM446.828 167.219V166.234H455.844V169.547H448.062V171.109H456.344V172.109H446.844V168.641H454.641V167.219H446.828ZM454.641 165.547V158.375H455.844V165.547H454.641ZM469.734 158.391V168.672H468.5V163.328H465.219V166.297H458.922V159.312H460.141V161.781H464.016V159.312H465.219V162.297H468.5V158.391H469.734ZM460.141 165.281H464.016V162.75H460.141V165.281ZM460.75 171.969V167.656H461.984V170.938H470.047V171.969H460.75ZM484.047 160.438V161.453H472.672V160.438H477.766V158.609H478.969V160.438H484.047ZM472.047 170.641V169.625H477.766V167.672C475.289 167.539 473.797 166.578 473.812 165.016C473.797 163.367 475.539 162.391 478.375 162.406C481.172 162.391 482.945 163.367 482.938 165.016C482.945 166.578 481.422 167.539 478.969 167.672V169.625H484.766V170.641H472.047ZM475.047 165.016C475.031 166.07 476.305 166.68 478.375 166.688C480.422 166.68 481.695 166.07 481.688 165.016C481.695 163.984 480.422 163.375 478.375 163.375C476.305 163.375 475.031 163.984 475.047 165.016Z" fill="#1B1B1B"/>
<rect x="430.5" y="186.5" width="349" height="57" rx="4.5" fill="white"/>
<rect x="430.5" y="186.5" width="349" height="57" rx="4.5" stroke="#A4A1AA"/>
<circle cx="454" cy="215" r="4" fill="#333236"/>
<circle cx="466" cy="215" r="4" fill="#333236"/>
<circle cx="478" cy="215" r="4" fill="#333236"/>
<circle cx="490" cy="215" r="4" fill="#333236"/>
<circle cx="502" cy="215" r="4" fill="#333236"/>
<circle cx="514" cy="215" r="4" fill="#333236"/>
<circle cx="526" cy="215" r="4" fill="#333236"/>
<circle cx="538" cy="215" r="4" fill="#333236"/>
<path d="M751.773 215.973L750.65 214.85C750.82 213.96 750.586 213.201 749.948 212.573C749.309 211.945 748.543 211.704 747.65 211.85L746.527 210.727C746.759 210.619 746.997 210.542 747.243 210.494C747.488 210.447 747.741 210.423 748 210.423C749.134 210.423 750.097 210.819 750.889 211.61C751.681 212.402 752.076 213.365 752.076 214.5C752.076 214.759 752.054 215.011 752.01 215.257C751.966 215.502 751.887 215.741 751.773 215.973ZM754.953 219.084L753.85 218.05C754.483 217.567 755.05 217.029 755.55 216.437C756.05 215.846 756.466 215.2 756.8 214.5C755.966 212.817 754.762 211.479 753.187 210.487C751.612 209.496 749.883 209 748 209C747.516 209 747.045 209.033 746.587 209.1C746.129 209.167 745.666 209.267 745.2 209.4L744.034 208.235C744.67 207.983 745.319 207.798 745.979 207.679C746.64 207.56 747.314 207.5 748 207.5C750.148 207.5 752.122 208.058 753.921 209.175C755.719 210.292 757.103 211.802 758.071 213.708C758.137 213.835 758.186 213.962 758.216 214.091C758.246 214.22 758.261 214.356 758.261 214.5C758.261 214.643 758.249 214.78 758.224 214.909C758.199 215.037 758.153 215.165 758.086 215.292C757.732 216.045 757.288 216.74 756.753 217.377C756.219 218.014 755.619 218.583 754.953 219.084ZM748 221.5C745.894 221.5 743.965 220.937 742.211 219.812C740.457 218.687 739.063 217.206 738.028 215.367C737.945 215.24 737.884 215.102 737.846 214.954C737.807 214.805 737.788 214.654 737.788 214.5C737.788 214.346 737.805 214.197 737.838 214.054C737.871 213.91 737.93 213.77 738.013 213.633C738.385 212.953 738.806 212.306 739.277 211.691C739.747 211.076 740.288 210.526 740.9 210.038L738.642 207.765C738.503 207.617 738.435 207.44 738.437 207.235C738.439 207.031 738.512 206.856 738.657 206.711C738.802 206.567 738.978 206.494 739.184 206.494C739.391 206.494 739.566 206.567 739.711 206.711L756.288 223.288C756.426 223.427 756.5 223.598 756.508 223.803C756.517 224.007 756.443 224.187 756.288 224.342C756.143 224.487 755.968 224.559 755.761 224.559C755.555 224.559 755.379 224.487 755.234 224.342L751.715 220.854C751.125 221.082 750.519 221.247 749.897 221.348C749.274 221.449 748.642 221.5 748 221.5ZM741.953 211.092C741.368 211.545 740.841 212.057 740.374 212.628C739.906 213.199 739.515 213.823 739.2 214.5C740.033 216.183 741.237 217.521 742.812 218.512C744.387 219.504 746.116 220 748 220C748.429 220 748.852 219.971 749.268 219.913C749.684 219.856 750.097 219.767 750.507 219.646L749.242 218.35C749.039 218.438 748.837 218.498 748.635 218.53C748.433 218.561 748.221 218.577 748 218.577C746.865 218.577 745.902 218.181 745.11 217.389C744.319 216.598 743.923 215.634 743.923 214.5C743.923 214.278 743.94 214.066 743.975 213.864C744.009 213.662 744.068 213.46 744.15 213.258L741.953 211.092Z" fill="#9FA6B2"/>
<path d="M442.016 22.375V36.2969H440.781V22.375H442.016ZM431.375 32.9375V23.5625H432.594V27.2344H436.734V23.5625H437.938V32.9375H431.375ZM432.594 31.9062H436.734V28.2188H432.594V31.9062ZM451.641 23.1562V28.8125H445.125V23.1562H451.641ZM446.328 27.8438H450.438V24.1562H446.328V27.8438ZM446.828 31.2188V30.2344H455.844V33.5469H448.062V35.1094H456.344V36.1094H446.844V32.6406H454.641V31.2188H446.828ZM454.641 29.5469V22.375H455.844V29.5469H454.641ZM469.734 22.3906V32.6719H468.5V27.3281H465.219V30.2969H458.922V23.3125H460.141V25.7812H464.016V23.3125H465.219V26.2969H468.5V22.3906H469.734ZM460.141 29.2812H464.016V26.75H460.141V29.2812ZM460.75 35.9688V31.6562H461.984V34.9375H470.047V35.9688H460.75ZM484.047 24.4375V25.4531H472.672V24.4375H477.766V22.6094H478.969V24.4375H484.047ZM472.047 34.6406V33.625H477.766V31.6719C475.289 31.5391 473.797 30.5781 473.812 29.0156C473.797 27.3672 475.539 26.3906 478.375 26.4062C481.172 26.3906 482.945 27.3672 482.938 29.0156C482.945 30.5781 481.422 31.5391 478.969 31.6719V33.625H484.766V34.6406H472.047ZM475.047 29.0156C475.031 30.0703 476.305 30.6797 478.375 30.6875C480.422 30.6797 481.695 30.0703 481.688 29.0156C481.695 27.9844 480.422 27.375 478.375 27.375C476.305 27.375 475.031 27.9844 475.047 29.0156Z" fill="#1B1B1B"/>
<rect x="430.5" y="50.5" width="349" height="57" rx="4.5" fill="white"/>
<rect x="430.5" y="50.5" width="349" height="57" rx="4.5" stroke="#A4A1AA"/>
<path d="M462.016 72.375V86.2969H460.781V72.375H462.016ZM451.375 82.9375V73.5625H452.594V77.2344H456.734V73.5625H457.938V82.9375H451.375ZM452.594 81.9062H456.734V78.2188H452.594V81.9062ZM471.641 73.1562V78.8125H465.125V73.1562H471.641ZM466.328 77.8438H470.438V74.1562H466.328V77.8438ZM466.828 81.2188V80.2344H475.844V83.5469H468.062V85.1094H476.344V86.1094H466.844V82.6406H474.641V81.2188H466.828ZM474.641 79.5469V72.375H475.844V79.5469H474.641ZM489.734 72.3906V82.6719H488.5V77.3281H485.219V80.2969H478.922V73.3125H480.141V75.7812H484.016V73.3125H485.219V76.2969H488.5V72.3906H489.734ZM480.141 79.2812H484.016V76.75H480.141V79.2812ZM480.75 85.9688V81.6562H481.984V84.9375H490.047V85.9688H480.75ZM504.047 74.4375V75.4531H492.672V74.4375H497.766V72.6094H498.969V74.4375H504.047ZM492.047 84.6406V83.625H497.766V81.6719C495.289 81.5391 493.797 80.5781 493.812 79.0156C493.797 77.3672 495.539 76.3906 498.375 76.4062C501.172 76.3906 502.945 77.3672 502.938 79.0156C502.945 80.5781 501.422 81.5391 498.969 81.6719V83.625H504.766V84.6406H492.047ZM495.047 79.0156C495.031 80.0703 496.305 80.6797 498.375 80.6875C500.422 80.6797 501.695 80.0703 501.688 79.0156C501.695 77.9844 500.422 77.375 498.375 77.375C496.305 77.375 495.031 77.9844 495.047 79.0156ZM518.578 78.8281V79.7969H505.859V78.8281H518.578ZM507.391 81.8281V80.9062H516.984V83.8594H508.641V85.1875H517.438V86.0781H507.406V83.0156H515.766V81.8281H507.391ZM507.469 73.6875V72.7969H516.938V75.6719H508.734V76.8906H517.188V77.7812H507.516V74.8281H515.703V73.6875H507.469ZM535.188 72.375V79.8281H533.969V72.375H535.188ZM524.047 76.25C524.039 74.3516 525.578 73.0469 527.688 73.0625C529.797 73.0469 531.32 74.3516 531.328 76.25C531.32 78.1406 529.797 79.4453 527.688 79.4375C525.578 79.4453 524.039 78.1406 524.047 76.25ZM525.25 76.25C525.234 77.5156 526.258 78.4141 527.688 78.4219C529.102 78.4141 530.125 77.5156 530.125 76.25C530.125 74.9766 529.102 74.0859 527.688 74.0938C526.258 74.0859 525.234 74.9766 525.25 76.25ZM526.188 86.0781V80.5312H527.406V82.2188H533.969V80.5312H535.188V86.0781H526.188ZM527.406 85.0781H533.969V83.2031H527.406V85.0781ZM544.141 73.2344V77.125H539.359V79.2812C541.969 79.2891 543.32 79.2344 544.953 78.9375L545.078 79.9531C543.352 80.2344 541.938 80.2812 539.125 80.2812H538.141V76.1875H542.922V74.2188H538.109V73.2344H544.141ZM539.703 82.6719V81.6719H549.062V86.2969H547.828V82.6719H539.703ZM545.062 78.3438V77.3281H547.828V75.4531H545.062V74.4531H547.828V72.3906H549.062V80.9219H547.828V78.3438H545.062ZM558.312 74.7812V75.7812H551.344V74.7812H554.234V72.7969H555.453V74.7812H558.312ZM551.844 79.875C551.844 78.0312 553.102 76.7266 554.828 76.7188C556.578 76.7266 557.828 78.0312 557.844 79.875C557.828 81.7422 556.578 83.0547 554.828 83.0625C553.102 83.0547 551.844 81.7422 551.844 79.875ZM552.938 79.875C552.938 81.1094 553.727 81.9922 554.828 81.9844C555.938 81.9922 556.75 81.1094 556.75 79.875C556.75 78.6562 555.938 77.7656 554.828 77.75C553.727 77.7656 552.938 78.6562 552.938 79.875ZM559.031 85.5781V72.7188H560.188V78.2344H562.031V72.375H563.203V86.2656H562.031V79.25H560.188V85.5781H559.031ZM572.219 74.3438C572.211 76.2031 574.688 77.7812 577.109 78.1406L576.656 79.1094C574.492 78.7422 572.375 77.5859 571.531 75.9141C570.688 77.5859 568.57 78.7422 566.438 79.1094L565.953 78.1406C568.367 77.7812 570.836 76.2031 570.844 74.3438V74.25H566.391V73.25H576.656V74.25H572.219V74.3438ZM565.203 81.3125V80.2969H577.859V81.3125H572.109V86.2656H570.906V81.3125H565.203ZM583.156 76.3281C583.156 78.5391 584.234 80.9219 586.078 82.0156L585.375 82.9688C584.031 82.1562 583.07 80.6719 582.586 78.9766C582.078 80.8281 581.047 82.4219 579.656 83.2656L578.875 82.3438C580.797 81.2188 581.969 78.7578 581.969 76.375V73.6875H583.156V76.3281ZM584.547 78.4062V77.3594H586.906V72.6719H588.062V85.5625H586.906V78.4062H584.547ZM589.75 86.2656V72.375H590.938V86.2656H589.75ZM605.578 83.4531V84.4844H592.859V83.4531H596.016V79.7109C594.828 79.0938 594.109 78.0938 594.109 76.8281C594.109 74.6797 596.219 73.2656 599.188 73.25C602.156 73.2656 604.266 74.6797 604.266 76.8281C604.266 78.0703 603.57 79.0547 602.422 79.6719V83.4531H605.578ZM595.297 76.8281C595.289 78.3828 596.906 79.4219 599.188 79.4219C601.445 79.4219 603.078 78.3828 603.078 76.8281C603.078 75.2734 601.445 74.25 599.188 74.2656C596.906 74.25 595.289 75.2734 595.297 76.8281ZM597.219 83.4531H601.188V80.1484C600.586 80.3047 599.914 80.3906 599.188 80.3906C598.477 80.3906 597.812 80.3125 597.219 80.1562V83.4531Z" fill="#A4A1AA"/>
<path d="M751.773 78.9729L750.65 77.8499C750.82 76.9601 750.586 76.2012 749.948 75.573C749.309 74.9448 748.543 74.7037 747.65 74.8499L746.527 73.7268C746.759 73.6191 746.997 73.5416 747.243 73.4941C747.488 73.4467 747.741 73.423 748 73.423C749.134 73.423 750.097 73.8188 750.889 74.6105C751.681 75.4022 752.076 76.3653 752.076 77.4999C752.076 77.7589 752.054 78.0111 752.01 78.2566C751.966 78.5021 751.887 78.7409 751.773 78.9729ZM754.953 82.0845L753.85 81.0499C754.483 80.5666 755.05 80.0291 755.55 79.4374C756.05 78.8457 756.466 78.1999 756.8 77.4999C755.966 75.8166 754.762 74.4791 753.187 73.4874C751.612 72.4957 749.883 71.9999 748 71.9999C747.516 71.9999 747.045 72.0332 746.587 72.0999C746.129 72.1666 745.666 72.2666 745.2 72.3999L744.034 71.2345C744.67 70.9833 745.319 70.798 745.979 70.6788C746.64 70.5595 747.314 70.4999 748 70.4999C750.148 70.4999 752.122 71.0582 753.921 72.1749C755.719 73.2916 757.103 74.8025 758.071 76.7076C758.137 76.8345 758.186 76.9624 758.216 77.0912C758.246 77.2201 758.261 77.3563 758.261 77.4999C758.261 77.6435 758.249 77.7797 758.224 77.9085C758.199 78.0374 758.153 78.1653 758.086 78.2922C757.732 79.0448 757.288 79.7396 756.753 80.3768C756.219 81.014 755.619 81.5832 754.953 82.0845ZM748 84.4999C745.894 84.4999 743.965 83.9374 742.211 82.8124C740.457 81.6874 739.063 80.2056 738.028 78.3672C737.945 78.2403 737.884 78.1025 737.846 77.9537C737.807 77.805 737.788 77.6537 737.788 77.4999C737.788 77.346 737.805 77.1973 737.838 77.0537C737.871 76.9102 737.93 76.7698 738.013 76.6326C738.385 75.9531 738.806 75.306 739.277 74.6912C739.747 74.0765 740.288 73.5255 740.9 73.0384L738.642 70.7653C738.503 70.6165 738.435 70.4399 738.437 70.2355C738.439 70.031 738.512 69.8563 738.657 69.7114C738.802 69.5666 738.978 69.4941 739.184 69.4941C739.391 69.4941 739.566 69.5666 739.711 69.7114L756.288 86.2883C756.426 86.4268 756.5 86.5983 756.508 86.8027C756.517 87.0072 756.443 87.187 756.288 87.3422C756.143 87.487 755.968 87.5595 755.761 87.5595C755.555 87.5595 755.379 87.487 755.234 87.3422L751.715 83.8537C751.125 84.0819 750.519 84.2467 749.897 84.3479C749.274 84.4492 748.642 84.4999 748 84.4999ZM741.953 74.0922C741.368 74.5447 740.841 75.0566 740.374 75.6278C739.906 76.1989 739.515 76.823 739.2 77.4999C740.033 79.1832 741.237 80.5207 742.812 81.5124C744.387 82.5041 746.116 82.9999 748 82.9999C748.429 82.9999 748.852 82.971 749.268 82.9133C749.684 82.8557 750.097 82.7666 750.507 82.646L749.242 81.3499C749.039 81.4383 748.837 81.4982 748.635 81.5297C748.433 81.5611 748.221 81.5768 748 81.5768C746.865 81.5768 745.902 81.181 745.11 80.3893C744.319 79.5976 743.923 78.6345 743.923 77.4999C743.923 77.2781 743.94 77.0662 743.975 76.8643C744.009 76.6624 744.068 76.4601 744.15 76.2576L741.953 74.0922Z" fill="#9FA6B2"/>
<path d="M442.016 455.375V469.297H440.781V455.375H442.016ZM431.375 465.938V456.562H432.594V460.234H436.734V456.562H437.938V465.938H431.375ZM432.594 464.906H436.734V461.219H432.594V464.906ZM451.641 456.156V461.812H445.125V456.156H451.641ZM446.328 460.844H450.438V457.156H446.328V460.844ZM446.828 464.219V463.234H455.844V466.547H448.062V468.109H456.344V469.109H446.844V465.641H454.641V464.219H446.828ZM454.641 462.547V455.375H455.844V462.547H454.641ZM469.734 455.391V465.672H468.5V460.328H465.219V463.297H458.922V456.312H460.141V458.781H464.016V456.312H465.219V459.297H468.5V455.391H469.734ZM460.141 462.281H464.016V459.75H460.141V462.281ZM460.75 468.969V464.656H461.984V467.938H470.047V468.969H460.75ZM484.047 457.438V458.453H472.672V457.438H477.766V455.609H478.969V457.438H484.047ZM472.047 467.641V466.625H477.766V464.672C475.289 464.539 473.797 463.578 473.812 462.016C473.797 460.367 475.539 459.391 478.375 459.406C481.172 459.391 482.945 460.367 482.938 462.016C482.945 463.578 481.422 464.539 478.969 464.672V466.625H484.766V467.641H472.047ZM475.047 462.016C475.031 463.07 476.305 463.68 478.375 463.688C480.422 463.68 481.695 463.07 481.688 462.016C481.695 460.984 480.422 460.375 478.375 460.375C476.305 460.375 475.031 460.984 475.047 462.016Z" fill="#1B1B1B"/>
<rect x="430.5" y="483.5" width="349" height="59" rx="4.5" fill="white"/>
<rect x="430.5" y="483.5" width="349" height="59" rx="4.5" stroke="#79747E"/>
<path d="M450.672 516.594C450.672 514.648 452.391 514.203 453.859 514.094C454.406 514.055 455.773 513.977 456.156 513.969V513.281C456.156 512.203 455.516 511.578 454.234 511.578C453.164 511.578 452.516 512.07 452.328 512.719H450.922C451.094 511.352 452.422 510.406 454.297 510.406C455.406 510.406 457.492 510.734 457.484 513.406V519H456.156V517.844H456.094C455.812 518.414 455.039 519.195 453.562 519.203C451.953 519.195 450.672 518.25 450.672 516.594ZM452.016 516.656C452.023 517.555 452.766 518.008 453.797 518C455.312 518.008 456.156 516.992 456.156 515.922V515.07C455.758 515.094 454.422 515.195 454.016 515.219C452.797 515.297 452.023 515.727 452.016 516.656ZM459.812 519V507.688H461.156V511.859H461.266C461.555 511.406 462.062 510.406 463.719 510.406C465.844 510.406 467.336 512.094 467.344 514.781C467.336 517.477 465.844 519.18 463.734 519.172C462.109 519.18 461.555 518.172 461.266 517.703H461.109V519H459.812ZM461.125 514.75C461.125 516.656 461.984 517.969 463.531 517.969C465.148 517.969 465.977 516.555 465.984 514.75C465.977 512.977 465.172 511.609 463.531 511.609C461.969 511.609 461.125 512.867 461.125 514.75ZM472.562 519.172C470.156 519.18 468.688 517.344 468.688 514.797C468.688 512.219 470.227 510.406 472.531 510.406C474.336 510.406 475.695 511.477 475.906 513.078H474.562C474.367 512.305 473.695 511.594 472.562 511.594C471.047 511.594 470.039 512.844 470.031 514.75C470.039 516.711 471.023 517.969 472.562 517.969C473.562 517.969 474.328 517.43 474.562 516.5H475.906C475.695 518.016 474.445 519.18 472.562 519.172ZM480.766 519.172C478.648 519.18 477.156 517.477 477.156 514.781C477.156 512.094 478.648 510.406 480.781 510.406C482.43 510.406 482.945 511.406 483.234 511.859H483.328V507.688H484.688V519H483.375V517.703H483.234C482.938 518.172 482.383 519.18 480.766 519.172ZM478.516 514.75C478.516 516.555 479.344 517.969 480.953 517.969C482.508 517.969 483.367 516.656 483.375 514.75C483.367 512.867 482.531 511.609 480.953 511.609C479.32 511.609 478.516 512.977 478.516 514.75ZM491 507.688V519H489.578V509.156H489.516L486.766 510.984V509.562L489.578 507.688H491ZM494.016 519L494 517.969L497.859 513.906C499.195 512.484 499.836 511.719 499.844 510.672C499.836 509.508 498.867 508.758 497.594 508.75C496.242 508.758 495.398 509.609 495.391 510.875H494.062C494.047 508.875 495.594 507.531 497.641 507.531C499.695 507.531 501.148 508.914 501.156 510.672C501.148 511.938 500.562 512.922 498.562 514.984L495.969 517.656V517.75H501.359V519H494.016ZM507.312 519.156C505.062 519.156 503.445 517.953 503.375 516.156H504.797C504.875 517.234 505.945 517.906 507.297 517.906C508.789 517.906 509.867 517.102 509.875 515.922C509.867 514.688 508.883 513.82 507.125 513.812H506.203V512.578H507.125C508.5 512.578 509.461 511.805 509.453 510.641C509.461 509.508 508.633 508.758 507.344 508.75C506.133 508.758 505.031 509.422 504.969 510.531H503.609C503.68 508.734 505.352 507.531 507.359 507.531C509.516 507.531 510.828 508.945 510.812 510.562C510.828 511.852 510.078 512.789 508.891 513.125V513.203C510.367 513.43 511.258 514.484 511.25 515.922C511.258 517.781 509.57 519.156 507.312 519.156ZM513 516.688V515.531L518.094 507.688H519.828V515.453H521.406V516.688H519.828V519H518.484V516.688H513ZM514.516 515.453H518.484V509.469H518.344L514.516 515.359V515.453Z" fill="#1B1B1B"/>
<path d="M748.002 515.577C749.135 515.577 750.098 515.18 750.889 514.387C751.681 513.594 752.077 512.631 752.077 511.498C752.077 510.365 751.68 509.402 750.887 508.611C750.094 507.819 749.131 507.423 747.998 507.423C746.864 507.423 745.902 507.82 745.11 508.613C744.319 509.406 743.923 510.369 743.923 511.502C743.923 512.635 744.32 513.598 745.113 514.389C745.906 515.181 746.869 515.577 748.002 515.577ZM748 514.2C747.25 514.2 746.612 513.937 746.087 513.412C745.562 512.887 745.3 512.25 745.3 511.5C745.3 510.75 745.562 510.112 746.087 509.587C746.612 509.062 747.25 508.8 748 508.8C748.75 508.8 749.387 509.062 749.912 509.587C750.437 510.112 750.7 510.75 750.7 511.5C750.7 512.25 750.437 512.887 749.912 513.412C749.387 513.937 748.75 514.2 748 514.2ZM748 518.5C745.895 518.5 743.969 517.938 742.224 516.815C740.478 515.692 739.085 514.215 738.044 512.383C737.961 512.239 737.9 512.094 737.861 511.949C737.823 511.803 737.804 511.653 737.804 511.499C737.804 511.346 737.823 511.196 737.861 511.051C737.9 510.905 737.961 510.761 738.044 510.617C739.085 508.785 740.478 507.308 742.224 506.185C743.969 505.062 745.895 504.5 748 504.5C750.105 504.5 752.03 505.062 753.776 506.185C755.521 507.308 756.915 508.785 757.956 510.617C758.039 510.761 758.1 510.906 758.138 511.051C758.177 511.197 758.196 511.347 758.196 511.5C758.196 511.654 758.177 511.804 758.138 511.949C758.1 512.095 758.039 512.239 757.956 512.383C756.915 514.215 755.521 515.692 753.776 516.815C752.03 517.938 750.105 518.5 748 518.5ZM748 517C749.883 517 751.612 516.504 753.187 515.512C754.762 514.521 755.967 513.183 756.8 511.5C755.967 509.817 754.762 508.479 753.187 507.487C751.612 506.496 749.883 506 748 506C746.117 506 744.387 506.496 742.812 507.487C741.237 508.479 740.033 509.817 739.2 511.5C740.033 513.183 741.237 514.521 742.812 515.512C744.387 516.504 746.117 517 748 517Z" fill="#9FA6B2"/>
<path d="M442.016 295.375V309.297H440.781V295.375H442.016ZM431.375 305.938V296.562H432.594V300.234H436.734V296.562H437.938V305.938H431.375ZM432.594 304.906H436.734V301.219H432.594V304.906ZM451.641 296.156V301.812H445.125V296.156H451.641ZM446.328 300.844H450.438V297.156H446.328V300.844ZM446.828 304.219V303.234H455.844V306.547H448.062V308.109H456.344V309.109H446.844V305.641H454.641V304.219H446.828ZM454.641 302.547V295.375H455.844V302.547H454.641ZM469.734 295.391V305.672H468.5V300.328H465.219V303.297H458.922V296.312H460.141V298.781H464.016V296.312H465.219V299.297H468.5V295.391H469.734ZM460.141 302.281H464.016V299.75H460.141V302.281ZM460.75 308.969V304.656H461.984V307.938H470.047V308.969H460.75ZM484.047 297.438V298.453H472.672V297.438H477.766V295.609H478.969V297.438H484.047ZM472.047 307.641V306.625H477.766V304.672C475.289 304.539 473.797 303.578 473.812 302.016C473.797 300.367 475.539 299.391 478.375 299.406C481.172 299.391 482.945 300.367 482.938 302.016C482.945 303.578 481.422 304.539 478.969 304.672V306.625H484.766V307.641H472.047ZM475.047 302.016C475.031 303.07 476.305 303.68 478.375 303.688C480.422 303.68 481.695 303.07 481.688 302.016C481.695 300.984 480.422 300.375 478.375 300.375C476.305 300.375 475.031 300.984 475.047 302.016ZM500.734 295.391V299.594H502.812V300.625H500.734V304.703H499.5V295.391H500.734ZM489.828 303.281C490.938 303.281 492.234 303.281 493.594 303.242V302.219C491.977 302.07 490.93 301.328 490.938 300.172C490.93 298.906 492.234 298.125 494.188 298.125C496.156 298.125 497.438 298.906 497.453 300.172C497.438 301.32 496.422 302.062 494.812 302.219V303.195C496.109 303.133 497.422 303.023 498.641 302.844L498.75 303.734C495.734 304.266 492.414 304.289 489.969 304.281L489.828 303.281ZM490.172 297.594V296.656H493.594V295.266H494.812V296.656H498.219V297.594H490.172ZM491.531 306.375V305.391H500.734V309.266H499.5V306.375H491.531ZM492.109 300.172C492.102 300.898 492.906 301.391 494.188 301.375C495.469 301.391 496.281 300.898 496.281 300.172C496.281 299.438 495.469 298.984 494.188 299C492.906 298.984 492.102 299.438 492.109 300.172ZM515.188 295.391V305.547H513.969V295.391H515.188ZM504.047 299.766C504.039 297.766 505.609 296.367 507.688 296.359C509.766 296.367 511.32 297.766 511.328 299.766C511.32 301.789 509.766 303.195 507.688 303.188C505.609 303.195 504.039 301.789 504.047 299.766ZM505.25 299.766C505.234 301.148 506.281 302.109 507.688 302.109C509.07 302.109 510.125 301.148 510.125 299.766C510.125 298.406 509.07 297.438 507.688 297.438C506.281 297.438 505.234 298.406 505.25 299.766ZM506.219 308.969V304.516H507.438V307.938H515.625V308.969H506.219Z" fill="#1B1B1B"/>
<rect x="430.5" y="323.5" width="349" height="57" rx="4.5" fill="white"/>
<rect x="430.5" y="323.5" width="349" height="57" rx="4.5" stroke="#FF472E"/>
<circle cx="454" cy="352" r="4" fill="#333236"/>
<circle cx="466" cy="352" r="4" fill="#333236"/>
<circle cx="478" cy="352" r="4" fill="#333236"/>
<circle cx="490" cy="352" r="4" fill="#333236"/>
<circle cx="502" cy="352" r="4" fill="#333236"/>
<circle cx="514" cy="352" r="4" fill="#333236"/>
<path d="M751.773 352.973L750.65 351.85C750.82 350.96 750.586 350.201 749.948 349.573C749.309 348.945 748.543 348.704 747.65 348.85L746.527 347.727C746.759 347.619 746.997 347.542 747.243 347.494C747.488 347.447 747.741 347.423 748 347.423C749.134 347.423 750.097 347.819 750.889 348.61C751.681 349.402 752.076 350.365 752.076 351.5C752.076 351.759 752.054 352.011 752.01 352.257C751.966 352.502 751.887 352.741 751.773 352.973ZM754.953 356.084L753.85 355.05C754.483 354.567 755.05 354.029 755.55 353.437C756.05 352.846 756.466 352.2 756.8 351.5C755.966 349.817 754.762 348.479 753.187 347.487C751.612 346.496 749.883 346 748 346C747.516 346 747.045 346.033 746.587 346.1C746.129 346.167 745.666 346.267 745.2 346.4L744.034 345.235C744.67 344.983 745.319 344.798 745.979 344.679C746.64 344.56 747.314 344.5 748 344.5C750.148 344.5 752.122 345.058 753.921 346.175C755.719 347.292 757.103 348.802 758.071 350.708C758.137 350.835 758.186 350.962 758.216 351.091C758.246 351.22 758.261 351.356 758.261 351.5C758.261 351.643 758.249 351.78 758.224 351.909C758.199 352.037 758.153 352.165 758.086 352.292C757.732 353.045 757.288 353.74 756.753 354.377C756.219 355.014 755.619 355.583 754.953 356.084ZM748 358.5C745.894 358.5 743.965 357.937 742.211 356.812C740.457 355.687 739.063 354.206 738.028 352.367C737.945 352.24 737.884 352.102 737.846 351.954C737.807 351.805 737.788 351.654 737.788 351.5C737.788 351.346 737.805 351.197 737.838 351.054C737.871 350.91 737.93 350.77 738.013 350.633C738.385 349.953 738.806 349.306 739.277 348.691C739.747 348.076 740.288 347.526 740.9 347.038L738.642 344.765C738.503 344.617 738.435 344.44 738.437 344.235C738.439 344.031 738.512 343.856 738.657 343.711C738.802 343.567 738.978 343.494 739.184 343.494C739.391 343.494 739.566 343.567 739.711 343.711L756.288 360.288C756.426 360.427 756.5 360.598 756.508 360.803C756.517 361.007 756.443 361.187 756.288 361.342C756.143 361.487 755.968 361.559 755.761 361.559C755.555 361.559 755.379 361.487 755.234 361.342L751.715 357.854C751.125 358.082 750.519 358.247 749.897 358.348C749.274 358.449 748.642 358.5 748 358.5ZM741.953 348.092C741.368 348.545 740.841 349.057 740.374 349.628C739.906 350.199 739.515 350.823 739.2 351.5C740.033 353.183 741.237 354.521 742.812 355.512C744.387 356.504 746.116 357 748 357C748.429 357 748.852 356.971 749.268 356.913C749.684 356.856 750.097 356.767 750.507 356.646L749.242 355.35C749.039 355.438 748.837 355.498 748.635 355.53C748.433 355.561 748.221 355.577 748 355.577C746.865 355.577 745.902 355.181 745.11 354.389C744.319 353.598 743.923 352.634 743.923 351.5C743.923 351.278 743.94 351.066 743.975 350.864C744.009 350.662 744.068 350.46 744.15 350.258L741.953 348.092Z" fill="#9FA6B2"/>
<path d="M447.012 392.531V402.973H446.086V392.531H447.012ZM439.031 400.453V393.422H439.945V396.176H443.051V393.422H443.953V400.453H439.031ZM439.945 399.68H443.051V396.914H439.945V399.68ZM454.23 393.117V397.359H449.344V393.117H454.23ZM450.246 396.633H453.328V393.867H450.246V396.633ZM450.621 399.164V398.426H457.383V400.91H451.547V402.082H457.758V402.832H450.633V400.23H456.48V399.164H450.621ZM456.48 397.91V392.531H457.383V397.91H456.48ZM467.801 392.543V400.254H466.875V396.246H464.414V398.473H459.691V393.234H460.605V395.086H463.512V393.234H464.414V395.473H466.875V392.543H467.801ZM460.605 397.711H463.512V395.812H460.605V397.711ZM461.062 402.727V399.492H461.988V401.953H468.035V402.727H461.062ZM478.535 394.078V394.84H470.004V394.078H473.824V392.707H474.727V394.078H478.535ZM469.535 401.73V400.969H473.824V399.504C471.967 399.404 470.848 398.684 470.859 397.512C470.848 396.275 472.154 395.543 474.281 395.555C476.379 395.543 477.709 396.275 477.703 397.512C477.709 398.684 476.566 399.404 474.727 399.504V400.969H479.074V401.73H469.535ZM471.785 397.512C471.773 398.303 472.729 398.76 474.281 398.766C475.816 398.76 476.771 398.303 476.766 397.512C476.771 396.738 475.816 396.281 474.281 396.281C472.729 396.281 471.773 396.738 471.785 397.512ZM487.969 392.531V396.773H489.656V397.547H487.969V402.949H487.055V392.531H487.969ZM479.977 400.242C482.666 398.906 484.131 396.896 484.342 394.43H480.457V393.656H485.273C485.268 396.604 483.885 399.293 480.492 400.969L479.977 400.242ZM496.242 392.918C497.801 392.924 498.932 393.873 498.938 395.227C498.932 396.586 497.801 397.523 496.242 397.523C494.666 397.523 493.529 396.586 493.535 395.227C493.529 393.873 494.666 392.924 496.242 392.918ZM494.438 395.227C494.426 396.141 495.193 396.773 496.242 396.773C497.273 396.773 498.047 396.141 498.047 395.227C498.047 394.324 497.273 393.686 496.242 393.691C495.193 393.686 494.426 394.324 494.438 395.227ZM495.117 399.129V398.391H501.891V400.898H496.043V402.07H502.266V402.809H495.141V400.207H500.977V399.129H495.117ZM500.977 397.887V392.531H501.891V397.887H500.977ZM512.25 392.531V402.949H511.324V392.531H512.25ZM503.871 400.219C505.418 399.516 506.602 397.758 506.602 395.93V395.098H504.152V394.348H506.59V392.73H507.504V394.348H509.93V395.098H507.504V395.93C507.504 397.676 508.723 399.363 510.293 400.031L509.777 400.746C508.57 400.213 507.557 399.088 507.07 397.711C506.602 399.164 505.594 400.365 504.387 400.934L503.871 400.219ZM522.094 392.531V396.832H523.84V397.594H522.094V402.949H521.18V392.531H522.094ZM513.973 394.969V394.207H516.656V392.66H517.57V394.207H520.172V394.969H513.973ZM514.57 398.227C514.564 396.82 515.643 395.836 517.125 395.836C518.596 395.836 519.668 396.82 519.68 398.227C519.668 399.639 518.596 400.617 517.125 400.617C515.643 400.617 514.564 399.639 514.57 398.227ZM515.449 398.227C515.443 399.176 516.152 399.844 517.125 399.832C518.086 399.844 518.789 399.176 518.801 398.227C518.789 397.283 518.086 396.604 517.125 396.609C516.152 396.604 515.443 397.283 515.449 398.227ZM528.129 395.73C528.135 397.5 529.418 399.299 530.953 399.961L530.438 400.688C529.219 400.137 528.17 398.936 527.684 397.494C527.197 399.023 526.143 400.348 524.953 400.945L524.402 400.219C525.896 399.504 527.197 397.535 527.203 395.73V394.371H524.742V393.609H530.613V394.371H528.129V395.73ZM532.066 402.949V392.531H532.992V402.949H532.066ZM540.691 393.129C542.25 393.135 543.398 394.125 543.398 395.531C543.398 396.955 542.25 397.939 540.691 397.945C539.139 397.939 537.979 396.955 537.984 395.531C537.979 394.125 539.139 393.135 540.691 393.129ZM538.887 395.531C538.881 396.486 539.666 397.184 540.691 397.184C541.723 397.184 542.502 396.486 542.496 395.531C542.502 394.594 541.723 393.902 540.691 393.902C539.666 393.902 538.881 394.594 538.887 395.531ZM538.898 402.668V398.871H539.789V401.912C540.393 401.889 541.195 401.801 541.934 401.555L542.074 402.293C541.061 402.627 540.07 402.674 539.391 402.668H538.898ZM541.711 399.633V398.918H543.902V397.992H544.805V398.918H546.973V399.633H541.711ZM542.402 401.461C542.396 400.559 543.188 399.984 544.336 399.984C545.479 399.984 546.281 400.559 546.293 401.461C546.281 402.363 545.479 402.926 544.336 402.926C543.188 402.926 542.396 402.363 542.402 401.461ZM543.223 401.461C543.223 401.953 543.686 402.264 544.336 402.27C544.986 402.264 545.449 401.953 545.449 401.461C545.449 400.98 544.986 400.658 544.336 400.652C543.686 400.658 543.223 400.98 543.223 401.461ZM545.016 397.746V392.531H545.93V394.887H547.5V395.648H545.93V397.746H545.016ZM550.277 398.789V400.008H555.48V398.789H556.406V402.809H549.363V398.789H550.277ZM548.156 398.051V397.289H557.648V398.051H548.156ZM548.695 395.812C550.553 395.561 552.434 394.465 552.434 393.141V392.648H553.383V393.141C553.377 394.424 555.275 395.578 557.109 395.812L556.77 396.551C555.158 396.311 553.57 395.49 552.908 394.324C552.246 395.496 550.652 396.311 549.047 396.551L548.695 395.812ZM550.277 402.07H555.48V400.734H550.277V402.07ZM567.117 392.531V402.949H566.203V392.531H567.117ZM559.207 400.266V393.562H560.109V399.469C561.703 399.457 563.344 399.334 565.09 398.965L565.219 399.75C563.367 400.137 561.721 400.266 560.051 400.266H559.207ZM576.961 392.531V396.656H578.707V397.43H576.961V402.973H576.047V392.531H576.961ZM569.355 400.359V393.551H574.219V394.312H570.27V399.586C572.156 399.58 573.486 399.498 575.039 399.211L575.156 400.008C573.521 400.301 572.156 400.359 570.176 400.359H569.355ZM580.371 402.07C579.961 402.064 579.609 401.725 579.621 401.309C579.609 400.898 579.961 400.559 580.371 400.559C580.787 400.559 581.127 400.898 581.121 401.309C581.127 401.725 580.787 402.064 580.371 402.07Z" fill="#FF472E"/>
</svg>
