<svg width="2054" height="355" viewBox="0 0 2054 355" fill="none" xmlns="http://www.w3.org/2000/svg">
<path d="M11.1025 177.5V343.906H49.962H88.8215V288.438V232.969H144.335H199.848V194.141V155.312H144.335C89.9317 155.312 88.8215 154.203 88.8215 122.031C88.8215 89.8594 88.8215 89.8594 164.32 86.5312L238.708 83.2031V49.9219V16.6406L125.46 13.3125L11.1025 9.98438V177.5Z" fill="#5F5F5F"/>
<path d="M358.617 29.9531C355.286 41.0469 327.53 112.047 297.552 188.594C268.685 265.141 244.259 330.594 244.259 335.031C244.259 340.578 262.024 343.906 283.119 343.906C315.317 343.906 324.199 338.359 333.081 316.172C343.073 291.766 349.735 288.438 405.248 288.438C460.762 288.438 466.313 290.656 472.975 316.172C478.526 339.469 486.298 343.906 522.937 343.906H565.127L539.591 274.016C447.439 32.1719 439.667 16.6406 401.918 13.3125C375.271 11.0938 364.168 14.4219 358.617 29.9531ZM431.895 207.453C433.005 216.328 419.682 221.875 400.807 221.875H367.499L385.264 169.734L403.028 117.594L417.461 155.312C425.233 176.391 431.895 200.797 431.895 207.453Z" fill="#5F5F5F"/>
<path d="M610.648 177.5V343.906H649.508H688.367V248.5C688.367 195.25 692.808 156.422 698.36 159.75C703.911 163.078 731.668 206.344 760.535 255.156C811.607 341.688 813.828 343.906 856.018 343.906H900.429L897.098 179.719L893.767 16.6406L858.239 13.3125L821.6 9.98438V98.7344C821.6 148.656 818.269 188.594 812.718 188.594C808.277 188.594 780.52 148.656 750.542 99.8438C698.36 13.3125 695.029 11.0938 653.949 11.0938H610.648V177.5Z" fill="#5F5F5F"/>
<path d="M1013.68 23.2968C1000.35 29.9531 983.699 49.9218 975.927 67.6718C954.832 120.922 979.258 160.859 1055.87 197.469C1096.95 216.328 1121.37 234.078 1121.37 246.281C1121.37 276.234 1080.29 281.781 1039.21 257.375C1003.68 236.297 1002.57 236.297 978.148 256.266C955.943 274.016 954.832 280.672 967.045 295.094C1028.11 368.312 1185.77 352.781 1205.75 270.687C1219.08 216.328 1199.09 185.266 1124.7 149.766C1056.98 117.594 1038.1 94.2968 1071.41 82.0937C1080.29 78.7656 1102.5 83.2031 1120.26 92.0781C1151.35 107.609 1154.68 106.5 1175.78 84.3124L1199.09 58.7968L1176.89 38.8281C1150.24 14.4218 1050.32 5.54681 1013.68 23.2968Z" fill="#5F5F5F"/>
<path d="M1265.71 177.5V345.016L1307.9 341.687L1348.98 338.359V177.5V16.6406L1307.9 13.3125L1265.71 9.98434V177.5Z" fill="#5F5F5F"/>
<path d="M1495.53 35.5C1450.01 62.125 1410.04 130.906 1410.04 184.156C1410.04 229.641 1444.46 289.547 1487.76 318.391C1527.73 346.125 1607.67 352.781 1658.74 332.813C1685.39 322.828 1687.61 316.172 1687.61 260.703V199.688H1648.75C1613.22 199.688 1609.89 201.906 1609.89 232.969C1609.89 262.922 1606.56 266.25 1576.58 266.25C1529.95 266.25 1498.86 231.859 1498.86 179.719C1498.86 109.828 1562.15 68.7812 1620.99 99.8438C1636.54 108.719 1644.31 105.391 1658.74 83.2031C1683.17 45.4844 1680.95 36.6094 1642.09 23.2969C1588.8 4.4375 1542.17 8.875 1495.53 35.5Z" fill="#5F5F5F"/>
<path d="M1762 18.8594C1757.56 22.1875 1754.23 97.625 1754.23 185.266V345.016L1796.42 341.688L1837.5 338.359L1843.05 246.281L1848.6 153.094L1904.11 248.5C1958.52 340.578 1960.74 343.906 2001.82 343.906H2042.9V177.5V11.0938H2004.04H1965.18V102.062C1964.07 190.812 1964.07 193.031 1945.19 170.844C1935.2 157.531 1907.44 116.484 1884.13 78.7656C1847.49 17.75 1839.72 11.0938 1806.41 11.0938C1785.31 11.0938 1765.33 14.4219 1762 18.8594Z" fill="#5F5F5F"/>
</svg>
